<svg width="48" height="48" viewBox="0 0 48 48" fill="none" xmlns="http://www.w3.org/2000/svg">
<path d="M21.1708 34.5644C21.5394 34.5606 21.9051 34.6296 22.247 34.7674C22.5888 34.9052 22.9001 35.1091 23.1631 35.3674C23.426 35.6257 23.6353 35.9334 23.7791 36.2728C23.9229 36.6121 23.9983 36.9766 24.001 37.3451C24.0108 36.6021 24.3145 35.8933 24.8457 35.3737C25.3769 34.8541 26.0923 34.566 26.8353 34.5726H44.3889V9.63672H47.3756V37.3451H26.8353C26.8074 38.0776 26.4967 38.7708 25.9686 39.2791C25.4406 39.7874 24.7361 40.0714 24.0031 40.0714C23.2701 40.0714 22.5656 39.7874 22.0375 39.2791C21.5094 38.7708 21.1988 38.0776 21.1708 37.3451H0.618164V9.63672H3.61723V34.5644H21.1708Z" fill="#72BA5F"/>
<path d="M24.0008 40.7283C23.1989 40.7347 22.4199 40.4607 21.7986 39.9537C21.1773 39.4467 20.7526 38.7386 20.598 37.9517H0.61794C0.45547 37.9517 0.29953 37.8877 0.183878 37.7736C0.0682255 37.6595 0.00216627 37.5044 0 37.342L0 9.63356C-4.29098e-09 9.55242 0.0159835 9.47206 0.0470379 9.39709C0.0780922 9.32212 0.123609 9.254 0.18099 9.19662C0.238371 9.13923 0.306493 9.09372 0.381464 9.06266C0.456436 9.03161 0.536791 9.01562 0.61794 9.01562H3.61701V10.2515H1.23588V36.7158H21.1706C21.3345 36.7158 21.4917 36.7809 21.6076 36.8968C21.7235 37.0127 21.7886 37.1699 21.7886 37.3337C21.8132 37.9045 22.0572 38.4437 22.4698 38.8388C22.8824 39.234 23.4316 39.4546 24.0028 39.4546C24.5741 39.4546 25.1233 39.234 25.5359 38.8388C25.9485 38.4437 26.1925 37.9045 26.2171 37.3337C26.2171 37.1699 26.2822 37.0127 26.3981 36.8968C26.514 36.7809 26.6712 36.7158 26.8351 36.7158H46.7739V10.2515H44.3887V9.01562H47.3754C47.4565 9.01563 47.5369 9.03161 47.6119 9.06266C47.6868 9.09372 47.755 9.13923 47.8123 9.19662C47.8697 9.254 47.9152 9.32212 47.9463 9.39709C47.9773 9.47206 47.9933 9.55242 47.9933 9.63356V37.342C47.9933 37.5059 47.9282 37.6631 47.8123 37.7789C47.6965 37.8948 47.5393 37.9599 47.3754 37.9599H27.3953C27.2386 38.7435 26.8142 39.4483 26.1949 39.9533C25.5756 40.4584 24.7999 40.7324 24.0008 40.7283Z" fill="#031F28"/>
<path d="M24.6187 37.3426H23.3828C23.3741 36.7639 23.1364 36.2122 22.7218 35.8083C22.3071 35.4045 21.7493 35.1814 21.1706 35.1881H3.61696C3.53581 35.1881 3.45546 35.1721 3.38049 35.141C3.30552 35.11 3.23739 35.0644 3.18001 35.0071C3.12263 34.9497 3.07712 34.8816 3.04606 34.8066C3.01501 34.7316 2.99902 34.6513 2.99902 34.5701V7.88747C2.99902 7.80632 3.01501 7.72597 3.04606 7.651C3.07712 7.57602 3.12263 7.5079 3.18001 7.45052C3.23739 7.39314 3.30552 7.34762 3.38049 7.31657C3.45546 7.28551 3.53581 7.26953 3.61696 7.26953H24.0007V8.50541H4.22666V33.9439H21.1706C21.6201 33.9407 22.066 34.026 22.4825 34.195C22.8991 34.3641 23.2784 34.6135 23.5985 34.9291C23.9187 35.2447 24.1736 35.6203 24.3487 36.0344C24.5237 36.4485 24.6154 36.893 24.6187 37.3426Z" fill="#031F28"/>
<path d="M24.0009 37.9523C23.9197 37.9523 23.8394 37.9363 23.7644 37.9053C23.6894 37.8742 23.6213 37.8287 23.5639 37.7713C23.5065 37.7139 23.461 37.6458 23.43 37.5708C23.3989 37.4959 23.3829 37.4155 23.3829 37.3344V7.88747C23.3829 7.80632 23.3989 7.72597 23.43 7.651C23.461 7.57602 23.5065 7.5079 23.5639 7.45052C23.6213 7.39314 23.6894 7.34762 23.7644 7.31657C23.8394 7.28551 23.9197 7.26953 24.0009 7.26953H44.3888C44.5526 7.26953 44.7098 7.33464 44.8257 7.45052C44.9416 7.56641 45.0067 7.72358 45.0067 7.88747V34.5619C45.0067 34.7258 44.9416 34.8829 44.8257 34.9988C44.7098 35.1147 44.5526 35.1798 44.3888 35.1798H26.8351C26.5475 35.176 26.262 35.229 25.9949 35.3356C25.7277 35.4423 25.4843 35.6006 25.2784 35.8015C25.0725 36.0024 24.9083 36.2419 24.7951 36.5064C24.6819 36.7708 24.622 37.055 24.6188 37.3426C24.6166 37.5051 24.5506 37.6601 24.4349 37.7742C24.3193 37.8884 24.1633 37.9523 24.0009 37.9523ZM24.6188 8.50541V34.7349C25.243 34.2213 26.0268 33.9416 26.8351 33.9439H43.7708V8.50541H24.6188ZM9.92419 10.9566H17.5619V12.1925H9.92419V10.9566ZM7.03223 17.4491H20.458V18.6849H7.03223V17.4491ZM7.03223 21.3091H20.458V22.545H7.03223V21.3091ZM7.03223 25.1692H20.458V26.4051H7.03223V25.1692ZM7.03223 29.0293H20.458V30.2651H7.03223V29.0293Z" fill="#031F28"/>
<path d="M27.4814 17.4506H40.9113V18.6865H27.4814V17.4506ZM27.4814 13.4258H40.9113V14.6617H27.4814V13.4258ZM27.4814 21.3107H40.9113V22.5466H27.4814V21.3107ZM27.4814 25.1708H40.9113V26.4066H27.4814V25.1708ZM27.4814 29.0308H40.9113V30.2667H27.4814V29.0308Z" fill="#031F28"/>
</svg>
