<svg width="93" height="173" viewBox="0 0 93 173" fill="none" xmlns="http://www.w3.org/2000/svg">
<path d="M16.0455 68.7605C18.1865 68.0211 21.9476 67.4865 26.0314 65.8941C26.3455 65.7349 26.9738 65.3209 26.9738 64.9387C26.9738 64.461 29.3298 61.5946 31.6858 61.1169C33.5706 60.7347 38.4397 90.8951 40.6386 106.023L2 106.501C2 103.634 6.15027 79.7481 6.62148 77.3595C7.28116 74.0154 11.8953 70.1936 16.0455 68.7605Z" fill="#CEEEBA"/>
<path d="M77.9545 68.7605C75.8135 68.0211 72.0524 67.4865 67.9686 65.8941C67.6545 65.7349 67.0262 65.3209 67.0262 64.9387C67.0262 64.461 64.6702 61.5946 62.3142 61.1169C60.4294 60.7347 55.5603 90.8951 53.3614 106.023L92 106.501C92 103.634 87.8497 79.7481 87.3785 77.3595C86.7188 74.0154 82.1047 70.1936 77.9545 68.7605Z" fill="#CEEEBA"/>
<path d="M38.283 59.2055V52.9951C37.3406 52.1989 35.3615 50.5109 34.9845 50.1287C34.5133 49.651 31.2149 44.8738 31.2149 43.9183C31.2149 43.154 30.2725 39.778 29.8013 38.1856C29.3301 38.5041 28.105 39.0455 26.9741 38.6633C25.5605 38.1856 24.1469 35.797 23.6757 34.3638C23.2987 33.2173 23.5186 30.7013 23.6757 29.5866C23.8327 29.1089 24.3353 28.1534 25.0892 28.1534C25.8432 28.1534 27.6023 26.2425 28.3877 25.2871L31.2149 20.5098L56.1886 12.8662L63.2567 30.0643L64.6703 28.6311C65.2986 28.4719 66.6493 28.3445 67.0263 29.1089C67.4975 30.0643 67.9687 33.8861 66.5551 36.7524C65.4242 39.0455 62.9426 38.6633 61.8431 38.1856C61.8431 40.5742 61.0892 46.0203 58.0735 48.6956L55.2462 52.0396V59.6832L56.1886 62.5496L50.5342 65.8937L45.8222 66.3714L42.0526 65.4159L38.283 63.505L37.3406 62.5496C38.0945 62.1674 38.283 60.161 38.283 59.2055Z" fill="#F7D9C4"/>
<path d="M27.9161 8.09077C23.0156 13.4413 23.9895 24.4914 26.0313 28.154C26.3454 28.9498 26.9738 29.5871 27.9161 30.0649C28.8586 30.5426 29.801 30.0649 29.801 29.1094L31.2146 22.899C31.6858 21.4658 32.9109 21.4658 34.0418 21.4658C35.4554 21.4658 48.1779 21.4658 54.3035 17.1663C54.9842 16.6886 55.9056 15.6376 56.6596 17.1663C57.602 19.0772 60.9635 23.6325 61.8428 27.1985C62.6674 30.5426 62.314 31.0203 62.7852 31.0203C63.7276 31.0203 65.6124 29.3823 66.0836 27.1985C69.382 11.9113 65.6124 9.5227 65.1412 9.04492C64.1988 8.08952 62.314 7.13423 60.4292 7.61169C60.4292 7.61169 60.0134 7.6961 59.958 7.6118C59.0156 6.17862 56.6595 4.26789 52.8899 2.35692C44.7068 -1.79144 34.0417 1.40262 27.9161 8.09077Z" fill="#4D4D4D" stroke="#4D4D4D"/>
<path d="M41.5812 24.8103C40.3247 24.651 37.2461 24.5236 34.9844 25.288" stroke="#4D4D4D" stroke-width="2" stroke-linecap="round"/>
<path d="M52.8899 106.023H40.6387L41.5811 94.558L42.5235 85.959L43.9371 78.3154V76.8822L42.0523 74.9713L41.1099 72.105L40.6387 68.7609C40.6387 68.2832 40.7329 67.2322 41.1099 66.85C41.4868 66.4678 42.8376 66.0538 43.4659 65.8945L45.8219 66.3723L48.1779 65.8945H51.0051L52.4187 66.85L52.8899 69.2386L51.9475 72.105L50.0627 76.4045L49.5915 76.8822L51.0051 88.3476L52.4187 97.9021L52.8899 106.023Z" fill="#4DB10E"/>
<path d="M49.5916 24.4538C50.8482 24.2946 53.9267 24.1672 56.1885 24.9315" stroke="#4D4D4D" stroke-width="2" stroke-linecap="round"/>
<ellipse cx="38.7539" cy="31.0203" rx="1.41361" ry="1.9109" fill="#4D4D4D"/>
<ellipse cx="52.8902" cy="31.0203" rx="1.41361" ry="1.9109" fill="#4D4D4D"/>
<path d="M55.2461 61.595L56.1885 63.0282L53.3613 64.4614L51.0053 65.4168C52.1362 65.799 52.733 67.487 52.8901 68.2832L51.0053 74.9713L49.5917 77.36L52.4189 98.3798L52.8901 104.59L59.487 84.0481L61.3718 71.3748L62.7854 69.2386L63.7278 67.3277L61.3718 61.595C60.9006 60.7988 59.6754 59.1109 58.5446 58.7287C57.4137 58.3465 55.8744 58.251 55.2461 58.251V61.595Z" fill="#FFFCE4"/>
<path d="M38.2827 61.595L37.3403 63.0282L40.1675 64.4614L42.5235 65.4168C41.3926 65.799 40.7958 67.487 40.6387 68.2832L42.5235 74.9713L43.9371 77.36L41.1099 98.3798L40.6387 104.59L34.0419 84.0481L32.157 71.3748L30.7434 69.2386L29.801 67.3277L32.157 61.595C32.6282 60.7988 33.8534 59.1109 34.9843 58.7287C36.1151 58.3465 37.6544 58.251 38.2827 58.251V61.595Z" fill="#FFFCE4"/>
<path d="M43.937 38.6641C43.937 39.6195 44.5967 41.3393 47.2354 40.575" stroke="#4D4D4D" stroke-linecap="round"/>
<path d="M40.6387 44.3965C41.8952 45.0335 45.7277 45.9252 51.0051 44.3965" stroke="#4D4D4D" stroke-linecap="round"/>
<path d="M38.2827 52.9961V59.2065C38.2827 60.162 38.0943 62.1684 37.3403 62.5506" stroke="#4D4D4D" stroke-linecap="round"/>
<path d="M55.2461 52.04V59.2059C55.2461 60.1614 55.4346 62.1678 56.1885 62.55" stroke="#4D4D4D" stroke-linecap="round"/>
<path d="M55.7171 58.251C56.8166 58.4102 59.2982 59.1109 60.4291 60.6396C61.56 62.1683 62.7851 65.4168 63.2563 66.85C63.4134 67.1685 63.5391 67.9966 62.7851 68.7609C62.0312 69.5253 59.9579 72.5827 57.6019 75.4491C57.1307 75.9268 56.6595 76.4045 55.7171 74.9713C54.8807 73.6994 52.8898 67.8055 51.9474 66.85C51.4762 66.2131 51.4762 65.8946 50.0626 65.8946C48.9631 65.8946 46.5757 66.3723 45.8218 66.3723" stroke="#4D4D4D" stroke-linecap="round"/>
<path d="M42.5236 65.4157C40.4817 64.938 36.2095 62.6449 35.4556 61.1162" stroke="#4D4D4D" stroke-linecap="round"/>
<path d="M50.534 65.4157C52.5759 64.938 56.8481 62.6449 57.6021 61.1162" stroke="#4D4D4D" stroke-linecap="round"/>
<path d="M26.0314 65.8945C21.9476 67.4869 18.1865 68.0216 16.0455 68.7609C11.8953 70.1941 7.28116 74.0159 6.62148 77.3599C6.15027 79.7485 2 103.635 2 106.501" stroke="#4D4D4D" stroke-linecap="round"/>
<path d="M67.4972 65.8945C71.581 67.4869 75.342 68.0216 77.483 68.7609C81.6333 70.1941 86.2474 74.0159 86.9071 77.3599C87.3783 79.7485 91.5286 103.635 91.5286 106.501" stroke="#4D4D4D" stroke-linecap="round"/>
<path d="M61.843 70.6719C60.4294 80.2264 59.0158 90.2586 52.8902 105.546" stroke="#4D4D4D" stroke-linecap="round"/>
<path d="M32.6283 105.545C32.6283 105.545 21.3194 88.3465 20.8482 86.9133C20.5321 85.952 22.9721 83.7011 24.6131 82.3231C25.2176 81.8154 25.0676 80.8073 24.3487 80.4811C22.8352 79.7944 20.8482 78.7239 20.8482 77.8366C20.8482 76.4034 26.5026 65.8935 26.5026 65.8935C26.8168 64.6195 28.3875 61.5939 32.1571 61.1162" stroke="#4D4D4D" stroke-linecap="round"/>
<path d="M60.9005 105.545C60.9005 105.545 72.2094 88.3465 72.6806 86.9133C72.9967 85.952 70.5567 83.7011 68.9157 82.3231C68.3112 81.8154 68.4612 80.8073 69.1801 80.4811C70.6936 79.7944 72.6806 78.7239 72.6806 77.8366C72.6806 76.4034 67.0262 65.8935 67.0262 65.8935C66.712 64.6195 65.1414 61.5939 61.3717 61.1162" stroke="#4D4D4D" stroke-linecap="round"/>
<path d="M52.8901 105.545C52.4189 98.3793 50.7226 82.3277 49.5917 77.3594" stroke="#4D4D4D" stroke-linecap="round"/>
<path d="M14.7227 106.024C14.9321 103.2 15.6494 97.0487 15.9007 93.125" stroke="#4D4D4D" stroke-linecap="round"/>
<path d="M78.8062 106.024C78.5967 103.2 78.3507 97.0487 78.0993 93.125" stroke="#4D4D4D" stroke-linecap="round"/>
<path d="M29.3298 34.8418C29.4869 37.2304 30.4607 42.0077 31.2146 43.9186C32.1571 46.3072 35.4555 53.7119 44.8795 54.9062C52.4188 55.8617 59.3757 49.6242 60.9004 43.4408C61.8428 39.619 61.6858 38.1859 61.8428 36.275" stroke="#4D4D4D" stroke-linecap="round"/>
<path d="M63.2564 29.1102C64.513 28.314 67.1203 27.3904 67.4973 30.0657C67.9685 33.4098 66.7577 37.0942 65.1412 38.1868C63.7276 39.1422 62.157 38.5053 61.8428 38.1868" stroke="#4D4D4D" stroke-linecap="round"/>
<path d="M27.9162 29.1102C26.6596 28.314 24.0523 27.3904 23.6753 30.0657C23.2041 33.4098 24.4149 37.0942 26.0314 38.1868C27.445 39.1422 29.0157 38.5053 29.3298 38.1868" stroke="#4D4D4D" stroke-linecap="round"/>
<path d="M31.6858 70.6719C33.0994 80.2264 34.513 90.2586 40.6386 105.546" stroke="#4D4D4D" stroke-linecap="round"/>
<path d="M37.8115 58.251C36.712 58.4102 34.0419 58.7287 32.6283 60.6396C31.4974 62.1683 30.2722 65.4168 29.801 66.85C29.644 67.1685 29.5183 67.9966 30.2722 68.7609C31.0262 69.5253 33.0995 72.5827 35.4555 75.4491C35.9267 75.9268 36.3979 76.4045 37.3403 74.9713C38.1767 73.6994 40.1675 67.8055 41.1099 66.85C41.5811 66.2131 42.9947 65.4168 45.822 66.3723" stroke="#4D4D4D" stroke-linecap="round"/>
<path d="M40.6387 105.545C41.1099 98.3793 42.8062 82.3277 43.9371 77.3594" stroke="#4D4D4D" stroke-linecap="round"/>
<path d="M40.6387 67.8047C40.6387 71.6265 42.4292 76.4993 43.9371 76.8815C45.8219 77.3592 49.8676 77.2772 50.5339 75.926C51.0051 74.9706 51.4763 73.2189 51.9475 71.6265C52.3175 70.3764 52.8899 69.7156 52.4187 67.8047" stroke="#4D4D4D" stroke-linecap="round"/>
<path d="M25.5191 121.921H31.2991V123.841H25.5191V121.921ZM25.5191 124.581H31.2991V126.561H25.5191V124.581ZM27.1991 114.401H29.8191V120.261H27.1991V114.401ZM25.0391 114.861L27.4591 115.501C27.2057 116.168 26.8791 116.841 26.4791 117.521C26.0791 118.201 25.6791 118.768 25.2791 119.221C25.1191 119.088 24.9124 118.941 24.6591 118.781C24.4057 118.608 24.1457 118.441 23.8791 118.281C23.6257 118.121 23.3991 117.988 23.1991 117.881C23.5857 117.494 23.9391 117.028 24.2591 116.481C24.5924 115.934 24.8524 115.394 25.0391 114.861ZM24.4191 119.021H31.3391V121.201H27.0191V129.721H24.4191V119.021ZM30.1591 119.021H32.8791V127.141C32.8791 127.714 32.8124 128.174 32.6791 128.521C32.5591 128.854 32.3124 129.121 31.9391 129.321C31.5791 129.508 31.1591 129.621 30.6791 129.661C30.2124 129.701 29.6724 129.721 29.0591 129.721C29.0191 129.374 28.9257 128.981 28.7791 128.541C28.6457 128.088 28.4991 127.694 28.3391 127.361C28.6191 127.374 28.9124 127.388 29.2191 127.401C29.5391 127.401 29.7524 127.394 29.8591 127.381C29.9657 127.381 30.0391 127.361 30.0791 127.321C30.1324 127.281 30.1591 127.208 30.1591 127.101V119.021ZM29.7191 115.661L31.8791 114.761C32.1457 115.081 32.3991 115.441 32.6391 115.841C32.8791 116.228 33.0857 116.614 33.2591 117.001C33.4457 117.388 33.5857 117.741 33.6791 118.061L31.3791 119.101C31.3124 118.781 31.1924 118.421 31.0191 118.021C30.8457 117.621 30.6457 117.214 30.4191 116.801C30.2057 116.388 29.9724 116.008 29.7191 115.661ZM15.5191 116.241H23.5391V118.741H15.5191V116.241ZM14.9391 120.221H23.9591V122.761H14.9391V120.221ZM19.9991 124.561H23.6191V127.061H19.9991V124.561ZM18.2791 114.481H20.9391V121.601H18.2791V114.481ZM18.6991 121.721H21.3191V130.641H18.6991V121.721ZM17.6991 125.681C18.0324 126.721 18.4391 127.554 18.9191 128.181C19.4124 128.794 19.9791 129.254 20.6191 129.561C21.2724 129.854 22.0057 130.054 22.8191 130.161C23.6457 130.254 24.5591 130.301 25.5591 130.301C25.8924 130.301 26.3257 130.301 26.8591 130.301C27.3924 130.301 27.9791 130.301 28.6191 130.301C29.2591 130.288 29.9057 130.281 30.5591 130.281C31.2124 130.268 31.8191 130.254 32.3791 130.241C32.9524 130.228 33.4324 130.214 33.8191 130.201C33.6724 130.401 33.5257 130.668 33.3791 131.001C33.2457 131.334 33.1191 131.674 32.9991 132.021C32.8924 132.381 32.8124 132.708 32.7591 133.001H31.4391H25.5391C24.2724 133.001 23.1257 132.914 22.0991 132.741C21.0857 132.581 20.1791 132.268 19.3791 131.801C18.5924 131.348 17.9057 130.674 17.3191 129.781C16.7324 128.888 16.2391 127.714 15.8391 126.261L17.6991 125.681ZM15.5591 123.681L17.9991 123.821C17.9857 125.114 17.9257 126.361 17.8191 127.561C17.7257 128.748 17.5591 129.848 17.3191 130.861C17.0924 131.861 16.7591 132.741 16.3191 133.501C16.1857 133.368 15.9924 133.201 15.7391 133.001C15.4991 132.801 15.2457 132.601 14.9791 132.401C14.7257 132.214 14.5057 132.068 14.3191 131.961C14.6924 131.334 14.9657 130.588 15.1391 129.721C15.3124 128.841 15.4257 127.888 15.4791 126.861C15.5324 125.834 15.5591 124.774 15.5591 123.681ZM51.7209 119.041L54.8409 119.941C54.0009 122.314 52.9076 124.381 51.5609 126.141C50.2276 127.888 48.6409 129.368 46.8009 130.581C44.9609 131.781 42.8543 132.748 40.4809 133.481C40.3743 133.228 40.2076 132.921 39.9809 132.561C39.7676 132.214 39.5409 131.861 39.3009 131.501C39.0609 131.154 38.8409 130.868 38.6409 130.641C40.9076 130.068 42.8943 129.281 44.6009 128.281C46.3209 127.268 47.7676 126.001 48.9409 124.481C50.1276 122.961 51.0543 121.148 51.7209 119.041ZM44.7609 119.221C45.4143 121.114 46.3209 122.814 47.4809 124.321C48.6543 125.828 50.1076 127.108 51.8409 128.161C53.5876 129.201 55.6343 129.981 57.9809 130.501C57.7543 130.728 57.5009 131.021 57.2209 131.381C56.9543 131.728 56.7009 132.081 56.4609 132.441C56.2209 132.814 56.0276 133.141 55.8809 133.421C53.3743 132.768 51.2276 131.834 49.4409 130.621C47.6676 129.408 46.1676 127.928 44.9409 126.181C43.7276 124.421 42.6943 122.394 41.8409 120.101L44.7609 119.221ZM39.0809 117.441H57.5409V120.281H39.0809V117.441ZM46.7609 114.401H49.7609V119.181H46.7609V114.401ZM59.8209 116.161H75.9409V118.261H59.8209V116.161ZM60.8609 118.701H74.9209V120.661H60.8609V118.701ZM58.8609 121.101H76.8809V123.261H58.8609V121.101ZM58.8209 125.901H77.0209V128.001H58.8209V125.901ZM66.3209 117.421H69.3209V122.201H66.3209V117.421ZM70.5809 114.361L73.8209 114.941C73.5276 115.341 73.2476 115.708 72.9809 116.041C72.7276 116.361 72.5009 116.634 72.3009 116.861L69.7809 116.261C69.9276 115.968 70.0743 115.648 70.2209 115.301C70.3809 114.954 70.5009 114.641 70.5809 114.361ZM58.7609 128.681C59.5476 128.654 60.4409 128.628 61.4409 128.601C62.4543 128.561 63.5276 128.521 64.6609 128.481C65.7943 128.428 66.9276 128.374 68.0609 128.321L68.0409 130.241C66.9743 130.321 65.9009 130.401 64.8209 130.481C63.7409 130.548 62.7009 130.614 61.7009 130.681C60.7143 130.734 59.8076 130.788 58.9809 130.841L58.7609 128.681ZM62.6209 123.921H65.4209V130.981C65.4209 131.594 65.3409 132.054 65.1809 132.361C65.0209 132.668 64.7276 132.901 64.3009 133.061C63.8743 133.221 63.3809 133.314 62.8209 133.341C62.2609 133.381 61.6076 133.401 60.8609 133.401C60.7943 133.054 60.6809 132.674 60.5209 132.261C60.3743 131.861 60.2209 131.508 60.0609 131.201C60.3143 131.214 60.5876 131.228 60.8809 131.241C61.1876 131.254 61.4609 131.261 61.7009 131.261C61.9543 131.248 62.1276 131.241 62.2209 131.241C62.3676 131.241 62.4676 131.221 62.5209 131.181C62.5876 131.128 62.6209 131.034 62.6209 130.901V123.921ZM66.2609 123.061L67.8809 124.701C67.1209 124.888 66.2809 125.041 65.3609 125.161C64.4409 125.281 63.5009 125.374 62.5409 125.441C61.5943 125.508 60.6809 125.554 59.8009 125.581C59.7609 125.341 59.6809 125.054 59.5609 124.721C59.4543 124.388 59.3409 124.108 59.2209 123.881C60.0609 123.841 60.9143 123.788 61.7809 123.721C62.6476 123.641 63.4676 123.548 64.2409 123.441C65.0276 123.321 65.7009 123.194 66.2609 123.061ZM68.0609 123.501H70.8209C70.8609 124.474 70.9943 125.401 71.2209 126.281C71.4476 127.148 71.7343 127.921 72.0809 128.601C72.4276 129.281 72.8143 129.814 73.2409 130.201C73.6809 130.574 74.1409 130.761 74.6209 130.761C74.8476 130.761 75.0009 130.674 75.0809 130.501C75.1743 130.328 75.2476 129.994 75.3009 129.501C75.5676 129.754 75.9009 129.981 76.3009 130.181C76.7009 130.368 77.0676 130.514 77.4009 130.621C77.2676 131.394 77.0809 131.974 76.8409 132.361C76.6143 132.761 76.3076 133.028 75.9209 133.161C75.5476 133.308 75.0676 133.381 74.4809 133.381C73.5476 133.381 72.7009 133.128 71.9409 132.621C71.1943 132.114 70.5409 131.414 69.9809 130.521C69.4343 129.628 68.9943 128.581 68.6609 127.381C68.3409 126.181 68.1409 124.888 68.0609 123.501ZM73.4409 127.701L75.8809 128.521C75.2676 129.321 74.5076 130.034 73.6009 130.661C72.7076 131.288 71.7276 131.821 70.6609 132.261C69.6076 132.714 68.5209 133.094 67.4009 133.401C67.3209 133.201 67.1943 132.954 67.0209 132.661C66.8609 132.381 66.6876 132.094 66.5009 131.801C66.3143 131.521 66.1476 131.294 66.0009 131.121C67.0143 130.934 68.0009 130.688 68.9609 130.381C69.9209 130.061 70.7876 129.681 71.5609 129.241C72.3476 128.788 72.9743 128.274 73.4409 127.701ZM71.1409 124.601L72.7209 122.961C73.1209 123.094 73.5409 123.261 73.9809 123.461C74.4209 123.661 74.8409 123.874 75.2409 124.101C75.6409 124.328 75.9676 124.548 76.2209 124.761L74.5409 126.541C74.3143 126.328 74.0076 126.108 73.6209 125.881C73.2343 125.641 72.8209 125.408 72.3809 125.181C71.9543 124.954 71.5409 124.761 71.1409 124.601ZM62.4409 115.201L65.0009 114.401C65.2409 114.654 65.4676 114.948 65.6809 115.281C65.8943 115.614 66.0476 115.914 66.1409 116.181L63.4609 117.141C63.3943 116.874 63.2609 116.561 63.0609 116.201C62.8743 115.828 62.6676 115.494 62.4409 115.201Z" fill="#225E12"/>
<path d="M11.56 140.666H22.03V153.641H20.095V142.481H13.405V153.671H11.56V140.666ZM12.82 145.706H20.89V147.476H12.82V145.706ZM12.82 150.866H20.905V152.681H12.82V150.866ZM24.835 142.676H38.095V144.506H24.835V142.676ZM27.91 149.471H34.885V151.301H27.91V149.471ZM30.49 139.766H32.395V153.851H30.49V139.766ZM29.95 143.336L31.6 143.861C31.17 144.941 30.65 145.971 30.04 146.951C29.43 147.931 28.745 148.821 27.985 149.621C27.235 150.411 26.425 151.086 25.555 151.646C25.455 151.496 25.325 151.331 25.165 151.151C25.005 150.961 24.845 150.776 24.685 150.596C24.535 150.406 24.385 150.256 24.235 150.146C24.855 149.806 25.45 149.391 26.02 148.901C26.59 148.411 27.12 147.866 27.61 147.266C28.11 146.666 28.555 146.036 28.945 145.376C29.345 144.706 29.68 144.026 29.95 143.336ZM32.95 143.381C33.31 144.261 33.78 145.126 34.36 145.976C34.95 146.816 35.62 147.581 36.37 148.271C37.12 148.961 37.91 149.526 38.74 149.966C38.59 150.086 38.425 150.241 38.245 150.431C38.075 150.621 37.91 150.821 37.75 151.031C37.59 151.231 37.455 151.416 37.345 151.586C36.475 151.046 35.66 150.386 34.9 149.606C34.15 148.816 33.475 147.936 32.875 146.966C32.275 145.996 31.755 144.981 31.315 143.921L32.95 143.381ZM45.175 139.751H47.005V152.126C47.005 152.566 46.945 152.896 46.825 153.116C46.705 153.336 46.5 153.511 46.21 153.641C45.92 153.751 45.56 153.821 45.13 153.851C44.71 153.881 44.18 153.896 43.54 153.896C43.5 153.686 43.42 153.441 43.3 153.161C43.18 152.891 43.06 152.661 42.94 152.471C43.19 152.481 43.44 152.491 43.69 152.501C43.94 152.501 44.165 152.501 44.365 152.501C44.575 152.501 44.72 152.501 44.8 152.501C44.94 152.491 45.035 152.461 45.085 152.411C45.145 152.361 45.175 152.266 45.175 152.126V139.751ZM39.565 140.741H52.765V142.151H39.565V140.741ZM42.82 143.906V144.611H49.435V143.906H42.82ZM41.095 142.766H51.28V145.751H41.095V142.766ZM40.735 146.426H51.535V152.291H49.705V147.641H40.735V146.426ZM39.22 148.286H53.11V149.651H39.22V148.286ZM40.615 150.341H50.695V151.646H40.615V150.341ZM54.19 148.931H67.57V150.416H54.19V148.931ZM54.235 142.211H67.525V143.681H54.235V142.211ZM54.85 144.896H66.94V146.306H54.85V144.896ZM55.585 146.966H66.25V148.271H55.585V146.966ZM59.935 145.601H61.72V153.851H59.935V145.601ZM58.63 139.736H60.31V142.916H58.63V139.736ZM61.42 139.736H63.115V142.811H61.42V139.736ZM59.605 149.591L61.03 150.236C60.56 150.756 59.99 151.241 59.32 151.691C58.66 152.131 57.95 152.516 57.19 152.846C56.43 153.186 55.665 153.461 54.895 153.671C54.815 153.521 54.705 153.351 54.565 153.161C54.435 152.981 54.295 152.801 54.145 152.621C54.005 152.441 53.87 152.291 53.74 152.171C54.49 152.011 55.235 151.806 55.975 151.556C56.725 151.306 57.415 151.011 58.045 150.671C58.675 150.331 59.195 149.971 59.605 149.591ZM62.08 149.546C62.39 149.846 62.76 150.131 63.19 150.401C63.62 150.661 64.09 150.901 64.6 151.121C65.12 151.331 65.665 151.516 66.235 151.676C66.815 151.836 67.4 151.961 67.99 152.051C67.85 152.191 67.7 152.351 67.54 152.531C67.39 152.721 67.245 152.916 67.105 153.116C66.975 153.326 66.865 153.516 66.775 153.686C66.175 153.536 65.585 153.341 65.005 153.101C64.435 152.871 63.89 152.606 63.37 152.306C62.85 152.006 62.36 151.671 61.9 151.301C61.44 150.931 61.035 150.536 60.685 150.116L62.08 149.546ZM64.87 139.871L66.745 140.321C66.515 140.731 66.28 141.131 66.04 141.521C65.8 141.901 65.58 142.226 65.38 142.496L63.91 142.046C64.03 141.846 64.15 141.621 64.27 141.371C64.39 141.111 64.5 140.851 64.6 140.591C64.71 140.321 64.8 140.081 64.87 139.871ZM62.89 143.081L64.795 143.531C64.585 143.881 64.385 144.221 64.195 144.551C64.005 144.871 63.835 145.146 63.685 145.376L62.155 144.956C62.285 144.676 62.42 144.366 62.56 144.026C62.7 143.676 62.81 143.361 62.89 143.081ZM55.3 140.351L56.845 139.826C57.065 140.136 57.285 140.496 57.505 140.906C57.725 141.306 57.885 141.651 57.985 141.941L56.365 142.541C56.285 142.241 56.14 141.886 55.93 141.476C55.72 141.066 55.51 140.691 55.3 140.351ZM57.205 143.711L58.96 143.426C59.09 143.636 59.215 143.876 59.335 144.146C59.465 144.406 59.56 144.636 59.62 144.836L57.79 145.151C57.74 144.961 57.66 144.726 57.55 144.446C57.44 144.166 57.325 143.921 57.205 143.711ZM76.78 140.621H81.16V142.301H78.535V153.851H76.78V140.621ZM68.89 141.206H76.135V142.766H68.89V141.206ZM68.56 145.391H76.33V147.026H68.56V145.391ZM71.635 139.871H73.39V142.181H71.635V139.871ZM69.745 143.171L71.23 142.871C71.38 143.201 71.51 143.571 71.62 143.981C71.73 144.391 71.805 144.751 71.845 145.061L70.27 145.421C70.26 145.121 70.205 144.761 70.105 144.341C70.005 143.911 69.885 143.521 69.745 143.171ZM73.78 142.811L75.46 143.171C75.3 143.581 75.14 143.991 74.98 144.401C74.83 144.801 74.69 145.146 74.56 145.436L73.15 145.076C73.23 144.866 73.31 144.631 73.39 144.371C73.47 144.101 73.54 143.831 73.6 143.561C73.67 143.281 73.73 143.031 73.78 142.811ZM70.045 151.556H74.68V153.116H70.045V151.556ZM69.43 148.016H75.655V153.806H73.9V149.576H71.095V153.866H69.43V148.016ZM80.695 140.621H81.04L81.31 140.546L82.63 141.371C82.36 142.101 82.065 142.871 81.745 143.681C81.435 144.481 81.135 145.201 80.845 145.841C81.265 146.291 81.58 146.726 81.79 147.146C82.01 147.556 82.155 147.946 82.225 148.316C82.305 148.686 82.345 149.036 82.345 149.366C82.345 149.926 82.28 150.391 82.15 150.761C82.02 151.131 81.81 151.416 81.52 151.616C81.24 151.816 80.895 151.941 80.485 151.991C80.315 152.011 80.125 152.026 79.915 152.036C79.715 152.036 79.51 152.036 79.3 152.036C79.29 151.786 79.245 151.491 79.165 151.151C79.095 150.811 78.99 150.516 78.85 150.266C79.02 150.286 79.175 150.301 79.315 150.311C79.455 150.311 79.585 150.306 79.705 150.296C79.805 150.286 79.9 150.271 79.99 150.251C80.09 150.231 80.175 150.196 80.245 150.146C80.375 150.066 80.465 149.946 80.515 149.786C80.575 149.616 80.605 149.401 80.605 149.141C80.605 148.721 80.5 148.251 80.29 147.731C80.09 147.201 79.685 146.646 79.075 146.066C79.225 145.706 79.375 145.306 79.525 144.866C79.685 144.416 79.835 143.966 79.975 143.516C80.125 143.056 80.26 142.626 80.38 142.226C80.51 141.826 80.615 141.496 80.695 141.236V140.621ZM16.84 164.371C17.3 164.281 17.815 164.171 18.385 164.041C18.965 163.901 19.575 163.756 20.215 163.606C20.855 163.446 21.49 163.286 22.12 163.126L22.345 164.761C21.485 165.001 20.61 165.241 19.72 165.481C18.84 165.711 18.035 165.916 17.305 166.096L16.84 164.371ZM17.035 159.616H22.225V161.281H17.035V159.616ZM18.895 156.751H20.65V168.826C20.65 169.256 20.605 169.591 20.515 169.831C20.425 170.081 20.25 170.271 19.99 170.401C19.74 170.531 19.425 170.616 19.045 170.656C18.675 170.706 18.225 170.731 17.695 170.731C17.665 170.501 17.6 170.226 17.5 169.906C17.41 169.596 17.31 169.326 17.2 169.096C17.49 169.106 17.77 169.111 18.04 169.111C18.32 169.111 18.51 169.111 18.61 169.111C18.72 169.111 18.795 169.091 18.835 169.051C18.875 169.001 18.895 168.926 18.895 168.826V156.751ZM21.655 168.661H30.925V170.341H21.655V168.661ZM24.415 163.261V165.526H28.195V163.261H24.415ZM24.415 159.391V161.596H28.195V159.391H24.415ZM22.69 157.711H30.01V167.191H22.69V157.711ZM37.66 156.751H39.64V162.901H37.66V156.751ZM32.74 157.981L34.375 157.351C34.645 157.691 34.9 158.066 35.14 158.476C35.38 158.876 35.595 159.276 35.785 159.676C35.975 160.066 36.125 160.421 36.235 160.741L34.495 161.476C34.405 161.156 34.265 160.791 34.075 160.381C33.895 159.971 33.69 159.556 33.46 159.136C33.23 158.716 32.99 158.331 32.74 157.981ZM42.7 157.201L44.71 157.801C44.49 158.241 44.26 158.691 44.02 159.151C43.78 159.601 43.54 160.031 43.3 160.441C43.07 160.851 42.845 161.216 42.625 161.536L41.035 160.966C41.235 160.626 41.44 160.241 41.65 159.811C41.86 159.381 42.055 158.941 42.235 158.491C42.425 158.031 42.58 157.601 42.7 157.201ZM33.085 161.956H44.455V170.836H42.535V163.771H33.085V161.956ZM33.61 165.151H43.225V166.876H33.61V165.151ZM32.755 168.436H43.525V170.221H32.755V168.436ZM54.58 157.621H58.96V159.301H56.335V170.851H54.58V157.621ZM46.69 158.206H53.935V159.766H46.69V158.206ZM46.36 162.391H54.13V164.026H46.36V162.391ZM49.435 156.871H51.19V159.181H49.435V156.871ZM47.545 160.171L49.03 159.871C49.18 160.201 49.31 160.571 49.42 160.981C49.53 161.391 49.605 161.751 49.645 162.061L48.07 162.421C48.06 162.121 48.005 161.761 47.905 161.341C47.805 160.911 47.685 160.521 47.545 160.171ZM51.58 159.811L53.26 160.171C53.1 160.581 52.94 160.991 52.78 161.401C52.63 161.801 52.49 162.146 52.36 162.436L50.95 162.076C51.03 161.866 51.11 161.631 51.19 161.371C51.27 161.101 51.34 160.831 51.4 160.561C51.47 160.281 51.53 160.031 51.58 159.811ZM47.845 168.556H52.48V170.116H47.845V168.556ZM47.23 165.016H53.455V170.806H51.7V166.576H48.895V170.866H47.23V165.016ZM58.495 157.621H58.84L59.11 157.546L60.43 158.371C60.16 159.101 59.865 159.871 59.545 160.681C59.235 161.481 58.935 162.201 58.645 162.841C59.065 163.291 59.38 163.726 59.59 164.146C59.81 164.556 59.955 164.946 60.025 165.316C60.105 165.686 60.145 166.036 60.145 166.366C60.145 166.926 60.08 167.391 59.95 167.761C59.82 168.131 59.61 168.416 59.32 168.616C59.04 168.816 58.695 168.941 58.285 168.991C58.115 169.011 57.925 169.026 57.715 169.036C57.515 169.036 57.31 169.036 57.1 169.036C57.09 168.786 57.045 168.491 56.965 168.151C56.895 167.811 56.79 167.516 56.65 167.266C56.82 167.286 56.975 167.301 57.115 167.311C57.255 167.311 57.385 167.306 57.505 167.296C57.605 167.286 57.7 167.271 57.79 167.251C57.89 167.231 57.975 167.196 58.045 167.146C58.175 167.066 58.265 166.946 58.315 166.786C58.375 166.616 58.405 166.401 58.405 166.141C58.405 165.721 58.3 165.251 58.09 164.731C57.89 164.201 57.485 163.646 56.875 163.066C57.025 162.706 57.175 162.306 57.325 161.866C57.485 161.416 57.635 160.966 57.775 160.516C57.925 160.056 58.06 159.626 58.18 159.226C58.31 158.826 58.415 158.496 58.495 158.236V157.621ZM61.255 163.846H74.86V165.436H61.255V163.846ZM64.75 159.526H72.865V160.921H64.75V159.526ZM64.75 161.686H72.865V163.081H64.75V161.686ZM61.915 169.111C62.505 169.041 63.18 168.956 63.94 168.856C64.71 168.746 65.515 168.631 66.355 168.511C67.205 168.391 68.04 168.271 68.86 168.151L68.95 169.726C68.18 169.846 67.4 169.971 66.61 170.101C65.82 170.231 65.06 170.346 64.33 170.446C63.6 170.556 62.93 170.661 62.32 170.761L61.915 169.111ZM68.68 164.296C69.17 165.606 69.945 166.681 71.005 167.521C72.065 168.361 73.445 168.936 75.145 169.246C75.015 169.376 74.875 169.536 74.725 169.726C74.585 169.916 74.45 170.111 74.32 170.311C74.19 170.511 74.085 170.696 74.005 170.866C72.775 170.576 71.715 170.156 70.825 169.606C69.935 169.066 69.18 168.386 68.56 167.566C67.95 166.746 67.44 165.786 67.03 164.686L68.68 164.296ZM72.94 165.241L74.395 166.246C74.025 166.516 73.635 166.781 73.225 167.041C72.825 167.291 72.42 167.526 72.01 167.746C71.6 167.966 71.22 168.161 70.87 168.331L69.67 167.401C70.02 167.221 70.395 167.011 70.795 166.771C71.195 166.521 71.58 166.261 71.95 165.991C72.33 165.721 72.66 165.471 72.94 165.241ZM63.76 157.276H73.27V158.746H65.605V164.506H63.76V157.276ZM63.76 164.326H65.605V169.306L63.76 169.501V164.326Z" fill="#0B9A2E"/>
</svg>
