<svg width="48" height="48" viewBox="0 0 48 48" fill="none" xmlns="http://www.w3.org/2000/svg">
<path d="M18.042 42.3701C18.4499 42.4518 18.7761 42.7776 18.7764 43.1855C18.7764 43.5937 18.4498 44.002 17.96 44.002C17.5519 44.0018 17.2256 43.6752 17.2256 43.1855C17.2258 42.7775 17.5524 42.3701 18.042 42.3701ZM34.7754 14.04C38.2038 13.9584 40.8975 16.8158 40.5713 20.2441C40.4897 21.142 40.1633 21.9586 40 22.8564C39.9184 23.2645 39.8365 23.673 39.7549 24.0811C39.5916 24.9789 39.2657 25.7142 38.6943 26.3672C38.6128 26.4488 38.5308 26.5303 38.4492 26.6934C39.3471 26.9383 40.1636 27.2649 41.0615 27.5098C42.9389 28.0812 43.9999 29.5507 44 31.5098V38.6123C43.9999 39.4283 43.7547 39.6729 42.9385 39.6729H28.9795V43.1016C28.9795 43.5914 28.6529 43.918 28.1631 43.918H21.5508C21.0612 43.9179 20.7345 43.5916 20.7344 43.1836C20.7344 42.6939 21.0611 42.3673 21.5508 42.3672H27.3467C27.3467 40.9795 27.4283 39.6733 27.3467 38.3672C27.2651 37.1428 26.449 36.2451 25.2246 35.8369C24.0001 35.4288 22.6938 35.0205 21.3877 34.6123C21.2245 34.6123 21.0611 34.6118 20.9795 34.6934C19.0203 35.673 16.9797 35.673 15.0205 34.6934C14.9389 34.6118 14.6941 34.6119 14.6123 34.6934C13.3878 35.0199 12.163 35.4288 10.9385 35.8369C9.46933 36.3268 8.57129 37.5513 8.57129 39.0205V42.4482H14.3672C14.7754 42.4482 15.102 42.6123 15.1836 43.0205C15.3466 43.5101 15.0204 43.9999 14.4492 44H7.75488C7.2653 43.9999 7.02058 43.6732 7.02051 43.1836V39.6729H4.97949C4.24488 39.6728 4 39.428 4 38.6934V34.3672C4 33.6325 4.24488 33.3877 4.97949 33.3877H13.3057C13.2241 33.3061 13.2242 33.2242 13.1426 33.1426C12.1631 31.9998 11.5914 30.6935 11.5098 29.1426C11.4281 27.8365 11.5102 26.5301 11.5918 25.3057C11.8368 22.5303 14.2856 19.9995 17.1426 19.6729C20.5711 19.1831 23.9188 21.5509 24.4902 24.9795C24.5718 25.6325 24.5713 26.2855 24.5713 26.9385C24.5713 27.9995 24.5714 29.0606 24.4082 30.04C24.245 31.1828 23.7551 32.1627 23.0205 33.0605C22.9389 33.2238 22.8574 33.3061 22.8574 33.3877H25.959V31.8369C25.959 31.3471 25.9588 30.775 26.1221 30.2852C26.4486 28.9791 27.3473 28.0816 28.6533 27.5918C29.5511 27.2653 30.5303 27.0198 31.5098 26.6934C31.3466 26.5301 31.1831 26.2852 31.1016 26.1221C30.6119 25.4691 30.3678 24.7342 30.2861 23.918C30.1229 22.8569 29.7957 21.8775 29.5508 20.8164C28.8161 17.4695 31.3469 14.1217 34.7754 14.04ZM5.63281 38.1221H7.10156C7.34646 36.8976 8.0003 35.8368 9.06152 35.0205H5.63281V38.1221ZM26.9385 35.0205C28.0813 35.8368 28.6535 36.8976 28.8984 38.1221H42.3672V35.0205H26.9385ZM18.2861 21.2246C15.9189 21.0614 13.7146 22.6934 13.2246 25.0605C12.8981 26.5299 12.9793 28.0814 13.1426 29.5508C13.3875 31.8365 15.2655 33.6321 17.6328 33.877C19.8368 34.0401 22.1229 32.5712 22.6943 30.3672C22.9392 29.4693 22.9389 28.4897 23.0205 27.5918H22.8574C22.8574 26.9389 22.939 26.2857 22.8574 25.6328C22.6125 23.2656 20.6533 21.3881 18.2861 21.2246ZM37.5508 28C37.061 27.8368 36.5714 27.7551 36 28C35.7552 28.0816 35.6738 28.1633 35.6738 28.4082V29.3877C35.6737 29.8773 35.3466 30.1225 34.9385 30.2041C34.5305 30.2039 34.2037 29.8773 34.1221 29.3877V28.3262C34.1221 28.2446 34.1224 28.0813 34.041 28.0811C33.633 27.9995 33.2249 27.7551 32.8984 27.918C31.674 28.2445 30.449 28.6524 29.2246 29.0605C28.3267 29.3871 27.673 30.0405 27.5098 30.9385C27.4281 31.7548 27.5098 32.5714 27.5098 33.3877H42.4492V31.5098C42.4492 30.2854 41.7957 29.3876 40.5713 28.9795C39.5917 28.653 38.5303 28.4082 37.5508 28ZM37.3057 20.4893C35.6732 21.4687 33.9593 21.8768 32.082 22.04C31.8372 22.04 31.755 22.1221 31.7549 22.4482V23.5098C31.8365 25.1423 33.061 26.5299 34.5303 26.6934C36.2446 26.8566 37.7145 25.8768 38.041 24.2441C38.1226 23.7546 38.1221 23.265 38.1221 22.7754C38.2853 21.7958 37.7955 21.224 37.3057 20.4893ZM36.8164 16.1631C35.4287 15.3468 33.6327 15.5101 32.4082 16.5713C31.2654 17.5509 30.7756 18.9387 31.0205 20.5713C31.5919 20.4897 32.1635 20.4898 32.6533 20.4082C34.1226 20.1633 35.592 19.836 36.8164 18.8564C37.2244 18.5302 37.551 18.6121 37.959 18.9385C38.2854 19.2649 38.612 19.673 38.9385 20.0811C39.02 18.2853 38.3673 16.9794 36.8164 16.1631ZM26.3691 4C29.3078 4.00014 31.6751 5.95936 32.3281 8.81641C32.9811 11.8368 30.9399 15.0208 27.8379 15.6738C27.6748 15.7554 27.5113 15.8369 27.2666 15.8369C27.4299 16.3267 27.5936 16.7348 27.7568 17.2246C28.0832 17.9592 27.7565 18.5307 26.9404 18.4492C25.2261 18.3676 24.0015 17.6325 23.1035 16.1631C22.9403 15.9183 22.777 15.8369 22.5322 15.8369H14.2871C11.3484 15.8369 8.9806 13.877 8.40918 11.1016C7.67488 7.83643 10.0429 4.49017 13.3896 4.08203C13.6345 4.00049 13.9607 4 14.2871 4H26.3691ZM14.2061 5.55078C11.7571 5.55078 9.79785 7.42895 9.79785 9.87793C9.79805 12.3267 11.6752 14.2861 14.124 14.2861H23.1855C23.8383 14.2862 24.0012 14.4492 24.2461 15.0205C24.491 15.7552 25.0632 16.2448 25.7979 16.5713C25.7978 16 25.7158 15.5102 25.7158 15.0205C25.7158 14.6124 26.0422 14.2863 26.4502 14.2861C26.6951 14.2861 26.9406 14.2857 27.1855 14.2041C29.2261 13.8774 30.7767 12.1632 30.8584 10.041C30.94 8.08193 29.5528 6.20378 27.5938 5.71387C27.1857 5.63225 26.7772 5.55082 26.3691 5.55078H14.2061ZM21.3066 10.8574C21.8781 10.8574 22.2051 11.184 22.2051 11.6738C22.2049 12.1634 21.8779 12.4082 21.3066 12.4082H14.2871C13.7157 12.4082 13.3887 12.0816 13.3887 11.5918C13.3887 11.1837 13.7973 10.8574 14.2871 10.8574H21.3066ZM26.3672 7.42871C26.9385 7.42871 27.3465 7.75457 27.3467 8.24414C27.3467 8.73385 27.0205 8.97941 26.4492 8.97949H14.3672C13.7959 8.97945 13.3878 8.65276 13.3877 8.16309C13.3877 7.67332 13.7958 7.42874 14.3672 7.42871H26.3672Z" fill="#72BA5F"/>
</svg>
