<svg width="48" height="48" viewBox="0 0 48 48" fill="none" xmlns="http://www.w3.org/2000/svg">
<mask id="path-1-inside-1_372_4295" fill="white">
<path d="M32.7002 4C34.2944 4.00011 35.5896 5.38935 35.5898 6.87793V12.4365H32.999V6.87793C32.9989 6.67973 32.8993 6.58014 32.7002 6.58008H6.98926C6.79029 6.58019 6.69055 6.67978 6.69043 6.87793V41.1201C6.69043 41.2193 6.79017 41.4178 6.98926 41.418H32.7002C32.7999 41.517 32.999 41.3186 32.999 41.1201V35.959H35.5898V41.1201C35.5898 42.7081 34.2946 43.9979 32.7002 43.998H6.88965C5.29533 43.9979 4 42.6088 4 41.1201V6.87793C4.00022 5.29017 5.39508 4.00016 6.88965 4H32.7002ZM37.085 13.2305C40.3735 12.7342 43.4627 15.017 43.9609 18.3916C44.0605 18.5901 43.961 18.9869 43.7617 19.3838L31.5049 35.4629C31.4052 35.6614 31.2052 35.7601 31.0059 35.8594L23.1338 39.2344C22.8352 39.3335 22.5366 39.4324 22.4365 39.4326C22.1376 39.4326 21.8379 39.234 21.7383 39.1348C21.4396 38.738 21.34 38.4403 21.5391 37.9443L23.5322 29.6064C23.6318 29.4082 23.7315 29.3087 23.8311 29.1104L33.0986 17.6963L36.2881 13.7266C36.4874 13.4289 36.7861 13.3297 37.085 13.2305ZM24.4287 35.8594L28.6143 34.0732C28.5146 33.2794 28.0167 32.4855 27.5186 31.9893C27.0203 31.493 26.3226 31.2939 25.625 31.2939L24.4287 35.8594ZM26.8213 29.0117C27.6182 29.2102 28.3154 29.5079 28.9131 30.0039C29.6107 30.5994 30.3084 31.2946 30.707 32.2871L38.2812 22.3613C38.1816 21.5674 37.6829 20.8722 36.9854 20.376C36.2878 19.7807 35.4905 19.582 34.5938 19.582L26.8213 29.0117ZM19.0479 25.7373C19.7453 25.7373 20.3436 26.3327 20.3438 27.0273C20.3438 27.7221 19.845 28.3174 19.1475 28.3174H13.5674C12.8698 28.3174 12.2715 27.7221 12.2715 27.0273C12.2716 26.3327 12.8699 25.7373 13.5674 25.7373H19.0479ZM25.5254 18.8877C26.2228 18.8877 26.8212 19.4831 26.8213 20.1777C26.8213 20.8725 26.3225 21.4678 25.625 21.4678H13.5674C12.8698 21.4678 12.2715 20.8725 12.2715 20.1777C12.2716 19.4831 12.8699 18.8877 13.5674 18.8877H25.5254ZM36.3877 17.3984C37.0853 17.5969 37.783 17.8953 38.3809 18.3916C38.9786 18.8877 39.5761 19.384 39.9746 20.1777L41.3701 18.3916C40.8719 16.8036 39.2771 15.7119 37.6826 15.7119L36.3877 17.3984ZM25.5254 12.5361C26.3226 12.5362 26.8213 13.1314 26.8213 13.8262C26.8212 14.5208 26.3225 15.1162 25.625 15.1162H13.5674C12.8699 15.1162 12.2716 14.5208 12.2715 13.8262C12.2715 13.1314 12.8698 12.5361 13.5674 12.5361H25.5254Z"/>
</mask>
<path d="M32.7002 4C34.2944 4.00011 35.5896 5.38935 35.5898 6.87793V12.4365H32.999V6.87793C32.9989 6.67973 32.8993 6.58014 32.7002 6.58008H6.98926C6.79029 6.58019 6.69055 6.67978 6.69043 6.87793V41.1201C6.69043 41.2193 6.79017 41.4178 6.98926 41.418H32.7002C32.7999 41.517 32.999 41.3186 32.999 41.1201V35.959H35.5898V41.1201C35.5898 42.7081 34.2946 43.9979 32.7002 43.998H6.88965C5.29533 43.9979 4 42.6088 4 41.1201V6.87793C4.00022 5.29017 5.39508 4.00016 6.88965 4H32.7002ZM37.085 13.2305C40.3735 12.7342 43.4627 15.017 43.9609 18.3916C44.0605 18.5901 43.961 18.9869 43.7617 19.3838L31.5049 35.4629C31.4052 35.6614 31.2052 35.7601 31.0059 35.8594L23.1338 39.2344C22.8352 39.3335 22.5366 39.4324 22.4365 39.4326C22.1376 39.4326 21.8379 39.234 21.7383 39.1348C21.4396 38.738 21.34 38.4403 21.5391 37.9443L23.5322 29.6064C23.6318 29.4082 23.7315 29.3087 23.8311 29.1104L33.0986 17.6963L36.2881 13.7266C36.4874 13.4289 36.7861 13.3297 37.085 13.2305ZM24.4287 35.8594L28.6143 34.0732C28.5146 33.2794 28.0167 32.4855 27.5186 31.9893C27.0203 31.493 26.3226 31.2939 25.625 31.2939L24.4287 35.8594ZM26.8213 29.0117C27.6182 29.2102 28.3154 29.5079 28.9131 30.0039C29.6107 30.5994 30.3084 31.2946 30.707 32.2871L38.2812 22.3613C38.1816 21.5674 37.6829 20.8722 36.9854 20.376C36.2878 19.7807 35.4905 19.582 34.5938 19.582L26.8213 29.0117ZM19.0479 25.7373C19.7453 25.7373 20.3436 26.3327 20.3438 27.0273C20.3438 27.7221 19.845 28.3174 19.1475 28.3174H13.5674C12.8698 28.3174 12.2715 27.7221 12.2715 27.0273C12.2716 26.3327 12.8699 25.7373 13.5674 25.7373H19.0479ZM25.5254 18.8877C26.2228 18.8877 26.8212 19.4831 26.8213 20.1777C26.8213 20.8725 26.3225 21.4678 25.625 21.4678H13.5674C12.8698 21.4678 12.2715 20.8725 12.2715 20.1777C12.2716 19.4831 12.8699 18.8877 13.5674 18.8877H25.5254ZM36.3877 17.3984C37.0853 17.5969 37.783 17.8953 38.3809 18.3916C38.9786 18.8877 39.5761 19.384 39.9746 20.1777L41.3701 18.3916C40.8719 16.8036 39.2771 15.7119 37.6826 15.7119L36.3877 17.3984ZM25.5254 12.5361C26.3226 12.5362 26.8213 13.1314 26.8213 13.8262C26.8212 14.5208 26.3225 15.1162 25.625 15.1162H13.5674C12.8699 15.1162 12.2716 14.5208 12.2715 13.8262C12.2715 13.1314 12.8698 12.5361 13.5674 12.5361H25.5254Z" fill="#72BA5F"/>
<path d="M32.7002 4L32.7002 3.6H32.7002V4ZM35.5898 6.87793H35.9898V6.87787L35.5898 6.87793ZM35.5898 12.4365V12.8365H35.9898V12.4365H35.5898ZM32.999 12.4365H32.599V12.8365H32.999V12.4365ZM32.999 6.87793H33.399V6.87768L32.999 6.87793ZM32.7002 6.58008L32.7003 6.18008H32.7002V6.58008ZM6.98926 6.58008V6.18008L6.98904 6.18008L6.98926 6.58008ZM6.69043 6.87793L6.29043 6.87768V6.87793H6.69043ZM6.98926 41.418L6.98882 41.818H6.98926V41.418ZM32.7002 41.418L32.9821 41.1342L32.8651 41.018H32.7002V41.418ZM32.999 35.959V35.559H32.599V35.959H32.999ZM35.5898 35.959H35.9898V35.559H35.5898V35.959ZM32.7002 43.998V44.398H32.7002L32.7002 43.998ZM6.88965 43.998L6.88961 44.398H6.88965V43.998ZM4 6.87793L3.6 6.87788V6.87793H4ZM6.88965 4V3.6H6.88961L6.88965 4ZM37.085 13.2305L37.0253 12.8349L36.9914 12.8401L36.9589 12.8508L37.085 13.2305ZM43.9609 18.3916L43.5652 18.45L43.5746 18.5136L43.6034 18.571L43.9609 18.3916ZM43.7617 19.3838L44.0798 19.6263L44.1025 19.5966L44.1192 19.5632L43.7617 19.3838ZM31.5049 35.4629L31.1868 35.2204L31.1641 35.2501L31.1474 35.2834L31.5049 35.4629ZM31.0059 35.8594L31.1635 36.227L31.174 36.2225L31.1842 36.2174L31.0059 35.8594ZM23.1338 39.2344L23.2598 39.614L23.2759 39.6087L23.2914 39.602L23.1338 39.2344ZM22.4365 39.4326V39.8326L22.4376 39.8326L22.4365 39.4326ZM21.7383 39.1348L21.4187 39.3754L21.4358 39.3981L21.456 39.4182L21.7383 39.1348ZM21.5391 37.9443L21.9103 38.0933L21.9212 38.066L21.9281 38.0373L21.5391 37.9443ZM23.5322 29.6064L23.1748 29.4269L23.154 29.4683L23.1432 29.5134L23.5322 29.6064ZM23.8311 29.1104L23.5205 28.8582L23.4931 28.892L23.4736 28.9309L23.8311 29.1104ZM33.0986 17.6963L33.4092 17.9484L33.4105 17.9468L33.0986 17.6963ZM36.2881 13.7266L36.5999 13.9771L36.6108 13.9635L36.6205 13.9491L36.2881 13.7266ZM24.4287 35.8594L24.0418 35.758L23.8348 36.5477L24.5857 36.2273L24.4287 35.8594ZM28.6143 34.0732L28.7713 34.4411L29.0487 34.3227L29.0111 34.0234L28.6143 34.0732ZM27.5186 31.9893L27.8009 31.7059L27.8008 31.7058L27.5186 31.9893ZM25.625 31.2939V30.8939H25.3163L25.2381 31.1926L25.625 31.2939ZM26.8213 29.0117L26.5126 28.7573L26.1093 29.2466L26.7246 29.3999L26.8213 29.0117ZM28.9131 30.0039L29.1728 29.6997L29.1685 29.6961L28.9131 30.0039ZM30.707 32.2871L30.3358 32.4362L30.5981 33.0892L31.025 32.5298L30.707 32.2871ZM38.2812 22.3613L38.5992 22.604L38.6985 22.4739L38.6781 22.3115L38.2812 22.3613ZM36.9854 20.376L36.7257 20.6802L36.7391 20.6917L36.7535 20.7019L36.9854 20.376ZM34.5938 19.582V19.182H34.4051L34.2851 19.3276L34.5938 19.582ZM20.3438 27.0273H20.7437V27.0273L20.3438 27.0273ZM12.2715 27.0273L11.8715 27.0273V27.0273H12.2715ZM25.5254 18.8877L25.5254 18.4877H25.5254V18.8877ZM26.8213 20.1777H27.2213V20.1777L26.8213 20.1777ZM25.625 21.4678V21.8678H25.625L25.625 21.4678ZM12.2715 20.1777L11.8715 20.1777V20.1777H12.2715ZM36.3877 17.3984L36.0704 17.1548L35.7118 17.622L36.2782 17.7832L36.3877 17.3984ZM38.3809 18.3916L38.6363 18.0838L38.3809 18.3916ZM39.9746 20.1777L39.6171 20.3572L39.9007 20.922L40.2898 20.424L39.9746 20.1777ZM41.3701 18.3916L41.6853 18.6379L41.8147 18.4723L41.7518 18.2719L41.3701 18.3916ZM37.6826 15.7119V15.3119H37.4854L37.3653 15.4683L37.6826 15.7119ZM25.5254 12.5361L25.5254 12.1361H25.5254V12.5361ZM26.8213 13.8262L27.2213 13.8262V13.8262H26.8213ZM25.625 15.1162V15.5162H25.625L25.625 15.1162ZM12.2715 13.8262H11.8715V13.8263L12.2715 13.8262ZM32.7002 4L32.7002 4.4C34.0662 4.40009 35.1897 5.60288 35.1898 6.87799L35.5898 6.87793L35.9898 6.87787C35.9896 5.17582 34.5227 3.60012 32.7002 3.6L32.7002 4ZM35.5898 6.87793H35.1898V12.4365H35.5898H35.9898V6.87793H35.5898ZM35.5898 12.4365V12.0365H32.999V12.4365V12.8365H35.5898V12.4365ZM32.999 12.4365H33.399V6.87793H32.999H32.599V12.4365H32.999ZM32.999 6.87793L33.399 6.87768C33.3989 6.7164 33.358 6.52237 33.2067 6.3715C33.0556 6.22079 32.8616 6.18013 32.7003 6.18008L32.7002 6.58008L32.7001 6.98008C32.7379 6.98009 32.6932 6.98926 32.6417 6.93791C32.5901 6.8864 32.599 6.84127 32.599 6.87818L32.999 6.87793ZM32.7002 6.58008V6.18008H6.98926V6.58008V6.98008H32.7002V6.58008ZM6.98926 6.58008L6.98904 6.18008C6.8278 6.18017 6.63388 6.22088 6.48284 6.3715C6.33159 6.52232 6.29053 6.71629 6.29043 6.87768L6.69043 6.87793L7.09043 6.87818C7.09045 6.84142 7.09932 6.88652 7.04772 6.93798C6.99632 6.98924 6.95175 6.9801 6.98948 6.98008L6.98926 6.58008ZM6.69043 6.87793H6.29043V41.1201H6.69043H7.09043V6.87793H6.69043ZM6.69043 41.1201H6.29043C6.29043 41.2756 6.35647 41.436 6.45331 41.5566C6.56037 41.6899 6.74132 41.8177 6.98882 41.818L6.98926 41.418L6.98969 41.018C7.00897 41.018 7.03032 41.0234 7.04876 41.0334C7.06537 41.0424 7.07398 41.0519 7.07706 41.0557C7.07989 41.0592 7.08131 41.0619 7.08269 41.0655C7.08294 41.0661 7.09043 41.0843 7.09043 41.1201H6.69043ZM6.98926 41.418V41.818H32.7002V41.418V41.018H6.98926V41.418ZM32.7002 41.418L32.4183 41.7018C32.5559 41.8384 32.7353 41.865 32.8815 41.8302C33.0095 41.7998 33.1062 41.7269 33.1694 41.6639C33.2945 41.5391 33.399 41.3419 33.399 41.1201H32.999H32.599C32.599 41.0967 32.6039 41.098 32.6046 41.0973C32.6056 41.0963 32.6338 41.0669 32.6963 41.052C32.7309 41.0437 32.7801 41.0394 32.8366 41.0532C32.8953 41.0675 32.9451 41.0975 32.9821 41.1342L32.7002 41.418ZM32.999 41.1201H33.399V35.959H32.999H32.599V41.1201H32.999ZM32.999 35.959V36.359H35.5898V35.959V35.559H32.999V35.959ZM35.5898 35.959H35.1898V41.1201H35.5898H35.9898V35.959H35.5898ZM35.5898 41.1201H35.1898C35.1898 42.4856 34.0752 43.598 32.7002 43.598L32.7002 43.998L32.7002 44.398C34.5139 44.3979 35.9898 42.9306 35.9898 41.1201H35.5898ZM32.7002 43.998V43.598H6.88965V43.998V44.398H32.7002V43.998ZM6.88965 43.998L6.88969 43.598C5.52351 43.5979 4.4 42.3952 4.4 41.1201H4H3.6C3.6 42.8224 5.06715 44.3979 6.88961 44.398L6.88965 43.998ZM4 41.1201H4.4V6.87793H4H3.6V41.1201H4ZM4 6.87793L4.4 6.87798C4.40019 5.52141 5.60554 4.40014 6.88969 4.4L6.88965 4L6.88961 3.6C5.18462 3.60018 3.60025 5.05892 3.6 6.87788L4 6.87793ZM6.88965 4V4.4H32.7002V4V3.6H6.88965V4ZM37.085 13.2305L37.1446 13.626C40.211 13.1633 43.0988 15.2912 43.5652 18.45L43.9609 18.3916L44.3566 18.3332C43.8265 14.7428 40.536 12.3052 37.0253 12.8349L37.085 13.2305ZM43.9609 18.3916L43.6034 18.571C43.5898 18.5438 43.6148 18.5783 43.5823 18.7292C43.554 18.8609 43.4933 19.0269 43.4042 19.2043L43.7617 19.3838L44.1192 19.5632C44.2294 19.3438 44.3181 19.1129 44.3645 18.8974C44.4067 18.7011 44.4317 18.4379 44.3185 18.2122L43.9609 18.3916ZM43.7617 19.3838L43.4436 19.1413L31.1868 35.2204L31.5049 35.4629L31.823 35.7054L44.0798 19.6263L43.7617 19.3838ZM31.5049 35.4629L31.1474 35.2834C31.1355 35.3071 31.1135 35.3351 31.0615 35.3719C31.004 35.4127 30.9334 35.4486 30.8276 35.5013L31.0059 35.8594L31.1842 36.2174C31.3559 36.1319 31.6924 35.9809 31.8624 35.6424L31.5049 35.4629ZM31.0059 35.8594L30.8482 35.4917L22.9762 38.8667L23.1338 39.2344L23.2914 39.602L31.1635 36.227L31.0059 35.8594ZM23.1338 39.2344L23.0078 38.8547C22.8569 38.9048 22.7138 38.9522 22.5964 38.9873C22.5376 39.0048 22.4905 39.0177 22.4552 39.0258C22.4113 39.036 22.4118 39.0327 22.4355 39.0326L22.4365 39.4326L22.4376 39.8326C22.5113 39.8324 22.5867 39.8166 22.6362 39.8051C22.6944 39.7916 22.7593 39.7735 22.8251 39.7539C22.9566 39.7146 23.1121 39.663 23.2598 39.614L23.1338 39.2344ZM22.4365 39.4326V39.0326C22.3705 39.0326 22.2835 39.0089 22.1908 38.9628C22.0974 38.9163 22.0347 38.8655 22.0206 38.8514L21.7383 39.1348L21.456 39.4182C21.5415 39.5033 21.6784 39.6014 21.8345 39.679C21.9913 39.7571 22.2036 39.8326 22.4365 39.8326V39.4326ZM21.7383 39.1348L22.0578 38.8942C21.9207 38.712 21.8639 38.596 21.8442 38.498C21.8264 38.4097 21.8304 38.2923 21.9103 38.0933L21.5391 37.9443L21.1679 37.7953C21.0487 38.0923 21.0029 38.3718 21.0598 38.6555C21.1149 38.9295 21.2572 39.1608 21.4187 39.3754L21.7383 39.1348ZM21.5391 37.9443L21.9281 38.0373L23.9213 29.6994L23.5322 29.6064L23.1432 29.5134L21.15 37.8513L21.5391 37.9443ZM23.5322 29.6064L23.8897 29.786C23.9271 29.7114 23.9642 29.6554 24.0141 29.5809C24.0639 29.5065 24.1264 29.4136 24.1885 29.2898L23.8311 29.1104L23.4736 28.9309C23.4361 29.0055 23.399 29.0615 23.3492 29.136C23.2995 29.2103 23.2369 29.3032 23.1748 29.4269L23.5322 29.6064ZM23.8311 29.1104L24.1416 29.3625L33.4092 17.9484L33.0986 17.6963L32.7881 17.4442L23.5205 28.8582L23.8311 29.1104ZM33.0986 17.6963L33.4105 17.9468L36.5999 13.9771L36.2881 13.7266L35.9763 13.476L32.7868 17.4458L33.0986 17.6963ZM36.2881 13.7266L36.6205 13.9491C36.7332 13.7807 36.8967 13.7144 37.211 13.6101L37.085 13.2305L36.9589 12.8508C36.6755 12.945 36.2415 13.0772 35.9557 13.504L36.2881 13.7266ZM24.4287 35.8594L24.5857 36.2273L28.7713 34.4411L28.6143 34.0732L28.4573 33.7053L24.2717 35.4915L24.4287 35.8594ZM28.6143 34.0732L29.0111 34.0234C28.8972 33.1153 28.3409 32.2439 27.8009 31.7059L27.5186 31.9893L27.2363 32.2726C27.6925 32.7272 28.1321 33.4434 28.2174 34.1231L28.6143 34.0732ZM27.5186 31.9893L27.8008 31.7058C27.2051 31.1125 26.3917 30.8939 25.625 30.8939V31.2939V31.6939C26.2534 31.6939 26.8355 31.8735 27.2363 32.2727L27.5186 31.9893ZM25.625 31.2939L25.2381 31.1926L24.0418 35.758L24.4287 35.8594L24.8156 35.9608L26.0119 31.3953L25.625 31.2939ZM26.8213 29.0117L26.7246 29.3999C27.4833 29.5888 28.1198 29.8654 28.6576 30.3117L28.9131 30.0039L29.1685 29.6961C28.5109 29.1504 27.753 28.8316 26.918 28.6236L26.8213 29.0117ZM28.9131 30.0039L28.6534 30.3081C29.3371 30.8918 29.9741 31.5355 30.3358 32.4362L30.707 32.2871L31.0782 32.138C30.6427 31.0537 29.8842 30.307 29.1728 29.6997L28.9131 30.0039ZM30.707 32.2871L31.025 32.5298L38.5992 22.604L38.2812 22.3613L37.9633 22.1187L30.389 32.0445L30.707 32.2871ZM38.2812 22.3613L38.6781 22.3115C38.561 21.3786 37.9802 20.5928 37.2172 20.05L36.9854 20.376L36.7535 20.7019C37.3855 21.1516 37.8021 21.7562 37.8844 22.4112L38.2812 22.3613ZM36.9854 20.376L37.245 20.0717C36.4544 19.3969 35.5544 19.182 34.5938 19.182V19.582V19.982C35.4266 19.982 36.1213 20.1644 36.7257 20.6802L36.9854 20.376ZM34.5938 19.582L34.2851 19.3276L26.5126 28.7573L26.8213 29.0117L27.13 29.2661L34.9024 19.8364L34.5938 19.582ZM19.0479 25.7373V26.1373C19.5261 26.1373 19.9437 26.5553 19.9438 27.0274L20.3438 27.0273L20.7437 27.0273C20.7436 26.11 19.9646 25.3373 19.0479 25.3373V25.7373ZM20.3438 27.0273H19.9438C19.9438 27.5423 19.5851 27.9174 19.1475 27.9174V28.3174V28.7174C20.1049 28.7174 20.7437 27.9019 20.7437 27.0273H20.3438ZM19.1475 28.3174V27.9174H13.5674V28.3174V28.7174H19.1475V28.3174ZM13.5674 28.3174V27.9174C13.0889 27.9174 12.6715 27.4994 12.6715 27.0273H12.2715H11.8715C11.8715 27.9448 12.6507 28.7174 13.5674 28.7174V28.3174ZM12.2715 27.0273L12.6715 27.0274C12.6716 26.5553 13.0891 26.1373 13.5674 26.1373V25.7373V25.3373C12.6507 25.3373 11.8717 26.11 11.8715 27.0273L12.2715 27.0273ZM13.5674 25.7373V26.1373H19.0479V25.7373V25.3373H13.5674V25.7373ZM25.5254 18.8877L25.5254 19.2877C26.0037 19.2877 26.4212 19.7058 26.4213 20.1778L26.8213 20.1777L27.2213 20.1777C27.2211 19.2604 26.442 18.4878 25.5254 18.4877L25.5254 18.8877ZM26.8213 20.1777H26.4213C26.4213 20.6927 26.0627 21.0678 25.625 21.0678L25.625 21.4678L25.625 21.8678C26.5824 21.8677 27.2213 21.0523 27.2213 20.1777H26.8213ZM25.625 21.4678V21.0678H13.5674V21.4678V21.8678H25.625V21.4678ZM13.5674 21.4678V21.0678C13.0889 21.0678 12.6715 20.6498 12.6715 20.1777H12.2715H11.8715C11.8715 21.0952 12.6507 21.8678 13.5674 21.8678V21.4678ZM12.2715 20.1777L12.6715 20.1778C12.6716 19.7057 13.0891 19.2877 13.5674 19.2877V18.8877V18.4877C12.6507 18.4877 11.8717 19.2604 11.8715 20.1777L12.2715 20.1777ZM13.5674 18.8877V19.2877H25.5254V18.8877V18.4877H13.5674V18.8877ZM36.3877 17.3984L36.2782 17.7832C36.9437 17.9725 37.5846 18.2505 38.1254 18.6994L38.3809 18.3916L38.6363 18.0838C37.9813 17.5402 37.2268 17.2213 36.4972 17.0137L36.3877 17.3984ZM38.3809 18.3916L38.1254 18.6994C38.7284 19.1999 39.2611 19.6481 39.6171 20.3572L39.9746 20.1777L40.3321 19.9982C39.891 19.1199 39.2288 18.5755 38.6363 18.0838L38.3809 18.3916ZM39.9746 20.1777L40.2898 20.424L41.6853 18.6379L41.3701 18.3916L41.0549 18.1453L39.6594 19.9315L39.9746 20.1777ZM41.3701 18.3916L41.7518 18.2719C41.1986 16.5087 39.4429 15.3119 37.6826 15.3119V15.7119V16.1119C39.1112 16.1119 40.5451 17.0984 40.9885 18.5114L41.3701 18.3916ZM37.6826 15.7119L37.3653 15.4683L36.0704 17.1548L36.3877 17.3984L36.705 17.642L37.9999 15.9555L37.6826 15.7119ZM25.5254 12.5361L25.5254 12.9361C26.0833 12.9362 26.4213 13.3336 26.4213 13.8262H26.8213H27.2213C27.2213 12.9293 26.5618 12.1362 25.5254 12.1361L25.5254 12.5361ZM26.8213 13.8262L26.4213 13.8261C26.4212 14.341 26.0625 14.7162 25.625 14.7162L25.625 15.1162L25.625 15.5162C26.5824 15.5162 27.2211 14.7006 27.2213 13.8262L26.8213 13.8262ZM25.625 15.1162V14.7162H13.5674V15.1162V15.5162H25.625V15.1162ZM13.5674 15.1162V14.7162C13.0891 14.7162 12.6716 14.2982 12.6715 13.8261L12.2715 13.8262L11.8715 13.8263C11.8717 14.7434 12.6507 15.5162 13.5674 15.5162V15.1162ZM12.2715 13.8262H12.6715C12.6715 13.3541 13.0889 12.9361 13.5674 12.9361V12.5361V12.1361C12.6507 12.1361 11.8715 12.9087 11.8715 13.8262H12.2715ZM13.5674 12.5361V12.9361H25.5254V12.5361V12.1361H13.5674V12.5361Z" fill="white" mask="url(#path-1-inside-1_372_4295)"/>
</svg>
