<svg width="72" height="72" viewBox="0 0 72 72" fill="none" xmlns="http://www.w3.org/2000/svg">
<rect x="0.5" y="0.5" width="71" height="71" rx="35.5" fill="#FFEB53"/>
<rect x="0.5" y="0.5" width="71" height="71" rx="35.5" stroke="#CEEEBA"/>
<path d="M14.3497 43.0976V51.974L34.5617 51.974V42.6304C34.405 42.319 33.7156 41.6961 32.2115 41.6961C30.7073 41.6961 30.0179 41.3846 29.8612 41.2289C29.8612 40.9174 29.6732 40.0142 28.9211 38.893C28.1691 37.7718 26.7276 37.18 26.1009 37.0243V35.6227C26.8529 35.249 28.6078 33.5983 29.3912 32.8197C29.7045 32.1968 30.4253 30.4838 30.8013 28.615C31.2714 26.2791 31.2714 26.2791 30.3313 23.0089C29.3912 19.7386 24.6907 18.8043 23.7506 18.8043C22.9985 18.8043 22.1838 18.1813 21.8704 17.8698C19.9902 16.3749 17.9534 16.624 17.17 16.9355C16.3866 17.4027 14.7257 18.8042 14.3497 20.6729C13.9736 22.5416 15.1331 23.9432 15.7598 24.4104V25.3447C15.3838 27.9609 16.5432 29.8608 17.17 30.4837L20.4603 35.1555L19.9902 37.0242L19.0501 37.4914C15.6658 38.2389 14.5064 41.5403 14.3497 43.0976Z" fill="white"/>
<path d="M38.3229 20.2054L40.2031 17.8695H40.6731C41.7699 17.7138 44.8095 17.4023 48.1939 17.4023C51.5782 17.4023 53.051 20.5169 53.3644 22.0741V28.1475C53.3644 29.2687 51.7976 30.1719 51.0142 30.4834L51.4842 35.6224L57.1248 38.8926L56.6547 44.4988L59.005 47.3019V55.7111H37.3828V40.7613C37.3828 40.0139 38.3229 38.8926 38.793 38.4254L43.9635 36.0895C44.5902 35.4666 45.4676 34.1274 43.9635 33.7536C42.4593 33.3799 40.5165 30.4834 39.733 29.0818V23.0085L38.793 22.0741L38.3229 20.2054Z" fill="white"/>
<path d="M59.9448 47.8143C59.9448 46.3526 59.2584 45.2806 57.9838 44.5985C57.6897 44.5011 57.6897 44.3062 57.6897 44.0138C57.6897 42.747 57.6897 41.3827 57.6897 40.1159C57.6897 38.5567 57.0034 37.3873 55.5327 36.7052C54.4541 36.2179 53.3756 35.6333 52.2971 35.146C51.9049 34.9511 51.7088 34.6588 51.7088 34.1715C51.7088 33.2945 51.7088 32.4174 51.7088 31.5404C51.7088 31.2481 51.8069 31.1506 52.003 31.0532C53.1795 30.371 53.8659 29.2991 53.9639 27.9348C53.9639 26.0833 53.9639 24.3292 53.9639 22.4777C53.8659 19.4568 51.3167 16.8257 48.2772 16.8257C46.1202 16.7282 43.9632 16.8257 41.8061 16.8257C39.7472 16.8257 37.9823 18.3849 37.5901 20.4313C37.394 21.6981 37.6882 22.4777 38.8647 23.1598C38.9628 23.2573 39.0608 23.4522 39.0608 23.6471C39.0608 25.1088 39.0608 26.668 39.0608 28.1297C39.1589 30.8583 40.6296 32.8072 43.0808 33.9766C43.2768 34.0741 43.571 34.0741 43.4729 34.4639C43.3749 34.8537 43.669 35.2435 43.0808 35.4383C41.7081 36.023 40.4335 36.8026 39.0608 37.3873C37.394 38.1669 36.6097 39.4337 36.7077 41.1878C36.7077 44.5011 36.7077 47.8143 36.7077 51.0301C36.7077 51.225 36.7077 51.4199 36.7077 51.6148C36.1194 51.6148 35.5312 51.6148 35.0409 51.6148C35.0409 51.3225 35.139 51.1276 35.139 50.9327C35.139 48.399 35.139 45.8653 35.139 43.3317C35.139 42.1623 34.1585 41.2853 32.982 41.1878C32.3937 41.1878 31.7074 41.1878 31.1191 41.1878C30.8249 41.1878 30.7269 41.0904 30.6288 40.798C30.5308 38.849 29.1581 37.3873 27.2953 36.9001C27.1972 36.9001 27.0992 36.8026 27.0011 36.8026C26.9031 36.3154 27.0011 35.9256 27.4913 35.6333C28.6679 34.9511 29.5503 34.0741 30.0406 32.8072C30.5308 31.6378 30.923 30.5659 31.6093 29.5914C32.2956 28.1297 32.2956 26.5705 32.0015 25.0113C31.2171 20.821 27.6874 17.995 23.5695 18.1899C23.2753 18.1899 23.0793 18.0925 22.7851 17.8976C20.9222 15.6563 17.5886 15.3639 15.3336 17.2155C13.0785 19.1644 12.9805 22.4777 15.0394 24.6215C15.2355 24.8164 15.3336 25.0114 15.2355 25.3037C14.7453 27.8374 15.3336 29.9812 17.3926 31.6379C17.4906 31.7353 17.5886 31.8327 17.5886 32.0276C17.9808 33.0996 18.4711 33.9766 19.3535 34.7562C19.4515 34.8536 19.5496 34.9511 19.5496 35.0486C19.5496 35.6332 19.5496 36.1205 19.5496 36.7052C15.9219 37.1924 13.3726 40.2133 13.5687 43.8189C13.6668 46.2551 13.5687 48.5939 13.5687 51.0301C13.5687 51.225 13.5687 51.3225 13.5687 51.5174C13.2746 51.5174 12.9805 51.5174 12.6863 51.5174C12.2941 51.5174 12.098 51.8097 12 52.1021C12 52.4919 12.1961 52.7842 12.5883 52.8816C12.7844 52.8816 12.9805 52.8816 13.1766 52.8816C20.8242 52.8816 28.4718 52.8816 36.1194 52.8816C36.3155 52.8816 36.5116 52.8816 36.7077 52.8816C36.7077 53.0765 36.7077 53.2714 36.7077 53.4663C36.7077 54.051 36.7077 54.6357 36.7077 55.2204C36.7077 55.6102 37.0019 55.8051 37.394 55.9025C37.7862 55.9025 38.0804 55.6102 38.0804 55.2204C38.0804 55.0255 38.0804 54.928 38.0804 54.7332C38.0804 50.1531 38.0804 45.573 38.0804 40.9929C38.0804 40.6031 38.1784 40.3108 38.1784 39.8235C39.0608 40.5057 39.7472 41.1878 40.5315 41.7725C41.512 42.5521 41.9042 43.5266 41.9042 44.696C41.9042 48.1067 41.9042 51.4199 41.9042 54.8306C41.9042 55.0255 41.9042 55.2204 41.9042 55.3178C42.0022 55.7076 42.1983 55.9025 42.4925 55.9025C42.7866 55.9025 42.9827 55.7076 43.1788 55.4153C43.2768 55.3179 43.2768 55.0255 43.2768 54.8306C43.2768 52.5893 43.2768 50.2505 43.2768 48.0092C43.2768 46.45 44.1593 45.573 45.728 45.573C49.0616 45.573 52.4932 45.573 55.8268 45.573C57.3955 45.573 58.278 46.5475 58.278 48.1067C58.278 50.4454 58.278 52.7842 58.278 55.123C58.278 55.7077 58.6489 56 59.0411 56C59.5206 56 60 56 60 55.0476C60 52.4414 59.9448 50.2505 59.9448 47.8143ZM16.314 18.1899C17.8828 16.9231 20.1379 17.0206 21.5105 18.4823C18.9613 19.3593 17.0004 20.9185 15.9219 23.3547C14.5492 21.7956 14.8433 19.4568 16.314 18.1899ZM17.4906 28.422C17.3926 28.7144 17.3926 29.1042 17.2945 29.494C16.8043 28.9093 16.6082 28.2271 16.5101 27.545C16.0199 21.9904 21.6086 17.9951 26.6089 20.0415C28.864 20.9185 30.0406 22.77 30.5308 25.1088C30.7269 25.8884 30.7269 26.7654 30.8249 27.545H30.7269C30.5308 27.1552 30.3347 26.7654 30.1386 26.4731C29.7464 25.9858 29.2562 25.7909 28.6679 25.7909C26.6089 25.596 24.5499 25.1088 22.589 24.2318C22.1968 24.0369 21.8047 23.842 21.5105 23.5496C21.2164 23.3547 20.9222 23.3547 20.6281 23.6471C19.1574 24.9139 17.8828 26.3756 17.4906 28.422ZM18.7652 29.9812C18.7652 28.0322 19.5496 26.3756 21.0203 25.0113C22.3929 25.4986 23.6675 26.0833 24.9421 26.3756C26.1187 26.668 27.2953 26.8629 28.3738 27.0578C28.962 27.1552 29.2562 27.3501 29.1581 27.9348C29.1581 29.0067 29.1581 30.1761 28.962 31.2481C28.3738 33.7817 25.8246 35.4384 23.1773 35.146C20.8242 34.8537 18.7652 32.6123 18.7652 29.9812ZM23.3734 38.849C22.2949 38.849 20.8242 37.972 21.1183 35.8281C22.589 36.5103 24.0597 36.7052 25.6285 36.3154C25.7265 37.7771 24.648 38.849 23.3734 38.849ZM33.8644 50.348C33.8644 51.225 33.5702 51.5174 32.6878 51.5174C28.4718 51.5174 24.2558 51.5174 20.0398 51.5174C19.1574 51.5174 18.8633 51.225 18.8633 50.348C18.8633 49.276 18.8633 48.2041 18.8633 47.1322C18.8633 46.5475 18.5691 46.2551 18.1769 46.2551C17.7847 46.2551 17.4906 46.5475 17.4906 47.1322C17.4906 48.3016 17.4906 49.3735 17.4906 50.5429C17.4906 50.8352 17.5886 51.1276 17.5886 51.4199C16.9023 51.4199 16.216 51.4199 15.5297 51.4199C15.4316 51.4199 15.3336 51.4199 15.1375 51.4199C15.1375 51.225 15.1375 51.1276 15.1375 51.0301C15.1375 48.399 15.1375 45.8653 15.1375 43.2342C15.1375 40.6031 16.9023 38.5567 19.4515 38.0695C19.8437 37.972 19.9418 38.0695 20.2359 38.3618C21.7066 40.798 25.1382 40.798 26.6089 38.3618C26.805 38.0695 27.0011 37.972 27.2953 38.0695C28.5699 38.4593 29.5503 39.7261 29.3542 40.9929C29.1581 40.9929 28.962 40.9929 28.864 40.9929C25.9226 40.9929 22.9812 40.9929 20.1379 40.9929C18.5691 40.9929 17.2945 41.9674 17.4906 44.0138C17.4906 44.4036 17.8828 44.696 18.1769 44.696C18.5691 44.696 18.8633 44.4036 18.8633 44.0138C18.7652 42.6495 19.2554 42.5521 20.432 42.5521C24.5499 42.5521 28.5699 42.5521 32.6878 42.5521C33.6683 42.5521 33.9624 42.747 33.9624 43.8189C33.8644 45.9628 33.8644 48.2041 33.8644 50.348ZM40.5315 27.8374C40.5315 26.3756 40.5315 25.0113 40.5315 23.5496C40.5315 23.4522 40.5315 23.3547 40.5315 23.2573C41.512 23.2573 42.1003 23.9394 42.1003 24.8165C42.1003 25.596 42.1003 26.3756 42.1003 27.1552C42.1983 29.3965 43.9632 31.248 46.3163 31.3455C46.6104 31.3455 47.0026 31.3455 47.2968 31.3455C47.6889 31.3455 47.885 31.0532 47.9831 30.6634C47.9831 30.2736 47.787 29.9812 47.3948 29.9812C47.1007 29.9812 46.7085 29.9812 46.4143 29.9812C44.8456 29.8838 43.669 28.7144 43.571 27.1552C43.571 26.3756 43.571 25.6935 43.571 24.9139C43.571 23.0624 42.2964 21.7955 40.4335 21.7955C39.1589 21.7955 38.7667 21.3083 39.2569 20.0415C39.6491 18.8721 40.7276 17.9951 42.0022 17.9951C44.0612 17.9951 46.2182 17.8976 48.2772 17.9951C50.6303 18.0925 52.4932 19.944 52.5913 22.3802C52.6893 24.1343 52.5913 25.9858 52.5913 27.7399C52.5913 28.9093 51.7088 29.8838 50.4342 29.9812C50.0421 29.9812 49.6499 30.0787 49.5518 30.5659C49.4538 30.9557 49.6499 31.2481 50.1401 31.443C50.2381 31.443 50.3362 31.6378 50.3362 31.8327C50.3362 32.5149 50.3362 33.2945 50.3362 33.9766C50.3362 34.3664 50.4342 34.7562 50.4342 35.2434C48.6694 35.2434 46.9046 35.2434 45.0417 35.2434C45.0417 34.7562 45.0417 34.269 45.0417 33.7817C45.0417 33.197 44.9436 33.0021 44.3554 32.8072C42.0022 32.0276 40.5315 30.1761 40.5315 27.8374ZM56.317 44.1113C56.1209 44.1113 55.9248 44.1113 55.7287 44.1113C52.7873 44.1113 49.944 44.1113 47.0026 44.1113C45.2378 44.1113 45.2378 43.9164 43.571 44.7934C43.571 44.3062 43.4729 43.9164 43.4729 43.4291C43.2768 42.3572 42.6886 41.4802 41.9042 40.798C41.1198 40.1159 40.3354 39.4337 39.5511 38.849C39.5511 38.849 39.5511 38.849 39.5511 38.7516C39.6491 38.6541 39.8452 38.5567 39.9433 38.5567C41.0218 37.972 42.1003 37.4848 43.1788 36.9001C43.571 36.7052 44.0612 36.6077 44.5514 36.6077C47.1007 36.6077 49.5518 36.6077 52.101 36.6077C52.3952 36.6077 52.6893 36.7052 52.9834 36.8026C53.6698 37.095 54.4542 37.4848 55.1405 37.8746C56.0229 38.3618 56.5131 39.0439 56.5131 40.1159C56.317 41.3827 56.317 42.747 56.317 44.1113Z" fill="#72BA5F"/>
<path d="M26.3142 44.8906C25.1376 44.8906 24.1571 45.8651 24.0591 47.0345C24.0591 48.2039 25.0396 49.1784 26.2161 49.2758C27.3927 49.2758 28.3731 48.3013 28.3731 47.1319C28.4712 45.8651 27.5888 44.8906 26.3142 44.8906ZM26.3142 47.8141C25.922 47.8141 25.5298 47.4243 25.5298 47.0345C25.5298 46.6447 25.922 46.2549 26.3142 46.2549C26.8044 46.2549 27.0985 46.6447 27.0985 47.0345C27.0985 47.5217 26.7063 47.8141 26.3142 47.8141Z" fill="#72BA5F"/>
<path d="M26.0024 31.4961C26.2566 31.395 26.4915 31.3935 26.6772 31.4727C26.8632 31.552 26.9949 31.7108 27.0474 31.9189C27.098 32.1202 27.0998 32.3282 27.02 32.5C26.9392 32.6737 26.7785 32.803 26.522 32.8545C26.0264 33.0504 25.4348 33.1484 24.8442 33.1484C24.2542 33.1484 23.6628 33.051 23.1675 32.8555L23.0757 32.833C22.871 32.7714 22.7384 32.6525 22.6675 32.5C22.5877 32.3282 22.5895 32.1202 22.6401 31.9189C22.6925 31.711 22.8242 31.5522 22.9976 31.4727C23.1694 31.3938 23.3785 31.3948 23.5845 31.4951C24.4573 31.7843 25.2299 31.7838 26.0024 31.4961Z" fill="#72BA5F" stroke="#72BA5F" stroke-width="0.096396" stroke-miterlimit="10"/>
<path d="M22.4909 27.6924C22.6994 27.6924 22.884 27.7704 23.0163 27.915C23.1484 28.0594 23.2252 28.2664 23.2253 28.5195V29.2998C23.2252 29.5077 23.1461 29.6681 23.0114 29.7754C22.8779 29.8815 22.6942 29.9326 22.4909 29.9326C22.0669 29.9326 21.8587 29.6133 21.7585 29.3145L21.7565 29.3076V28.5195C21.7566 28.2665 21.8326 28.0594 21.9645 27.915C22.0969 27.7703 22.2823 27.6924 22.4909 27.6924Z" fill="#72BA5F" stroke="#72BA5F" stroke-width="0.096396" stroke-miterlimit="10"/>
<path d="M27.0987 27.7939C27.3072 27.794 27.4918 27.8719 27.6241 28.0166C27.7561 28.161 27.833 28.3679 27.8331 28.6211V29.2061C27.8331 29.6227 27.5171 29.9364 27.0987 29.9365C26.8438 29.9365 26.6584 29.8597 26.5372 29.7393C26.4166 29.6192 26.3644 29.4603 26.3643 29.3037V28.6211C26.3644 28.3681 26.4404 28.161 26.5723 28.0166C26.7047 27.8719 26.8901 27.7939 27.0987 27.7939Z" fill="#72BA5F" stroke="#72BA5F" stroke-width="0.096396" stroke-miterlimit="10"/>
</svg>
