<svg width="48" height="48" viewBox="0 0 48 48" fill="none" xmlns="http://www.w3.org/2000/svg">
<path d="M35.96 35.5137C36.1329 35.3984 36.3088 35.401 36.4707 35.4551C36.5477 35.4808 36.6239 35.5187 36.6973 35.5615L36.9092 35.6963L36.917 35.7021L37.0879 35.8467C37.2552 35.9945 37.4119 36.151 37.5654 36.3047C37.7201 36.4595 37.8721 36.6115 38.0322 36.7529L38.1953 36.8906L38.2051 36.8984L38.123 36.9795C38.0267 36.9023 37.9346 36.8209 37.8447 36.7373C37.9348 36.821 38.0266 36.9032 38.123 36.9805C38.2143 37.0719 38.3062 37.1635 38.3975 37.2549V37.2539L38.123 36.9795L38.2041 36.8994C38.2497 36.9451 38.2962 36.9905 38.3418 37.0361C38.3691 37.0634 38.3965 37.0908 38.4238 37.1182C39.4167 36.6801 40.3518 36.5464 41.1826 36.7197C42.0353 36.8977 42.7667 37.3958 43.3291 38.1934L43.3301 38.1943C44.3656 39.7024 44.1757 41.6816 42.9541 42.999L42.9492 43.0049L42.8711 42.9209C42.9431 42.8433 43.011 42.763 43.0752 42.6807C43.0107 42.763 42.9423 42.8431 42.8701 42.9209H42.8711L42.9482 43.0049C41.6299 44.2303 39.5615 44.3246 38.1484 43.2881L37.9072 43.0986C36.7575 42.1096 36.164 40.2917 37.1572 38.4678C36.6361 38.0265 36.1935 37.582 35.7529 37.0527V37.0518C35.6482 36.943 35.5744 36.7917 35.5273 36.6504C35.4789 36.5048 35.4532 36.3554 35.4531 36.249C35.4532 36.0711 35.5427 35.9297 35.6416 35.8184C35.6912 35.7625 35.7462 35.7105 35.7979 35.6631C35.851 35.6143 35.9001 35.5716 35.9434 35.5283L35.9512 35.5205L35.96 35.5137ZM11.5898 35.3799C11.7346 35.3592 11.8751 35.3864 12.0166 35.4414L12.1592 35.5049L12.167 35.5088L12.1104 35.6025L12.167 35.5098C12.4206 35.6622 12.5821 35.8972 12.6094 36.1553C12.6367 36.4156 12.5249 36.6791 12.2715 36.8828L12.2725 36.8838C11.7493 37.3203 11.3098 37.7571 10.7881 38.2793C11.3157 39.281 11.4889 40.296 11.1211 41.4014C10.8401 42.2454 10.3683 42.9088 9.6123 43.3818C8.10803 44.323 6.22137 44.1363 4.99512 42.8145C3.77122 41.4944 3.67562 39.5135 4.71191 38.0986L4.71289 38.0977C5.27599 37.346 6.00784 36.872 6.85938 36.7061C7.68911 36.5445 8.62344 36.6792 9.61621 37.1172C9.82959 36.9036 10.0608 36.6719 10.292 36.4404C10.543 36.1891 10.7942 35.9375 11.0225 35.709C11.2141 35.5172 11.3962 35.4077 11.5898 35.3799ZM40.3145 38.374C39.2824 38.374 38.4211 39.2369 38.4209 40.2705C38.421 41.3041 39.2824 42.167 40.3145 42.167C41.3465 42.1669 42.2079 41.3041 42.208 40.2705C42.2078 39.237 41.3464 38.3741 40.3145 38.374ZM7.72559 38.3721C6.69398 38.3725 5.83234 39.2354 5.83203 40.2686C5.83203 41.302 6.69379 42.1646 7.72559 42.165C8.75775 42.165 9.62012 41.3023 9.62012 40.2686C9.6198 39.2351 8.75756 38.3721 7.72559 38.3721ZM9.72461 40.4385C9.72974 40.3827 9.73436 40.3265 9.73438 40.2695V40.2686C9.73438 40.3256 9.72952 40.3824 9.72461 40.4385ZM25.707 9.08008C25.9917 9.08011 26.2037 9.12685 26.3691 9.25098C26.5318 9.37314 26.632 9.55782 26.7246 9.78906C26.8637 10.1141 26.9799 10.4618 27.0938 10.8037C27.2075 11.1454 27.3194 11.4817 27.4531 11.7949C27.4951 11.8787 27.5337 11.936 27.5791 11.9814C27.6245 12.0269 27.6819 12.0654 27.7656 12.1074C28.0808 12.2425 28.3738 12.3561 28.6689 12.4697C28.8171 12.5268 28.9663 12.5833 29.1182 12.6436L29.5859 12.8369L29.5918 12.8389L29.541 12.9414L29.5918 12.8398C29.7419 12.915 29.8871 12.9147 30.0371 12.8398L30.0439 12.8359C30.3595 12.7005 30.6763 12.5429 30.9961 12.3828C31.3149 12.2232 31.6379 12.0615 31.9609 11.9229L31.9629 11.9219C32.1952 11.8288 32.4013 11.7731 32.6025 11.7998C32.8078 11.8272 32.9903 11.9373 33.1826 12.1299C34.0867 13.035 35.0042 13.8632 35.8262 14.7764C35.9344 14.8409 36.0103 14.9466 36.0654 15.0459C36.0961 15.1012 36.124 15.1587 36.1484 15.2119C36.1735 15.2665 36.1942 15.3151 36.2158 15.3584L36.2422 15.4092L36.2158 15.4609C36.1743 15.5442 36.1533 15.6063 36.1309 15.6738C36.1078 15.7431 36.0826 15.819 36.0332 15.918L36.0312 15.9229L35.9316 15.8662L36.0303 15.9229C35.6682 16.5572 35.3973 17.1011 35.126 17.7344C35.0627 17.9256 35.0505 18.0569 35.0791 18.1719L35.1211 18.2832L35.124 18.2891C35.2624 18.6123 35.3777 18.9364 35.4912 19.2432C35.6052 19.5514 35.7177 19.8434 35.8516 20.1113C35.8936 20.1955 35.932 20.2532 35.9775 20.2988C36.0224 20.3438 36.079 20.3824 36.1611 20.4238C36.4748 20.5583 36.812 20.6709 37.1543 20.7852C37.4949 20.8988 37.8411 21.0145 38.165 21.1533L38.335 21.2314C38.493 21.3156 38.6175 21.4184 38.707 21.5479C38.8269 21.7212 38.8759 21.9293 38.876 22.1729V25.9209C38.8757 26.3518 38.5524 26.6562 38.1738 26.8457L38.167 26.8486C37.8426 26.9878 37.4954 27.1029 37.1543 27.2168C36.8113 27.3313 36.4734 27.4443 36.1592 27.5791L36.1377 27.5889H36.1143C36.0684 27.589 36.029 27.6097 35.9854 27.6621C35.9387 27.7183 35.8986 27.7964 35.8516 27.8906L35.8506 27.8896C35.5743 28.5345 35.3083 29.0705 35.1289 29.6992L35.126 29.709L35.1211 29.7188C35.0648 29.8315 35.0501 29.9416 35.0781 30.0527L35.1211 30.165L35.124 30.1709C35.2586 30.4853 35.4151 30.7785 35.5752 31.0762C35.7346 31.3725 35.8969 31.6738 36.0361 31.999L36.0371 32.002C36.1286 32.231 36.1856 32.4158 36.1582 32.6084C36.1307 32.8006 36.0224 32.982 35.8379 33.2129L35.8301 33.2227L35.8291 33.2217C34.9223 34.1295 34.0931 35.0521 33.1777 35.877L33.1768 35.876C32.9861 36.0657 32.8062 36.175 32.6025 36.2021C32.4013 36.2288 32.1952 36.1741 31.9629 36.0811L31.9561 36.0781L31.9492 36.0732C31.317 35.7115 30.6835 35.4404 30.0439 35.166L30.0371 35.1631C29.8869 35.088 29.742 35.0879 29.5918 35.1631L29.583 35.167L29.5723 35.1699C28.9424 35.3501 28.3102 35.6214 27.7666 35.8936C27.6825 35.9357 27.6246 35.975 27.5791 36.0205C27.5346 36.0651 27.4952 36.1209 27.4541 36.2021C27.1862 36.9181 26.9982 37.5737 26.7246 38.2129C26.632 38.444 26.5318 38.6288 26.3691 38.751C26.2038 38.875 25.9916 38.9218 25.707 38.9219H22.0547C21.7702 38.9218 21.5579 38.8751 21.3926 38.751C21.23 38.6288 21.1297 38.4441 21.0371 38.2129L20.9365 37.9658C20.8399 37.7149 20.7534 37.4547 20.668 37.1982C20.5536 36.8548 20.4413 36.5167 20.3066 36.2021H20.3057C20.2647 36.1212 20.2271 36.065 20.1826 36.0205C20.137 35.975 20.0793 35.9357 19.9951 35.8936H19.9941C19.6799 35.7589 19.3872 35.6466 19.0928 35.5332C18.7964 35.4191 18.4974 35.304 18.1758 35.166L18.1699 35.1631C18.0197 35.0879 17.8749 35.0879 17.7246 35.1631L17.7188 35.166L17.6729 35.0605L17.7178 35.166C17.4022 35.3015 17.0854 35.46 16.7656 35.6201C16.4469 35.7797 16.1237 35.9405 15.8008 36.0791L15.7988 36.0811C15.5665 36.1741 15.3605 36.2289 15.1592 36.2021C14.954 36.1747 14.7714 36.0646 14.5791 35.8721L11.9326 33.2217C11.7403 33.0291 11.6299 32.847 11.6025 32.6416C11.5758 32.4402 11.6317 32.2346 11.7246 32.002L11.7256 31.999C11.8648 31.6739 12.0272 31.3724 12.1865 31.0762C12.3453 30.781 12.5009 30.4902 12.6348 30.1787C12.72 29.922 12.7134 29.7738 12.6406 29.6279C12.5008 29.3479 12.3852 29.0451 12.2715 28.749C12.1585 28.4549 12.0477 28.1668 11.916 27.9014C11.894 27.8772 11.8717 27.852 11.8525 27.8271C11.827 27.7941 11.8031 27.7626 11.7764 27.7305C11.7243 27.6679 11.6692 27.6126 11.5996 27.5771C11.2851 27.4424 10.9691 27.3308 10.6504 27.2168C10.3315 27.1028 10.0087 26.9873 9.68555 26.8486V26.8477C9.45486 26.755 9.27037 26.6548 9.14844 26.4922C9.02444 26.3266 8.97756 26.1141 8.97754 25.8291V22.1729C8.97756 21.8881 9.02471 21.6763 9.14844 21.5107C9.27086 21.3473 9.45637 21.2463 9.68848 21.1533L9.69043 21.1523C10.4338 20.8733 11.0565 20.6965 11.6943 20.4229L11.7158 20.4131H11.7393C11.7851 20.4131 11.8246 20.393 11.8682 20.3408C11.915 20.2846 11.9548 20.2058 12.002 20.1113C12.2781 19.4667 12.5452 18.9312 12.7246 18.3027L12.7275 18.293L12.7324 18.2832C12.8076 18.1326 12.8076 17.9875 12.7324 17.8369L12.7295 17.8311C12.5949 17.5166 12.4374 17.2235 12.2773 16.9258C12.118 16.6295 11.9556 16.3281 11.8164 16.0029L11.8154 16C11.7225 15.7674 11.6676 15.5618 11.6943 15.3604C11.7217 15.155 11.8312 14.9728 12.0234 14.7803C12.9301 13.8725 13.7596 12.9508 14.6748 12.126C14.8656 11.9359 15.0462 11.8271 15.25 11.7998C15.4009 11.7797 15.5546 11.8059 15.7197 11.8594L15.8896 11.9219L15.9014 11.9258L15.9111 11.9326C16.3142 12.2016 16.7688 12.4211 17.2412 12.6299L17.7178 12.8369L17.7246 12.8389L17.6729 12.9404L17.7246 12.8398C17.8747 12.9149 18.0198 12.9149 18.1699 12.8398L18.1787 12.835L18.1895 12.832C18.8193 12.6519 19.4515 12.3805 19.9951 12.1084C20.0793 12.0663 20.137 12.027 20.1826 11.9814C20.228 11.936 20.2667 11.8786 20.3086 11.7949C20.5755 11.0808 20.7641 10.4269 21.0371 9.78906C21.1296 9.55797 21.2301 9.37315 21.3926 9.25098C21.5579 9.12683 21.7702 9.08016 22.0547 9.08008H25.707ZM4.62891 38.4297C4.57664 38.5162 4.52868 38.6047 4.48438 38.6943C4.5294 38.6032 4.57855 38.5136 4.63184 38.4258L4.62891 38.4297ZM11.1035 35.79C10.6471 36.247 10.1 36.796 9.64355 37.2529L9.26953 37.0957C9.14934 37.0497 9.03001 37.0092 8.91211 36.9727C9.15125 37.0469 9.39537 37.14 9.64355 37.2529C10.1 36.796 10.6481 36.248 11.1045 35.791C11.1224 35.773 11.1407 35.7565 11.1582 35.7402C11.1406 35.7564 11.1215 35.7721 11.1035 35.79ZM22.9678 11.0449C22.8427 11.045 22.7765 11.0666 22.7344 11.0947C22.6923 11.123 22.6573 11.1684 22.6152 11.252C22.5231 11.5713 22.4108 11.8687 22.2988 12.1602C22.1845 12.4578 22.0721 12.7503 21.9824 13.0645C21.9322 13.308 21.8319 13.4886 21.6875 13.6201C21.5448 13.7499 21.3671 13.8238 21.1777 13.8721C20.3639 14.1437 19.5485 14.5058 18.7275 14.8711L18.7285 14.8721C18.5358 14.9685 18.3576 15.0215 18.1748 15.0215C17.9939 15.0213 17.8183 14.9686 17.6279 14.874C17.305 14.7354 16.9818 14.5746 16.6631 14.415C16.3667 14.2667 16.0729 14.1207 15.7803 13.9922C15.477 14.2958 15.1553 14.6197 14.833 14.9424C14.51 15.2658 14.1857 15.5884 13.8818 15.8926C14.1472 16.5183 14.4101 17.2059 14.7559 17.8135L14.8232 17.9297C14.8815 18.047 14.9121 18.1691 14.9121 18.2998C14.9121 18.472 14.8587 18.6505 14.7627 18.8428L14.7607 18.8467C14.5363 19.2511 14.3553 19.6803 14.1846 20.1133C14.0149 20.5437 13.8536 20.9826 13.6699 21.3965C13.5704 21.6885 13.3664 21.9983 12.9541 22.1016C12.685 22.1917 12.3938 22.3032 12.0869 22.417C11.7826 22.5298 11.4639 22.6434 11.1445 22.7354C11.0624 22.7771 11.0136 22.8132 10.9844 22.8496C10.9577 22.8831 10.9404 22.9262 10.9404 22.9961V25.2803C10.9405 25.3502 10.9577 25.3933 10.9844 25.4268C11.0136 25.4631 11.0626 25.4984 11.1445 25.54C11.4647 25.6324 11.7626 25.7469 12.0547 25.8594C12.3516 25.9737 12.6436 26.0861 12.957 26.1758L12.9678 26.1787L12.9775 26.1836C13.1659 26.2779 13.3173 26.3775 13.4336 26.5068C13.5496 26.6359 13.6247 26.7886 13.6738 26.9814L13.8936 27.5938C14.1274 28.2066 14.3997 28.8209 14.6738 29.4385L14.6787 29.4482L14.5693 29.4854L14.6777 29.4492C14.7695 29.7249 14.8768 30.0398 14.6719 30.4502C14.5359 30.7224 14.3997 31.0181 14.2627 31.3154C14.126 31.612 13.9874 31.9105 13.8496 32.1865C13.8053 32.2753 13.7987 32.3158 13.8037 32.3457C13.8091 32.377 13.8324 32.4241 13.9199 32.5117C14.1937 32.7858 14.4675 33.0599 14.7412 33.334C15.0151 33.6081 15.2896 33.8831 15.5635 34.1572C15.6511 34.2449 15.6983 34.2681 15.7295 34.2734C15.7592 34.2783 15.7994 34.2707 15.8877 34.2266C16.1632 34.0887 16.4618 33.9512 16.7578 33.8145C17.0547 33.6772 17.3502 33.5404 17.6221 33.4043C17.8146 33.3079 17.9922 33.255 18.1748 33.2549C18.3577 33.2549 18.5358 33.3078 18.7285 33.4043C19.1347 33.5849 19.5417 33.7429 19.9512 33.9023C20.3601 34.0616 20.7724 34.222 21.1846 34.4053C21.5643 34.5034 21.8773 34.7059 21.9824 35.1201C22.0721 35.4342 22.1845 35.7268 22.2988 36.0244C22.4107 36.3156 22.5232 36.6126 22.6152 36.9316C22.6578 37.0164 22.6945 37.066 22.7314 37.0957C22.7648 37.1224 22.8072 37.1396 22.877 37.1396H25.1592C25.2842 37.1396 25.3504 37.1179 25.3926 37.0898C25.4348 37.0615 25.4685 37.0156 25.5107 36.9316C25.6028 36.6126 25.7163 36.3156 25.8281 36.0244C25.9424 35.7269 26.0549 35.4342 26.1445 35.1201C26.1948 34.8767 26.2952 34.696 26.4395 34.5645C26.5831 34.4337 26.7622 34.3588 26.9531 34.3105C27.7654 34.0391 28.579 33.6771 29.3984 33.3125C29.5911 33.2161 29.7694 33.1641 29.9521 33.1641C30.1327 33.1641 30.3081 33.2154 30.498 33.3096C30.8211 33.4482 31.145 33.6099 31.4639 33.7695C31.7598 33.9177 32.0535 34.063 32.3457 34.1914C32.6488 33.8879 32.9718 33.5657 33.2939 33.2432C33.6171 32.9197 33.9402 32.5953 34.2441 32.291C33.979 31.6656 33.7167 30.9783 33.3711 30.3711L33.3037 30.2549C33.2456 30.1376 33.2149 30.0154 33.2148 29.8848C33.2149 29.7127 33.2684 29.5349 33.3643 29.3428C33.4542 29.1399 33.5383 28.931 33.6201 28.7188L34.1025 27.4297C34.185 27.2158 34.2701 27.004 34.3613 26.7979C34.408 26.6142 34.4867 26.4162 34.6641 26.3125C34.8409 26.2093 35.0778 26.221 35.3877 26.3467C35.9306 26.1668 36.5444 25.9889 37.1611 25.7246C37.2303 25.6892 37.2836 25.6365 37.3193 25.583C37.3573 25.526 37.3689 25.4796 37.3691 25.4639V23.1787C37.3691 23.1087 37.3519 23.0667 37.3252 23.0332C37.2959 22.9965 37.2471 22.96 37.1641 22.918C36.8444 22.8257 36.5466 22.7119 36.2549 22.5996C35.9579 22.4853 35.666 22.3729 35.3525 22.2832L35.3418 22.2803L35.332 22.2754C35.1437 22.1811 34.9922 22.0815 34.876 21.9521C34.7615 21.8247 34.6879 21.6739 34.6387 21.4844L34.3652 20.8164C34.0919 20.1623 33.8189 19.5459 33.5449 18.9287L33.54 18.9199L33.5381 18.9102C33.4942 18.7343 33.445 18.5612 33.4326 18.4004C33.4201 18.2373 33.4445 18.0779 33.5449 17.9199C33.8179 17.2823 34.0931 16.6407 34.3682 16.0898C34.4125 16.001 34.42 15.9606 34.415 15.9307C34.4097 15.8994 34.3864 15.8524 34.2988 15.7646C34.025 15.4905 33.7504 15.2165 33.4766 14.9424C33.2027 14.6682 32.9291 14.3933 32.6553 14.1191C32.5675 14.0313 32.5204 14.0082 32.4893 14.0029C32.4595 13.9981 32.4196 14.0055 32.3311 14.0498L32.3252 14.0527C31.6855 14.3272 31.0489 14.5997 30.5049 14.8721C30.313 14.9681 30.1349 15.0215 29.9629 15.0215C29.7917 15.0214 29.6356 14.9678 29.4854 14.8691V14.8701C29.0814 14.6454 28.6532 14.4639 28.2207 14.293C27.7942 14.1244 27.3597 13.9634 26.9492 13.7812C26.5665 13.6837 26.2502 13.4812 26.1445 13.0645L26.0732 12.832C25.9985 12.6034 25.9138 12.3833 25.8281 12.1602C25.7161 11.8685 25.6029 11.5715 25.5107 11.252C25.4684 11.1679 25.4324 11.1184 25.3955 11.0889C25.3621 11.0622 25.3198 11.0449 25.25 11.0449H22.9678ZM25.6152 36.9795C25.6054 36.9991 25.594 37.0167 25.584 37.0342C25.594 37.0166 25.6064 36.9991 25.6162 36.9795C25.639 36.8995 25.6622 36.8206 25.6875 36.7432C25.6622 36.8207 25.6381 36.8995 25.6152 36.9795ZM12.0127 33.1406C12.9256 34.0546 13.7473 34.878 14.6602 35.792C14.7026 35.8345 14.7447 35.8714 14.7852 35.9043C14.7447 35.8714 14.7036 35.8335 14.6611 35.791C13.7483 34.8771 12.9265 34.0546 12.0137 33.1406C11.9681 33.095 11.9281 33.0511 11.8936 33.0078C11.928 33.0509 11.9674 33.0952 12.0127 33.1406ZM19.582 35.5996C19.7333 35.6597 19.8871 35.7234 20.0469 35.792V35.791C19.8872 35.7225 19.7332 35.6595 19.582 35.5996ZM33.6191 35.3047C33.4487 35.4693 33.2775 35.6325 33.1016 35.791V35.792C33.2156 35.6892 33.3288 35.585 33.4404 35.4795C33.501 35.4223 33.5592 35.3626 33.6191 35.3047ZM11.2373 35.6699C11.2311 35.6749 11.2251 35.6803 11.2188 35.6855C11.2324 35.6741 11.2463 35.6637 11.2598 35.6533C11.2525 35.6589 11.2447 35.664 11.2373 35.6699ZM33.8242 35.1064C34.0256 34.9075 34.2255 34.7057 34.4248 34.501C34.2255 34.7058 34.0258 34.9077 33.8242 35.1064ZM29.4492 33.415C29.2439 33.5064 29.0384 33.5975 28.833 33.6875C28.6275 33.7775 28.4223 33.8664 28.2168 33.9521C27.8061 34.1236 27.395 34.2838 26.9844 34.4209H26.9854C27.8069 34.1467 28.6286 33.7806 29.4502 33.415C29.4959 33.3922 29.5398 33.3716 29.583 33.3545C29.5397 33.3717 29.495 33.3921 29.4492 33.415ZM15.6055 34.3418C15.6096 34.3445 15.6141 34.3462 15.6182 34.3486C15.6119 34.3448 15.6051 34.3413 15.5986 34.3369L15.6055 34.3418ZM35.749 33.1406L35.8564 33C35.8593 32.9959 35.8614 32.9913 35.8643 32.9873C35.8307 33.035 35.7927 33.086 35.749 33.1406ZM20.8193 16.3584C21.0349 16.3944 21.2219 16.5239 21.3652 16.7227L21.4238 16.8125L21.4287 16.8203H21.4277C21.6463 17.258 21.4152 17.7735 20.9277 18.0664C19.127 19.1482 17.9633 20.6754 17.6045 22.7402C17.3442 24.5686 17.6733 26.1382 18.7529 27.7051C19.3005 26.6332 20.1582 25.9477 21.249 25.5801C20.8406 24.8638 20.7549 24.1463 20.7549 23.3604V23.3545L20.7676 23.1875C20.9383 21.4734 22.3219 20.1387 24.0645 20.1387C25.7654 20.1387 27.2792 21.4636 27.374 23.2637V23.2695C27.374 24.0534 27.2911 24.8547 26.8818 25.5811C27.97 25.9483 28.8257 26.6319 29.373 27.7002C30.2861 26.3064 30.6956 24.8324 30.5234 23.1914C30.2539 20.9436 29.0893 19.2393 27.1133 18.1602V18.1592C26.8312 18.0173 26.6223 17.8423 26.5273 17.625C26.4291 17.3997 26.4633 17.1548 26.6133 16.9043C26.7633 16.6541 26.9706 16.4931 27.2119 16.4395C27.4502 16.3865 27.7059 16.4413 27.9512 16.5869H27.9521C31.0995 18.2551 32.8581 21.869 32.3027 25.2988L32.3018 25.3008C31.6542 28.8201 28.8788 31.6 25.3604 32.1562C20.0858 32.9901 15.3641 28.7291 15.7344 23.4443C15.9196 20.3897 17.402 18.0698 20.082 16.5889C20.3237 16.4 20.5781 16.3182 20.8193 16.3584ZM12.7432 30.2158C12.5378 30.6956 12.2809 31.124 12.0498 31.5781C12.0114 31.6537 11.9742 31.7303 11.9375 31.8076C11.9007 31.8852 11.8644 31.9639 11.8301 32.0439C11.8073 32.101 11.7872 32.1551 11.7705 32.207C11.7873 32.1551 11.8082 32.101 11.8311 32.0439C11.8653 31.9639 11.9007 31.8852 11.9375 31.8076C11.9742 31.7303 12.0123 31.6537 12.0508 31.5781C12.2819 31.124 12.5388 30.6955 12.7441 30.2158C12.7669 30.1475 12.7835 30.0847 12.7949 30.0264V30.0254C12.7835 30.0841 12.766 30.1471 12.7432 30.2158ZM22.2402 27.2227C21.1929 27.3132 20.3263 28.0128 20.0664 28.9658L20.0635 28.9766L20.0586 28.9873C20.028 29.0487 20.0293 29.1049 20.0498 29.1533C20.0662 29.1916 20.0971 29.2301 20.1416 29.2617L20.1904 29.291L20.1982 29.2949L20.2051 29.2998C22.3564 30.8255 25.5899 30.8255 27.7412 29.2998L27.748 29.2949L27.7559 29.291C27.8296 29.254 27.8688 29.2057 27.8799 29.167C27.8884 29.1363 27.8864 29.0857 27.8174 29.0166L27.7949 28.9941L27.7881 28.9639C27.5263 27.9159 26.6567 27.2227 25.6162 27.2227H22.2402ZM12.7432 29.5762C12.7545 29.599 12.7649 29.6216 12.7734 29.6445C12.7649 29.6217 12.7555 29.5988 12.7441 29.5762C12.7207 29.5293 12.698 29.4817 12.6758 29.4336C12.6979 29.4816 12.7198 29.5294 12.7432 29.5762ZM20.1387 29.3936C20.1792 29.4223 20.2214 29.4489 20.2627 29.4766C20.2212 29.4488 20.1794 29.4214 20.1387 29.3926C20.1061 29.3762 20.077 29.3566 20.0508 29.335C20.0771 29.3567 20.106 29.3772 20.1387 29.3936ZM27.9189 29.3115C27.8884 29.3425 27.8512 29.3707 27.8076 29.3926V29.3936C27.8514 29.3716 27.8882 29.3427 27.9189 29.3115ZM27.8428 28.7451L27.8398 28.7354C27.8304 28.7071 27.818 28.68 27.8076 28.6523C27.8191 28.6832 27.8323 28.7136 27.8428 28.7451ZM11.6475 27.4746C11.8299 27.5659 11.9215 27.7483 12.0127 27.8398H12.0137C11.9224 27.7484 11.831 27.565 11.6484 27.4736L11.6475 27.4746ZM36.1143 27.4736C36.0914 27.4736 36.07 27.4771 36.0498 27.4824L36.1143 27.4746C36.2478 27.4173 36.3856 27.3635 36.5254 27.3125C36.3855 27.3635 36.2478 27.4163 36.1143 27.4736ZM22.0352 27.1328C22.0234 27.1347 22.0117 27.1367 22 27.1387C22.0783 27.1252 22.1578 27.1151 22.2383 27.1084L22.0352 27.1328ZM36.0791 26.2412C36.281 26.1754 36.4892 26.1059 36.7002 26.0293C36.4894 26.1064 36.2811 26.1753 36.0791 26.2412ZM38.7617 25.9199C38.7617 26.0094 38.744 26.0933 38.7139 26.1719C38.7286 26.1336 38.7412 26.0946 38.749 26.0537L38.7617 25.9209V25.9199ZM36.7734 26.001C36.9181 25.9473 37.0644 25.8916 37.21 25.8291H37.209L36.7734 26.001ZM23.6074 25.4629C23.6545 25.4817 23.7031 25.4952 23.752 25.5078C23.7035 25.4948 23.6552 25.4816 23.6084 25.4629H23.6074ZM10.8691 25.459C10.8728 25.4652 10.8777 25.4706 10.8818 25.4766C10.8778 25.4706 10.8727 25.4653 10.8691 25.459ZM24.1436 22.0117C23.3836 21.9272 22.704 22.4343 22.5332 23.2031L22.5303 23.2139L22.4209 23.1777L22.5293 23.2139C22.4464 23.463 22.449 23.6994 22.6074 23.9375L22.627 23.9658V24C22.627 24.5538 23 25.1104 23.5312 25.3164L23.6396 25.3525L23.6504 25.3564L23.8096 25.4072C24.6243 25.6033 25.6748 24.9401 25.5938 23.6416L25.5928 23.6348V23.4561C25.5038 22.6911 24.9087 22.0971 24.1436 22.0117ZM36.8906 22.7109C36.9947 22.7468 37.1004 22.7814 37.209 22.8125C37.2514 22.8337 37.2887 22.8555 37.3213 22.8779C37.2888 22.8557 37.2521 22.8336 37.21 22.8125C37.1011 22.7814 36.995 22.7468 36.8906 22.7109ZM34.7441 21.4414C34.7497 21.4637 34.7574 21.4849 34.7637 21.5059C34.7575 21.485 34.7506 21.4636 34.7451 21.4414C34.6538 21.2128 34.562 20.9901 34.4707 20.7715C34.5619 20.99 34.6529 21.2129 34.7441 21.4414ZM9.73047 21.2588C9.6735 21.2816 9.62087 21.3046 9.57227 21.3281L9.73145 21.2588C9.76239 21.2472 9.7936 21.2369 9.82422 21.2256C9.79342 21.237 9.76159 21.2471 9.73047 21.2588ZM35.3838 19.2822C35.3907 19.3009 35.3984 19.3193 35.4053 19.3379C35.3413 19.1658 35.2771 18.9902 35.21 18.8125L35.3838 19.2822ZM23.8838 15.5684C24.1342 15.5684 24.3675 15.6439 24.54 15.79C24.7143 15.9378 24.8203 16.1526 24.8203 16.4141C24.8202 16.6643 24.7453 16.8978 24.5996 17.0703C24.4521 17.2447 24.2368 17.3515 23.9756 17.3516C23.7548 17.3515 23.5443 17.2407 23.3809 17.0771C23.2168 16.9128 23.0912 16.687 23.041 16.4365L23.0391 16.4248V16.4141C23.0391 15.9949 23.3548 15.5685 23.8838 15.5684ZM24.7061 16.4131C24.7061 16.5235 24.6889 16.6287 24.6582 16.7246C24.673 16.6783 24.6855 16.6302 24.6934 16.5801L24.7061 16.4141V16.4131ZM29.6309 14.8232C29.6331 14.8244 29.6355 14.8251 29.6377 14.8262C29.6053 14.81 29.5732 14.791 29.541 14.7695L29.6309 14.8232ZM17.6729 14.7695C17.714 14.7901 17.7548 14.8073 17.7939 14.8232C17.755 14.8073 17.7148 14.79 17.6738 14.7695C17.5141 14.701 17.354 14.6269 17.1943 14.5498C17.3539 14.6268 17.5133 14.7011 17.6729 14.7695ZM18.2207 12.9414C18.1979 12.9528 18.1752 12.9631 18.1523 12.9717C18.1296 12.9802 18.1067 12.9865 18.084 12.9922V12.9932C18.1297 12.9817 18.1759 12.9643 18.2217 12.9414C18.2372 12.937 18.2521 12.9303 18.2676 12.9258C18.2519 12.9304 18.2364 12.9369 18.2207 12.9414ZM5.18164 4.99609C6.4178 3.84687 8.2343 3.69193 9.62109 4.53223L9.89258 4.71289L9.89355 4.71387C10.6445 5.27778 11.1176 6.0106 11.2832 6.86328C11.4444 7.69391 11.3095 8.62816 10.8721 9.62207C11.0857 9.83597 11.3173 10.068 11.5488 10.2998C11.7998 10.5511 12.0511 10.8028 12.2793 11.0312C12.4709 11.2232 12.5807 11.4047 12.6084 11.5986C12.636 11.7921 12.579 11.9776 12.4834 12.1689L12.4795 12.1768L12.4775 12.1758C12.3212 12.4364 12.0821 12.5726 11.8154 12.5859C11.5531 12.5989 11.2756 12.4935 11.0312 12.2979L11.0225 12.291L11.0146 12.2822C10.5784 11.7581 10.141 11.3185 9.61914 10.7959C8.61891 11.3236 7.60569 11.4972 6.50195 11.1289C5.65342 10.8457 5.08461 10.3709 4.61523 9.61914C3.6752 8.11325 3.8615 6.22382 5.18164 4.99609ZM38.1553 4.61719C39.6591 3.67639 41.6376 3.862 42.8643 5.18457C44.0841 6.50018 44.277 8.48124 43.1436 9.90137L43.1445 9.90234C42.2128 11.1147 40.2735 11.8615 38.3271 10.7959C38.1154 11.0079 37.8863 11.2375 37.6572 11.4668C37.4063 11.7181 37.1549 11.9698 36.9268 12.1982C36.7229 12.4476 36.4633 12.5529 36.1904 12.54C35.9194 12.5271 35.6456 12.3985 35.4053 12.2061L35.3916 12.1953L35.3818 12.1807C35.157 11.8431 35.2856 11.4191 35.5674 11.043L35.5723 11.0371L35.5781 11.0312C35.715 10.8942 35.8293 10.7793 35.9434 10.665L36.4131 10.1953C36.4147 10.1936 36.4174 10.1901 36.4189 10.1885C36.4207 10.1868 36.4241 10.1843 36.4258 10.1826L36.4316 10.1768C36.4341 10.1742 36.4409 10.1665 36.4424 10.165L36.4443 10.1641L36.5059 10.1025C36.5072 10.1012 36.5099 10.0975 36.5107 10.0967L36.5127 10.0957L36.5195 10.0889L36.5205 10.0869L36.5225 10.0859C36.5279 10.0805 36.5216 10.0858 36.5273 10.0801C36.5292 10.0782 36.5314 10.077 36.5332 10.0752C36.5382 10.0702 36.5389 10.0685 36.5439 10.0635C36.5466 10.0609 36.5532 10.0552 36.5557 10.0527C36.5576 10.0508 36.5663 10.0421 36.5664 10.042C36.5706 10.0378 36.5669 10.0405 36.5713 10.0361C36.5745 10.033 36.5713 10.0371 36.5742 10.0342L36.5771 10.0312L36.5781 10.0293L36.5801 10.0283L36.583 10.0254C36.5859 10.0224 36.5813 10.0261 36.585 10.0225C36.5886 10.0188 36.5843 10.0241 36.5879 10.0205L36.5889 10.0186L36.5908 10.0176L36.5918 10.0156L36.5938 10.0146L36.6152 9.99316C36.6175 9.99086 36.6177 9.98973 36.6201 9.9873C36.622 9.98544 36.6296 9.97781 36.6309 9.97656L36.6328 9.97559L36.6377 9.9707L36.6387 9.96875L36.6406 9.96777L36.6416 9.96582C36.6452 9.96221 36.6487 9.9587 36.6523 9.95508L36.6543 9.9541L36.7383 9.87012C36.7421 9.86622 36.7561 9.85135 36.7598 9.84766L36.7607 9.84668L36.7627 9.8457L36.7637 9.84375L36.7656 9.84277C36.7667 9.84165 36.7664 9.84098 36.7676 9.83984C36.7709 9.83654 36.767 9.8404 36.7705 9.83691L36.7725 9.83594L36.7764 9.83203C36.7789 9.82944 36.7787 9.82877 36.7812 9.82617C36.7883 9.81911 36.7801 9.82826 36.7871 9.82129C36.7895 9.8189 36.7905 9.81787 36.793 9.81543C36.7996 9.80878 36.7907 9.8167 36.7979 9.80957C36.7989 9.80862 36.7998 9.8086 36.8008 9.80762C36.8053 9.80306 36.799 9.80938 36.8037 9.80469L36.8047 9.80273L36.8066 9.80176C36.8077 9.80061 36.8074 9.8 36.8086 9.79883C36.8095 9.7979 36.8106 9.79682 36.8115 9.7959L36.8135 9.79492L36.8145 9.79297L36.8174 9.79102L36.8184 9.78906L36.8203 9.78809C36.822 9.78632 36.8234 9.78398 36.8252 9.78223L36.8311 9.77637C36.8321 9.77543 36.8363 9.77214 36.8369 9.77148C36.8413 9.76711 36.8383 9.77014 36.8428 9.76562C36.8464 9.76193 36.8437 9.76369 36.8477 9.75977L36.8496 9.75879L36.8506 9.75684C36.8519 9.75551 36.8521 9.75534 36.8535 9.75391C36.8559 9.75151 36.8569 9.75154 36.8594 9.74902C36.864 9.74435 36.8655 9.74195 36.8701 9.7373C36.8724 9.73501 36.8708 9.73663 36.873 9.73438L36.875 9.7334L36.876 9.73145L36.8936 9.71387C36.8955 9.71193 36.9044 9.70398 36.9053 9.70312C36.9119 9.69646 36.9014 9.70699 36.9082 9.7002L36.9092 9.69824L36.9111 9.69727C36.9126 9.69582 36.9125 9.69586 36.9141 9.69434L36.915 9.69238L36.917 9.69141C36.9229 9.68544 36.9344 9.673 36.9404 9.66699L36.9463 9.66113L36.9482 9.66016L36.9492 9.6582L36.9512 9.65723L36.9521 9.65527L36.9639 9.64355C36.9724 9.63505 36.9774 9.62904 36.9854 9.62109C36.5474 8.58332 36.4128 7.62461 36.5977 6.78027C36.7874 5.91367 37.3094 5.18177 38.1523 4.61914L38.1553 4.61719ZM12.3809 12.1172L12.4346 12C12.4361 11.9963 12.436 11.992 12.4375 11.9883C12.4211 12.03 12.4029 12.0731 12.3809 12.1172ZM35.458 11.4512C35.4509 11.4681 35.4446 11.4852 35.4385 11.502C35.4527 11.4632 35.4701 11.4243 35.4893 11.3848L35.458 11.4512ZM35.5645 11.248C35.537 11.2921 35.5127 11.3362 35.4912 11.3799C35.5127 11.3362 35.537 11.2921 35.5645 11.248ZM39.3779 11.0879C39.4367 11.1023 39.4953 11.1156 39.5537 11.127V11.126C39.4591 11.1076 39.3642 11.084 39.2686 11.0576C39.3052 11.0677 39.3414 11.079 39.3779 11.0879ZM38.3066 10.6553C38.4262 10.7237 38.5457 10.7853 38.665 10.8398C38.8546 10.9264 39.044 10.9943 39.2314 11.0479C38.9261 10.9603 38.6163 10.8314 38.3066 10.6543V10.6553ZM4.8877 9.82031C4.90344 9.84199 4.92148 9.86172 4.9375 9.88281C4.91077 9.84754 4.88346 9.81223 4.85742 9.77539C4.86787 9.7902 4.87713 9.80576 4.8877 9.82031ZM4.71191 9.55859C4.7249 9.57939 4.7398 9.59878 4.75293 9.61914C4.73989 9.59893 4.72578 9.57924 4.71289 9.55859C4.65664 9.46849 4.60359 9.37682 4.55566 9.28418C4.60361 9.37686 4.65565 9.46845 4.71191 9.55859ZM7.72461 5.74219C6.69269 5.74243 5.83115 6.60517 5.83105 7.63867C5.8311 8.67222 6.69266 9.53491 7.72461 9.53516C8.75674 9.53516 9.61909 8.67236 9.61914 7.63867C9.61904 6.60502 8.75672 5.74219 7.72461 5.74219ZM40.3154 5.74219C39.2833 5.74219 38.4209 6.60494 38.4209 7.63867C38.421 8.67233 39.2833 9.53516 40.3154 9.53516C41.3473 9.53486 42.2089 8.67215 42.209 7.63867C42.209 6.60513 41.3474 5.74249 40.3154 5.74219ZM9.67383 8.11035C9.67964 8.08687 9.68743 8.06382 9.69238 8.04004L9.69434 8.02734C9.68868 8.05537 9.68066 8.08274 9.67383 8.11035Z" fill="#72BA5F"/>
</svg>
