<svg width="72" height="72" viewBox="0 0 72 72" fill="none" xmlns="http://www.w3.org/2000/svg">
<rect x="0.5" y="0.5" width="71" height="70.9954" rx="35.4977" fill="#FFEB53"/>
<rect x="0.5" y="0.5" width="71" height="70.9954" rx="35.4977" stroke="#CEEEBA"/>
<mask id="path-2-outside-1_364_14589" maskUnits="userSpaceOnUse" x="12" y="14" width="47" height="44" fill="black">
<rect fill="white" x="12" y="14" width="47" height="44"/>
<path d="M27.0439 16.6455C34.7531 14.6616 40.1625 24.0359 34.6162 29.668C34.4323 29.8552 33.5875 30.4402 33.54 30.5957C33.4149 31.0037 33.7478 31.7591 34.0674 32.0352C35.0192 32.8539 38.5254 32.864 39.9141 33.1943C41.6999 33.6195 42.881 35.2375 43.4561 36.8848L48.7617 36.9033C49.2114 36.9364 49.9946 37.7107 49.9951 38.125V40.3535H55.5928C55.9198 40.3535 56.2397 40.8966 56.2773 41.2148C56.5107 43.1719 56.0975 45.5771 56.2773 47.584C56.1959 48.2825 55.4757 48.3198 55.4502 48.4121L55.457 55.6748C55.3914 56.2858 55.0434 56.6558 54.5049 56.9072L36.7549 56.9932C36.208 57.0381 35.3453 56.2686 35.3447 55.7656V52.7188H13.458V52.7207C13.4087 52.7063 13.18 52.4565 13.1582 52.3838C13.112 52.225 13.0583 51.3792 13.0449 51.1328C12.9708 49.742 13.0024 48.073 13.0449 46.6699C13.1543 43.0388 13.5885 34.7742 17.7314 33.3477C19.4554 32.7548 22.4936 33.0252 23.9258 32.1699C24.3306 31.9282 24.8268 31.0514 24.6543 30.625C24.6117 30.5205 23.2802 29.3796 23.0225 29.0674C19.4825 24.7657 21.6695 18.0282 27.0439 16.6455ZM48.5361 49.668C48.2919 50.783 48.8452 51.5188 47.3174 51.6318C46.5016 51.6926 43.7621 51.7526 43.0752 51.5898C41.9435 51.3213 42.5486 49.8679 42.2666 49.6699L36.6211 48.6279V55.584L36.7568 55.7197H54.0479L54.1836 55.584V48.6279L48.5361 49.668ZM22.293 33.9219C20.794 34.319 18.6282 34.0149 17.376 34.9902C14.7489 37.0359 14.5403 43.0571 14.4199 46.1309C14.3579 47.7005 14.1963 49.3741 14.3203 50.9521C14.3337 51.1269 14.3735 51.281 14.416 51.4473H18.4189V45.0371C18.4189 44.9156 18.9039 44.6168 19.0947 44.6289C19.2857 44.6412 19.6924 44.9567 19.6924 45.1279V51.4473H35.3457V48.3555C34.8533 48.251 34.5674 47.8973 34.5225 47.4053C34.3438 45.4738 34.6647 43.2704 34.5273 41.3086C34.452 41.0209 34.9874 40.3544 35.209 40.3535H40.8066V38.2168C40.8066 37.7128 41.6173 37.0025 42.0781 36.8467C41.6234 35.8189 40.8749 34.7701 39.7334 34.4688C38.5359 34.1529 37.1132 34.1715 35.8877 33.9395L32.6211 40.9219C32.1166 41.4868 31.6347 40.7882 31.4912 40.8125L30.7441 41.7119L32.0703 48.0312C32.0703 48.1406 31.9881 48.1957 31.9395 48.2686C31.7547 48.5467 29.8776 50.3206 29.5684 50.5361C29.2073 50.7876 29.0228 50.7911 28.6582 50.5361C28.1355 50.1705 27.1878 49.2443 26.7002 48.7656C26.4887 48.5579 26.1534 48.2923 26.1035 47.9971L27.4141 41.6924L26.79 40.8076C26.5143 40.8394 26.4132 41.1275 26.0947 41.1445C25.8893 41.1554 25.6374 41.0182 25.5146 40.8555L22.293 33.9219ZM43.627 50.2197L43.7637 50.3555H47.1758V48.082H43.627V50.2197ZM28.7598 42.1826L28.6289 42.3252L27.4492 47.6025L29.0332 49.167C29.2058 49.1961 30.6769 47.7944 30.7061 47.5781L29.5127 42.1807L28.7598 42.1826ZM35.8008 47.1729L42.3516 48.3545C42.3297 47.7496 42.279 47.0544 42.9619 46.8271L47.7607 46.8125C48.6154 47.0275 48.3607 47.6196 48.4482 48.2197C48.4664 48.3447 48.397 48.3743 48.5859 48.3574L55.002 47.1709V41.625H35.8008V47.1729ZM27.5176 39.6699L28.4307 40.8516L29.6582 40.9004L30.6934 39.6885C30.4538 39.4186 29.2493 37.5701 29.0244 37.626L29.0234 37.625L27.5176 39.6699ZM42.3066 38.1699C42.2886 38.1725 42.0813 38.3807 42.0801 38.3975V40.2158L42.2158 40.3525H48.7227V38.3975C48.7224 38.3669 48.6027 38.2585 48.6318 38.1699H42.3066ZM23.6064 33.624L26.2432 39.2607L28.2432 36.5791L24.8193 33.3604L24.5762 33.2793L23.6064 33.624ZM34.5264 33.624C34.1556 33.6678 33.7526 33.1606 33.4365 33.3027L30.0166 36.5332L31.9326 39.1719L34.5264 33.626V33.624ZM32.3418 31.2588C30.2689 32.1432 27.9438 32.2319 25.8818 31.2588L25.543 32.3066L29.1113 35.623L32.5723 32.3477L32.3418 31.2588ZM46.8369 15.0029C47.7468 15.1256 48.195 16.3547 48.5645 17.0547L49.7998 17.2451C50.4137 16.4543 51.1729 15.395 52.3398 15.7812C52.563 15.8559 53.744 16.5601 53.9414 16.7256C55.1778 17.7643 53.7653 19.2006 54.0449 19.8008C54.0688 19.8506 54.6495 20.5904 54.6992 20.6074C54.9547 20.696 55.8009 20.4841 56.2324 20.5303C56.7647 20.5874 57.2711 20.85 57.5059 21.3477C57.7235 21.8093 58.0829 23.263 57.9844 23.7393C57.7946 24.6538 56.6301 24.7732 56.0977 25.2178C55.9056 25.3781 55.7662 26.2284 55.8379 26.4678C56.0009 27.0107 57.3121 27.358 57.3633 28.501C57.3852 28.9953 56.3773 30.7223 55.9443 30.9756C54.9389 31.5624 54.2768 30.7491 53.4902 30.7188C53.2986 30.7123 52.5215 31.2531 52.4717 31.417C52.3636 32.2309 52.6931 33.2804 52.0928 33.9473C51.7269 34.3529 49.8774 34.7953 49.3369 34.6973C48.3218 34.5114 47.9733 32.7495 47.6621 32.6426L46.5137 32.5342C46.0578 33.065 45.3221 34.0258 44.5732 34.0781C44.1684 34.1073 42.6959 33.3048 42.3604 33.0303C41.3538 32.2091 42.1626 30.9932 42.3135 29.9922L41.6543 29.1689C40.6768 29.1058 39.3294 29.4945 38.8018 28.4023C38.6727 28.1341 38.2814 26.7549 38.2656 26.4756C38.2439 26.0845 38.4409 25.6656 38.7119 25.3936C39.1482 24.9563 40.2819 24.6855 40.4053 24.1768C40.4369 24.0468 40.5223 23.3357 40.4932 23.2627C40.261 22.7026 39.0398 22.4144 38.9814 21.3076C38.9515 20.7363 39.8346 19.1278 40.3086 18.8047C41.1413 18.2362 42.1305 18.9182 42.9961 19.0264L43.8887 18.2871C43.8157 17.2473 43.5517 15.9782 44.7246 15.4873C45.0735 15.3415 46.516 14.9604 46.8369 15.0029ZM46.6006 16.2734L45.1211 16.709C44.9002 17.5058 45.5576 18.6497 44.8555 19.2607C44.627 19.4587 43.8102 20.0897 43.5645 20.2441C42.8107 20.7215 41.9351 19.8803 41.1729 19.8438C40.9005 19.8304 40.3974 20.9545 40.2588 21.2158C40.2677 21.5488 41.6214 22.3336 41.8135 22.8486C41.9288 23.1586 41.6982 23.9409 41.6338 24.3174C41.5718 24.6721 41.7282 25.0753 41.3721 25.3535C41.1107 25.5576 39.5883 26.1627 39.5615 26.3936L39.9785 27.8574L42.3291 27.9639L43.6143 29.5938C43.8664 30.0437 43.177 31.342 43.1162 31.8945L43.165 32.0332L44.4902 32.7822C45.1527 32.379 45.6842 31.1366 46.4863 31.1689C46.8315 31.1835 47.7508 31.3108 48.1084 31.374C48.8901 31.5113 49.0997 32.8228 49.5312 33.3877L49.6719 33.4521L51.1689 33.0723L51.2246 30.7188C51.8106 30.3834 52.6533 29.3122 53.3037 29.3584C53.8239 29.3962 54.7182 29.9154 55.1426 29.8926C55.3807 29.8792 56.0247 28.7083 56.0039 28.4932C55.9638 28.0959 54.579 27.3641 54.4707 26.832C54.574 26.232 54.5604 25.5286 54.6406 24.9492C54.6576 24.8255 54.7621 24.5622 54.8447 24.4707L54.8486 24.4688C55.1783 24.108 56.3234 23.8466 56.6406 23.4834C56.7304 23.3803 56.728 23.3728 56.7158 23.2393C56.6984 23.0497 56.3877 21.9142 56.2783 21.8486C55.6304 21.658 54.6325 22.112 54.0234 21.8291C53.7122 21.6845 53.1079 20.4051 52.6836 20.167C52.403 19.6627 53.3509 18.046 53.1406 17.7119L51.7852 17C51.2089 17.345 50.5547 18.5887 49.8945 18.5742C49.5687 18.5669 48.3881 18.4049 48.0586 18.332C47.5115 18.2105 47.1174 16.8472 46.7988 16.4062C46.7454 16.3322 46.7161 16.2491 46.6006 16.2734ZM34.6562 20.8086C32.4994 17.2031 27.4344 16.5858 24.457 19.5596C21.29 22.7243 22.2752 28.2693 26.3662 30.0928C32.2079 32.6961 37.9351 26.2912 34.6562 20.8086ZM47.5205 20.2842C53.4934 19.5626 54.7554 28.3002 49.0928 29.4023C42.7696 30.633 41.443 21.018 47.5205 20.2842ZM49.0557 28.0928C52.9825 27.0298 51.8681 20.9717 47.6094 21.5547C43.1659 22.1633 44.4129 29.3486 49.0557 28.0928Z"/>
</mask>
<path d="M27.0439 16.6455C34.7531 14.6616 40.1625 24.0359 34.6162 29.668C34.4323 29.8552 33.5875 30.4402 33.54 30.5957C33.4149 31.0037 33.7478 31.7591 34.0674 32.0352C35.0192 32.8539 38.5254 32.864 39.9141 33.1943C41.6999 33.6195 42.881 35.2375 43.4561 36.8848L48.7617 36.9033C49.2114 36.9364 49.9946 37.7107 49.9951 38.125V40.3535H55.5928C55.9198 40.3535 56.2397 40.8966 56.2773 41.2148C56.5107 43.1719 56.0975 45.5771 56.2773 47.584C56.1959 48.2825 55.4757 48.3198 55.4502 48.4121L55.457 55.6748C55.3914 56.2858 55.0434 56.6558 54.5049 56.9072L36.7549 56.9932C36.208 57.0381 35.3453 56.2686 35.3447 55.7656V52.7188H13.458V52.7207C13.4087 52.7063 13.18 52.4565 13.1582 52.3838C13.112 52.225 13.0583 51.3792 13.0449 51.1328C12.9708 49.742 13.0024 48.073 13.0449 46.6699C13.1543 43.0388 13.5885 34.7742 17.7314 33.3477C19.4554 32.7548 22.4936 33.0252 23.9258 32.1699C24.3306 31.9282 24.8268 31.0514 24.6543 30.625C24.6117 30.5205 23.2802 29.3796 23.0225 29.0674C19.4825 24.7657 21.6695 18.0282 27.0439 16.6455ZM48.5361 49.668C48.2919 50.783 48.8452 51.5188 47.3174 51.6318C46.5016 51.6926 43.7621 51.7526 43.0752 51.5898C41.9435 51.3213 42.5486 49.8679 42.2666 49.6699L36.6211 48.6279V55.584L36.7568 55.7197H54.0479L54.1836 55.584V48.6279L48.5361 49.668ZM22.293 33.9219C20.794 34.319 18.6282 34.0149 17.376 34.9902C14.7489 37.0359 14.5403 43.0571 14.4199 46.1309C14.3579 47.7005 14.1963 49.3741 14.3203 50.9521C14.3337 51.1269 14.3735 51.281 14.416 51.4473H18.4189V45.0371C18.4189 44.9156 18.9039 44.6168 19.0947 44.6289C19.2857 44.6412 19.6924 44.9567 19.6924 45.1279V51.4473H35.3457V48.3555C34.8533 48.251 34.5674 47.8973 34.5225 47.4053C34.3438 45.4738 34.6647 43.2704 34.5273 41.3086C34.452 41.0209 34.9874 40.3544 35.209 40.3535H40.8066V38.2168C40.8066 37.7128 41.6173 37.0025 42.0781 36.8467C41.6234 35.8189 40.8749 34.7701 39.7334 34.4688C38.5359 34.1529 37.1132 34.1715 35.8877 33.9395L32.6211 40.9219C32.1166 41.4868 31.6347 40.7882 31.4912 40.8125L30.7441 41.7119L32.0703 48.0312C32.0703 48.1406 31.9881 48.1957 31.9395 48.2686C31.7547 48.5467 29.8776 50.3206 29.5684 50.5361C29.2073 50.7876 29.0228 50.7911 28.6582 50.5361C28.1355 50.1705 27.1878 49.2443 26.7002 48.7656C26.4887 48.5579 26.1534 48.2923 26.1035 47.9971L27.4141 41.6924L26.79 40.8076C26.5143 40.8394 26.4132 41.1275 26.0947 41.1445C25.8893 41.1554 25.6374 41.0182 25.5146 40.8555L22.293 33.9219ZM43.627 50.2197L43.7637 50.3555H47.1758V48.082H43.627V50.2197ZM28.7598 42.1826L28.6289 42.3252L27.4492 47.6025L29.0332 49.167C29.2058 49.1961 30.6769 47.7944 30.7061 47.5781L29.5127 42.1807L28.7598 42.1826ZM35.8008 47.1729L42.3516 48.3545C42.3297 47.7496 42.279 47.0544 42.9619 46.8271L47.7607 46.8125C48.6154 47.0275 48.3607 47.6196 48.4482 48.2197C48.4664 48.3447 48.397 48.3743 48.5859 48.3574L55.002 47.1709V41.625H35.8008V47.1729ZM27.5176 39.6699L28.4307 40.8516L29.6582 40.9004L30.6934 39.6885C30.4538 39.4186 29.2493 37.5701 29.0244 37.626L29.0234 37.625L27.5176 39.6699ZM42.3066 38.1699C42.2886 38.1725 42.0813 38.3807 42.0801 38.3975V40.2158L42.2158 40.3525H48.7227V38.3975C48.7224 38.3669 48.6027 38.2585 48.6318 38.1699H42.3066ZM23.6064 33.624L26.2432 39.2607L28.2432 36.5791L24.8193 33.3604L24.5762 33.2793L23.6064 33.624ZM34.5264 33.624C34.1556 33.6678 33.7526 33.1606 33.4365 33.3027L30.0166 36.5332L31.9326 39.1719L34.5264 33.626V33.624ZM32.3418 31.2588C30.2689 32.1432 27.9438 32.2319 25.8818 31.2588L25.543 32.3066L29.1113 35.623L32.5723 32.3477L32.3418 31.2588ZM46.8369 15.0029C47.7468 15.1256 48.195 16.3547 48.5645 17.0547L49.7998 17.2451C50.4137 16.4543 51.1729 15.395 52.3398 15.7812C52.563 15.8559 53.744 16.5601 53.9414 16.7256C55.1778 17.7643 53.7653 19.2006 54.0449 19.8008C54.0688 19.8506 54.6495 20.5904 54.6992 20.6074C54.9547 20.696 55.8009 20.4841 56.2324 20.5303C56.7647 20.5874 57.2711 20.85 57.5059 21.3477C57.7235 21.8093 58.0829 23.263 57.9844 23.7393C57.7946 24.6538 56.6301 24.7732 56.0977 25.2178C55.9056 25.3781 55.7662 26.2284 55.8379 26.4678C56.0009 27.0107 57.3121 27.358 57.3633 28.501C57.3852 28.9953 56.3773 30.7223 55.9443 30.9756C54.9389 31.5624 54.2768 30.7491 53.4902 30.7188C53.2986 30.7123 52.5215 31.2531 52.4717 31.417C52.3636 32.2309 52.6931 33.2804 52.0928 33.9473C51.7269 34.3529 49.8774 34.7953 49.3369 34.6973C48.3218 34.5114 47.9733 32.7495 47.6621 32.6426L46.5137 32.5342C46.0578 33.065 45.3221 34.0258 44.5732 34.0781C44.1684 34.1073 42.6959 33.3048 42.3604 33.0303C41.3538 32.2091 42.1626 30.9932 42.3135 29.9922L41.6543 29.1689C40.6768 29.1058 39.3294 29.4945 38.8018 28.4023C38.6727 28.1341 38.2814 26.7549 38.2656 26.4756C38.2439 26.0845 38.4409 25.6656 38.7119 25.3936C39.1482 24.9563 40.2819 24.6855 40.4053 24.1768C40.4369 24.0468 40.5223 23.3357 40.4932 23.2627C40.261 22.7026 39.0398 22.4144 38.9814 21.3076C38.9515 20.7363 39.8346 19.1278 40.3086 18.8047C41.1413 18.2362 42.1305 18.9182 42.9961 19.0264L43.8887 18.2871C43.8157 17.2473 43.5517 15.9782 44.7246 15.4873C45.0735 15.3415 46.516 14.9604 46.8369 15.0029ZM46.6006 16.2734L45.1211 16.709C44.9002 17.5058 45.5576 18.6497 44.8555 19.2607C44.627 19.4587 43.8102 20.0897 43.5645 20.2441C42.8107 20.7215 41.9351 19.8803 41.1729 19.8438C40.9005 19.8304 40.3974 20.9545 40.2588 21.2158C40.2677 21.5488 41.6214 22.3336 41.8135 22.8486C41.9288 23.1586 41.6982 23.9409 41.6338 24.3174C41.5718 24.6721 41.7282 25.0753 41.3721 25.3535C41.1107 25.5576 39.5883 26.1627 39.5615 26.3936L39.9785 27.8574L42.3291 27.9639L43.6143 29.5938C43.8664 30.0437 43.177 31.342 43.1162 31.8945L43.165 32.0332L44.4902 32.7822C45.1527 32.379 45.6842 31.1366 46.4863 31.1689C46.8315 31.1835 47.7508 31.3108 48.1084 31.374C48.8901 31.5113 49.0997 32.8228 49.5312 33.3877L49.6719 33.4521L51.1689 33.0723L51.2246 30.7188C51.8106 30.3834 52.6533 29.3122 53.3037 29.3584C53.8239 29.3962 54.7182 29.9154 55.1426 29.8926C55.3807 29.8792 56.0247 28.7083 56.0039 28.4932C55.9638 28.0959 54.579 27.3641 54.4707 26.832C54.574 26.232 54.5604 25.5286 54.6406 24.9492C54.6576 24.8255 54.7621 24.5622 54.8447 24.4707L54.8486 24.4688C55.1783 24.108 56.3234 23.8466 56.6406 23.4834C56.7304 23.3803 56.728 23.3728 56.7158 23.2393C56.6984 23.0497 56.3877 21.9142 56.2783 21.8486C55.6304 21.658 54.6325 22.112 54.0234 21.8291C53.7122 21.6845 53.1079 20.4051 52.6836 20.167C52.403 19.6627 53.3509 18.046 53.1406 17.7119L51.7852 17C51.2089 17.345 50.5547 18.5887 49.8945 18.5742C49.5687 18.5669 48.3881 18.4049 48.0586 18.332C47.5115 18.2105 47.1174 16.8472 46.7988 16.4062C46.7454 16.3322 46.7161 16.2491 46.6006 16.2734ZM34.6562 20.8086C32.4994 17.2031 27.4344 16.5858 24.457 19.5596C21.29 22.7243 22.2752 28.2693 26.3662 30.0928C32.2079 32.6961 37.9351 26.2912 34.6562 20.8086ZM47.5205 20.2842C53.4934 19.5626 54.7554 28.3002 49.0928 29.4023C42.7696 30.633 41.443 21.018 47.5205 20.2842ZM49.0557 28.0928C52.9825 27.0298 51.8681 20.9717 47.6094 21.5547C43.1659 22.1633 44.4129 29.3486 49.0557 28.0928Z" fill="#72BA5F"/>
<path d="M27.0439 16.6455L27.0689 16.7424L27.0689 16.7424L27.0439 16.6455ZM34.6162 29.668L34.545 29.5978L34.5449 29.5979L34.6162 29.668ZM33.54 30.5957L33.6356 30.625L33.6357 30.6249L33.54 30.5957ZM34.0674 32.0352L34.002 32.1108L34.0022 32.111L34.0674 32.0352ZM39.9141 33.1943L39.9372 33.0971L39.9372 33.0971L39.9141 33.1943ZM43.4561 36.8848L43.3616 36.9177L43.385 36.9845L43.4557 36.9848L43.4561 36.8848ZM48.7617 36.9033L48.7691 36.8033L48.7621 36.8033L48.7617 36.9033ZM49.9951 38.125H50.0951V38.1249L49.9951 38.125ZM49.9951 40.3535H49.8951V40.4535H49.9951V40.3535ZM56.2773 41.2148L56.178 41.2266L56.178 41.2267L56.2773 41.2148ZM56.2773 47.584L56.3767 47.5956L56.3779 47.5853L56.3769 47.5751L56.2773 47.584ZM55.4502 48.4121L55.3538 48.3855L55.3502 48.3986L55.3502 48.4122L55.4502 48.4121ZM55.457 55.6748L55.557 55.6856L55.557 55.6747L55.457 55.6748ZM54.5049 56.9072L54.5054 57.0072L54.5273 57.0071L54.5472 56.9978L54.5049 56.9072ZM36.7549 56.9932L36.7544 56.8929L36.7467 56.8935L36.7549 56.9932ZM35.3447 55.7656H35.2447V55.7657L35.3447 55.7656ZM35.3447 52.7188H35.4447V52.6188H35.3447V52.7188ZM13.458 52.7188V52.6188H13.358V52.7188H13.458ZM13.458 52.7207L13.4301 52.8167L13.558 52.854V52.7207H13.458ZM13.1582 52.3838L13.0622 52.4117L13.0624 52.4125L13.1582 52.3838ZM13.0449 51.1328L12.9451 51.1381L12.9451 51.1382L13.0449 51.1328ZM13.0449 46.6699L13.1449 46.673L13.1449 46.6729L13.0449 46.6699ZM17.7314 33.3477L17.6989 33.2531L17.6989 33.2531L17.7314 33.3477ZM23.9258 32.1699L23.8745 32.0841V32.0841L23.9258 32.1699ZM24.6543 30.625L24.747 30.5875L24.7469 30.5873L24.6543 30.625ZM23.0225 29.0674L22.9452 29.1309L22.9453 29.131L23.0225 29.0674ZM48.5361 49.668L48.518 49.5696L48.4527 49.5817L48.4384 49.6466L48.5361 49.668ZM47.3174 51.6318L47.31 51.5321L47.31 51.5321L47.3174 51.6318ZM43.0752 51.5898L43.0521 51.6871L43.0521 51.6871L43.0752 51.5898ZM42.2666 49.6699L42.3241 49.5881L42.3062 49.5755L42.2848 49.5716L42.2666 49.6699ZM36.6211 48.6279L36.6392 48.5296L36.5211 48.5078V48.6279H36.6211ZM36.6211 55.584H36.5211V55.6254L36.5504 55.6547L36.6211 55.584ZM36.7568 55.7197L36.6861 55.7904L36.7154 55.8197H36.7568V55.7197ZM54.0479 55.7197V55.8197H54.0893L54.1186 55.7904L54.0479 55.7197ZM54.1836 55.584L54.2543 55.6547L54.2836 55.6254V55.584H54.1836ZM54.1836 48.6279H54.2836V48.5078L54.1655 48.5296L54.1836 48.6279ZM22.293 33.9219L22.3837 33.8797L22.3484 33.8038L22.2674 33.8252L22.293 33.9219ZM17.376 34.9902L17.4374 35.0691L17.4374 35.0691L17.376 34.9902ZM14.4199 46.1309L14.5198 46.1348L14.5198 46.1348L14.4199 46.1309ZM14.3203 50.9521L14.42 50.9445L14.42 50.9443L14.3203 50.9521ZM14.416 51.4473L14.3191 51.472L14.3384 51.5473H14.416V51.4473ZM18.4189 51.4473V51.5473H18.5189V51.4473H18.4189ZM19.0947 44.6289L19.1012 44.5291L19.1011 44.5291L19.0947 44.6289ZM19.6924 51.4473H19.5924V51.5473H19.6924V51.4473ZM35.3457 51.4473V51.5473H35.4457V51.4473H35.3457ZM35.3457 48.3555H35.4457V48.2745L35.3665 48.2576L35.3457 48.3555ZM34.5225 47.4053L34.622 47.3962L34.622 47.3961L34.5225 47.4053ZM34.5273 41.3086L34.6271 41.3016L34.6264 41.2923L34.6241 41.2833L34.5273 41.3086ZM35.209 40.3535V40.2535L35.2086 40.2535L35.209 40.3535ZM40.8066 40.3535V40.4535H40.9066V40.3535H40.8066ZM42.0781 36.8467L42.1102 36.9414L42.2139 36.9063L42.1696 36.8062L42.0781 36.8467ZM39.7334 34.4688L39.7589 34.3721L39.7589 34.3721L39.7334 34.4688ZM35.8877 33.9395L35.9063 33.8412L35.83 33.8268L35.7971 33.8971L35.8877 33.9395ZM32.6211 40.9219L32.6957 40.9885L32.7055 40.9775L32.7117 40.9643L32.6211 40.9219ZM31.4912 40.8125L31.4745 40.7139L31.438 40.7201L31.4143 40.7486L31.4912 40.8125ZM30.7441 41.7119L30.6672 41.648L30.6364 41.6852L30.6463 41.7325L30.7441 41.7119ZM32.0703 48.0312H32.1703V48.0209L32.1682 48.0107L32.0703 48.0312ZM31.9395 48.2686L31.8563 48.2131L31.8562 48.2132L31.9395 48.2686ZM29.5684 50.5361L29.6255 50.6182L29.6255 50.6182L29.5684 50.5361ZM28.6582 50.5361L28.6009 50.6181L28.6009 50.6181L28.6582 50.5361ZM26.7002 48.7656L26.6301 48.837L26.6301 48.837L26.7002 48.7656ZM26.1035 47.9971L26.0056 47.9767L26.0018 47.9952L26.0049 48.0137L26.1035 47.9971ZM27.4141 41.6924L27.512 41.7127L27.5208 41.6702L27.4958 41.6347L27.4141 41.6924ZM26.79 40.8076L26.8718 40.75L26.8376 40.7015L26.7786 40.7083L26.79 40.8076ZM26.0947 41.1445L26.1 41.2444L26.1001 41.2444L26.0947 41.1445ZM25.5146 40.8555L25.424 40.8976L25.4284 40.9072L25.4348 40.9157L25.5146 40.8555ZM43.627 50.2197H43.527V50.2614L43.5565 50.2907L43.627 50.2197ZM43.7637 50.3555L43.6932 50.4264L43.7225 50.4555H43.7637V50.3555ZM47.1758 50.3555V50.4555H47.2758V50.3555H47.1758ZM47.1758 48.082H47.2758V47.982H47.1758V48.082ZM43.627 48.082V47.982H43.527V48.082H43.627ZM28.7598 42.1826L28.7595 42.0826L28.7157 42.0827L28.6861 42.115L28.7598 42.1826ZM28.6289 42.3252L28.5552 42.2576L28.5371 42.2773L28.5313 42.3034L28.6289 42.3252ZM27.4492 47.6025L27.3516 47.5807L27.3395 47.6348L27.3789 47.6737L27.4492 47.6025ZM29.0332 49.167L28.9629 49.2381L28.9854 49.2603L29.0166 49.2656L29.0332 49.167ZM30.7061 47.5781L30.8052 47.5915L30.8075 47.5739L30.8037 47.5565L30.7061 47.5781ZM29.5127 42.1807L29.6103 42.1591L29.593 42.0805L29.5124 42.0807L29.5127 42.1807ZM35.8008 47.1729H35.7008V47.2564L35.783 47.2713L35.8008 47.1729ZM42.3516 48.3545L42.3338 48.4529L42.456 48.4749L42.4515 48.3509L42.3516 48.3545ZM42.9619 46.8271L42.9616 46.7271L42.9456 46.7272L42.9303 46.7323L42.9619 46.8271ZM47.7607 46.8125L47.7851 46.7155L47.773 46.7125L47.7604 46.7125L47.7607 46.8125ZM48.4482 48.2197L48.5472 48.2053L48.5472 48.2053L48.4482 48.2197ZM48.5859 48.3574L48.5949 48.4575L48.6041 48.4558L48.5859 48.3574ZM55.002 47.1709L55.0201 47.2692L55.102 47.2541V47.1709H55.002ZM55.002 41.625H55.102V41.525H55.002V41.625ZM35.8008 41.625V41.525H35.7008V41.625H35.8008ZM27.5176 39.6699L27.4371 39.6106L27.3923 39.6714L27.4384 39.7311L27.5176 39.6699ZM28.4307 40.8516L28.3515 40.9127L28.3801 40.9496L28.4267 40.9515L28.4307 40.8516ZM29.6582 40.9004L29.6542 41.0003L29.7027 41.0022L29.7342 40.9653L29.6582 40.9004ZM30.6934 39.6885L30.7694 39.7534L30.826 39.6872L30.7681 39.6221L30.6934 39.6885ZM29.0244 37.626L28.9537 37.6967L28.9937 37.7367L29.0485 37.723L29.0244 37.626ZM29.0234 37.625L29.0941 37.5543L29.0119 37.472L28.9429 37.5657L29.0234 37.625ZM42.3066 38.1699V38.0689L42.2926 38.0709L42.3066 38.1699ZM42.0801 38.3975L41.9801 38.3903V38.3975H42.0801ZM42.0801 40.2158H41.9801V40.257L42.0091 40.2863L42.0801 40.2158ZM42.2158 40.3525L42.1449 40.423L42.1742 40.4525H42.2158V40.3525ZM48.7227 40.3525V40.4525H48.8227V40.3525H48.7227ZM48.7227 38.3975H48.8227L48.8227 38.3965L48.7227 38.3975ZM48.6318 38.1699L48.7268 38.2012L48.77 38.0699H48.6318V38.1699ZM23.6064 33.624L23.573 33.5298L23.4692 33.5667L23.5159 33.6664L23.6064 33.624ZM26.2432 39.2607L26.1526 39.3031L26.2234 39.4545L26.3233 39.3205L26.2432 39.2607ZM28.2432 36.5791L28.3233 36.6389L28.3767 36.5674L28.3117 36.5062L28.2432 36.5791ZM24.8193 33.3604L24.8878 33.2875L24.8718 33.2724L24.851 33.2655L24.8193 33.3604ZM24.5762 33.2793L24.6078 33.1844L24.5751 33.1735L24.5427 33.1851L24.5762 33.2793ZM34.5264 33.624H34.6264V33.5115L34.5147 33.5247L34.5264 33.624ZM33.4365 33.3027L33.3955 33.2115L33.3801 33.2185L33.3679 33.23L33.4365 33.3027ZM30.0166 36.5332L29.9479 36.4605L29.8841 36.5209L29.9357 36.592L30.0166 36.5332ZM31.9326 39.1719L31.8517 39.2306L31.9514 39.3679L32.0232 39.2142L31.9326 39.1719ZM34.5264 33.626L34.6169 33.6683L34.6264 33.6482V33.626H34.5264ZM32.3418 31.2588L32.4396 31.2381L32.4144 31.1191L32.3026 31.1668L32.3418 31.2588ZM25.8818 31.2588L25.9245 31.1684L25.8217 31.1198L25.7867 31.228L25.8818 31.2588ZM25.543 32.3066L25.4478 32.2759L25.4282 32.3365L25.4749 32.3799L25.543 32.3066ZM29.1113 35.623L29.0433 35.6963L29.1119 35.7601L29.1801 35.6957L29.1113 35.623ZM32.5723 32.3477L32.641 32.4203L32.6817 32.3818L32.6701 32.3269L32.5723 32.3477ZM46.8369 15.0029L46.8503 14.9038L46.85 14.9038L46.8369 15.0029ZM48.5645 17.0547L48.476 17.1014L48.4995 17.1459L48.5492 17.1535L48.5645 17.0547ZM49.7998 17.2451L49.7846 17.3439L49.8427 17.3529L49.8788 17.3064L49.7998 17.2451ZM52.3398 15.7812L52.3716 15.6864L52.3713 15.6863L52.3398 15.7812ZM53.9414 16.7256L54.0057 16.649L54.0056 16.6489L53.9414 16.7256ZM54.0449 19.8008L53.9543 19.843L53.9547 19.844L54.0449 19.8008ZM54.6992 20.6074L54.732 20.5129L54.7315 20.5128L54.6992 20.6074ZM56.2324 20.5303L56.2431 20.4308L56.2431 20.4308L56.2324 20.5303ZM57.5059 21.3477L57.5963 21.305L57.5963 21.305L57.5059 21.3477ZM57.9844 23.7393L58.0823 23.7596L58.0823 23.7595L57.9844 23.7393ZM56.0977 25.2178L56.1617 25.2945L56.1617 25.2945L56.0977 25.2178ZM55.8379 26.4678L55.7421 26.4965L55.7421 26.4965L55.8379 26.4678ZM57.3633 28.501L57.4632 28.4966L57.4632 28.4965L57.3633 28.501ZM55.9443 30.9756L55.9947 31.062L55.9948 31.0619L55.9443 30.9756ZM53.4902 30.7188L53.4941 30.6188L53.4936 30.6188L53.4902 30.7188ZM52.4717 31.417L52.376 31.3879L52.3736 31.3957L52.3726 31.4038L52.4717 31.417ZM52.0928 33.9473L52.167 34.0142L52.1671 34.0142L52.0928 33.9473ZM49.3369 34.6973L49.3189 34.7956L49.3191 34.7957L49.3369 34.6973ZM47.6621 32.6426L47.6946 32.548L47.6833 32.5441L47.6715 32.543L47.6621 32.6426ZM46.5137 32.5342L46.5231 32.4346L46.4715 32.4298L46.4378 32.469L46.5137 32.5342ZM44.5732 34.0781L44.5663 33.9784L44.5661 33.9784L44.5732 34.0781ZM42.3604 33.0303L42.4237 32.9529L42.4236 32.9528L42.3604 33.0303ZM42.3135 29.9922L42.4124 30.0071L42.4189 29.9638L42.3915 29.9297L42.3135 29.9922ZM41.6543 29.1689L41.7324 29.1064L41.7048 29.072L41.6607 29.0692L41.6543 29.1689ZM38.8018 28.4023L38.7116 28.4457L38.7117 28.4458L38.8018 28.4023ZM38.2656 26.4756L38.1658 26.4811L38.1658 26.4812L38.2656 26.4756ZM38.7119 25.3936L38.6411 25.3229L38.6411 25.323L38.7119 25.3936ZM40.4053 24.1768L40.3081 24.1531L40.3081 24.1532L40.4053 24.1768ZM40.4932 23.2627L40.586 23.2256L40.5855 23.2244L40.4932 23.2627ZM38.9814 21.3076L38.8816 21.3128L38.8816 21.3129L38.9814 21.3076ZM40.3086 18.8047L40.3649 18.8873L40.365 18.8873L40.3086 18.8047ZM42.9961 19.0264L42.9837 19.1256L43.0266 19.131L43.0599 19.1034L42.9961 19.0264ZM43.8887 18.2871L43.9525 18.3641L43.992 18.3314L43.9884 18.2801L43.8887 18.2871ZM44.7246 15.4873L44.6861 15.395L44.686 15.3951L44.7246 15.4873ZM46.6006 16.2734L46.5799 16.1753L46.5723 16.1775L46.6006 16.2734ZM45.1211 16.709L45.0929 16.6131L45.0396 16.6287L45.0247 16.6823L45.1211 16.709ZM44.8555 19.2607L44.9209 19.3363L44.9211 19.3362L44.8555 19.2607ZM43.5645 20.2441L43.5112 20.1595L43.5109 20.1597L43.5645 20.2441ZM41.1729 19.8438L41.1679 19.9436L41.1681 19.9436L41.1729 19.8438ZM40.2588 21.2158L40.1705 21.169L40.1581 21.1922L40.1588 21.2185L40.2588 21.2158ZM41.8135 22.8486L41.9072 22.8138L41.9072 22.8137L41.8135 22.8486ZM41.6338 24.3174L41.7323 24.3346L41.7324 24.3342L41.6338 24.3174ZM41.3721 25.3535L41.4336 25.4323L41.4336 25.4323L41.3721 25.3535ZM39.5615 26.3936L39.4622 26.382L39.4599 26.4018L39.4653 26.421L39.5615 26.3936ZM39.9785 27.8574L39.8823 27.8848L39.9021 27.9541L39.974 27.9573L39.9785 27.8574ZM42.3291 27.9639L42.4076 27.9019L42.3793 27.866L42.3336 27.864L42.3291 27.9639ZM43.6143 29.5938L43.7015 29.5449L43.6977 29.538L43.6928 29.5318L43.6143 29.5938ZM43.1162 31.8945L43.0168 31.8836L43.0143 31.9062L43.0219 31.9277L43.1162 31.8945ZM43.165 32.0332L43.0707 32.0664L43.0832 32.1018L43.1158 32.1203L43.165 32.0332ZM44.4902 32.7822L44.441 32.8693L44.4921 32.8982L44.5422 32.8676L44.4902 32.7822ZM46.4863 31.1689L46.4905 31.069L46.4904 31.069L46.4863 31.1689ZM48.1084 31.374L48.091 31.4725L48.0911 31.4725L48.1084 31.374ZM49.5312 33.3877L49.4518 33.4484L49.4669 33.4682L49.4896 33.4786L49.5312 33.3877ZM49.6719 33.4521L49.6302 33.5431L49.6623 33.5578L49.6965 33.5491L49.6719 33.4521ZM51.1689 33.0723L51.1935 33.1692L51.2671 33.1505L51.2689 33.0746L51.1689 33.0723ZM51.2246 30.7188L51.1749 30.632L51.126 30.66L51.1246 30.7164L51.2246 30.7188ZM53.3037 29.3584L53.311 29.2587L53.3108 29.2586L53.3037 29.3584ZM55.1426 29.8926L55.1479 29.9924L55.1482 29.9924L55.1426 29.8926ZM56.0039 28.4932L56.1034 28.4835L56.1034 28.4831L56.0039 28.4932ZM54.4707 26.832L54.3722 26.8151L54.369 26.8336L54.3727 26.852L54.4707 26.832ZM54.6406 24.9492L54.7397 24.9629L54.7397 24.9628L54.6406 24.9492ZM54.8447 24.4707L54.8 24.3813L54.7831 24.3897L54.7705 24.4037L54.8447 24.4707ZM54.8486 24.4688L54.8934 24.5582L54.9099 24.5499L54.9225 24.5362L54.8486 24.4688ZM56.6406 23.4834L56.7159 23.5492L56.716 23.5491L56.6406 23.4834ZM56.7158 23.2393L56.8154 23.2302L56.8154 23.2301L56.7158 23.2393ZM56.2783 21.8486L56.3297 21.7629L56.3188 21.7563L56.3065 21.7527L56.2783 21.8486ZM54.0234 21.8291L53.9813 21.9198V21.9198L54.0234 21.8291ZM52.6836 20.167L52.5962 20.2156L52.61 20.2403L52.6347 20.2542L52.6836 20.167ZM53.1406 17.7119L53.2253 17.6586L53.2109 17.6359L53.1871 17.6234L53.1406 17.7119ZM51.7852 17L51.8317 16.9115L51.782 16.8854L51.7338 16.9142L51.7852 17ZM49.8945 18.5742L49.8923 18.6742L49.8923 18.6742L49.8945 18.5742ZM48.0586 18.332L48.0369 18.4297L48.037 18.4297L48.0586 18.332ZM46.7988 16.4062L46.7177 16.4648L46.7178 16.4648L46.7988 16.4062ZM34.6562 20.8086L34.7421 20.7573L34.7421 20.7573L34.6562 20.8086ZM24.457 19.5596L24.3864 19.4888L24.3863 19.4888L24.457 19.5596ZM26.3662 30.0928L26.3255 30.1841L26.3255 30.1841L26.3662 30.0928ZM47.5205 20.2842L47.5325 20.3835L47.5325 20.3835L47.5205 20.2842ZM49.0928 29.4023L49.1119 29.5005V29.5005L49.0928 29.4023ZM49.0557 28.0928L49.0818 28.1893L49.0818 28.1893L49.0557 28.0928ZM47.6094 21.5547L47.5958 21.4556L47.5958 21.4556L47.6094 21.5547ZM27.0439 16.6455L27.0689 16.7424C34.6812 14.7834 40.0191 24.039 34.545 29.5978L34.6162 29.668L34.6875 29.7381C40.3059 24.0328 34.8249 14.5399 27.019 16.5487L27.0439 16.6455ZM34.6162 29.668L34.5449 29.5979C34.5041 29.6394 34.4221 29.7071 34.3152 29.7916C34.2073 29.8768 34.0886 29.968 33.9651 30.0652C33.8449 30.1599 33.7269 30.2551 33.6356 30.3371C33.59 30.3779 33.5494 30.417 33.5179 30.4521C33.4898 30.4834 33.4574 30.524 33.4444 30.5665L33.54 30.5957L33.6357 30.6249C33.6346 30.6286 33.6389 30.6168 33.6668 30.5856C33.6914 30.5583 33.7259 30.5247 33.7691 30.4859C33.8553 30.4086 33.9689 30.3167 34.0888 30.2223C34.2055 30.1304 34.3354 30.0305 34.4392 29.9485C34.5438 29.8658 34.6363 29.7902 34.6876 29.738L34.6162 29.668ZM33.54 30.5957L33.4444 30.5664C33.3716 30.8037 33.434 31.1213 33.5438 31.4014C33.6547 31.6843 33.8255 31.9584 34.002 32.1108L34.0674 32.0352L34.1327 31.9595C33.9896 31.8359 33.8342 31.5942 33.73 31.3284C33.6247 31.0598 33.5833 30.7958 33.6356 30.625L33.54 30.5957ZM34.0674 32.0352L34.0022 32.111C34.259 32.3319 34.6763 32.4904 35.1629 32.6122C35.6531 32.735 36.2288 32.8239 36.8145 32.8971C37.3998 32.9703 38.0008 33.0284 38.5374 33.0884C39.0769 33.1486 39.5506 33.2106 39.8909 33.2916L39.9141 33.1943L39.9372 33.0971C39.5833 33.0128 39.098 32.9497 38.5597 32.8896C38.0186 32.8292 37.4232 32.7717 36.8393 32.6987C36.2559 32.6257 35.6898 32.538 35.2115 32.4182C34.7296 32.2976 34.3517 32.1478 34.1326 31.9593L34.0674 32.0352ZM39.9141 33.1943L39.8909 33.2916C41.6291 33.7054 42.7918 35.2854 43.3616 36.9177L43.4561 36.8848L43.5505 36.8518C42.9702 35.1896 41.7708 33.5336 39.9372 33.0971L39.9141 33.1943ZM43.4561 36.8848L43.4557 36.9848L48.7614 37.0033L48.7617 36.9033L48.7621 36.8033L43.4564 36.7848L43.4561 36.8848ZM48.7617 36.9033L48.7544 37.0031C48.8437 37.0096 48.9608 37.0549 49.0918 37.1352C49.2209 37.2142 49.355 37.322 49.4765 37.4423C49.5981 37.5626 49.7047 37.6931 49.7801 37.8162C49.8573 37.9421 49.895 38.0491 49.8951 38.1251L49.9951 38.125L50.0951 38.1249C50.0949 37.9938 50.0345 37.8486 49.9507 37.7117C49.8651 37.5721 49.7477 37.4293 49.6172 37.3001C49.4867 37.1709 49.3406 37.053 49.1963 36.9646C49.054 36.8774 48.9046 36.8136 48.769 36.8036L48.7617 36.9033ZM49.9951 38.125H49.8951V40.3535H49.9951H50.0951V38.125H49.9951ZM49.9951 40.3535V40.4535H55.5928V40.3535V40.2535H49.9951V40.3535ZM55.5928 40.3535V40.4535C55.6465 40.4535 55.7075 40.476 55.7735 40.5241C55.839 40.572 55.9037 40.6412 55.9622 40.723C56.0805 40.8884 56.1616 41.0881 56.178 41.2266L56.2773 41.2148L56.3767 41.2031C56.3554 41.0233 56.2577 40.7923 56.1249 40.6066C56.0579 40.5129 55.9789 40.4265 55.8914 40.3626C55.8041 40.2989 55.7025 40.2535 55.5928 40.2535V40.3535ZM56.2773 41.2148L56.178 41.2267C56.2936 42.1956 56.2493 43.2778 56.1975 44.376C56.146 45.4706 56.0871 46.5812 56.1777 47.5929L56.2773 47.584L56.3769 47.5751C56.2878 46.5799 56.3456 45.4844 56.3973 44.3854C56.4489 43.2901 56.4945 42.1911 56.3766 41.203L56.2773 41.2148ZM56.2773 47.584L56.178 47.5724C56.1421 47.8805 55.9688 48.0404 55.794 48.1381C55.7048 48.188 55.6167 48.2207 55.5434 48.2485C55.5086 48.2616 55.4727 48.2753 55.4448 48.2893C55.4307 48.2964 55.4142 48.3058 55.3992 48.3181C55.3852 48.3297 55.3632 48.3514 55.3538 48.3855L55.4502 48.4121L55.5466 48.4388C55.5403 48.4613 55.527 48.4719 55.5264 48.4725C55.5248 48.4737 55.5264 48.4721 55.5347 48.468C55.5514 48.4596 55.5766 48.4497 55.6141 48.4355C55.6856 48.4085 55.7874 48.3709 55.8916 48.3127C56.1037 48.1941 56.3311 47.9861 56.3767 47.5956L56.2773 47.584ZM55.4502 48.4121L55.3502 48.4122L55.357 55.6749L55.457 55.6748L55.557 55.6747L55.5502 48.412L55.4502 48.4121ZM55.457 55.6748L55.3576 55.6641C55.3267 55.952 55.2301 56.1787 55.0806 56.3628C54.9304 56.548 54.7226 56.6952 54.4626 56.8166L54.5049 56.9072L54.5472 56.9978C54.8257 56.8678 55.0612 56.7042 55.2359 56.4889C55.4115 56.2725 55.5217 56.0087 55.5565 55.6855L55.457 55.6748ZM54.5049 56.9072L54.5044 56.8072L36.7544 56.8932L36.7549 56.9932L36.7554 57.0932L54.5054 57.0072L54.5049 56.9072ZM36.7549 56.9932L36.7467 56.8935C36.6337 56.9028 36.4953 56.8701 36.3462 56.8004C36.1983 56.7314 36.047 56.6293 35.9109 56.5097C35.7748 56.3901 35.6565 56.2553 35.573 56.1227C35.4885 55.9884 35.4448 55.8648 35.4447 55.7655L35.3447 55.7656L35.2447 55.7657C35.2449 55.918 35.3093 56.0792 35.4038 56.2292C35.4992 56.3809 35.6309 56.53 35.7789 56.66C35.9269 56.79 36.0939 56.9034 36.2616 56.9817C36.428 57.0594 36.6026 57.106 36.7631 57.0928L36.7549 56.9932ZM35.3447 55.7656H35.4447V52.7188H35.3447H35.2447V55.7656H35.3447ZM35.3447 52.7188V52.6188H13.458V52.7188V52.8187H35.3447V52.7188ZM13.458 52.7188H13.358V52.7207H13.458H13.558V52.7188H13.458ZM13.458 52.7207L13.486 52.6247C13.4993 52.6286 13.5033 52.6337 13.4923 52.6254C13.4848 52.6198 13.4744 52.6109 13.4614 52.5988C13.4354 52.5749 13.4037 52.5423 13.3721 52.5072C13.3405 52.4721 13.3104 52.4361 13.2875 52.4053C13.276 52.3899 13.267 52.3768 13.2607 52.3664C13.2535 52.3547 13.2529 52.3516 13.254 52.355L13.1582 52.3838L13.0624 52.4125C13.0689 52.4342 13.0803 52.4548 13.09 52.4707C13.1006 52.488 13.1134 52.5065 13.1272 52.5249C13.1548 52.5619 13.189 52.6028 13.2235 52.6411C13.258 52.6793 13.294 52.7165 13.3255 52.7456C13.3412 52.7601 13.3569 52.7737 13.3715 52.7848C13.3825 52.7931 13.4044 52.8092 13.4301 52.8167L13.458 52.7207ZM13.1582 52.3838L13.2542 52.3559C13.2455 52.326 13.2342 52.2524 13.2223 52.1449C13.2107 52.0409 13.1993 51.9138 13.1889 51.7832C13.1681 51.5221 13.1514 51.25 13.1448 51.1274L13.0449 51.1328L12.9451 51.1382C12.9518 51.2621 12.9686 51.536 12.9896 51.7991C13 51.9306 13.0116 52.0601 13.0235 52.167C13.035 52.2705 13.0478 52.3622 13.0622 52.4117L13.1582 52.3838ZM13.0449 51.1328L13.1448 51.1275C13.0709 49.7412 13.1023 48.0759 13.1449 46.673L13.0449 46.6699L12.945 46.6669C12.9024 48.0701 12.8707 49.7427 12.9451 51.1381L13.0449 51.1328ZM13.0449 46.6699L13.1449 46.6729C13.1996 44.8578 13.3354 41.8928 13.9729 39.2052C14.2917 37.8614 14.7347 36.5921 15.3523 35.5723C15.9696 34.5528 16.7573 33.7888 17.764 33.4422L17.7314 33.3477L17.6989 33.2531C16.6341 33.6198 15.8139 34.4239 15.1812 35.4687C14.5487 36.5131 14.0996 37.8045 13.7783 39.159C13.1357 41.8681 12.9997 44.8509 12.945 46.6669L13.0449 46.6699ZM17.7314 33.3477L17.764 33.4422C18.6117 33.1507 19.7859 33.0709 20.9478 32.9567C21.5252 32.9 22.0975 32.8347 22.616 32.7294C23.1338 32.6242 23.6049 32.478 23.9771 32.2558L23.9258 32.1699L23.8745 32.0841C23.5305 32.2895 23.0848 32.4301 22.5762 32.5334C22.0685 32.6365 21.5049 32.701 20.9282 32.7577C19.782 32.8703 18.5751 32.9518 17.6989 33.2531L17.7314 33.3477ZM23.9258 32.1699L23.9771 32.2558C24.2024 32.1212 24.4386 31.8227 24.5958 31.5119C24.6753 31.3546 24.7375 31.1886 24.7683 31.0315C24.7988 30.876 24.8003 30.7193 24.747 30.5875L24.6543 30.625L24.5616 30.6625C24.5945 30.7439 24.5988 30.8568 24.572 30.9931C24.5457 31.1278 24.4909 31.2762 24.4173 31.4216C24.2684 31.7161 24.0539 31.9769 23.8745 32.0841L23.9258 32.1699ZM24.6543 30.625L24.7469 30.5873C24.7372 30.5634 24.7185 30.5412 24.7077 30.5286C24.6935 30.512 24.6751 30.4924 24.6539 30.4709C24.6115 30.4275 24.5537 30.372 24.486 30.3085C24.3505 30.1814 24.1713 30.0185 23.9864 29.8502C23.6122 29.5094 23.2226 29.1527 23.0996 29.0037L23.0225 29.0674L22.9453 29.131C23.0801 29.2942 23.4851 29.6642 23.8517 29.998C24.0373 30.167 24.215 30.3285 24.3492 30.4544C24.4163 30.5174 24.4716 30.5706 24.5111 30.6109C24.531 30.6311 24.5458 30.6471 24.5559 30.6588C24.5694 30.6746 24.5661 30.6735 24.5617 30.6627L24.6543 30.625ZM23.0225 29.0674L23.0997 29.0038C19.6059 24.7583 21.7657 18.1067 27.0689 16.7424L27.0439 16.6455L27.019 16.5487C21.5733 17.9497 19.3591 24.7731 22.9452 29.1309L23.0225 29.0674ZM48.5361 49.668L48.4384 49.6466C48.3753 49.9351 48.3639 50.198 48.3576 50.4265C48.3511 50.6596 48.3494 50.8461 48.311 51.0017C48.2745 51.1497 48.2062 51.2627 48.0657 51.3489C47.9191 51.4388 47.6862 51.5043 47.31 51.5321L47.3174 51.6318L47.3248 51.7316C47.7125 51.7029 47.9833 51.634 48.1703 51.5193C48.3634 51.4009 48.4585 51.239 48.5052 51.0496C48.55 50.8678 48.5513 50.6542 48.5575 50.4321C48.5638 50.2055 48.5749 49.9584 48.6338 49.6894L48.5361 49.668ZM47.3174 51.6318L47.31 51.5321C46.9054 51.5622 46.0192 51.5924 45.1477 51.5947C44.7122 51.5958 44.2816 51.5899 43.9176 51.5737C43.5508 51.5574 43.2596 51.5308 43.0983 51.4925L43.0752 51.5898L43.0521 51.6871C43.2342 51.7303 43.543 51.7572 43.9087 51.7735C44.277 51.7899 44.711 51.7958 45.1482 51.7947C46.0221 51.7924 46.9136 51.7622 47.3248 51.7316L47.3174 51.6318ZM43.0752 51.5898L43.0983 51.4925C42.8399 51.4312 42.6889 51.3055 42.5967 51.1528C42.5021 50.9959 42.4644 50.8018 42.4521 50.5974C42.4395 50.3892 42.4534 50.1943 42.4528 50.0153C42.4525 49.9299 42.4486 49.8472 42.4337 49.7774C42.4192 49.7094 42.3903 49.6346 42.3241 49.5881L42.2666 49.6699L42.2091 49.7518C42.2134 49.7548 42.2273 49.7687 42.2381 49.8192C42.2485 49.8677 42.2525 49.9332 42.2528 50.016C42.2534 50.1737 42.2396 50.396 42.2525 50.6094C42.2656 50.8267 42.3064 51.0587 42.4255 51.256C42.547 51.4575 42.7446 51.6142 43.0521 51.6871L43.0752 51.5898ZM42.2666 49.6699L42.2848 49.5716L36.6392 48.5296L36.6211 48.6279L36.6029 48.7263L42.2485 49.7683L42.2666 49.6699ZM36.6211 48.6279H36.5211V55.584H36.6211H36.7211V48.6279H36.6211ZM36.6211 55.584L36.5504 55.6547L36.6861 55.7904L36.7568 55.7197L36.8275 55.649L36.6918 55.5133L36.6211 55.584ZM36.7568 55.7197V55.8197H54.0479V55.7197V55.6197H36.7568V55.7197ZM54.0479 55.7197L54.1186 55.7904L54.2543 55.6547L54.1836 55.584L54.1129 55.5133L53.9771 55.649L54.0479 55.7197ZM54.1836 55.584H54.2836V48.6279H54.1836H54.0836V55.584H54.1836ZM54.1836 48.6279L54.1655 48.5296L48.518 49.5696L48.5361 49.668L48.5542 49.7663L54.2017 48.7263L54.1836 48.6279ZM22.293 33.9219L22.2674 33.8252C21.5276 34.0212 20.6292 34.0429 19.7312 34.1398C18.8448 34.2354 17.9648 34.4049 17.3145 34.9113L17.376 34.9902L17.4374 35.0691C18.0394 34.6002 18.8684 34.4341 19.7527 34.3387C20.6253 34.2445 21.5594 34.2197 22.3186 34.0185L22.293 33.9219ZM17.376 34.9902L17.3145 34.9113C16.6399 35.4367 16.1257 36.2129 15.731 37.1219C15.336 38.0315 15.0582 39.08 14.8596 40.1569C14.4625 42.3103 14.3801 44.5912 14.32 46.1269L14.4199 46.1309L14.5198 46.1348C14.5801 44.5968 14.6622 42.3302 15.0563 40.1932C15.2533 39.1249 15.5276 38.0924 15.9144 37.2016C16.3015 36.3102 16.7985 35.5667 17.4374 35.0691L17.376 34.9902ZM14.4199 46.1309L14.32 46.1269C14.2583 47.6884 14.096 49.374 14.2206 50.96L14.3203 50.9521L14.42 50.9443C14.2966 49.3741 14.4575 47.7125 14.5198 46.1348L14.4199 46.1309ZM14.3203 50.9521L14.2206 50.9598C14.2348 51.1446 14.2769 51.307 14.3191 51.472L14.416 51.4473L14.5129 51.4225C14.4701 51.2551 14.4326 51.1092 14.42 50.9445L14.3203 50.9521ZM14.416 51.4473V51.5473H18.4189V51.4473V51.3473H14.416V51.4473ZM18.4189 51.4473H18.5189V45.0371H18.4189H18.3189V51.4473H18.4189ZM18.4189 45.0371H18.5189C18.5189 45.0523 18.5128 45.055 18.5225 45.0409C18.5305 45.0294 18.5445 45.0133 18.5657 44.9937C18.6078 44.9547 18.6685 44.9102 18.7373 44.8683C18.8058 44.8266 18.8791 44.7894 18.945 44.7636C19.0143 44.7366 19.0634 44.7271 19.0884 44.7287L19.0947 44.6289L19.1011 44.5291C19.0306 44.5246 18.9475 44.5479 18.8723 44.5773C18.7936 44.608 18.7098 44.6508 18.6332 44.6975C18.557 44.744 18.4845 44.7962 18.4297 44.847C18.4025 44.8723 18.3771 44.8995 18.3578 44.9274C18.3402 44.9529 18.3189 44.9915 18.3189 45.0371H18.4189ZM19.0947 44.6289L19.0883 44.7287C19.1152 44.7304 19.1616 44.7449 19.2223 44.7766C19.2807 44.8071 19.3439 44.8492 19.4022 44.8965C19.4607 44.9439 19.5113 44.9943 19.5464 45.0401C19.5844 45.09 19.5924 45.1194 19.5924 45.1279H19.6924H19.7924C19.7924 45.0508 19.7495 44.9766 19.7053 44.9188C19.6581 44.8569 19.5952 44.7955 19.5281 44.7411C19.4609 44.6866 19.3866 44.6368 19.315 44.5994C19.2458 44.5632 19.1697 44.5335 19.1012 44.5291L19.0947 44.6289ZM19.6924 45.1279H19.5924V51.4473H19.6924H19.7924V45.1279H19.6924ZM19.6924 51.4473V51.5473H35.3457V51.4473V51.3473H19.6924V51.4473ZM35.3457 51.4473H35.4457V48.3555H35.3457H35.2457V51.4473H35.3457ZM35.3457 48.3555L35.3665 48.2576C35.1396 48.2095 34.9653 48.1054 34.8425 47.9609C34.7193 47.8161 34.643 47.6251 34.622 47.3962L34.5225 47.4053L34.4229 47.4144C34.4469 47.6775 34.5361 47.9093 34.6901 48.0905C34.8446 48.272 35.0595 48.397 35.3249 48.4533L35.3457 48.3555ZM34.5225 47.4053L34.622 47.3961C34.5334 46.4379 34.5686 45.4107 34.6093 44.3722C34.65 43.3364 34.6962 42.2891 34.6271 41.3016L34.5273 41.3086L34.4276 41.3156C34.4958 42.2899 34.4503 43.3252 34.4095 44.3644C34.3688 45.401 34.3329 46.4412 34.4229 47.4145L34.5225 47.4053ZM34.5273 41.3086L34.6241 41.2833C34.6138 41.2442 34.6223 41.1743 34.6632 41.0767C34.7022 40.9833 34.7643 40.8802 34.8368 40.7835C34.9093 40.687 34.9895 40.6005 35.0626 40.5394C35.0992 40.5087 35.1321 40.486 35.1597 40.4714C35.1888 40.4561 35.2047 40.4535 35.2094 40.4535L35.209 40.3535L35.2086 40.2535C35.1579 40.2537 35.1086 40.2722 35.0663 40.2946C35.0225 40.3177 34.9778 40.3495 34.9342 40.386C34.847 40.459 34.7565 40.5574 34.6769 40.6635C34.5972 40.7695 34.5257 40.887 34.4787 40.9995C34.4334 41.1078 34.4032 41.2292 34.4306 41.3339L34.5273 41.3086ZM35.209 40.3535V40.4535H40.8066V40.3535V40.2535H35.209V40.3535ZM40.8066 40.3535H40.9066V38.2168H40.8066H40.7066V40.3535H40.8066ZM40.8066 38.2168H40.9066C40.9066 38.1161 40.9478 37.9953 41.0265 37.8631C41.1043 37.7322 41.2142 37.5978 41.3402 37.4719C41.5944 37.218 41.8995 37.0126 42.1102 36.9414L42.0781 36.8467L42.0461 36.7519C41.7959 36.8365 41.4653 37.0643 41.1989 37.3304C41.0646 37.4646 40.9431 37.612 40.8546 37.7609C40.7668 37.9085 40.7066 38.0655 40.7066 38.2168H40.8066ZM42.0781 36.8467L42.1696 36.8062C41.7114 35.7707 40.9459 34.6854 39.7589 34.3721L39.7334 34.4688L39.7079 34.5654C40.804 34.8548 41.5355 35.8672 41.9867 36.8871L42.0781 36.8467ZM39.7334 34.4688L39.7589 34.3721C39.1515 34.2118 38.4891 34.137 37.8307 34.0731C37.1694 34.009 36.5134 33.9561 35.9063 33.8412L35.8877 33.9395L35.8691 34.0377C36.4875 34.1548 37.1556 34.2086 37.8114 34.2722C38.4701 34.3361 39.1178 34.4098 39.7079 34.5654L39.7334 34.4688ZM35.8877 33.9395L35.7971 33.8971L32.5305 40.8795L32.6211 40.9219L32.7117 40.9643L35.9783 33.9818L35.8877 33.9395ZM32.6211 40.9219L32.5465 40.8553C32.4331 40.9822 32.3294 41.0296 32.2399 41.0404C32.1481 41.0515 32.0565 41.0261 31.9656 40.9805C31.8738 40.9345 31.7916 40.8728 31.7161 40.8179C31.6802 40.7918 31.643 40.7652 31.6092 40.7462C31.581 40.7303 31.5301 40.7045 31.4745 40.7139L31.4912 40.8125L31.5079 40.9111C31.4882 40.9144 31.4837 40.9051 31.5113 40.9206C31.5333 40.9329 31.5612 40.9525 31.5985 40.9797C31.6695 41.0313 31.7663 41.1043 31.8759 41.1593C31.9865 41.2147 32.1189 41.2565 32.2639 41.239C32.4111 41.2211 32.5568 41.144 32.6957 40.9885L32.6211 40.9219ZM31.4912 40.8125L31.4143 40.7486L30.6672 41.648L30.7441 41.7119L30.8211 41.7758L31.5681 40.8764L31.4912 40.8125ZM30.7441 41.7119L30.6463 41.7325L31.9724 48.0518L32.0703 48.0312L32.1682 48.0107L30.842 41.6914L30.7441 41.7119ZM32.0703 48.0312H31.9703C31.9703 48.0574 31.9616 48.0781 31.9423 48.1047C31.9317 48.1192 31.9198 48.133 31.9042 48.1514C31.8897 48.1684 31.872 48.1895 31.8563 48.2131L31.9395 48.2686L32.0226 48.3241C32.0312 48.3112 32.042 48.2981 32.0566 48.2808C32.0701 48.2649 32.0879 48.2445 32.1039 48.2225C32.1379 48.1759 32.1703 48.1144 32.1703 48.0312H32.0703ZM31.9395 48.2686L31.8562 48.2132C31.8381 48.2404 31.7938 48.2931 31.7237 48.3693C31.6552 48.4436 31.5664 48.5356 31.4634 48.6395C31.2576 48.8474 30.9967 49.1012 30.7316 49.3534C30.4666 49.6055 30.1978 49.8556 29.9763 50.0558C29.7523 50.2582 29.5822 50.4046 29.5112 50.4541L29.5684 50.5361L29.6255 50.6182C29.7092 50.5599 29.8896 50.4037 30.1104 50.2042C30.3335 50.0026 30.6035 49.7513 30.8695 49.4983C31.1354 49.2453 31.3978 48.99 31.6055 48.7803C31.7094 48.6755 31.8 48.5816 31.8707 48.5048C31.9398 48.4298 31.9946 48.3662 32.0227 48.3239L31.9395 48.2686ZM29.5684 50.5361L29.5112 50.4541C29.3341 50.5774 29.2191 50.6257 29.1143 50.626C29.0097 50.6264 28.894 50.579 28.7155 50.4542L28.6582 50.5361L28.6009 50.6181C28.787 50.7482 28.9458 50.8266 29.115 50.826C29.2838 50.8255 29.4416 50.7463 29.6255 50.6182L29.5684 50.5361ZM28.6582 50.5361L28.7155 50.4542C28.2014 50.0945 27.2608 49.1759 26.7703 48.6943L26.7002 48.7656L26.6301 48.837C27.1147 49.3127 28.0696 50.2465 28.6009 50.6181L28.6582 50.5361ZM26.7002 48.7656L26.7703 48.6943C26.6577 48.5838 26.5297 48.474 26.4155 48.3472C26.3021 48.2214 26.2221 48.0989 26.2021 47.9804L26.1035 47.9971L26.0049 48.0137C26.0347 48.1904 26.1473 48.3484 26.2669 48.4811C26.3857 48.6129 26.5311 48.7397 26.6301 48.837L26.7002 48.7656ZM26.1035 47.9971L26.2014 48.0174L27.512 41.7127L27.4141 41.6924L27.3162 41.672L26.0056 47.9767L26.1035 47.9971ZM27.4141 41.6924L27.4958 41.6347L26.8718 40.75L26.79 40.8076L26.7083 40.8653L27.3323 41.75L27.4141 41.6924ZM26.79 40.8076L26.7786 40.7083C26.6074 40.728 26.4905 40.8293 26.3966 40.9029C26.2987 40.9798 26.2152 41.038 26.0894 41.0447L26.0947 41.1445L26.1001 41.2444C26.2927 41.2341 26.419 41.1397 26.5201 41.0603C26.6254 40.9777 26.6969 40.919 26.8015 40.907L26.79 40.8076ZM26.0947 41.1445L26.0895 41.0447C26.0094 41.0489 25.9128 41.024 25.8193 40.9761C25.7262 40.9284 25.6452 40.8625 25.5945 40.7952L25.5146 40.8555L25.4348 40.9157C25.5069 41.0112 25.6132 41.0952 25.7281 41.1541C25.8426 41.2128 25.9746 41.251 26.1 41.2444L26.0947 41.1445ZM25.5146 40.8555L25.6053 40.8133L22.3837 33.8797L22.293 33.9219L22.2023 33.964L25.424 40.8976L25.5146 40.8555ZM43.627 50.2197L43.5565 50.2907L43.6932 50.4264L43.7637 50.3555L43.8341 50.2845L43.6974 50.1488L43.627 50.2197ZM43.7637 50.3555V50.4555H47.1758V50.3555V50.2555H43.7637V50.3555ZM47.1758 50.3555H47.2758V48.082H47.1758H47.0758V50.3555H47.1758ZM47.1758 48.082V47.982H43.627V48.082V48.182H47.1758V48.082ZM43.627 48.082H43.527V50.2197H43.627H43.727V48.082H43.627ZM28.7598 42.1826L28.6861 42.115L28.5552 42.2576L28.6289 42.3252L28.7026 42.3928L28.8334 42.2502L28.7598 42.1826ZM28.6289 42.3252L28.5313 42.3034L27.3516 47.5807L27.4492 47.6025L27.5468 47.6244L28.7265 42.347L28.6289 42.3252ZM27.4492 47.6025L27.3789 47.6737L28.9629 49.2381L29.0332 49.167L29.1035 49.0958L27.5195 47.5314L27.4492 47.6025ZM29.0332 49.167L29.0166 49.2656C29.0583 49.2726 29.0977 49.2576 29.1196 49.2482C29.1468 49.2365 29.1764 49.2198 29.2069 49.2005C29.2684 49.1616 29.3435 49.1057 29.426 49.0394C29.5915 48.9064 29.7946 48.7251 29.9923 48.537C30.1901 48.3489 30.3841 48.1524 30.5311 47.9885C30.6044 47.9067 30.6674 47.8316 30.7134 47.7689C30.7364 47.7376 30.7564 47.7079 30.7716 47.6809C30.7853 47.6563 30.8007 47.6245 30.8052 47.5915L30.7061 47.5781L30.607 47.5648C30.6078 47.5588 30.6082 47.5633 30.5971 47.583C30.5875 47.6002 30.5727 47.6227 30.5523 47.6504C30.5117 47.7057 30.4536 47.7754 30.3822 47.8549C30.2398 48.0138 30.0497 48.2064 29.8545 48.3921C29.6592 48.5779 29.4604 48.7551 29.3007 48.8835C29.2205 48.9479 29.1521 48.9984 29.1 49.0315C29.0737 49.0481 29.054 49.0587 29.0406 49.0645C29.022 49.0725 29.0297 49.065 29.0499 49.0684L29.0332 49.167ZM30.7061 47.5781L30.8037 47.5565L29.6103 42.1591L29.5127 42.1807L29.4151 42.2023L30.6084 47.5997L30.7061 47.5781ZM29.5127 42.1807L29.5124 42.0807L28.7595 42.0826L28.7598 42.1826L28.76 42.2826L29.513 42.2807L29.5127 42.1807ZM35.8008 47.1729L35.783 47.2713L42.3338 48.4529L42.3516 48.3545L42.3693 48.2561L35.8185 47.0744L35.8008 47.1729ZM42.3516 48.3545L42.4515 48.3509C42.4403 48.0426 42.4237 47.7344 42.4894 47.4736C42.5526 47.2225 42.6902 47.023 42.9935 46.922L42.9619 46.8271L42.9303 46.7323C42.5507 46.8586 42.3721 47.1202 42.2955 47.4248C42.2212 47.7196 42.2409 48.0614 42.2516 48.3581L42.3516 48.3545ZM42.9619 46.8271L42.9622 46.9271L47.761 46.9125L47.7607 46.8125L47.7604 46.7125L42.9616 46.7271L42.9619 46.8271ZM47.7607 46.8125L47.7363 46.9095C47.9388 46.9604 48.0653 47.0312 48.1467 47.1103C48.2269 47.1885 48.2704 47.282 48.2944 47.3929C48.319 47.5065 48.3223 47.6335 48.3241 47.7781C48.3258 47.9195 48.3263 48.0762 48.3493 48.2342L48.4482 48.2197L48.5472 48.2053C48.5265 48.0632 48.5259 47.9208 48.5241 47.7757C48.5223 47.6337 48.5194 47.4869 48.4899 47.3505C48.4598 47.2115 48.4013 47.0791 48.2862 46.9671C48.1721 46.856 48.01 46.7721 47.7851 46.7155L47.7607 46.8125ZM48.4482 48.2197L48.3493 48.2341C48.3524 48.2555 48.3519 48.2729 48.351 48.2913C48.3506 48.2993 48.3498 48.3126 48.35 48.3245C48.3502 48.3363 48.3514 48.3573 48.3604 48.3795C48.371 48.4054 48.3896 48.4269 48.4148 48.4412C48.4367 48.4536 48.4591 48.458 48.4757 48.4599C48.5077 48.4636 48.5487 48.4612 48.5948 48.457L48.5859 48.3574L48.577 48.2578C48.5542 48.2599 48.5366 48.2611 48.523 48.2615C48.509 48.262 48.5018 48.2616 48.4988 48.2613C48.495 48.2608 48.5025 48.261 48.5135 48.2673C48.5196 48.2707 48.5263 48.2758 48.5325 48.2829C48.5387 48.2899 48.5429 48.2974 48.5456 48.304C48.5504 48.3158 48.55 48.3241 48.5499 48.3208C48.5499 48.3176 48.5501 48.3134 48.5507 48.3013C48.5518 48.2795 48.5532 48.2464 48.5472 48.2053L48.4482 48.2197ZM48.5859 48.3574L48.6041 48.4558L55.0201 47.2692L55.002 47.1709L54.9838 47.0726L48.5678 48.2591L48.5859 48.3574ZM55.002 47.1709H55.102V41.625H55.002H54.902V47.1709H55.002ZM55.002 41.625V41.525H35.8008V41.625V41.725H55.002V41.625ZM35.8008 41.625H35.7008V47.1729H35.8008H35.9008V41.625H35.8008ZM27.5176 39.6699L27.4384 39.7311L28.3515 40.9127L28.4307 40.8516L28.5098 40.7904L27.5967 39.6088L27.5176 39.6699ZM28.4307 40.8516L28.4267 40.9515L29.6542 41.0003L29.6582 40.9004L29.6622 40.8005L28.4346 40.7516L28.4307 40.8516ZM29.6582 40.9004L29.7342 40.9653L30.7694 39.7534L30.6934 39.6885L30.6173 39.6235L29.5822 40.8354L29.6582 40.9004ZM30.6934 39.6885L30.7681 39.6221C30.7127 39.5597 30.5965 39.3993 30.4445 39.1864C30.2948 38.9765 30.1141 38.721 29.934 38.4759C29.7541 38.2311 29.5729 37.9939 29.4217 37.8209C29.3464 37.7348 29.2759 37.6614 29.2148 37.6106C29.1845 37.5854 29.1532 37.5628 29.122 37.5474C29.0938 37.5334 29.0491 37.5168 29.0003 37.5289L29.0244 37.626L29.0485 37.723C29.0278 37.7282 29.0189 37.7195 29.0331 37.7265C29.0445 37.7322 29.0623 37.7438 29.0869 37.7643C29.1357 37.805 29.1981 37.869 29.2711 37.9525C29.4164 38.1188 29.5935 38.3502 29.7728 38.5943C29.9518 38.838 30.1313 39.0917 30.2817 39.3026C30.43 39.5104 30.5542 39.6823 30.6186 39.7549L30.6934 39.6885ZM29.0244 37.626L29.0951 37.5553L29.0941 37.5543L29.0234 37.625L28.9527 37.6957L28.9537 37.6967L29.0244 37.626ZM29.0234 37.625L28.9429 37.5657L27.4371 39.6106L27.5176 39.6699L27.5981 39.7292L29.104 37.6843L29.0234 37.625ZM42.3066 38.1699L42.2926 38.0709C42.2753 38.0734 42.2627 38.0798 42.259 38.0817C42.2534 38.0845 42.2488 38.0874 42.2457 38.0895C42.2396 38.0936 42.2337 38.0981 42.229 38.1019C42.2192 38.1098 42.2078 38.1198 42.1963 38.1305C42.1728 38.152 42.144 38.1799 42.1162 38.2078C42.0884 38.2357 42.0607 38.2646 42.0394 38.288C42.0289 38.2995 42.019 38.3109 42.0112 38.3207C42.0075 38.3254 42.0029 38.3313 41.9988 38.3377C41.9967 38.3408 41.9937 38.3457 41.9907 38.3518C41.989 38.3555 41.9818 38.3702 41.9803 38.3903L42.0801 38.3975L42.1798 38.4046C42.1785 38.4236 42.1717 38.4369 42.1708 38.4389C42.1687 38.4432 42.1669 38.446 42.1665 38.4466C42.1655 38.4481 42.1656 38.4479 42.1676 38.4453C42.1715 38.4405 42.1781 38.4328 42.1875 38.4224C42.206 38.402 42.2314 38.3755 42.2579 38.3489C42.2844 38.3224 42.3109 38.2967 42.3313 38.2779C42.3417 38.2684 42.3496 38.2616 42.3546 38.2576C42.3573 38.2554 42.3577 38.2552 42.3565 38.256C42.356 38.2563 42.3536 38.2579 42.3498 38.2598C42.3479 38.2608 42.3368 38.2666 42.3207 38.2689L42.3066 38.1699ZM42.0801 38.3975H41.9801V40.2158H42.0801H42.1801V38.3975H42.0801ZM42.0801 40.2158L42.0091 40.2863L42.1449 40.423L42.2158 40.3525L42.2868 40.2821L42.151 40.1454L42.0801 40.2158ZM42.2158 40.3525V40.4525H48.7227V40.3525V40.2525H42.2158V40.3525ZM48.7227 40.3525H48.8227V38.3975H48.7227H48.6227V40.3525H48.7227ZM48.7227 38.3975L48.8227 38.3965C48.8224 38.3664 48.8095 38.3426 48.8056 38.3354C48.7997 38.3243 48.7926 38.3135 48.7869 38.3051C48.7734 38.2854 48.7628 38.2713 48.7509 38.2524C48.7397 38.2345 48.7327 38.2201 48.7292 38.2091C48.7259 38.1984 48.7281 38.1973 48.7268 38.2012L48.6318 38.1699L48.5368 38.1387C48.521 38.1868 48.5272 38.2325 48.5381 38.268C48.549 38.3032 48.5664 38.3345 48.5815 38.3586C48.5959 38.3816 48.6135 38.4059 48.6216 38.4178C48.6267 38.4253 48.6287 38.4287 48.6293 38.4297C48.6319 38.4346 48.6229 38.4209 48.6227 38.3984L48.7227 38.3975ZM48.6318 38.1699V38.0699H42.3066V38.1699V38.2699H48.6318V38.1699ZM23.6064 33.624L23.5159 33.6664L26.1526 39.3031L26.2432 39.2607L26.3337 39.2184L23.697 33.5817L23.6064 33.624ZM26.2432 39.2607L26.3233 39.3205L28.3233 36.6389L28.2432 36.5791L28.163 36.5193L26.163 39.201L26.2432 39.2607ZM28.2432 36.5791L28.3117 36.5062L24.8878 33.2875L24.8193 33.3604L24.7508 33.4332L28.1747 36.652L28.2432 36.5791ZM24.8193 33.3604L24.851 33.2655L24.6078 33.1844L24.5762 33.2793L24.5445 33.3742L24.7877 33.4552L24.8193 33.3604ZM24.5762 33.2793L24.5427 33.1851L23.573 33.5298L23.6064 33.624L23.6399 33.7182L24.6097 33.3735L24.5762 33.2793ZM34.5264 33.624L34.5147 33.5247C34.4461 33.5328 34.3699 33.516 34.2823 33.4799C34.1941 33.4435 34.1054 33.3923 34.0095 33.339C33.917 33.2877 33.8167 33.2339 33.7172 33.2035C33.616 33.1726 33.5046 33.1625 33.3955 33.2115L33.4365 33.3027L33.4775 33.3939C33.5265 33.3719 33.584 33.3719 33.6588 33.3948C33.7353 33.4181 33.8183 33.4617 33.9124 33.5139C34.003 33.5642 34.1044 33.6228 34.2059 33.6647C34.3081 33.7069 34.4212 33.7371 34.5381 33.7233L34.5264 33.624ZM33.4365 33.3027L33.3679 33.23L29.9479 36.4605L30.0166 36.5332L30.0853 36.6059L33.5052 33.3754L33.4365 33.3027ZM30.0166 36.5332L29.9357 36.592L31.8517 39.2306L31.9326 39.1719L32.0135 39.1131L30.0975 36.4744L30.0166 36.5332ZM31.9326 39.1719L32.0232 39.2142L34.6169 33.6683L34.5264 33.626L34.4358 33.5836L31.842 39.1295L31.9326 39.1719ZM34.5264 33.626H34.6264V33.624H34.5264H34.4264V33.626H34.5264ZM32.3418 31.2588L32.3026 31.1668C30.2519 32.0417 27.9569 32.1275 25.9245 31.1684L25.8818 31.2588L25.8392 31.3492C27.9306 32.3363 30.2859 32.2447 32.381 31.3508L32.3418 31.2588ZM25.8818 31.2588L25.7867 31.228L25.4478 32.2759L25.543 32.3066L25.6381 32.3374L25.977 31.2896L25.8818 31.2588ZM25.543 32.3066L25.4749 32.3799L29.0433 35.6963L29.1113 35.623L29.1794 35.5498L25.611 32.2334L25.543 32.3066ZM29.1113 35.623L29.1801 35.6957L32.641 32.4203L32.5723 32.3477L32.5035 32.275L29.0426 35.5504L29.1113 35.623ZM32.5723 32.3477L32.6701 32.3269L32.4396 31.2381L32.3418 31.2588L32.244 31.2795L32.4744 32.3684L32.5723 32.3477ZM46.8369 15.0029L46.8236 15.102C47.2344 15.1574 47.5525 15.4642 47.82 15.8676C48.0886 16.2726 48.2854 16.7401 48.476 17.1014L48.5645 17.0547L48.6529 17.008C48.4741 16.6692 48.262 16.1722 47.9867 15.757C47.7103 15.3402 47.3493 14.9711 46.8503 14.9038L46.8369 15.0029ZM48.5645 17.0547L48.5492 17.1535L49.7846 17.3439L49.7998 17.2451L49.815 17.1463L48.5797 16.9559L48.5645 17.0547ZM49.7998 17.2451L49.8788 17.3064C50.189 16.9069 50.5235 16.4569 50.9232 16.1512C51.3174 15.8497 51.7649 15.6963 52.3084 15.8762L52.3398 15.7812L52.3713 15.6863C51.7479 15.48 51.2323 15.663 50.8017 15.9923C50.3766 16.3174 50.0245 16.7925 49.7208 17.1838L49.7998 17.2451ZM52.3398 15.7812L52.3081 15.8761C52.3539 15.8914 52.4614 15.9446 52.6086 16.0248C52.7525 16.1032 52.9261 16.2028 53.0993 16.3054C53.4498 16.513 53.7861 16.7259 53.8772 16.8022L53.9414 16.7256L54.0056 16.6489C53.8993 16.5598 53.5464 16.3378 53.2013 16.1333C53.0267 16.0299 52.8509 15.9291 52.7043 15.8492C52.5612 15.7712 52.4374 15.7084 52.3716 15.6864L52.3398 15.7812ZM53.9414 16.7256L53.8771 16.8022C54.1685 17.0469 54.2992 17.3101 54.3411 17.5755C54.3836 17.8444 54.3361 18.1235 54.2559 18.3998C54.216 18.5375 54.1685 18.6725 54.1212 18.8041C54.0743 18.9345 54.0269 19.0631 53.9892 19.1832C53.9516 19.3033 53.9218 19.4204 53.9114 19.5294C53.9009 19.6385 53.9092 19.7462 53.9543 19.843L54.0449 19.8008L54.1356 19.7585C54.1108 19.7053 54.102 19.6369 54.1105 19.5485C54.1189 19.46 54.1439 19.3583 54.1801 19.2431C54.2162 19.128 54.2616 19.0047 54.3094 18.8718C54.3568 18.7398 54.4062 18.5997 54.448 18.4555C54.5315 18.1678 54.5878 17.8556 54.5387 17.5443C54.4889 17.2295 54.3326 16.9236 54.0057 16.649L53.9414 16.7256ZM54.0449 19.8008L53.9547 19.844C53.9601 19.8552 53.9683 19.8672 53.9731 19.8743C53.9795 19.8836 53.9877 19.8951 53.9971 19.908C54.0159 19.9339 54.0413 19.9676 54.0708 20.0062C54.1298 20.0834 54.2067 20.1817 54.2842 20.2788C54.3617 20.3758 54.4404 20.4724 54.5032 20.5461C54.5345 20.5828 54.5626 20.6148 54.585 20.6385C54.5961 20.6503 54.6069 20.6612 54.6166 20.6701C54.6214 20.6745 54.6272 20.6794 54.6334 20.6841C54.6377 20.6872 54.6501 20.6963 54.6669 20.7021L54.6992 20.6074L54.7315 20.5128C54.7396 20.5155 54.7452 20.5187 54.7475 20.5201C54.7503 20.5217 54.752 20.523 54.7526 20.5235C54.7538 20.5243 54.7534 20.5241 54.7512 20.5222C54.747 20.5183 54.7402 20.5116 54.7306 20.5013C54.7116 20.4812 54.686 20.4522 54.6555 20.4164C54.5946 20.345 54.5174 20.2503 54.4405 20.154C54.3637 20.0578 54.2878 19.9607 54.2297 19.8847C54.2006 19.8467 54.1763 19.8143 54.1586 19.7901C54.1498 19.778 54.143 19.7684 54.1382 19.7614C54.1319 19.7522 54.1327 19.7526 54.1351 19.7576L54.0449 19.8008ZM54.6992 20.6074L54.6665 20.7019C54.751 20.7312 54.8699 20.7327 54.9914 20.7261C55.1172 20.7192 55.2637 20.702 55.4119 20.684C55.7152 20.6472 56.0203 20.6082 56.2218 20.6297L56.2324 20.5303L56.2431 20.4308C56.013 20.4062 55.6793 20.4501 55.3878 20.4855C55.2386 20.5036 55.0986 20.5199 54.9804 20.5264C54.8579 20.5331 54.7752 20.5279 54.732 20.5129L54.6992 20.6074ZM56.2324 20.5303L56.2218 20.6297C56.7312 20.6844 57.2 20.9336 57.4154 21.3903L57.5059 21.3477L57.5963 21.305C57.3422 20.7663 56.7982 20.4904 56.2431 20.4308L56.2324 20.5303ZM57.5059 21.3477L57.4154 21.3903C57.5193 21.6107 57.6616 22.0806 57.7659 22.5593C57.8178 22.7974 57.8596 23.0346 57.8824 23.2406C57.9054 23.4495 57.9077 23.6164 57.8864 23.719L57.9844 23.7393L58.0823 23.7595C58.1103 23.624 58.1046 23.4306 58.0812 23.2186C58.0574 23.0037 58.0142 22.7593 57.9614 22.5167C57.8562 22.034 57.71 21.5463 57.5963 21.305L57.5059 21.3477ZM57.9844 23.7393L57.8865 23.7189C57.801 24.1307 57.4973 24.3702 57.1231 24.5662C56.9347 24.6649 56.74 24.7469 56.5478 24.8373C56.36 24.9257 56.1773 25.021 56.0336 25.141L56.0977 25.2178L56.1617 25.2945C56.2843 25.1922 56.4468 25.1059 56.633 25.0183C56.8149 24.9327 57.0229 24.8444 57.2159 24.7433C57.6046 24.5398 57.9779 24.2623 58.0823 23.7596L57.9844 23.7393ZM56.0977 25.2178L56.0336 25.141C55.9635 25.1995 55.9115 25.3054 55.8721 25.4126C55.8307 25.5252 55.7962 25.6596 55.7706 25.7945C55.7449 25.9296 55.7276 26.0679 55.7213 26.1889C55.7153 26.3063 55.7189 26.4191 55.7421 26.4965L55.8379 26.4678L55.9337 26.4391C55.921 26.3968 55.9152 26.3136 55.9211 26.1992C55.9268 26.0885 55.9429 25.9593 55.9671 25.8318C55.9913 25.7042 56.0233 25.581 56.0598 25.4816C56.0983 25.3767 56.1358 25.3162 56.1617 25.2945L56.0977 25.2178ZM55.8379 26.4678L55.7421 26.4965C55.7918 26.6619 55.9245 26.8016 56.0724 26.9294C56.1479 26.9947 56.2317 27.0604 56.3171 27.1271C56.4031 27.1943 56.4912 27.2629 56.5783 27.336C56.927 27.6286 57.2397 27.9773 57.2634 28.5055L57.3633 28.501L57.4632 28.4965C57.4356 27.8817 57.0672 27.4852 56.7068 27.1828C56.6166 27.107 56.5256 27.0362 56.4403 26.9695C56.3543 26.9023 56.2744 26.8396 56.2032 26.7781C56.0579 26.6525 55.9655 26.5451 55.9337 26.439L55.8379 26.4678ZM57.3633 28.501L57.2634 28.5054C57.2654 28.5516 57.2553 28.6208 57.23 28.7122C57.2051 28.8019 57.1675 28.9068 57.1194 29.0221C57.0233 29.2525 56.8879 29.5187 56.7378 29.7787C56.5877 30.0385 56.424 30.29 56.272 30.4913C56.1167 30.6969 55.983 30.8371 55.8938 30.8893L55.9443 30.9756L55.9948 31.0619C56.1222 30.9874 56.2768 30.8167 56.4316 30.6119C56.5896 30.4026 56.7577 30.144 56.911 29.8787C57.0642 29.6134 57.2037 29.3394 57.304 29.0991C57.3541 28.9789 57.395 28.8658 57.4227 28.7655C57.4501 28.6668 57.4666 28.5739 57.4632 28.4966L57.3633 28.501ZM55.9443 30.9756L55.8939 30.8892C55.4247 31.1631 55.0405 31.112 54.6677 30.984C54.4721 30.9169 54.2993 30.8363 54.0996 30.7607C53.9077 30.688 53.7069 30.627 53.4941 30.6188L53.4902 30.7188L53.4864 30.8187C53.6669 30.8256 53.8438 30.8777 54.0287 30.9477C54.2058 31.0148 54.4088 31.1066 54.6027 31.1732C55.009 31.3127 55.4585 31.3749 55.9947 31.062L55.9443 30.9756ZM53.4902 30.7188L53.4936 30.6188C53.4497 30.6173 53.4016 30.6308 53.3592 30.6462C53.314 30.6627 53.2636 30.6861 53.2111 30.7134C53.1058 30.7682 52.9856 30.8426 52.871 30.9217C52.7564 31.0008 52.6452 31.086 52.5585 31.1631C52.5152 31.2015 52.4766 31.2393 52.4463 31.2742C52.4186 31.3062 52.3887 31.346 52.376 31.3879L52.4717 31.417L52.5674 31.4461C52.5671 31.447 52.5724 31.434 52.5975 31.4052C52.62 31.3792 52.6517 31.3478 52.6913 31.3126C52.7703 31.2424 52.8747 31.1621 52.9846 31.0863C53.0944 31.0105 53.2075 30.9407 53.3034 30.8908C53.3515 30.8658 53.3936 30.8466 53.4278 30.8341C53.4448 30.8279 53.4588 30.8237 53.4697 30.8213C53.4751 30.8201 53.4793 30.8194 53.4823 30.819C53.4855 30.8187 53.4869 30.8187 53.4869 30.8187L53.4902 30.7188ZM52.4717 31.417L52.3726 31.4038C52.3444 31.6157 52.345 31.8406 52.3513 32.0647C52.3577 32.2915 52.3699 32.5149 52.3668 32.7359C52.3607 33.177 52.2935 33.5748 52.0185 33.8804L52.0928 33.9473L52.1671 34.0142C52.4924 33.6528 52.5605 33.1924 52.5668 32.7386C52.5699 32.5121 52.5575 32.2789 52.5512 32.0591C52.545 31.8367 52.5449 31.6252 52.5708 31.4302L52.4717 31.417ZM52.0928 33.9473L52.0185 33.8803C51.9433 33.9637 51.7779 34.0604 51.5454 34.157C51.3177 34.2517 51.04 34.3406 50.7553 34.4143C50.4707 34.488 50.1814 34.5459 49.9309 34.5794C49.677 34.6132 49.4734 34.6204 49.3548 34.5989L49.3369 34.6973L49.3191 34.7957C49.4707 34.8232 49.7009 34.8118 49.9573 34.7776C50.217 34.743 50.5143 34.6833 50.8054 34.608C51.0964 34.5326 51.3834 34.441 51.6222 34.3417C51.8563 34.2444 52.0593 34.1337 52.167 34.0142L52.0928 33.9473ZM49.3369 34.6973L49.3549 34.5989C49.1289 34.5575 48.9349 34.4277 48.7638 34.2446C48.5924 34.061 48.4488 33.829 48.3239 33.5935C48.1968 33.3537 48.0983 33.1293 48.0016 32.9376C47.9551 32.8452 47.9093 32.7614 47.8636 32.6964C47.8209 32.6356 47.7658 32.5725 47.6946 32.548L47.6621 32.6426L47.6296 32.7372C47.6362 32.7394 47.6601 32.7547 47.7 32.8114C47.7369 32.864 47.7773 32.9369 47.823 33.0276C47.911 33.2021 48.0214 33.4498 48.1472 33.6871C48.2752 33.9287 48.4285 34.1787 48.6176 34.3811C48.8072 34.584 49.0373 34.7441 49.3189 34.7956L49.3369 34.6973ZM47.6621 32.6426L47.6715 32.543L46.5231 32.4346L46.5137 32.5342L46.5043 32.6337L47.6527 32.7421L47.6621 32.6426ZM46.5137 32.5342L46.4378 32.469C46.2066 32.7382 45.9143 33.1044 45.585 33.4126C45.2533 33.7231 44.9041 33.9548 44.5663 33.9784L44.5732 34.0781L44.5802 34.1779C44.9913 34.1491 45.3844 33.8743 45.7217 33.5586C46.0614 33.2406 46.3648 32.861 46.5895 32.5993L46.5137 32.5342ZM44.5732 34.0781L44.5661 33.9784C44.5311 33.9809 44.4759 33.9745 44.3997 33.9557C44.3251 33.9372 44.237 33.9086 44.1391 33.8717C43.9433 33.798 43.7143 33.6935 43.4857 33.5787C43.0257 33.3478 42.5823 33.0827 42.4237 32.9529L42.3604 33.0303L42.297 33.1077C42.474 33.2524 42.9345 33.5258 43.3959 33.7575C43.628 33.874 43.8639 33.9818 44.0686 34.0589C44.1709 34.0974 44.2669 34.1289 44.3517 34.1498C44.4348 34.1703 44.5141 34.1826 44.5804 34.1779L44.5732 34.0781ZM42.3604 33.0303L42.4236 32.9528C42.1877 32.7604 42.0618 32.5485 42.004 32.3249C41.9456 32.099 41.955 31.8546 42.0013 31.5963C42.0477 31.3374 42.1295 31.0719 42.2113 30.8028C42.2922 30.5364 42.3734 30.2657 42.4124 30.0071L42.3135 29.9922L42.2146 29.9773C42.1781 30.2191 42.1016 30.4758 42.0199 30.7446C41.9391 31.0106 41.8533 31.2882 41.8045 31.561C41.7555 31.8344 41.742 32.1106 41.8104 32.3749C41.8793 32.6415 42.0297 32.8896 42.2971 33.1078L42.3604 33.0303ZM42.3135 29.9922L42.3915 29.9297L41.7324 29.1064L41.6543 29.1689L41.5762 29.2314L42.2354 30.0547L42.3135 29.9922ZM41.6543 29.1689L41.6607 29.0692C41.41 29.0529 41.1365 29.0658 40.8666 29.0762C40.594 29.0867 40.3235 29.0949 40.0683 29.0719C39.5609 29.0263 39.134 28.8602 38.8918 28.3588L38.8018 28.4023L38.7117 28.4458C38.9971 29.0366 39.5077 29.2223 40.0504 29.2711C40.3201 29.2954 40.6028 29.2865 40.8743 29.276C41.1484 29.2654 41.4098 29.2534 41.6478 29.2687L41.6543 29.1689ZM38.8018 28.4023L38.8919 28.359C38.8319 28.2344 38.7042 27.832 38.5875 27.4161C38.5298 27.2103 38.4757 27.0048 38.4352 26.8337C38.3939 26.6593 38.3688 26.5294 38.3655 26.4699L38.2656 26.4756L38.1658 26.4812C38.1703 26.5614 38.2001 26.7087 38.2406 26.8798C38.2819 27.0542 38.3367 27.2626 38.3949 27.4701C38.5101 27.8807 38.6425 28.302 38.7116 28.4457L38.8018 28.4023ZM38.2656 26.4756L38.3655 26.47C38.3456 26.113 38.5274 25.7205 38.7828 25.4641L38.7119 25.3936L38.6411 25.323C38.3544 25.6107 38.1422 26.0561 38.1658 26.4811L38.2656 26.4756ZM38.7119 25.3936L38.7827 25.4642C38.8816 25.365 39.0243 25.2716 39.192 25.1778C39.3606 25.0835 39.5415 24.9957 39.7225 24.9005C39.8998 24.8071 40.0739 24.7083 40.2122 24.5983C40.3495 24.4891 40.4639 24.3594 40.5025 24.2003L40.4053 24.1768L40.3081 24.1532C40.285 24.2485 40.2114 24.3434 40.0877 24.4418C39.9651 24.5393 39.8054 24.6308 39.6294 24.7235C39.457 24.8142 39.265 24.9078 39.0944 25.0032C38.923 25.0991 38.7603 25.2035 38.6411 25.3229L38.7119 25.3936ZM40.4053 24.1768L40.5024 24.2004C40.5201 24.1278 40.5499 23.9108 40.5714 23.709C40.5824 23.6066 40.5915 23.5049 40.596 23.4236C40.5983 23.3831 40.5995 23.3462 40.599 23.3161C40.5988 23.3012 40.5982 23.2865 40.5968 23.2731C40.5956 23.262 40.5932 23.2435 40.586 23.2256L40.4932 23.2627L40.4003 23.2998C40.3968 23.291 40.3971 23.2866 40.3979 23.294C40.3984 23.2991 40.3989 23.3074 40.3991 23.3191C40.3994 23.3424 40.3985 23.374 40.3963 23.4125C40.3921 23.489 40.3833 23.587 40.3726 23.6877C40.3508 23.8922 40.3221 24.0957 40.3081 24.1531L40.4053 24.1768ZM40.4932 23.2627L40.5855 23.2244C40.5176 23.0606 40.3813 22.9245 40.2311 22.7997C40.1551 22.7365 40.0722 22.6736 39.9886 22.6101C39.9045 22.5463 39.8192 22.4816 39.7356 22.4129C39.401 22.1383 39.1082 21.8131 39.0813 21.3024L38.9814 21.3076L38.8816 21.3129C38.913 21.9089 39.26 22.2812 39.6087 22.5675C39.6958 22.639 39.784 22.7059 39.8677 22.7695C39.952 22.8334 40.0313 22.8936 40.1033 22.9535C40.2492 23.0748 40.3526 23.1848 40.4008 23.301L40.4932 23.2627ZM38.9814 21.3076L39.0813 21.3024C39.0749 21.181 39.1182 20.9895 39.2035 20.7551C39.2875 20.5245 39.4077 20.2642 39.5441 20.0104C39.6805 19.7566 39.8321 19.5114 39.978 19.3105C40.1258 19.1069 40.2615 18.9578 40.3649 18.8873L40.3086 18.8047L40.2523 18.7221C40.1187 18.8131 39.9663 18.9862 39.8161 19.193C39.664 19.4024 39.5078 19.6555 39.368 19.9157C39.2281 20.1758 39.1036 20.445 39.0156 20.6867C38.9289 20.9248 38.873 21.1486 38.8816 21.3128L38.9814 21.3076ZM40.3086 18.8047L40.365 18.8873C40.7458 18.6273 41.1658 18.6482 41.6162 18.7589C41.8422 18.8144 42.0679 18.8904 42.2986 18.9617C42.5266 19.0321 42.7579 19.0974 42.9837 19.1256L42.9961 19.0264L43.0085 18.9271C42.8015 18.9013 42.5845 18.8407 42.3576 18.7706C42.1334 18.7013 41.8975 18.6221 41.6639 18.5647C41.1951 18.4494 40.7041 18.4136 40.2522 18.7221L40.3086 18.8047ZM42.9961 19.0264L43.0599 19.1034L43.9525 18.3641L43.8887 18.2871L43.8249 18.2101L42.9323 18.9494L42.9961 19.0264ZM43.8887 18.2871L43.9884 18.2801C43.9511 17.7485 43.8689 17.19 43.9385 16.6953C43.9728 16.4512 44.0436 16.2299 44.1716 16.0419C44.2989 15.8549 44.4864 15.6954 44.7632 15.5796L44.7246 15.4873L44.686 15.3951C44.3764 15.5246 44.1571 15.7079 44.0063 15.9294C43.8561 16.1499 43.7776 16.4029 43.7404 16.6674C43.667 17.1899 43.7533 17.7858 43.7889 18.2941L43.8887 18.2871ZM44.7246 15.4873L44.7632 15.5796C44.9297 15.51 45.3707 15.3798 45.8149 15.2717C46.0358 15.2179 46.2547 15.1702 46.4375 15.1387C46.6256 15.1063 46.761 15.0938 46.8238 15.1021L46.8369 15.0029L46.85 14.9038C46.7523 14.8908 46.5871 14.91 46.4035 14.9416C46.2147 14.9742 45.991 15.0229 45.7676 15.0773C45.3231 15.1856 44.8685 15.3188 44.6861 15.395L44.7246 15.4873ZM46.6006 16.2734L46.5723 16.1775L45.0929 16.6131L45.1211 16.709L45.1493 16.8049L46.6288 16.3694L46.6006 16.2734ZM45.1211 16.709L45.0247 16.6823C44.9648 16.8986 44.9656 17.1336 44.9855 17.3665C44.9955 17.4834 45.0106 17.6018 45.026 17.7185C45.0415 17.8359 45.0572 17.9512 45.0693 18.0651C45.1182 18.5259 45.0995 18.9158 44.7898 19.1853L44.8555 19.2607L44.9211 19.3362C45.3136 18.9947 45.3173 18.5071 45.2682 18.044C45.2558 17.9269 45.2396 17.8083 45.2243 17.6924C45.2089 17.5757 45.1944 17.4613 45.1848 17.3494C45.1655 17.1246 45.167 16.9177 45.2175 16.7357L45.1211 16.709ZM44.8555 19.2607L44.79 19.1852C44.5635 19.3814 43.7511 20.0088 43.5112 20.1595L43.5645 20.2441L43.6177 20.3288C43.8694 20.1706 44.6904 19.5361 44.9209 19.3363L44.8555 19.2607ZM43.5645 20.2441L43.5109 20.1597C43.1777 20.3707 42.8125 20.2972 42.4074 20.1432C42.3071 20.1051 42.2065 20.063 42.1045 20.0202C42.003 19.9776 41.9001 19.9344 41.7977 19.8954C41.5938 19.8178 41.3843 19.7538 41.1776 19.7439L41.1729 19.8438L41.1681 19.9436C41.3425 19.952 41.5283 20.0069 41.7265 20.0823C41.8252 20.1199 41.925 20.1618 42.0271 20.2046C42.1287 20.2472 42.2324 20.2907 42.3363 20.3302C42.748 20.4866 43.1975 20.595 43.618 20.3286L43.5645 20.2441ZM41.1729 19.8438L41.1778 19.7439C41.1095 19.7405 41.0487 19.7726 41.0012 19.8081C40.9519 19.8449 40.9034 19.8957 40.8571 19.9526C40.7642 20.0667 40.6681 20.2199 40.5787 20.3774C40.402 20.6887 40.2345 21.0482 40.1705 21.169L40.2588 21.2158L40.3471 21.2627C40.4217 21.1222 40.5751 20.7889 40.7527 20.4762C40.8404 20.3216 40.9299 20.18 41.0122 20.0789C41.0535 20.0282 41.0901 19.9913 41.121 19.9682C41.1536 19.9438 41.1681 19.9436 41.1679 19.9436L41.1729 19.8438ZM40.2588 21.2158L40.1588 21.2185C40.1607 21.2903 40.197 21.3591 40.2385 21.418C40.2818 21.4795 40.3411 21.5444 40.4085 21.6104C40.5432 21.7424 40.7231 21.8908 40.9035 22.0408C41.0859 22.1924 41.2701 22.3466 41.4207 22.4944C41.5741 22.6449 41.6801 22.7773 41.7198 22.8836L41.8135 22.8486L41.9072 22.8137C41.8508 22.6625 41.7156 22.5036 41.5608 22.3517C41.4033 22.1971 41.2126 22.0377 41.0314 21.887C40.8483 21.7349 40.676 21.5925 40.5484 21.4675C40.4847 21.4051 40.4352 21.35 40.402 21.3029C40.367 21.2532 40.3591 21.2246 40.3588 21.2132L40.2588 21.2158ZM41.8135 22.8486L41.7198 22.8835C41.7413 22.9413 41.7495 23.0316 41.7432 23.1507C41.7372 23.2673 41.718 23.4012 41.6927 23.5401C41.6674 23.6787 41.6365 23.8198 41.6076 23.9511C41.5789 24.0812 41.5518 24.2035 41.5352 24.3005L41.6338 24.3174L41.7324 24.3342C41.748 24.243 41.7738 24.1263 41.8029 23.9941C41.8318 23.8632 41.8634 23.7187 41.8894 23.576C41.9154 23.4335 41.9362 23.2901 41.943 23.1611C41.9496 23.0346 41.9433 22.9109 41.9072 22.8138L41.8135 22.8486ZM41.6338 24.3174L41.5353 24.3002C41.5182 24.3982 41.5165 24.4975 41.5168 24.5902C41.5172 24.6857 41.5197 24.7719 41.5135 24.8569C41.5016 25.0204 41.4585 25.1591 41.3105 25.2747L41.3721 25.3535L41.4336 25.4323C41.6418 25.2697 41.6986 25.0677 41.713 24.8714C41.7199 24.7764 41.7172 24.678 41.7168 24.5894C41.7165 24.4981 41.7184 24.4139 41.7323 24.3346L41.6338 24.3174ZM41.3721 25.3535L41.3105 25.2747C41.255 25.318 41.1215 25.3894 40.9383 25.48C40.8489 25.5243 40.7504 25.5718 40.6479 25.6214C40.5455 25.6708 40.4391 25.7222 40.3345 25.7738C40.126 25.8768 39.9215 25.9822 39.7667 26.0771C39.6896 26.1244 39.6214 26.1712 39.5705 26.2156C39.5451 26.2379 39.5215 26.2616 39.503 26.2866C39.4852 26.3107 39.4667 26.3432 39.4622 26.382L39.5615 26.3936L39.6609 26.4051C39.6597 26.4151 39.6562 26.4158 39.6638 26.4055C39.6707 26.3962 39.6828 26.3831 39.7021 26.3663C39.7406 26.3327 39.7978 26.2927 39.8712 26.2476C40.0176 26.1578 40.215 26.0559 40.4231 25.9532C40.5268 25.902 40.6324 25.851 40.7349 25.8015C40.8372 25.752 40.9366 25.7041 41.027 25.6593C41.2036 25.5719 41.3584 25.491 41.4336 25.4323L41.3721 25.3535ZM39.5615 26.3936L39.4653 26.421L39.8823 27.8848L39.9785 27.8574L40.0747 27.83L39.6577 26.3662L39.5615 26.3936ZM39.9785 27.8574L39.974 27.9573L42.3246 28.0638L42.3291 27.9639L42.3336 27.864L39.983 27.7575L39.9785 27.8574ZM42.3291 27.9639L42.2506 28.0258L43.5357 29.6557L43.6143 29.5938L43.6928 29.5318L42.4076 27.9019L42.3291 27.9639ZM43.6143 29.5938L43.527 29.6426C43.5726 29.724 43.5821 29.8601 43.5525 30.05C43.5237 30.2351 43.4615 30.4505 43.3876 30.6743C43.3119 30.9039 43.2325 31.1182 43.1603 31.3334C43.0913 31.5392 43.0333 31.7334 43.0168 31.8836L43.1162 31.8945L43.2156 31.9055C43.2295 31.7794 43.2805 31.6041 43.3499 31.397C43.4162 31.1993 43.5049 30.9573 43.5775 30.737C43.6521 30.5109 43.7187 30.2828 43.7502 30.0807C43.7809 29.8834 43.782 29.6885 43.7015 29.5449L43.6143 29.5938ZM43.1162 31.8945L43.0219 31.9277L43.0707 32.0664L43.165 32.0332L43.2594 32L43.2105 31.8613L43.1162 31.8945ZM43.165 32.0332L43.1158 32.1203L44.441 32.8693L44.4902 32.7822L44.5394 32.6952L43.2142 31.9461L43.165 32.0332ZM44.4902 32.7822L44.5422 32.8676C44.7207 32.759 44.886 32.5968 45.0431 32.4224C45.1221 32.3347 45.2003 32.2424 45.2778 32.1505C45.3557 32.0583 45.4327 31.9667 45.5108 31.8785C45.6674 31.7015 45.8231 31.5443 45.9856 31.4332C46.147 31.3229 46.3097 31.2619 46.4823 31.2689L46.4863 31.1689L46.4904 31.069C46.2619 31.0598 46.0573 31.142 45.8728 31.2681C45.6893 31.3935 45.5203 31.5659 45.361 31.7459C45.2811 31.8363 45.2023 31.9299 45.125 32.0215C45.0474 32.1135 44.971 32.2036 44.8945 32.2885C44.7405 32.4595 44.591 32.6038 44.4382 32.6968L44.4902 32.7822ZM46.4863 31.1689L46.4821 31.2689C46.8205 31.2831 47.7345 31.4095 48.091 31.4725L48.1084 31.374L48.1258 31.2755C47.7672 31.2122 46.8426 31.0839 46.4905 31.069L46.4863 31.1689ZM48.1084 31.374L48.0911 31.4725C48.4277 31.5316 48.6564 31.847 48.8614 32.2646C48.9626 32.4709 49.051 32.6861 49.1457 32.8953C49.2384 33.1002 49.3363 33.2973 49.4518 33.4484L49.5312 33.3877L49.6107 33.327C49.5104 33.1956 49.4203 33.017 49.3279 32.8128C49.2374 32.6129 49.1437 32.3858 49.0409 32.1764C48.8378 31.7627 48.5709 31.3537 48.1257 31.2755L48.1084 31.374ZM49.5312 33.3877L49.4896 33.4786L49.6302 33.5431L49.6719 33.4521L49.7135 33.3612L49.5729 33.2968L49.5312 33.3877ZM49.6719 33.4521L49.6965 33.5491L51.1935 33.1692L51.1689 33.0723L51.1443 32.9753L49.6473 33.3552L49.6719 33.4521ZM51.1689 33.0723L51.2689 33.0746L51.3246 30.7211L51.2246 30.7188L51.1246 30.7164L51.069 33.0699L51.1689 33.0723ZM51.2246 30.7188L51.2743 30.8055C51.4297 30.7166 51.5985 30.5812 51.7702 30.4342C51.9458 30.284 52.1211 30.1246 52.304 29.9724C52.4851 29.8216 52.664 29.6864 52.8352 29.5919C53.0075 29.4967 53.1619 29.4486 53.2966 29.4581L53.3037 29.3584L53.3108 29.2586C53.1203 29.2451 52.9255 29.3136 52.7385 29.4168C52.5505 29.5206 52.3601 29.6655 52.176 29.8187C51.9937 29.9704 51.8078 30.1388 51.6402 30.2823C51.4688 30.429 51.3125 30.5532 51.1749 30.632L51.2246 30.7188ZM53.3037 29.3584L53.2965 29.4581C53.4141 29.4667 53.5582 29.5031 53.7197 29.556C53.8803 29.6087 54.0514 29.6753 54.2231 29.7415C54.3934 29.8071 54.5646 29.8724 54.7203 29.9197C54.874 29.9664 55.0235 29.9991 55.1479 29.9924L55.1426 29.8926L55.1372 29.7927C55.0495 29.7974 54.9281 29.7738 54.7784 29.7283C54.6309 29.6835 54.4664 29.6209 54.2951 29.5549C54.1251 29.4894 53.9486 29.4206 53.782 29.366C53.6162 29.3116 53.4534 29.269 53.311 29.2587L53.3037 29.3584ZM55.1426 29.8926L55.1482 29.9924C55.2121 29.9888 55.2696 29.9504 55.3129 29.9142C55.3602 29.8747 55.4093 29.8216 55.4581 29.7616C55.556 29.6412 55.6611 29.4822 55.7566 29.3191C55.8523 29.1557 55.9402 28.9852 56.0033 28.8407C56.0347 28.7686 56.0607 28.7013 56.0783 28.6437C56.0946 28.5903 56.1081 28.5318 56.1034 28.4835L56.0039 28.4932L55.9044 28.5028C55.9044 28.5026 55.9045 28.5044 55.9042 28.5089C55.9039 28.5132 55.9032 28.5191 55.9018 28.5267C55.8991 28.5419 55.8943 28.5615 55.887 28.5853C55.8724 28.633 55.8496 28.6926 55.8199 28.7607C55.7606 28.8967 55.6765 29.0601 55.584 29.218C55.4914 29.3762 55.3921 29.5258 55.303 29.6354C55.2582 29.6905 55.2182 29.7327 55.1847 29.7607C55.1473 29.792 55.1326 29.793 55.137 29.7927L55.1426 29.8926ZM56.0039 28.4932L56.1034 28.4831C56.0958 28.4083 56.0585 28.3365 56.0125 28.2717C55.9655 28.2055 55.9028 28.1374 55.8322 28.069C55.6913 27.9326 55.507 27.784 55.3263 27.6358C55.1434 27.4859 54.9632 27.3355 54.822 27.1904C54.6775 27.042 54.5895 26.9145 54.5687 26.8121L54.4707 26.832L54.3727 26.852C54.406 27.0156 54.5318 27.1791 54.6787 27.33C54.8288 27.4842 55.0176 27.6414 55.1995 27.7905C55.3836 27.9415 55.5597 28.0835 55.6931 28.2127C55.7596 28.2771 55.8125 28.3355 55.8494 28.3874C55.8873 28.4408 55.9019 28.4787 55.9044 28.5032L56.0039 28.4932ZM54.4707 26.832L54.5693 26.849C54.622 26.5428 54.6446 26.2118 54.6642 25.8889C54.6838 25.5638 54.7002 25.2479 54.7397 24.9629L54.6406 24.9492L54.5416 24.9355C54.5008 25.23 54.4839 25.5554 54.4645 25.8769C54.445 26.2005 54.4228 26.5212 54.3722 26.8151L54.4707 26.832ZM54.6406 24.9492L54.7397 24.9628C54.7465 24.9135 54.7731 24.826 54.8104 24.7363C54.8484 24.6449 54.8899 24.5699 54.9189 24.5377L54.8447 24.4707L54.7705 24.4037C54.717 24.463 54.6649 24.5654 54.6257 24.6595C54.5859 24.7552 54.5518 24.8612 54.5416 24.9356L54.6406 24.9492ZM54.8447 24.4707L54.8894 24.5601L54.8934 24.5582L54.8486 24.4688L54.8039 24.3793L54.8 24.3813L54.8447 24.4707ZM54.8486 24.4688L54.9225 24.5362C54.9921 24.46 55.1117 24.3827 55.2685 24.3028C55.4234 24.2238 55.6039 24.1474 55.7883 24.069C55.9711 23.9915 56.158 23.912 56.3191 23.8287C56.4781 23.7465 56.6235 23.655 56.7159 23.5492L56.6406 23.4834L56.5653 23.4176C56.4991 23.4934 56.3824 23.5708 56.2272 23.651C56.0741 23.7302 55.8945 23.8067 55.7102 23.8849C55.5275 23.9625 55.3401 24.0418 55.1777 24.1246C55.0171 24.2065 54.87 24.2971 54.7748 24.4013L54.8486 24.4688ZM56.6406 23.4834L56.716 23.5491C56.7574 23.5016 56.7961 23.4572 56.8125 23.4005C56.8281 23.3465 56.8207 23.2879 56.8154 23.2302L56.7158 23.2393L56.6162 23.2483C56.6194 23.2834 56.6214 23.3048 56.6219 23.3218C56.6223 23.3375 56.621 23.3429 56.6204 23.345C56.6186 23.3513 56.6136 23.3621 56.5652 23.4177L56.6406 23.4834ZM56.7158 23.2393L56.8154 23.2301C56.8102 23.1738 56.7854 23.0596 56.7525 22.9271C56.7189 22.7915 56.6746 22.6283 56.6274 22.4691C56.5803 22.3101 56.5299 22.1535 56.4839 22.0316C56.461 21.9709 56.4384 21.9167 56.4171 21.8744C56.4065 21.8534 56.3952 21.8333 56.3833 21.816C56.3731 21.8013 56.3555 21.7783 56.3297 21.7629L56.2783 21.8486L56.2269 21.9344C56.2148 21.9271 56.2125 21.9207 56.2189 21.9299C56.2235 21.9366 56.2301 21.9478 56.2385 21.9644C56.2552 21.9976 56.2749 22.0443 56.2968 22.1022C56.3404 22.2176 56.3892 22.369 56.4357 22.5259C56.482 22.6824 56.5255 22.8427 56.5584 22.9753C56.5921 23.1111 56.6127 23.21 56.6162 23.2484L56.7158 23.2393ZM56.2783 21.8486L56.3065 21.7527C56.1286 21.7003 55.9315 21.6935 55.7325 21.7051C55.5336 21.7167 55.3242 21.7475 55.1231 21.7743C54.9196 21.8015 54.7236 21.8249 54.5417 21.8247C54.3599 21.8245 54.1995 21.8006 54.0656 21.7384L54.0234 21.8291L53.9813 21.9198C54.1519 21.999 54.3447 22.0245 54.5415 22.0247C54.7383 22.0249 54.9464 21.9997 55.1495 21.9726C55.355 21.9451 55.5547 21.9158 55.7441 21.9048C55.9334 21.8937 56.1041 21.9016 56.2501 21.9446L56.2783 21.8486ZM54.0234 21.8291L54.0656 21.7384C54.0438 21.7283 54.0107 21.7033 53.9662 21.6568C53.9231 21.6118 53.8751 21.5527 53.8227 21.4822C53.7177 21.341 53.6017 21.1631 53.4793 20.978C53.358 20.7945 53.231 20.6046 53.1071 20.4454C52.9855 20.2892 52.8577 20.15 52.7325 20.0798L52.6836 20.167L52.6347 20.2542C52.7217 20.303 52.8285 20.4131 52.9493 20.5682C53.0677 20.7204 53.1908 20.9041 53.3125 21.0883C53.4331 21.2708 53.5531 21.4547 53.6622 21.6016C53.7169 21.6751 53.7705 21.7415 53.8216 21.7951C53.8714 21.8471 53.9253 21.8938 53.9813 21.9198L54.0234 21.8291ZM52.6836 20.167L52.771 20.1184C52.7469 20.0751 52.7325 20.013 52.7313 19.929C52.7301 19.8456 52.7419 19.7474 52.7642 19.6375C52.8089 19.4171 52.8923 19.1631 52.9803 18.9082C53.0672 18.6564 53.159 18.4022 53.2151 18.1912C53.2432 18.0856 53.2637 17.9859 53.2696 17.8994C53.2753 17.8161 53.2688 17.7278 53.2253 17.6586L53.1406 17.7119L53.056 17.7652C53.065 17.7795 53.0749 17.8148 53.0701 17.8858C53.0655 17.9537 53.0486 18.0391 53.0218 18.1398C52.9681 18.3417 52.88 18.5858 52.7912 18.843C52.7036 19.0971 52.6158 19.3627 52.5682 19.5977C52.5444 19.7155 52.5298 19.829 52.5313 19.9318C52.5328 20.0341 52.5501 20.1328 52.5962 20.2156L52.6836 20.167ZM53.1406 17.7119L53.1871 17.6234L51.8317 16.9115L51.7852 17L51.7387 17.0885L53.0941 17.8004L53.1406 17.7119ZM51.7852 17L51.7338 16.9142C51.5767 17.0083 51.4196 17.1598 51.2661 17.3256C51.1149 17.4889 50.9505 17.6851 50.7971 17.8549C50.6389 18.0301 50.4828 18.1887 50.3282 18.3023C50.1728 18.4165 50.0299 18.4772 49.8967 18.4742L49.8945 18.5742L49.8923 18.6742C50.0892 18.6785 50.2757 18.5891 50.4466 18.4635C50.6184 18.3372 50.7856 18.166 50.9455 17.989C51.1102 17.8066 51.2586 17.6281 51.4128 17.4615C51.5647 17.2975 51.7055 17.1642 51.8365 17.0858L51.7852 17ZM49.8945 18.5742L49.8968 18.4742C49.7404 18.4707 49.3695 18.4293 48.9912 18.3786C48.6138 18.328 48.2402 18.2698 48.0802 18.2344L48.0586 18.332L48.037 18.4297C48.2064 18.4672 48.5879 18.5264 48.9646 18.5768C49.3405 18.6272 49.7228 18.6704 49.8923 18.6742L49.8945 18.5742ZM48.0586 18.332L48.0803 18.2344C47.978 18.2117 47.869 18.1265 47.7545 17.9802C47.6418 17.8364 47.5349 17.6479 47.4323 17.444C47.3297 17.2399 47.2351 17.0278 47.1436 16.8335C47.0538 16.6429 46.9658 16.4666 46.8799 16.3477L46.7988 16.4062L46.7178 16.4648C46.7911 16.5664 46.8718 16.7259 46.9626 16.9187C47.0517 17.1079 47.1496 17.3268 47.2537 17.5339C47.3579 17.7411 47.4719 17.9438 47.597 18.1035C47.7202 18.2608 47.8656 18.3916 48.0369 18.4297L48.0586 18.332ZM46.7988 16.4062L46.8799 16.3477C46.8673 16.3303 46.8597 16.3174 46.8443 16.2947C46.8313 16.2755 46.8141 16.2516 46.7918 16.2304C46.7684 16.2082 46.7383 16.188 46.6996 16.1772C46.6612 16.1665 46.6211 16.1669 46.58 16.1756L46.6006 16.2734L46.6212 16.3713C46.6378 16.3678 46.6447 16.3695 46.6459 16.3699C46.6468 16.3701 46.6491 16.3707 46.6541 16.3755C46.6602 16.3813 46.6676 16.3905 46.6787 16.4069C46.6875 16.4198 46.7036 16.4452 46.7177 16.4648L46.7988 16.4062ZM34.6562 20.8086L34.7421 20.7573C32.5517 17.0956 27.4095 16.4693 24.3864 19.4888L24.457 19.5596L24.5277 19.6303C27.4593 16.7022 32.4472 17.3107 34.5704 20.8599L34.6562 20.8086ZM24.457 19.5596L24.3863 19.4888C21.1705 22.7023 22.1694 28.3316 26.3255 30.1841L26.3662 30.0928L26.4069 30.0014C22.381 28.207 21.4095 22.7462 24.5277 19.6303L24.457 19.5596ZM26.3662 30.0928L26.3255 30.1841C32.2549 32.8265 38.0719 26.3251 34.7421 20.7573L34.6562 20.8086L34.5704 20.8599C37.7983 26.2573 32.1608 32.5656 26.4069 30.0014L26.3662 30.0928ZM47.5205 20.2842L47.5325 20.3835C48.9995 20.2062 50.1702 20.6098 51.0177 21.3259C51.867 22.0434 52.3973 23.0797 52.5712 24.175C52.919 26.3661 51.8407 28.7656 49.0737 29.3042L49.0928 29.4023L49.1119 29.5005C52.0075 28.9369 53.1295 26.4166 52.7687 24.1437C52.5883 23.007 52.0371 21.9253 51.1468 21.1731C50.2548 20.4194 49.028 20.0013 47.5085 20.1849L47.5205 20.2842ZM49.0928 29.4023L49.0737 29.3042C47.5197 29.6066 46.2817 29.2422 45.3876 28.5221C44.4913 27.8003 43.9332 26.7147 43.7552 25.5646C43.5772 24.4145 43.7807 23.2076 44.3972 22.2455C45.0122 21.2859 46.042 20.5634 47.5325 20.3835L47.5205 20.2842L47.5085 20.1849C45.9603 20.3718 44.8768 21.1264 44.2288 22.1376C43.5824 23.1462 43.3732 24.4037 43.5576 25.5952C43.742 26.7868 44.3213 27.9201 45.2622 28.6779C46.2053 29.4375 47.5042 29.8134 49.1119 29.5005L49.0928 29.4023ZM49.0557 28.0928L49.0818 28.1893C53.1301 27.0934 51.9777 20.8557 47.5958 21.4556L47.6094 21.5547L47.6229 21.6538C51.7585 21.0876 52.835 26.9661 49.0295 27.9962L49.0557 28.0928ZM47.6094 21.5547L47.5958 21.4556C46.4552 21.6118 45.6729 22.1924 45.2217 22.9589C44.7721 23.7225 44.6547 24.664 44.827 25.5422C44.9994 26.4204 45.4633 27.2438 46.1875 27.7676C46.9144 28.2933 47.8945 28.5105 49.0818 28.1893L49.0557 28.0928L49.0296 27.9962C47.8954 28.303 46.9786 28.0929 46.3047 27.6056C45.6282 27.1163 45.1876 26.3409 45.0233 25.5037C44.859 24.6664 44.9728 23.7759 45.394 23.0604C45.8136 22.3476 46.5418 21.8018 47.6229 21.6538L47.6094 21.5547Z" fill="#72BA5F" mask="url(#path-2-outside-1_364_14589)"/>
<path d="M14.4131 51.4475C14.3705 51.2811 14.3316 51.1268 14.3171 50.9519C14.193 49.3752 14.3547 47.7013 14.4167 46.1319C14.5383 43.0586 14.7462 37.0372 17.3722 34.9916C18.6245 34.0161 20.791 34.321 22.29 33.9238L25.5117 40.8563C25.6345 41.0191 25.8874 41.1563 26.0917 41.1454C26.409 41.1284 26.5099 40.8417 26.7871 40.8089L27.4107 41.6932L26.1002 47.9977C26.1488 48.2941 26.4856 48.5577 26.6971 48.7654C27.1846 49.244 28.1317 50.1708 28.6545 50.5365C29.0192 50.7915 29.204 50.7879 29.5651 50.5365C29.8739 50.3214 31.7522 48.5467 31.9358 48.2686C31.9844 48.1957 32.0671 48.141 32.0671 48.0317L30.7407 41.7127L31.4884 40.8138C31.6319 40.7895 32.1133 41.4879 32.6178 40.9231L35.8846 33.9408C37.1113 34.1728 38.5325 34.1546 39.73 34.4705C40.9275 34.7863 41.6193 35.82 42.0752 36.8477C41.6144 37.002 40.8035 37.7126 40.8035 38.2179V40.3546H35.2062C34.9849 40.3546 34.4475 41.0215 34.5241 41.3094C34.6615 43.2712 34.3418 45.4747 34.5193 47.4061C34.5643 47.8993 34.85 48.2516 35.3423 48.356V51.4475H19.6919V45.1285C19.6919 44.9572 19.2931 44.6426 19.0938 44.6292C18.8944 44.6159 18.4178 44.9159 18.4178 45.0374V51.4475H14.4131ZM21.2128 42.5557C20.5891 42.699 20.639 43.6404 21.304 43.7899C21.7028 43.8797 24.0261 43.8725 24.465 43.8044C25.2212 43.6854 25.2771 42.6565 24.6498 42.5387C24.2704 42.4682 21.5715 42.4743 21.214 42.5557H21.2128Z" fill="white"/>
<path d="M24.4566 19.5649C27.434 16.59 32.4988 17.2071 34.6555 20.8136C37.9344 26.2957 32.207 32.6998 26.3653 30.0966C22.2743 28.2733 21.2895 22.7293 24.4566 19.5649Z" fill="white"/>
<path d="M55.0005 41.626V47.173L48.5849 48.3587C48.3965 48.3757 48.4646 48.3466 48.4463 48.2214C48.3588 47.6213 48.6141 47.0297 47.7594 46.8146L42.9608 46.8292C42.2764 47.0564 42.3274 47.7513 42.3505 48.3563L35.7988 47.1742V41.6272H55.0005V41.626Z" fill="white"/>
<path d="M54.1829 48.6289V55.5852L54.0468 55.7212H36.7563L36.6201 55.5852V48.6289L42.2661 49.6713C42.5494 49.8693 41.9439 51.3222 43.0746 51.5907C43.7627 51.7547 46.5006 51.694 47.3163 51.6332C48.8445 51.5203 48.2914 50.7841 48.5357 49.6688L54.1829 48.6289Z" fill="white"/>
<path d="M32.3405 31.2637L32.5715 32.3522L29.1102 35.6274L25.542 32.3109L25.8812 31.2637C27.9431 32.2368 30.2676 32.1481 32.3405 31.2637Z" fill="white"/>
<path d="M48.6298 38.1729C48.6007 38.2615 48.721 38.3697 48.721 38.4V40.3547H42.2143L42.0781 40.2187V38.4C42.0781 38.3842 42.2897 38.1729 42.3055 38.1729H48.6298Z" fill="white"/>
<path d="M29.5114 42.1807L30.7053 47.5783C30.6749 47.7957 29.2038 49.1977 29.0324 49.1673L27.4482 47.6026L28.6275 42.3252L28.7588 42.1831L29.5114 42.1807Z" fill="white"/>
<path d="M26.2424 39.2612L23.6055 33.6243L24.5756 33.2793L24.8188 33.3607L28.2424 36.5788L26.2424 39.2612Z" fill="white"/>
<path d="M34.5249 33.6276L31.9317 39.1735L30.0156 36.5348L33.4355 33.3045C33.7516 33.1623 34.1528 33.6702 34.5249 33.6264V33.6276Z" fill="white"/>
<path d="M47.1748 48.082V50.355H43.7621L43.626 50.219V48.082H47.1748Z" fill="white"/>
<path d="M29.0222 37.6272C29.2483 37.5713 30.4507 39.4203 30.6902 39.69L29.6556 40.9013L28.4277 40.8527L27.5146 39.6706L29.021 37.626L29.0222 37.6272Z" fill="white"/>
<path d="M54.8477 24.4696C54.7651 24.5607 54.6605 24.8231 54.6435 24.9482C54.562 25.5277 54.5754 26.231 54.4733 26.8311C54.5815 27.3631 55.9662 28.0956 56.0063 28.4916C56.0282 28.7066 55.3827 29.8776 55.1456 29.891C54.7225 29.914 53.8277 29.3954 53.3061 29.3577C52.6557 29.3115 51.812 30.3817 51.2272 30.717L51.1713 33.0711L49.6747 33.4501L49.5337 33.3857C49.1008 32.8221 48.8917 31.5114 48.1112 31.3729C47.7538 31.3098 46.8347 31.1822 46.4894 31.1676C45.687 31.1348 45.1569 32.3775 44.4931 32.7808L43.168 32.0313L43.1193 31.8928C43.1801 31.3401 43.8707 30.0416 43.6166 29.5921L42.3315 27.9632L39.9815 27.8563L39.5645 26.3925C39.5924 26.1617 41.1133 25.5568 41.3747 25.3527C41.7309 25.0746 41.5741 24.6713 41.6361 24.3166C41.7018 23.94 41.9315 23.1577 41.816 22.848C41.6239 22.3329 40.2696 21.5494 40.2611 21.2154C40.3997 20.9542 40.903 19.8306 41.1753 19.8439C41.9364 19.8804 42.8117 20.7198 43.5667 20.2436C43.8111 20.0893 44.6293 19.4589 44.8579 19.2609C45.5606 18.6499 44.9028 17.5044 45.1241 16.7087L46.6037 16.2739C46.7192 16.2496 46.7484 16.3322 46.8018 16.4063C47.1192 16.8472 47.5143 18.2101 48.0614 18.3316C48.3896 18.4045 49.5713 18.5673 49.8972 18.5746C50.5573 18.5891 51.2114 17.3452 51.7877 17.0003L53.1432 17.7121C53.3536 18.0461 52.4053 19.663 52.6861 20.1671C53.1092 20.4052 53.7134 21.6843 54.0259 21.8288C54.635 22.1118 55.6331 21.6588 56.2811 21.8482C56.3917 21.9138 56.703 23.0508 56.7188 23.2391C56.7309 23.3727 56.7334 23.3812 56.6434 23.4833C56.3261 23.8465 55.1808 24.1064 54.8514 24.4684L54.8477 24.4696ZM47.5191 20.2849C41.4428 21.0186 42.7692 30.6332 49.0911 29.4026C54.7541 28.3009 53.4909 19.5633 47.5191 20.2849Z" fill="white"/>
<path d="M21.2123 42.5555C21.5697 42.4741 24.2687 42.4668 24.648 42.5385C25.2754 42.6551 25.2194 43.6853 24.4632 43.8044C24.0244 43.8736 21.701 43.8797 21.3023 43.7898C20.6373 43.6404 20.5886 42.6977 21.2111 42.5555H21.2123Z" fill="#72BA5F"/>
<path d="M47.6077 21.5541C51.8665 20.971 52.9813 27.0294 49.0544 28.0924C44.4114 29.3498 43.1641 22.1627 47.6077 21.5541Z" fill="white"/>
</svg>
