<svg width="168" height="134" viewBox="0 0 168 134" fill="none" xmlns="http://www.w3.org/2000/svg">
<mask id="mask0_364_9582" style="mask-type:alpha" maskUnits="userSpaceOnUse" x="0" y="0" width="168" height="134">
<rect width="168" height="134" fill="white"/>
</mask>
<g mask="url(#mask0_364_9582)">
<path d="M74.1684 123.084L72.5 135.877C72.1995 137.452 77.8733 139.049 83 137.868C88.1267 136.687 109.296 138.076 116 138.863C121.363 139.493 124.606 137.791 125 136.873L123.07 113.632L129.379 115.207L138.45 115.995L142.393 115.207L145.548 111.663L149.098 102.605L153.436 89.6094L155.802 77.4011L154.224 75.432L146.731 73.463L145.943 73.8568L132.929 95.9104H131.351L121.098 81.7331L115.577 75.8259L108.084 72.6753L99.8021 71.8877L99.0133 72.2815L102.168 75.0382L103.351 77.0073L102.563 79.3702L99.0133 80.9455L92.3091 82.1269L84.0275 80.9455L81.2669 79.3702V77.4011L83.2388 73.0691L75.7458 77.0073L68.6473 82.1269L59.5769 91.1847L52.4783 96.6981L48.929 97.4857L35.5206 93.5475H32.7601L28.8164 106.937L47.7459 112.845L54.8445 114.026L66.2811 110.482L75.3515 106.937L75.7458 112.057L74.1684 123.084Z" fill="#72BA5F"/>
<path d="M61.1547 50.6201L62.4288 52.8012L63.1265 51.4077L77.718 25.022L85.211 22.2653L101.774 27.7788L104.14 33.2922L107.295 31.7169L109.662 32.8984L110.845 36.0489L111.239 39.5932L109.662 42.3499L108.084 43.1376L108.873 47.0757V52.9829L107.295 57.7087L103.746 61.6469L99.8025 64.7974L98.6194 66.3727L99.0137 72.2799L102.563 75.0366L102.957 77.3995L101.774 80.1562L97.8307 81.3377L89.549 82.1253L84.0279 80.9438L81.2673 79.3686V77.0057L83.6335 72.6737L82.8448 70.7046L81.2673 69.1294L75.7462 68.3417L69.8307 67.1603L65.8871 64.0098L63.5209 65.9789L60.366 66.3727L57.2111 65.1912L54.4505 62.0407L53.6618 58.4964L54.4505 52.5891L61.1547 50.6201Z" fill="#E8C4AC"/>
<path d="M22.507 90.0016L31.9717 95.9088L29.2112 104.179L24.0844 102.21L20.1408 103.391H17.3802L16.1971 102.998L13.8309 103.785L10.676 102.998L9.8873 101.028L10.676 99.4532L8.30984 97.8779L7.91547 96.3027L9.49293 94.7274L5.94365 92.7583L2.39436 88.8202L2 86.0634L2.78873 84.882L4.76055 85.6696L11.4648 90.7892V91.5769L12.2535 89.214L8.30984 80.9438V78.9748L9.8873 78.1871L11.8591 79.7624L15.8028 86.4573L17.7746 87.6387L22.507 90.0016Z" fill="#E8C4AC"/>
<path d="M147.521 65.9789L146.732 73.4613L151.07 74.6428L155.408 76.6119V73.4613L156.985 70.3108L160.535 66.7665L161.323 64.7974L164.478 61.2531V59.284L162.901 58.1025H161.718V56.5273L160.929 54.5582L158.168 54.1644L157.38 46.6819L155.802 44.319L153.83 43.1376L153.042 45.1066L153.83 54.1644H152.253L148.704 47.8633L146.732 45.5004L145.154 44.7128L144.366 45.8943V47.4695L147.521 54.952L147.915 57.3149L147.126 61.2531L147.521 65.9789Z" fill="#E8C4AC"/>
<path d="M68.6484 49.8331L62.7329 52.9836L58.3949 52.5898L55.24 54.5589L53.2682 58.4971L46.564 49.8331L48.5358 32.5052L50.1133 28.9609L46.1696 30.1423H41.0429L35.5218 27.7795L31.5781 22.6599L31.9725 14.7835L35.1274 7.69486L40.2542 2.57526L46.1696 1L52.4795 2.18145L56.4231 5.72579L58.3949 12.0268L59.578 13.9959L66.2822 10.8454L78.1132 8.87631L87.1836 10.8454L96.6483 16.7526L102.958 25.8104L104.93 32.5052L104.141 34.8681L101.775 30.1423L95.0709 28.9609L86.0005 25.8104L81.2681 24.6289L79.6906 33.2929L76.1413 42.3506L68.6484 49.8331Z" fill="#031F28"/>
<path d="M101.69 30.5337C104.843 35.6202 108.384 41.4332 108.966 47.2463C109.694 54.5126 106.783 58.8724 104.6 61.0523C102.418 63.2322 99.5069 64.6855 98.7793 66.1388C98.0516 67.592 98.7791 76.6148 102.563 75.8271" stroke="#031F28" stroke-linecap="round"/>
<path d="M81.3157 77.008C86.393 75.0389 82.4799 69.6254 81.3157 69.0441C79.8604 68.3175 71.8559 69.7713 66.0347 63.9582C61.6688 69.0441 54.2468 64.8301 53.6647 59.5984C52.937 53.0587 60.9411 49.4249 63.8517 55.2385" stroke="#031F28" stroke-linecap="round"/>
<path d="M53.6667 58.145C39.8412 47.2455 50.0276 29.8056 50.0276 29.0789C50.0276 28.3523 41.2952 33.4379 34.0194 26.1724C29.6534 21.8126 31.3524 9.64185 38.3855 4.37307C44.2069 0.0120383 51.4834 0.012126 55.8491 5.09901C58.1768 7.81129 58.7594 14.5463 59.487 14.5463C60.2146 14.5463 62.3977 11.6396 72.5848 9.45967C82.7718 7.27974 92.9589 12.3662 98.7801 19.6325C103.409 25.41 105.087 30.5329 104.602 34.8927" stroke="#031F28" stroke-linecap="round"/>
<path d="M81.3172 19.6329C82.0449 28.1103 79.2798 46.6636 62.3984 53.058" stroke="#031F28" stroke-linecap="round"/>
<path d="M81.3164 23.994C86.895 26.4161 98.9255 30.9697 102.418 29.8071" stroke="#031F28" stroke-linecap="round"/>
<path d="M104.601 33.4393C105.086 32.4705 106.638 30.9688 108.966 32.7127C111.877 34.8926 111.877 42.8854 108.239 42.8854" stroke="#031F28" stroke-linecap="round"/>
<path d="M58.0322 58.1457C59.245 58.3879 61.6705 59.3083 61.6705 61.0522" stroke="#031F28" stroke-linecap="round"/>
<path d="M107.511 34.8929C107.511 35.6195 107.802 37.2181 108.966 37.7994" stroke="#031F28" stroke-linecap="round"/>
<path d="M83.4998 73.4049C82.0445 75.5848 78.843 78.9273 83.5 80.6712C89.3212 82.8511 100.236 82.1245 102.419 79.2179C104.602 76.3114 101.691 74.8581 99.508 72.6782" stroke="#031F28" stroke-linecap="round"/>
<path d="M83.6325 73.0683C74.9564 77.0065 69.6726 80.6692 66.7621 83.5758C63.8515 86.4823 54.5839 96.671 50.7539 97.3818C46.924 98.0926 33.426 92.5797 33.0004 93.2905C32.5749 94.0014 28.4991 106.117 28.9246 106.828C29.3502 107.539 49.2855 114.094 54.3921 114.094C59.4987 114.094 73.8533 106.828 75.13 106.828C76.4067 106.828 74.5464 126.7 72 136.873" stroke="#031F28" stroke-linecap="round"/>
<path d="M99.0137 71.8883C104.107 71.8883 111.662 73.1467 115.971 76.2203C121.065 79.8534 130.069 95.9299 132.251 95.9299C133.998 95.9299 142.196 80.9128 146.077 73.4043C148.987 73.8887 154.954 75.2935 155.536 77.0374C156.264 79.2173 148.26 113.369 141.711 115.549C136.472 117.293 125.945 114.822 122.792 113.369" stroke="#031F28" stroke-linecap="round"/>
<path d="M120.609 96.6566C121.822 104.892 125 128.986 125 135.38" stroke="#031F28" stroke-linecap="round"/>
<path d="M71.8564 50.1519C71.8564 50.1519 80.5882 47.972 80.5882 48.6986C80.5882 49.4253 74.767 55.9652 74.767 55.9652M90.0476 47.972C91.2604 47.2454 93.5403 46.3734 92.9582 48.6987" stroke="#031F28" stroke-linecap="round"/>
<path d="M100.962 37.799C99.7497 39.0101 97.3242 41.5775 97.3242 42.1588C97.3242 42.7401 101.205 42.8854 103.145 42.8854" stroke="#031F28" stroke-linecap="round"/>
<path d="M97.3238 51.6046C97.3238 51.0233 90.5324 54.2689 87.1367 55.9644C87.1367 58.1442 90.0473 64.684 93.6855 61.7775C97.3238 58.8709 97.3238 52.3312 97.3238 51.6046Z" fill="#FFFCE4" stroke="#031F28" stroke-linecap="round"/>
<path d="M91.502 32.7144C91.7445 31.5033 92.9572 29.2266 95.8678 29.8079" stroke="#031F28" stroke-linecap="round"/>
<path d="M16.5547 103.195C17.5249 103.438 18.7376 103.922 20.9206 103.195C22.4641 102.682 23.1035 102.469 24.5588 102.469C25.723 102.469 27.7119 103.195 28.9247 103.922" stroke="#031F28" stroke-linecap="round"/>
<path d="M19.4658 90.8424C17.2829 91.569 12.917 93.313 12.917 94.4756C12.917 95.9288 15.0999 97.3821 19.4658 96.6555" stroke="#031F28" stroke-linecap="round"/>
<path d="M55.6533 35.1972C56.5638 35.4278 58.5555 36.1094 59.9961 37.5273C60.7242 38.244 61.3232 39.1612 61.5557 40.3095C61.7884 41.4595 61.644 42.7943 60.9648 44.328C60.1604 46.1449 58.9024 47.0312 57.4541 47.2675C56.0485 47.4967 54.53 47.1029 53.1748 46.5263C51.8101 45.9455 50.5506 45.1532 49.6377 44.5116C49.1797 44.1898 48.8052 43.9036 48.5449 43.6972C48.4354 43.6104 48.3466 43.5368 48.2793 43.4814H47.8398L47.9609 42.8817C48.1835 41.7805 48.7771 40.7546 49.5068 39.8485C50.2389 38.9396 51.1291 38.126 51.9814 37.4482C52.8351 36.7693 53.6611 36.2184 54.2734 35.8378C54.58 35.6472 54.8346 35.4987 55.0127 35.3974C55.1015 35.3468 55.1714 35.3077 55.2197 35.2812C55.2439 35.2679 55.2634 35.2579 55.2764 35.2509C55.2826 35.2475 55.2875 35.2449 55.291 35.2431C55.2927 35.2421 55.2939 35.2407 55.2949 35.2401H55.2969V35.2392L55.4668 35.1493L55.6533 35.1972Z" fill="#FFFCE4" stroke="#031F28"/>
<path d="M51.7606 44.7581C53.3596 45.1081 55.0782 45.3471 56.7028 44.869C58.3018 44.3995 60.0119 42.9993 60.5763 41.3515C60.8071 40.6685 60.8328 39.9599 60.7045 39.2684C61.3116 40.4807 61.4313 42.0602 60.5079 44.1263C58.4899 48.6683 53.2912 46.2692 50.4609 44.4422C50.9056 44.5702 51.3502 44.6641 51.7521 44.7581H51.7606Z" fill="#FFFCE4"/>
<path d="M48.459 42.9814C48.459 42.9814 55.8723 47.208 55.898 41.9824C55.9065 39.2415 49.8014 41.1456 48.459 42.9814Z" fill="#FFEB53"/>
<path d="M48.627 31.5153C50.5101 31.0709 52.7421 31.3728 54.7656 33.6217C55.9327 34.917 56.1471 36.2475 55.7354 37.4889C55.3402 38.6804 54.3897 39.7264 53.3682 40.5729C52.3368 41.4276 51.1765 42.1243 50.2822 42.6051C49.8339 42.8462 49.4488 43.035 49.1748 43.1637C49.0377 43.2282 48.9273 43.2775 48.8516 43.3112C48.8139 43.3279 48.7849 43.3415 48.7646 43.3503C48.7545 43.3547 48.7457 43.3577 48.7402 43.36L48.7324 43.3639H48.7314L48.4834 43.4694L48.2588 43.319C46.3739 42.0594 45.4505 39.6815 44.9873 37.7311C44.7521 36.7406 44.6272 35.8261 44.5615 35.1598C44.5286 34.8263 44.5101 34.5533 44.5 34.363C44.4949 34.2678 44.492 34.1929 44.4902 34.1413C44.4894 34.1156 44.4896 34.0956 44.4893 34.0817C44.4891 34.0748 44.4884 34.069 44.4883 34.0651V34.0592V34.0583L44.4844 33.8327L44.6514 33.6803C45.3048 33.086 46.7864 31.9497 48.627 31.5153Z" fill="#FFFCE4" stroke="#031F28"/>
<path d="M53.3079 38.4543C53.8722 37.5749 54.2485 36.0467 53.8209 34.9624C53.3934 33.8525 52.7949 32.9987 52.0253 32.1877C52.8034 32.5121 53.5986 33.0756 54.3938 33.955C57.4378 37.3359 53.0257 40.5033 50.3066 42.0145C51.632 40.8619 52.7179 39.3678 53.3079 38.4543Z" fill="#FFFCE4"/>
<path d="M48.5357 42.9017C48.5357 42.9017 55.2222 38.5219 50.8443 36.4473C48.433 35.3032 47.4155 41.0149 48.5357 42.9017Z" fill="#FFEB53"/>
<path d="M41.7217 33.965C43.3332 33.6109 44.6351 33.9439 45.6572 34.6945C46.7229 35.4771 47.437 36.6781 47.9189 37.8781C48.4035 39.0846 48.6732 40.3394 48.8223 41.2843C48.897 41.7584 48.9414 42.1587 48.9678 42.4415C48.9809 42.5827 48.9898 42.6949 48.9951 42.7726C48.9978 42.8115 48.9998 42.8425 49.001 42.8634C49.0016 42.8738 49.0017 42.8821 49.002 42.8878C49.0021 42.8906 49.0029 42.8931 49.0029 42.8947V42.8966V42.8976L49.0156 43.172L48.79 43.3302C46.7024 44.7934 43.6278 44.9615 41.1787 44.8048C39.9369 44.7254 38.8203 44.5599 38.0146 44.4142C37.6116 44.3413 37.2851 44.2729 37.0586 44.2228C36.9454 44.1978 36.8565 44.1777 36.7959 44.1632C36.7656 44.156 36.7417 44.1496 36.7256 44.1456C36.7178 44.1437 36.7113 44.1428 36.707 44.1417C36.705 44.1412 36.7033 44.1401 36.7021 44.1398H36.7002L36.457 44.0773L36.3613 43.8458C35.988 42.9432 35.4205 41.0074 35.8652 39.0265C36.09 38.0254 36.5737 37.0142 37.4648 36.132C38.3542 35.2516 39.6262 34.5217 41.3955 34.0451L41.7217 33.965Z" fill="#FFFCE4" stroke="#031F28"/>
<path d="M48.4935 42.8253C47.228 39.6749 45.9882 35.9781 42.3627 35.1671C41.5761 34.9878 40.7381 34.9792 39.8916 35.0988C40.3704 34.8853 40.9091 34.6975 41.5162 34.5267C47.6812 32.8619 48.4251 41.741 48.4935 42.8253Z" fill="#FFFCE4"/>
<path d="M48.5023 42.9219C48.5023 42.9219 46.6383 35.4848 42.6195 38.6185C40.174 40.5226 46.0825 43.4087 48.5023 42.9219Z" fill="#FFEB53"/>
<path d="M42.748 42.347C44.2318 42.13 45.6816 42.1467 46.7549 42.2161C47.2929 42.2509 47.7403 42.2984 48.0537 42.3382C48.2103 42.358 48.3338 42.376 48.4189 42.3889C48.4615 42.3954 48.4948 42.4009 48.5176 42.4046C48.5288 42.4064 48.5378 42.4074 48.5439 42.4085C48.5469 42.409 48.5491 42.4101 48.5508 42.4104H48.5537C48.5539 42.4105 48.5541 42.4106 48.4863 42.8001L48.9365 42.718C49.3712 43.8707 49.3712 45.2435 49.1621 46.6087C48.9519 47.9815 48.522 49.3967 48.0488 50.6653C47.5748 51.9363 47.0513 53.0742 46.6475 53.8929C46.4454 54.3024 46.273 54.6335 46.1504 54.8626C46.0891 54.977 46.0406 55.0663 46.0068 55.1272C45.99 55.1577 45.9768 55.1815 45.9678 55.1975C45.9633 55.2055 45.9594 55.2118 45.957 55.2161C45.9559 55.2181 45.9547 55.2199 45.9541 55.221L45.9531 55.222V55.2229L45.8525 55.3997L45.6562 55.4563C44.5029 55.786 41.8986 56.2578 39.6719 55.5013C38.5399 55.1166 37.4885 54.408 36.7969 53.1956C36.1092 51.9901 35.809 50.3432 36.0605 48.1399L36.1104 47.7805C36.3996 46.0196 37.2876 44.7731 38.4717 43.9173C39.7174 43.017 41.2694 42.5633 42.748 42.347Z" fill="#FFFCE4" stroke="#031F28"/>
<path d="M44.8947 43.3203C42.6887 43.8753 40.3886 44.6607 38.7127 46.4963C37.1052 48.2636 36.8401 49.0235 36.5494 50.6541C36.4553 49.9284 36.4468 49.1174 36.5494 48.1868C37.2334 42.1934 44.7408 42.4751 47.477 42.7654C46.5279 42.8593 45.5189 43.1581 44.8862 43.3203H44.8947Z" fill="#FFFCE4"/>
<path d="M48.4687 42.903C48.4687 42.903 39.9694 43.0054 41.9617 47.7871C43.2016 50.7585 48.2549 45.2511 48.4687 42.903Z" fill="#FFEB53"/>
<path d="M48.4453 42.4586C49.6424 42.3621 50.9029 42.6827 52.0938 43.1841C53.2894 43.6877 54.4509 44.3885 55.4619 45.0914C56.4744 45.7952 57.3467 46.5092 57.9658 47.0464C58.2757 47.3154 58.523 47.541 58.6934 47.6998C58.7785 47.7792 58.8446 47.842 58.8896 47.8853C58.9121 47.9069 58.9295 47.9236 58.9414 47.9351C58.9473 47.9409 58.9519 47.9457 58.9551 47.9488C58.9565 47.9502 58.9581 47.9509 58.959 47.9517L58.96 47.9527V47.9537H58.9609L59.1025 48.0943L59.1094 48.2935C59.1447 49.419 58.9845 52.0541 57.7354 54.1431C57.103 55.2006 56.1815 56.1351 54.8555 56.6431C53.5314 57.1503 51.8607 57.2106 49.7705 56.6285C47.6939 56.0503 46.5078 54.8496 45.9531 53.3531C45.4113 51.8907 45.493 50.2029 45.8066 48.65C46.1221 47.0884 46.6843 45.6058 47.1631 44.5201C47.4031 43.9758 47.6239 43.5276 47.7852 43.2144C47.8658 43.0578 47.9315 42.9347 47.9775 42.8502C47.9801 42.8455 47.9829 42.8409 47.9854 42.8365V42.4947L48.4453 42.4586Z" fill="#FFFCE4" stroke="#031F28"/>
<path d="M47.6477 51.0387C48.4429 53.25 50.4181 56.2125 52.9319 56.4943C52.0512 56.5626 51.0508 56.4601 49.9136 56.1442C44.5524 54.6502 46.0658 48.6055 47.3826 45.3185C47.3655 45.4381 47.357 45.5576 47.3484 45.6856C46.9551 47.3761 46.9807 49.1946 47.6477 51.0302V51.0387Z" fill="#FFFCE4"/>
<path d="M48.4853 42.9645C48.4853 42.9645 45.5696 51.4509 51.2215 50.2983C54.3937 49.6495 50.6743 43.7414 48.4853 42.9645Z" fill="#FFEB53"/>
<path d="M31.8361 95.9293C31.351 95.687 29.6531 94.7666 26.7426 93.0227C23.1043 90.8428 23.1043 90.1162 20.1937 88.6629C17.2832 87.2097 17.2832 87.9363 15.8279 86.483C14.3726 85.0298 12.1896 79.2167 10.0067 78.4901C7.82375 77.7634 7.82375 80.67 8.5514 82.1232C9.27905 83.5765 12.1897 88.6632 12.1897 89.3898C12.1897 90.1164 12.1897 90.8431 11.462 91.5697" stroke="#031F28" stroke-linecap="round"/>
<path d="M11.4618 90.8446C9.27886 89.1492 4.18578 84.3052 2.73036 85.0318C1.80993 85.4913 1.27518 87.9383 4.18576 90.8448C6.51423 93.1701 9.52146 94.7201 10.0066 95.2045" stroke="#031F28" stroke-linecap="round"/>
<path d="M9.27917 95.2016C8.55153 95.686 7.38729 96.9455 8.55153 98.1081C10.0068 99.5614 15.1003 101.015 15.8279 99.5614C16.2881 98.6422 15.1003 96.6548 12.9174 95.9282" stroke="#031F28" stroke-linecap="round"/>
<path d="M10.7348 99.5627C10.0072 100.289 9.42498 101.307 10.0072 102.469C10.7349 103.922 15.8284 103.922 16.556 102.469C17.1382 101.307 16.3134 100.774 15.8283 100.289" stroke="#031F28" stroke-linecap="round"/>
<path d="M161.415 65.0116C161.087 65.9548 160.828 67.2333 159.023 68.6588C157.747 69.6667 157.219 70.0843 156.421 71.3C155.783 72.2726 155.302 74.3322 155.247 75.7434" stroke="#031F28" stroke-linecap="round"/>
<path d="M149.473 60.6735C151.278 59.2481 155.131 56.5564 156.105 57.1934C157.322 57.9896 157.344 60.6095 154.343 63.8585" stroke="#031F28" stroke-linecap="round"/>
<path d="M146.804 73.4031C146.867 72.8651 147.178 71.3327 147.312 67.9458C147.479 63.7121 146.871 63.314 147.248 60.0863C147.625 56.8586 148.234 57.2567 147.814 55.2448C147.394 53.2328 143.72 48.2243 144.307 46.0026C144.895 43.7809 147.33 45.3733 148.148 46.7774C148.967 48.1815 151.633 53.4 152.242 53.7981C152.851 54.1963 153.46 54.5944 154.467 54.3846" stroke="#031F28" stroke-linecap="round"/>
<path d="M153.859 53.9881C153.634 51.2356 152.367 44.3269 153.773 43.5092C154.662 42.992 157.005 43.886 157.845 47.91C158.517 51.1291 158.168 54.4905 158.308 55.1612" stroke="#031F28" stroke-linecap="round"/>
<path d="M158.707 54.5537C159.511 54.2112 161.204 53.9288 161.54 55.5383C161.96 57.5503 160.387 62.6015 158.771 62.4131C157.749 62.294 156.735 60.2128 157.322 57.9911" stroke="#031F28" stroke-linecap="round"/>
<path d="M161.561 58.1566C162.568 57.9468 163.74 58.0179 164.394 59.1412C165.213 60.5454 162.422 64.8004 160.806 64.612C159.513 64.4613 159.519 63.4803 159.379 62.8097" stroke="#031F28" stroke-linecap="round"/>
<path d="M65.4922 62.936C67.1768 62.936 68.5418 64.2995 68.542 65.98C68.542 67.6607 67.1769 69.0249 65.4922 69.0249C63.8077 69.0246 62.4434 67.6605 62.4434 65.98C62.4436 64.2996 63.8078 62.9363 65.4922 62.936Z" fill="#FFEB53" stroke="#031F28"/>
<path d="M111.238 39.3068C112.923 39.3068 114.288 40.6702 114.288 42.3507C114.288 44.0314 112.923 45.3956 111.238 45.3956C109.554 45.3954 108.189 44.0312 108.189 42.3507C108.19 40.6704 109.554 39.307 111.238 39.3068Z" fill="#FFEB53" stroke="#031F28"/>
<ellipse cx="5.67451" cy="3.71798" rx="5.67451" ry="3.71798" transform="matrix(0.938774 -0.344535 0.345382 0.938462 68.2529 59.2588)" fill="#F2808D"/>
<ellipse cx="4.70044" cy="3.20936" rx="4.70044" ry="3.20936" transform="matrix(0.938774 -0.344535 0.345382 0.938462 101.38 45.1963)" fill="#F2808D"/>
</g>
</svg>
