<svg width="1000" height="400" viewBox="0 0 1000 400" fill="none" xmlns="http://www.w3.org/2000/svg">
<path fill-rule="evenodd" clip-rule="evenodd" d="M943.034 332.819C944.055 329.965 944.054 326.703 937.521 326.703C930.987 326.703 926.291 325.683 923.229 331.596C920.37 337.508 918.737 339.751 918.328 341.586C917.92 343.421 917.103 346.479 915.062 347.498C913.02 348.518 912.203 351.78 917.716 350.353C923.229 349.13 925.883 348.722 928.129 349.333C930.375 349.945 932.621 348.11 933.233 346.683C933.846 345.46 937.725 343.217 939.358 343.217C940.992 343.217 942.013 335.673 943.034 332.819Z" fill="#CEEEBA"/>
<path fill-rule="evenodd" clip-rule="evenodd" d="M938.749 352.188C941.404 352.188 942.22 349.945 940.383 348.722C938.341 347.499 936.912 348.314 935.483 349.945C934.258 351.576 936.299 352.188 938.749 352.188Z" fill="#CEEEBA"/>
<path fill-rule="evenodd" clip-rule="evenodd" d="M450.354 229.448C449.946 226.797 448.108 224.962 446.475 229.04C444.841 233.321 444.433 236.787 444.841 239.03C445.249 241.273 444.841 246.166 448.108 242.292C451.375 238.418 450.762 234.952 450.354 233.525C450.15 232.302 450.762 231.894 450.354 229.448Z" fill="#CEEEBA"/>
<path fill-rule="evenodd" clip-rule="evenodd" d="M8.72327 82.6571C8.72327 82.6571 5.2523 80.8222 7.49823 79.1911C9.74415 77.5601 12.6026 80.4144 15.2569 81.2299C17.9112 81.8416 22.403 87.9579 21.9947 89.589C21.5863 91.22 19.7487 90.2006 17.0945 88.9774C14.4402 87.5502 8.72327 82.6571 8.72327 82.6571Z" fill="#CEEEBA"/>
<path fill-rule="evenodd" clip-rule="evenodd" d="M41.3977 116.705C40.1727 116.297 36.4975 114.055 41.3977 111.812C46.2979 109.569 47.3188 110.793 47.9313 113.035C48.5439 115.278 49.1564 116.909 51.1981 118.948C53.2399 120.987 53.8524 124.045 53.2399 127.103C52.6274 129.957 49.3606 130.977 47.1146 128.734C44.8687 126.491 44.4604 125.472 44.8687 122.821C44.8687 120.171 42.6228 116.909 41.3977 116.705Z" fill="#CEEEBA"/>
<path fill-rule="evenodd" clip-rule="evenodd" d="M66.9163 175.426C66.9163 175.426 63.4453 169.513 67.9372 168.902C72.429 168.29 73.0416 170.94 73.0416 172.368C73.0416 173.999 75.2875 174.61 76.9209 175.834C78.5543 177.057 80.8002 181.95 80.3919 184.193C79.9835 186.435 81.0044 187.047 83.0461 187.659C85.0879 188.27 84.6795 190.309 82.0253 190.921C79.371 191.532 74.2666 191.532 72.6332 188.066C70.9998 184.6 70.3873 183.785 68.3455 181.95C66.7121 180.319 66.9163 175.426 66.9163 175.426Z" fill="#CEEEBA"/>
<path fill-rule="evenodd" clip-rule="evenodd" d="M90.1905 204.171C91.8239 202.54 96.9282 206.821 95.2948 208.452C93.8656 210.083 88.5571 205.802 90.1905 204.171Z" fill="#CEEEBA"/>
<path fill-rule="evenodd" clip-rule="evenodd" d="M100.405 214.569C97.5469 214.977 100.405 221.705 101.63 221.297C102.855 221.093 103.264 214.161 100.405 214.569Z" fill="#CEEEBA"/>
<path fill-rule="evenodd" clip-rule="evenodd" d="M105.507 226.799C105.507 226.799 104.486 219.663 107.753 222.314C111.019 224.964 110.407 231.081 108.365 231.285C106.528 231.692 105.507 226.799 105.507 226.799Z" fill="#CEEEBA"/>
<path fill-rule="evenodd" clip-rule="evenodd" d="M263.128 221.093C263.128 221.093 259.861 213.957 268.233 213.753C276.604 213.345 275.583 214.772 275.991 219.258C276.4 223.743 273.95 228.636 271.499 228.636C268.845 228.636 264.353 231.287 263.741 228.228C263.128 225.17 263.128 221.093 263.128 221.093Z" fill="#CEEEBA"/>
<path fill-rule="evenodd" clip-rule="evenodd" d="M213.514 200.092C213.514 200.092 207.389 200.092 210.248 195.811C213.106 191.529 215.148 191.529 217.598 193.568C220.252 195.607 222.09 196.422 221.886 193.976C221.477 191.325 223.111 189.49 226.99 192.345C230.869 195.199 231.89 195.199 232.503 199.073C233.115 202.946 237.403 207.228 240.67 209.471C243.936 211.713 247.407 212.936 244.141 214.975C240.874 216.81 241.895 218.441 243.12 220.888C244.345 223.13 242.711 225.985 239.853 224.15C236.995 222.315 232.503 218.033 229.848 215.995C227.194 214.16 226.377 212.733 226.582 209.471C226.99 206.208 225.357 200.704 221.069 200.5C217.19 200.092 213.514 200.092 213.514 200.092Z" fill="#CEEEBA"/>
<path fill-rule="evenodd" clip-rule="evenodd" d="M147.564 281.642C150.014 280.214 152.465 282.049 151.035 283.884C149.81 285.719 146.543 282.253 147.564 281.642Z" fill="#CEEEBA"/>
<path fill-rule="evenodd" clip-rule="evenodd" d="M722.317 83.8844C722.725 80.6223 720.684 76.5447 717.825 80.6223C714.967 84.9037 713.946 87.3503 714.354 90.2046C714.763 93.059 716.192 95.0977 718.846 91.6318C721.296 88.1658 721.909 87.1464 722.317 83.8844Z" fill="#CEEEBA"/>
<path fill-rule="evenodd" clip-rule="evenodd" d="M705.372 94.0725C707.006 91.2182 705.985 86.9367 703.126 92.2376C700.268 97.3346 693.122 112.014 697.001 119.354C700.881 126.693 695.776 127.713 699.043 133.014C702.514 138.722 696.185 144.635 701.697 151.363C706.189 156.868 710.068 163.392 712.11 165.227C714.152 167.062 719.461 170.324 714.969 162.984C710.477 155.644 709.864 154.013 708.231 152.382C706.597 150.751 704.964 147.489 705.985 144.227C707.006 140.965 703.126 132.198 707.21 131.586C711.498 130.975 718.235 135.052 721.502 137.499C724.769 139.742 728.648 137.091 723.136 134.033C717.623 130.771 713.131 129.751 712.723 126.286C712.314 122.82 715.581 120.373 717.827 119.557C720.073 118.538 721.502 115.072 721.911 112.218C722.523 108.956 721.298 109.567 718.44 110.587C715.581 111.606 711.293 108.956 711.089 111.606C710.681 114.868 707.618 115.48 706.802 117.519C706.189 119.354 702.514 123.635 701.901 119.761C701.289 115.888 705.168 111.606 707.006 110.383C709.048 109.16 710.273 103.655 708.027 102.024C705.781 99.7811 703.739 96.9268 705.372 94.0725Z" fill="#CEEEBA"/>
<path fill-rule="evenodd" clip-rule="evenodd" d="M604.508 177.059C604.508 174.409 602.466 172.166 600.22 174.205C597.974 176.243 597.361 172.37 594.707 172.981C592.053 173.593 590.828 174.001 590.42 177.263C590.011 180.525 592.461 182.768 593.89 179.098C595.524 175.632 597.157 177.263 596.545 179.098C595.932 181.137 599.199 181.137 600.832 180.117C602.466 178.894 604.712 180.933 604.508 177.059Z" fill="#CEEEBA"/>
<path fill-rule="evenodd" clip-rule="evenodd" d="M641.668 192.549C643.71 191.937 645.139 189.083 641.056 188.675C636.768 188.267 630.643 188.675 628.397 188.267C626.151 187.859 621.659 190.51 623.293 193.772C624.926 197.034 626.764 194.18 628.397 192.752C630.031 191.529 634.318 191.733 635.543 193.16C636.768 194.587 639.831 193.16 641.668 192.549Z" fill="#CEEEBA"/>
<path fill-rule="evenodd" clip-rule="evenodd" d="M651.674 188.88C649.632 188.269 644.323 188.677 649.019 190.919C653.92 193.162 654.94 191.327 656.165 192.143C657.391 193.162 657.799 191.123 661.27 191.531C664.741 191.939 662.291 188.269 659.636 188.88C657.186 189.696 653.715 189.696 651.674 188.88Z" fill="#CEEEBA"/>
<path fill-rule="evenodd" clip-rule="evenodd" d="M657.801 197.442C656.168 195.811 654.943 196.422 655.759 199.48C656.78 202.335 655.759 203.762 656.372 204.985C656.984 206.208 659.026 206.208 658.618 202.946C658.413 199.684 659.434 199.073 657.801 197.442Z" fill="#CEEEBA"/>
<path fill-rule="evenodd" clip-rule="evenodd" d="M680.871 223.95C680.463 222.319 678.83 222.115 675.767 222.319C672.5 222.727 668.825 222.115 667.6 223.339C665.354 225.989 660.862 221.3 660.862 226.601C660.862 229.863 660.862 236.387 666.988 235.367C673.113 234.348 670.867 240.465 678.013 238.222C685.159 235.979 683.117 233.329 685.772 233.125C688.426 232.717 686.793 225.785 684.751 225.989C682.709 226.193 681.076 225.581 680.871 223.95Z" fill="#CEEEBA"/>
<path fill-rule="evenodd" clip-rule="evenodd" d="M706.394 187.046C709.66 187.453 712.519 186.026 708.435 184.191C704.148 182.356 702.923 181.949 701.698 180.929C700.473 179.91 693.326 180.318 694.552 184.803C695.777 189.288 698.431 189.084 700.677 187.657C702.923 186.434 703.127 186.638 706.394 187.046Z" fill="#CEEEBA"/>
<path fill-rule="evenodd" clip-rule="evenodd" d="M699.246 157.28C700.471 156.056 699.655 152.998 697.613 152.998C695.571 152.998 689.446 155.852 692.508 158.503C695.367 161.153 694.55 165.639 698.43 165.231C702.309 164.823 704.351 164.823 704.555 162.988C704.963 160.949 701.9 159.726 700.063 160.338C698.021 161.153 695.979 159.318 699.246 157.28Z" fill="#CEEEBA"/>
<path fill-rule="evenodd" clip-rule="evenodd" d="M748.248 190.507C750.29 192.546 753.148 192.75 754.781 191.731C756.415 190.711 758.048 190.1 757.027 188.469C756.006 186.838 758.048 183.575 754.169 184.595C750.29 185.614 748.248 185.003 746.41 184.595C744.369 184.187 740.489 184.595 744.369 187.449C748.248 190.507 746.206 188.672 748.248 190.507Z" fill="#CEEEBA"/>
<path fill-rule="evenodd" clip-rule="evenodd" d="M730.076 213.96C730.076 212.125 728.442 212.328 726.196 212.94C723.95 213.552 720.684 215.591 715.579 213.96C710.475 212.328 709.454 216.61 709.046 218.445C708.637 220.28 709.046 224.357 707.004 224.969C704.962 225.581 706.187 227.212 705.983 229.251C705.575 233.532 708.025 233.124 708.229 229.658C708.637 226.192 711.087 220.688 712.517 225.785C713.742 230.882 720.888 230.678 721.296 227.62C721.704 224.765 722.521 221.707 726.4 225.989C728.034 227.823 731.097 226.6 733.138 226.396C735.384 226.396 739.672 228.027 739.264 225.173C738.855 222.319 742.735 222.93 747.635 227.416C752.535 231.901 754.985 232.513 758.66 234.144C762.131 235.775 764.785 231.901 762.131 228.639C759.477 225.377 760.089 220.28 754.985 218.241C749.881 216.406 741.918 213.756 738.447 214.775C733.547 215.795 730.076 215.794 730.076 213.96Z" fill="#CEEEBA"/>
<path fill-rule="evenodd" clip-rule="evenodd" d="M689.24 155.443C688.832 153.812 686.994 153.608 686.586 155.851C686.178 158.094 686.178 159.725 688.219 158.501C690.261 157.074 689.649 157.074 689.24 155.443Z" fill="#CEEEBA"/>
<path fill-rule="evenodd" clip-rule="evenodd" d="M770.093 144.027C767.847 143.619 764.172 144.638 762.742 145.658C761.109 146.677 758.659 147.9 757.638 146.881C755.392 145.046 751.309 151.774 755.392 151.162C760.496 150.143 760.496 154.017 761.517 152.386C762.538 150.755 764.172 152.793 764.988 153.609C766.009 154.628 770.705 151.978 767.234 150.755C761.313 148.512 765.601 146.677 768.868 149.124C771.726 151.366 774.38 152.386 778.26 152.386C782.139 152.386 782.139 147.9 779.893 146.473C777.647 145.454 772.339 144.434 770.093 144.027Z" fill="#CEEEBA"/>
<path fill-rule="evenodd" clip-rule="evenodd" d="M817.671 276.344C817.262 274.101 814.812 273.082 813.179 276.956C811.546 280.829 810.525 283.072 810.525 285.315C810.525 287.557 811.546 287.965 812.771 284.295C813.996 280.829 817.671 279.81 817.671 277.771C817.671 275.936 818.079 278.587 817.671 276.344Z" fill="#CEEEBA"/>
<path fill-rule="evenodd" clip-rule="evenodd" d="M807.461 280.424C806.236 279.813 805.419 282.871 806.44 284.706C808.686 288.172 808.686 281.036 807.461 280.424Z" fill="#CEEEBA"/>
<path fill-rule="evenodd" clip-rule="evenodd" d="M844.62 278.792C841.149 279.811 838.699 281.646 841.762 282.054C844.62 282.462 844.008 284.297 842.987 285.928C841.966 287.559 843.599 288.578 847.274 286.539C850.745 284.704 852.787 282.666 853.196 280.015C853.604 277.365 849.316 275.53 847.07 277.161C844.62 278.792 848.091 277.773 844.62 278.792Z" fill="#CEEEBA"/>
<path fill-rule="evenodd" clip-rule="evenodd" d="M853.398 292.45C854.419 289.188 852.377 286.538 848.906 288.169C845.435 289.8 843.394 291.635 846.865 293.674C850.336 295.712 852.786 298.975 853.398 292.45Z" fill="#CEEEBA"/>
<path fill-rule="evenodd" clip-rule="evenodd" d="M848.092 298.158C846.459 296.935 843.601 296.935 845.847 299.381C848.092 302.032 847.072 303.867 848.705 303.255C850.338 302.847 849.726 299.585 848.092 298.158Z" fill="#CEEEBA"/>
<path fill-rule="evenodd" clip-rule="evenodd" d="M843.6 299.181C842.375 295.919 837.678 294.696 839.312 298.162C840.945 301.628 843.191 304.075 841.558 304.89C839.924 305.909 840.537 308.764 843.6 308.764C846.458 308.764 846.458 304.89 845.641 302.851C844.62 301.22 844.825 302.443 843.6 299.181Z" fill="#CEEEBA"/>
<path fill-rule="evenodd" clip-rule="evenodd" d="M786.628 327.72C787.854 323.438 786.629 321.603 783.362 323.234C780.095 324.865 773.765 330.37 773.97 333.836C774.378 338.321 773.357 341.176 778.461 338.117C783.77 334.652 785.403 331.797 786.628 327.72Z" fill="#CEEEBA"/>
<path fill-rule="evenodd" clip-rule="evenodd" d="M769.485 169.922C770.71 168.291 770.097 166.456 767.239 166.66C764.38 167.068 762.951 170.942 765.197 172.777C767.443 174.815 768.668 175.631 769.076 172.777C769.485 169.922 768.26 171.553 769.485 169.922Z" fill="#CEEEBA"/>
<path fill-rule="evenodd" clip-rule="evenodd" d="M766.216 164.821C768.462 163.801 769.483 161.966 766.216 162.578C762.95 163.19 761.316 164.413 759.07 164.209C756.824 163.801 756.824 167.675 760.295 167.063C763.97 166.452 763.97 165.636 766.216 164.821Z" fill="#CEEEBA"/>
<path fill-rule="evenodd" clip-rule="evenodd" d="M597.363 248.821C598.996 248.209 596.955 245.559 594.505 246.986C591.85 248.209 593.484 252.083 595.526 250.452C597.363 248.821 595.73 249.432 597.363 248.821Z" fill="#CEEEBA"/>
<path fill-rule="evenodd" clip-rule="evenodd" d="M596.141 257.179C596.141 255.344 592.67 251.063 591.037 256.568C589.404 262.072 591.037 265.946 590.629 268.597C590.22 271.247 589.608 277.567 588.587 279.198C587.566 280.829 587.362 284.295 587.974 285.926C588.587 287.557 590.629 285.519 591.854 283.072C593.079 280.422 596.958 280.829 595.733 278.179C594.508 275.529 593.079 273.082 593.487 270.432C593.896 267.781 592.466 261.053 594.508 260.441C596.346 259.83 596.141 259.218 596.141 257.179Z" fill="#CEEEBA"/>
<path fill-rule="evenodd" clip-rule="evenodd" d="M587.971 261.666C588.379 259.016 586.95 256.773 583.683 259.016C580.416 261.258 580.416 265.132 580.212 267.375C579.804 269.617 580.62 272.268 579.6 273.899C578.579 275.53 578.987 277.365 582.254 278.18C585.521 278.792 588.992 276.549 587.154 273.287C585.112 270.025 585.929 267.782 586.746 266.151C587.562 264.52 587.562 264.317 587.971 261.666Z" fill="#CEEEBA"/>
<path fill-rule="evenodd" clip-rule="evenodd" d="M571.841 275.936C569.595 273.285 566.328 275.528 568.574 279.401C570.82 283.275 572.862 282.664 573.066 280.625C573.474 278.79 574.087 278.586 571.841 275.936Z" fill="#CEEEBA"/>
<path fill-rule="evenodd" clip-rule="evenodd" d="M542.238 292.653C541.829 289.391 539.379 287.76 538.767 292.246C538.154 296.731 539.992 301.012 541.013 298.77C542.034 296.527 542.646 295.915 542.238 292.653Z" fill="#CEEEBA"/>
<path fill-rule="evenodd" clip-rule="evenodd" d="M771.729 345.662C774.383 344.438 774.383 342.4 771.321 343.011C768.462 343.623 768.666 344.846 767.033 347.293C765.4 349.535 766.42 350.759 769.075 348.312C771.729 345.662 769.279 347.089 771.729 345.662Z" fill="#CEEEBA"/>
<path fill-rule="evenodd" clip-rule="evenodd" d="M705.984 346.687C709.454 346.076 710.475 343.425 705.575 344.445C700.879 345.464 702.513 347.299 705.984 346.687Z" fill="#CEEEBA"/>
<path fill-rule="evenodd" clip-rule="evenodd" d="M736.815 144.433C734.57 140.967 730.894 140.967 733.957 145.045C736.816 149.326 738.245 148.511 738.857 148.307C739.47 147.899 739.061 147.899 736.815 144.433Z" fill="#CEEEBA"/>
<path fill-rule="evenodd" clip-rule="evenodd" d="M376.65 335.672C378.896 335.264 388.697 334.652 387.267 338.322C386.042 341.788 390.534 340.973 394.413 340.157C398.293 339.545 401.151 339.749 405.031 339.749C408.91 339.749 417.281 341.992 414.831 348.108C412.177 354.225 411.972 359.118 416.464 361.361C420.956 363.603 416.873 371.147 414.831 367.477C412.789 364.011 399.722 360.953 395.434 357.079C391.147 353.205 384.409 353.613 382.571 355.856C380.53 358.098 376.242 358.098 376.242 358.098C376.242 358.098 366.85 356.875 358.07 355.448C349.291 354.225 348.678 353.205 342.961 353.205C337.04 353.205 336.428 351.574 332.548 349.739C328.669 347.701 326.423 344.846 318.256 344.642C310.089 344.235 309.272 342.807 306.21 340.769C303.351 338.934 300.697 338.118 298.451 339.545C296.205 340.769 294.163 341.176 291.305 340.769C288.447 340.361 287.834 341.176 285.792 342.4C283.751 343.623 282.321 343.011 277.421 341.992C272.521 340.973 269.662 337.507 265.375 335.468C261.087 333.633 261.087 334.448 254.758 333.837C248.224 333.225 239.649 332.613 241.895 327.72C244.141 322.827 247.407 320.992 240.67 321.604C233.932 322.216 230.665 320.585 224.131 321.196C217.598 321.808 214.127 321.196 214.331 319.565C214.739 317.934 215.352 317.934 218.21 317.934C221.069 317.934 225.969 316.711 227.194 309.575C228.419 302.439 229.848 296.934 233.319 295.303C236.79 293.672 240.465 295.915 245.57 295.711C250.674 295.303 259.862 294.692 262.721 296.934C265.579 299.177 268.233 300.4 270.479 301.216C272.725 301.828 274.971 303.866 276.4 305.497C277.625 307.128 281.3 307.332 279.259 303.866C277.217 300.4 278.85 301.012 281.913 302.643C284.771 304.274 286.201 307.128 287.834 310.391C289.467 313.653 293.755 316.507 298.859 316.507C303.964 316.507 306.618 316.507 310.497 317.73C314.377 318.954 317.644 318.342 319.89 316.507C322.135 314.672 324.177 315.488 326.423 315.488C328.669 315.488 329.69 314.468 330.711 310.391C331.732 306.109 340.103 307.74 342.757 309.371C345.411 311.002 347.249 312.633 350.516 312.225C353.783 311.818 355.62 311.614 357.866 313.245C360.112 314.876 371.137 315.895 372.363 319.157C373.588 322.419 376.242 327.516 376.242 327.516C376.242 327.516 374.404 336.079 376.65 335.672Z" fill="#CEEEBA"/>
<path fill-rule="evenodd" clip-rule="evenodd" d="M226.173 288.989C224.54 294.494 219.64 289.397 218.006 287.358C216.373 285.523 213.515 284.707 212.902 287.766C212.29 290.62 206.981 290.008 203.102 288.785C199.222 287.562 199.222 288.785 199.222 293.678C199.222 298.571 191.464 288.785 188.605 284.911C185.747 281.037 181.459 275.533 178.805 274.921C176.151 274.309 169.413 267.581 166.146 266.154C162.879 264.931 159.408 261.873 157.366 259.426C155.325 256.776 152.875 254.941 149.199 253.31C145.729 251.679 145.32 250.455 145.933 246.174C146.545 241.893 143.074 238.019 141.441 237.407C139.807 236.795 138.174 236.795 138.582 234.553C138.991 232.31 136.949 232.718 134.09 231.291C131.232 230.067 128.578 225.174 127.353 219.67C126.128 214.165 120.615 211.514 118.982 209.883C117.348 208.252 115.511 203.971 115.715 199.282C116.123 194.388 113.469 191.534 112.244 189.291C111.019 187.049 108.773 183.175 107.344 181.952C106.119 180.729 106.323 172.573 105.71 169.311C105.098 166.049 101.831 159.321 99.7891 156.467C97.7474 153.612 95.2972 150.962 95.2972 148.719C95.2972 146.477 93.2555 144.846 90.3971 142.195C87.5386 139.545 87.1302 138.729 83.8634 138.933C80.5966 139.341 78.3507 135.671 78.9632 132.817C79.5758 129.962 76.309 123.438 75.4923 119.157C74.4714 114.875 72.6338 112.633 73.2464 105.497C73.8589 98.361 62.8334 92.8562 59.975 91.2252C57.1165 89.5942 57.1165 87.3515 53.8497 87.9631C50.5829 88.5748 50.3787 87.9631 49.9704 85.1088C49.562 82.2545 42.8243 67.9829 43.4368 65.7402C44.0493 63.4975 38.945 59.0122 37.3116 55.7501C35.6782 52.488 33.0239 50.6531 30.1654 50.2453C27.307 49.8376 25.061 49.022 23.6318 45.1483C22.4068 41.2746 19.7525 36.9931 15.4648 34.7504C11.1771 32.5078 5.66442 23.7409 4.84772 19.6633C3.82684 15.3818 1.58091 11.3042 1.58091 11.3042C1.58091 11.3042 -1.68589 5.79949 1.17256 2.33353C4.03101 -1.13243 7.70616 -0.520768 12.198 2.74131C16.6899 6.00339 14.8523 9.46935 34.8614 10.8965C39.3533 11.3043 39.7617 13.1392 44.6618 12.9353C49.562 12.5276 51.3996 14.5663 53.4414 17.4206C55.2789 20.275 58.5458 22.3138 57.9332 25.5758C57.3207 28.8379 58.3416 31.4884 60.5875 31.0806C62.8334 30.6729 64.8752 32.1 63.4459 34.3427C62.2209 36.5854 59.5666 40.4591 64.671 42.0901C69.7754 43.7212 71.2046 44.7405 74.6756 48.8181C78.1466 53.0996 84.0676 58.8083 85.0885 61.0509C86.1094 63.2936 90.1929 67.779 94.0722 69.8178C97.9515 71.6527 97.339 73.2838 97.339 74.7109C97.339 75.9342 98.9724 77.5652 100.81 76.9536C102.852 76.342 103.668 78.7885 104.689 81.4389C105.71 84.0894 108.977 91.8368 111.835 94.0795C114.694 96.3222 116.327 97.5455 116.123 92.8562C115.715 87.9631 118.165 84.701 120.615 88.5747C123.269 92.4484 123.473 95.9144 123.882 98.361C124.29 100.604 125.924 103.458 130.415 104.885C134.907 106.108 142.053 113.652 142.666 116.506C143.278 119.361 146.954 126.904 151.445 128.739C155.937 130.574 161.858 133.224 157.366 136.487C152.875 139.749 150.22 139.749 150.833 140.972C151.445 142.195 158.592 141.38 163.696 137.098C168.8 132.817 172.475 131.593 175.742 136.69C179.009 141.787 179.213 144.846 176.151 148.923C172.884 153.205 170.638 153.205 168.8 153.409C166.759 153.816 165.942 154.632 166.554 156.875C167.167 159.117 167.575 160.341 166.554 162.379C165.533 164.418 166.146 164.622 168.596 165.641C170.842 166.661 175.13 168.292 176.763 170.127C178.396 172.166 178.805 172.166 180.642 171.758C182.684 171.35 183.909 174.408 186.563 174.408C189.218 174.408 190.851 175.02 191.055 179.301C191.464 183.583 191.055 185.418 192.28 186.641C193.505 187.864 193.505 189.495 191.872 190.515C190.239 191.534 192.28 194.388 193.914 196.02C195.547 197.651 199.835 197.854 198.201 201.524C196.568 204.99 194.935 209.272 196.976 209.679C199.018 210.087 199.631 209.068 199.835 207.029C200.243 204.99 198.814 204.175 203.714 204.786C208.614 205.398 215.761 205.194 217.598 207.029C219.64 208.864 220.865 209.883 221.069 211.514C221.477 213.145 224.336 214.369 224.336 217.427C224.336 220.281 228.215 222.32 228.215 222.32C228.215 222.32 232.707 223.543 232.095 225.786C231.482 228.029 230.869 228.029 228.828 229.66C226.786 231.291 226.173 232.922 226.582 237.815C226.99 242.708 227.603 245.97 226.582 248.824C225.561 251.679 225.969 253.31 227.194 256.98C228.419 260.446 228.215 265.746 228.624 270.64C229.032 274.717 227.807 283.484 226.173 288.989Z" fill="#CEEEBA"/>
<path fill-rule="evenodd" clip-rule="evenodd" d="M639.425 113.651C642.283 112.02 642.896 109.37 642.283 107.943C641.671 106.312 641.875 104.477 642.692 102.846C643.304 101.215 641.671 98.9721 638.2 100.195C634.729 101.419 632.279 107.535 629.42 109.574C626.562 111.409 622.274 115.69 620.028 117.729C617.782 119.564 613.903 122.214 610.228 120.991C606.757 119.768 593.69 119.972 592.669 122.011C591.648 123.846 588.789 123.03 587.768 120.787C586.748 118.545 582.256 117.525 578.376 117.525C574.497 117.525 563.472 115.69 562.247 113.04C561.022 110.389 559.592 111.205 557.142 112.02C554.488 113.04 546.117 110.186 545.504 115.894C544.892 121.807 540.604 124.049 538.358 119.768C536.112 115.486 533.866 116.302 533.866 118.545C533.866 120.787 527.945 125.884 527.129 129.554C526.108 133.02 526.72 134.651 525.087 135.671C523.453 136.69 524.066 137.302 525.087 138.933C526.108 140.564 525.699 145.457 521.82 144.437C517.941 143.418 515.695 147.088 519.166 148.311C522.637 149.534 523.045 152.185 522.432 154.428C521.82 156.67 522.841 158.913 524.066 160.952C525.291 162.99 526.924 166.456 522.841 165.233C518.553 164.01 518.553 166.253 518.349 168.495C517.941 170.738 512.02 177.262 512.836 180.728C514.061 185.825 511.203 189.699 512.428 192.349C513.653 195 513.04 196.835 511.407 197.854C509.774 198.873 508.14 199.893 508.753 202.747C509.365 205.601 508.344 209.271 505.894 211.106C503.24 213.145 502.627 215.592 504.261 217.834C505.894 220.077 505.282 222.931 503.853 224.358C502.627 225.582 504.465 228.232 504.465 230.475C504.465 232.717 506.711 234.756 508.957 231.494C511.203 228.232 515.899 224.562 514.878 231.902C513.857 238.426 515.899 245.766 517.532 246.785C519.166 247.805 519.166 251.678 518.553 254.125C517.941 256.775 517.328 264.115 517.532 266.358C517.941 268.6 516.92 274.105 515.491 276.756C514.265 279.406 512.836 284.503 518.349 287.153C523.862 289.804 526.516 286.746 527.129 286.134C527.741 285.522 533.866 282.872 536.112 284.299C538.358 285.522 540.604 282.26 537.337 278.794C534.07 275.328 534.683 268.396 536.725 265.542C538.766 262.688 536.112 254.533 535.5 252.698C534.887 250.659 534.887 245.97 536.521 240.057C538.154 234.145 533.05 233.329 535.908 229.659C538.766 226.193 526.516 219.669 534.683 215.388C542.85 211.106 553.059 207.232 553.059 213.757C553.059 220.281 548.363 224.562 550.813 230.883C553.671 238.222 557.959 244.542 561.43 246.989C564.901 249.639 564.697 251.27 563.063 252.902C561.43 254.533 561.43 257.183 562.042 258.814C562.655 260.445 563.063 263.707 565.513 265.542C568.168 267.377 572.864 269.824 575.518 268.804C578.172 267.785 576.131 265.338 575.518 263.299C574.905 261.465 579.397 251.678 583.685 252.29C587.973 252.902 594.302 251.27 587.973 247.805C581.439 244.339 575.11 238.834 575.722 233.533C576.335 228.436 576.743 224.766 579.601 223.135C582.46 221.504 580.827 219.261 579.193 219.261C577.56 219.261 576.335 215.795 576.947 213.757C577.56 211.922 574.701 210.494 573.068 210.902C571.435 211.31 567.963 208.66 567.147 206.621C566.534 204.786 560.001 202.339 558.776 200.097C557.551 197.854 553.875 194.592 554.896 192.349C555.917 190.107 557.755 191.33 559.797 193.98C561.838 196.631 566.126 192.961 567.555 191.33C571.026 187.048 575.926 188.475 579.806 183.175C583.072 178.893 587.564 174.204 587.973 171.146C588.381 168.291 596.14 162.99 595.323 166.864C594.71 170.738 600.223 174 601.244 167.476C602.265 160.952 597.977 158.709 595.731 159.321C593.485 159.932 586.748 157.486 587.564 161.156C588.585 165.029 584.093 163.398 581.643 163.398C579.397 163.398 575.518 162.99 576.131 166.049C576.743 168.903 571.639 168.903 570.005 168.699C568.372 168.291 566.126 170.33 564.901 168.699C563.676 167.068 561.634 168.699 561.634 171.553C561.634 174.408 556.121 180.524 551.63 181.544C547.138 182.563 540.604 181.136 540.604 177.67C540.604 174.204 536.521 170.126 533.866 167.68C529.579 163.806 530.395 153.816 528.966 152.185C527.741 150.554 526.924 148.923 529.374 147.088C531.62 145.253 532.641 137.098 532.845 135.059C533.254 133.224 539.583 125.68 546.117 128.942C552.65 132.205 559.797 124.049 564.901 127.108C570.005 129.962 585.318 128.942 587.973 128.331C590.627 127.719 593.894 127.923 595.119 131.593C596.344 135.059 603.286 136.486 609.003 134.447C614.924 132.408 622.274 131.797 626.766 125.069C631.666 118.137 636.566 115.283 639.425 113.651Z" fill="#CEEEBA"/>
<path fill-rule="evenodd" clip-rule="evenodd" d="M594.714 353.407C595.327 351.164 593.693 349.126 592.06 347.902C590.427 346.679 588.793 348.31 590.835 350.757C592.877 353.407 589.814 356.261 586.343 357.892C582.872 359.523 577.359 360.747 578.584 358.3C579.81 355.65 576.543 356.261 574.093 357.281C571.438 358.3 567.355 356.873 565.926 359.116C564.701 361.358 562.046 359.116 562.455 357.281C562.863 355.242 558.575 355.65 555.309 356.058C552.042 356.465 542.446 356.261 539.383 358.3C537.137 359.931 533.258 358.3 533.258 358.3C533.258 358.3 529.787 357.281 529.787 362.174C529.787 367.067 532.441 369.31 534.891 367.679C537.545 366.048 542.241 367.067 545.508 366.048C548.775 365.028 551.021 365.436 552.042 366.455C553.063 367.475 558.575 367.679 562.455 366.455C566.334 365.232 569.601 364.62 570.622 366.048C571.643 367.679 582.668 365.028 587.772 362.582C592.877 359.931 592.06 359.32 593.898 357.077C594.918 355.854 594.102 355.65 594.714 353.407Z" fill="#CEEEBA"/>
<path fill-rule="evenodd" clip-rule="evenodd" d="M549.378 386.031C548.153 384.197 546.316 381.954 543.457 382.769C539.17 383.993 542.232 378.488 535.29 378.896C528.553 379.303 527.532 379.303 525.49 379.303C523.448 379.303 518.752 381.954 516.506 382.565C514.26 383.177 510.585 388.07 516.506 387.459C522.427 386.847 523.244 389.09 525.49 388.478C527.736 387.866 529.778 388.886 532.636 391.944C535.495 395.206 539.782 396.837 541.62 398.468C543.662 400.099 547.541 401.119 550.399 397.856C553.258 394.594 554.891 392.963 552.033 390.721C549.378 388.478 550.808 388.07 549.378 386.031Z" fill="#CEEEBA"/>
<path fill-rule="evenodd" clip-rule="evenodd" d="M601.447 354.431C603.693 353.208 603.489 351.78 600.835 352.188C598.18 352.596 598.18 352.8 598.18 354.023C598.385 355.45 599.201 355.654 601.447 354.431Z" fill="#CEEEBA"/>
<path fill-rule="evenodd" clip-rule="evenodd" d="M598.995 359.73C601.037 359.119 601.241 356.468 598.587 357.488C595.933 358.507 593.687 361.769 595.933 361.769C598.383 361.565 596.953 360.342 598.995 359.73Z" fill="#CEEEBA"/>
<path fill-rule="evenodd" clip-rule="evenodd" d="M617.779 353.82C620.024 353.208 620.637 350.966 617.166 351.577C613.695 352.189 613.695 351.17 612.266 352.597C611.041 353.82 607.366 350.966 605.732 354.228C604.099 357.49 603.69 361.567 606.345 360.344C608.999 359.121 611.857 360.752 612.47 358.102C613.287 355.451 615.533 354.432 617.779 353.82Z" fill="#CEEEBA"/>
<path fill-rule="evenodd" clip-rule="evenodd" d="M643.302 353.209C645.956 352.597 648.202 347.296 643.71 348.723C639.218 349.947 632.685 346.889 632.685 350.354C632.685 353.82 629.418 357.082 635.339 355.655C641.056 353.82 640.647 353.82 643.302 353.209Z" fill="#CEEEBA"/>
<path fill-rule="evenodd" clip-rule="evenodd" d="M624.521 354.432C621.663 353.82 621.254 357.898 623.909 357.694C627.38 357.286 627.175 356.063 628.4 354.432C629.625 352.801 629.625 352.393 626.971 353.412C624.521 354.432 626.154 354.839 624.521 354.432Z" fill="#CEEEBA"/>
<path fill-rule="evenodd" clip-rule="evenodd" d="M678.828 338.936C681.686 338.324 681.074 335.673 678.419 335.673C675.765 335.673 673.928 335.062 672.294 336.285C670.661 337.508 668.415 337.304 665.761 336.897C663.106 336.489 660.86 338.528 660.248 340.363C659.635 342.198 661.269 343.625 663.719 341.586C666.373 339.547 669.232 341.994 670.457 342.809C671.682 343.829 673.723 342.401 674.336 341.178C675.357 340.159 675.969 339.547 678.828 338.936Z" fill="#CEEEBA"/>
<path fill-rule="evenodd" clip-rule="evenodd" d="M389.518 317.53C386.251 316.918 380.738 317.53 378.493 319.568C376.247 321.403 376.451 324.665 381.147 323.85C385.639 322.83 386.251 325.481 387.68 326.5C388.905 327.52 394.827 326.908 397.072 325.889C399.318 324.869 400.748 325.685 403.606 322.423C405.648 320.18 412.998 321.199 407.077 318.141C404.014 316.306 392.785 318.141 389.518 317.53Z" fill="#CEEEBA"/>
<path fill-rule="evenodd" clip-rule="evenodd" d="M421.161 349.535C418.915 349.535 411.36 352.797 419.119 354.428C426.877 356.059 425.244 359.321 427.49 361.156C429.736 362.991 433.003 364.01 436.27 360.748C439.536 357.486 444.436 355.651 439.74 353.001C435.249 350.351 434.84 344.234 431.573 347.904C428.715 351.574 423.406 349.535 421.161 349.535Z" fill="#CEEEBA"/>
<path fill-rule="evenodd" clip-rule="evenodd" d="M460.973 351.576C458.115 346.683 450.561 355.858 450.969 358.712C451.377 362.994 439.943 366.46 447.498 368.498C454.848 370.537 453.623 367.887 457.298 367.887C460.769 367.887 462.811 366.256 464.036 361.77C465.261 357.285 466.078 355.654 463.628 354.023C461.382 352.188 463.015 354.635 460.973 351.576Z" fill="#CEEEBA"/>
<path fill-rule="evenodd" clip-rule="evenodd" d="M478.533 358.301C474.654 357.078 467.508 359.932 467.303 363.398C466.895 366.864 461.995 369.922 466.078 372.776C471.999 377.058 473.837 370.738 477.308 371.757C483.842 373.592 484.046 365.233 489.354 366.252C494.459 367.272 498.542 360.544 490.579 362.379C485.067 363.602 486.292 359.116 482.412 359.524C478.533 359.932 482.412 359.728 478.533 358.301Z" fill="#CEEEBA"/>
<path fill-rule="evenodd" clip-rule="evenodd" d="M492.212 350.353C490.987 347.498 482.208 348.518 486.291 353.615C490.579 358.712 496.908 361.77 496.704 365.236C496.296 368.702 501.809 368.702 504.054 367.071C506.3 365.44 511.405 369.925 510.18 365.44C508.955 360.954 510.588 362.789 513.038 363.197C515.692 363.605 515.284 360.954 513.447 358.915C511.405 356.877 512.221 352.391 509.567 353.003C506.913 353.615 505.688 354.226 505.075 356.469C504.463 358.712 502.217 356.469 502.217 354.634C502.217 352.799 500.175 352.799 497.725 353.411C495.071 354.226 493.437 353.207 492.212 350.353Z" fill="#CEEEBA"/>
<path fill-rule="evenodd" clip-rule="evenodd" d="M1000 328.332L996.325 240.052L988.566 203.354C986.729 203.762 983.462 203.762 982.441 201.111C981.42 198.461 979.174 197.237 976.928 197.849C974.682 198.461 971.824 194.995 968.149 196.626C964.678 198.257 952.019 194.995 941.606 186.636C931.193 178.277 927.722 177.665 926.701 178.48C925.681 179.5 923.435 180.519 921.597 177.869C919.555 175.218 917.718 176.849 912.205 178.48C906.692 180.111 903.834 182.354 904.446 187.451C905.059 192.548 900.975 192.956 899.342 194.179C897.708 195.402 894.442 198.665 891.992 196.014C889.337 193.364 888.521 194.995 886.887 197.034C885.254 199.072 880.966 202.13 877.087 207.024C873.208 211.917 872.595 211.917 868.92 219.053C865.449 226.188 856.669 222.926 854.015 221.295C851.361 219.664 849.319 217.218 851.157 214.771C854.423 210.49 852.177 212.121 850.136 211.305C848.094 210.286 846.665 208.451 848.911 203.965C851.157 199.48 845.644 199.684 845.44 202.334C845.031 204.985 845.031 207.431 842.785 207.228C840.539 206.82 840.131 197.237 839.519 194.587C838.906 191.936 835.027 183.985 837.477 179.092C840.131 174.199 835.843 167.471 834.006 162.578C831.964 157.685 826.86 162.578 821.96 156.869C817.059 150.957 807.463 151.976 804.809 151.364C802.155 150.753 795.008 150.141 791.946 153.607C788.679 157.073 782.962 158.704 779.9 158.5C777.041 158.092 772.753 164.413 773.774 168.286C774.795 172.16 773.366 173.383 771.733 173.995C770.099 174.607 768.874 179.908 771.733 180.519C774.591 181.131 776.837 181.131 776.633 178.277C776.224 175.422 778.266 173.791 781.533 176.034C784.8 178.277 787.862 180.111 789.904 178.277C793.171 175.626 794.192 178.684 790.925 181.131C787.658 183.781 790.517 197.645 797.05 194.995C801.95 193.16 802.155 196.626 805.83 195.402C808.484 194.383 814.201 196.422 816.447 195.402C818.693 194.383 821.551 194.791 823.185 194.791C824.818 194.791 827.472 193.568 828.697 191.937C829.922 190.305 835.027 189.898 833.189 193.975C832.168 196.218 830.331 196.83 832.781 198.257C835.435 199.48 833.189 201.519 831.147 202.131C829.106 202.742 827.881 204.781 827.676 206.412C827.268 208.043 824.205 209.062 824.41 206.82C824.818 204.577 815.018 199.072 811.547 203.354C808.076 207.635 802.155 207.228 799.909 205.393C797.663 203.354 791.129 206.616 789.496 209.674C787.862 212.528 788.883 214.159 793.988 212.936C799.092 211.713 802.155 215.587 802.971 217.829C803.992 220.072 806.442 219.664 808.076 220.684C809.709 221.703 810.934 224.965 809.301 227.412C807.667 230.062 808.688 233.324 809.505 236.79C810.526 240.256 808.688 247.8 812.568 246.576C816.447 245.353 825.226 236.79 821.551 233.936C818.08 231.081 817.672 227.819 821.551 229.043C825.431 230.266 827.064 226.8 827.064 223.538C827.064 220.276 826.656 217.625 828.697 215.79C830.739 213.956 832.577 216.198 830.331 219.053C828.085 221.907 829.718 229.043 830.943 230.266C832.168 231.489 831.352 235.363 834.414 235.363C837.681 235.363 837.069 235.975 837.273 238.217C837.681 240.46 842.173 244.334 842.173 239.848C842.173 235.363 847.073 235.975 846.052 239.441C845.031 242.906 849.115 243.11 848.707 241.072C848.094 237.81 850.952 240.664 850.544 242.703C850.136 244.538 853.198 246.576 856.057 248.615C858.915 250.45 861.978 252.081 866.47 250.45C870.962 248.819 884.029 253.1 890.154 256.974C896.279 260.848 909.346 266.964 910.163 270.634C911.184 274.1 913.634 274.508 916.901 275.12C920.168 275.731 922.822 278.382 923.026 280.217C923.435 282.051 926.497 280.828 929.151 279.809C931.806 278.789 938.135 280.828 933.439 281.848C928.539 282.867 925.068 283.071 928.539 286.333C932.01 289.595 928.947 296.935 934.052 301.624C939.156 306.109 943.852 310.595 936.706 309.779C929.56 308.76 933.439 313.653 934.664 315.692C935.889 317.527 939.156 319.565 943.648 319.973C948.14 320.381 949.977 322.624 945.894 322.624C940.789 322.624 937.318 322.827 943.648 327.517C948.14 330.779 944.873 335.672 943.24 339.138C941.606 342.604 938.952 349.536 943.648 347.905C948.14 346.274 949.161 341.177 951.407 344.031C953.652 346.885 958.757 344.031 961.411 343.623C964.065 343.215 965.699 343.215 966.924 341.992C968.149 340.769 969.782 340.973 969.578 343.215C969.17 345.458 973.049 350.963 978.358 355.244C983.462 359.526 986.116 362.584 987.137 365.234C988.158 367.885 990.608 369.516 992.242 368.7L1000 328.332Z" fill="#CEEEBA"/>
<path fill-rule="evenodd" clip-rule="evenodd" d="M505.691 116.3C503.445 115.893 501.199 110.388 498.545 110.388C495.89 110.388 495.278 106.922 495.686 105.495C496.095 104.271 494.461 102.233 490.786 102.844C487.315 103.456 482.415 98.5629 481.802 95.5047C481.19 92.2426 477.31 89.5921 473.431 88.9805C469.143 88.3688 466.693 85.7184 472.206 84.0874C477.719 82.4563 480.577 86.3301 483.844 85.3106C487.111 84.2912 489.969 83.6796 489.765 82.4563C489.357 81.233 483.844 79.1942 482.619 76.9516C481.394 74.7089 475.881 73.0778 474.248 74.7089C470.368 78.5826 470.368 72.8739 472.206 71.2429C477.31 66.9614 474.86 65.7381 472.206 66.3498C469.552 66.9614 469.552 65.1265 473.839 63.6994C478.74 62.0683 473.839 59.214 471.798 59.8256C469.756 60.4373 465.877 53.9131 470.777 53.9131C475.677 53.9131 472.819 50.4472 476.698 52.6899C480.577 54.9325 480.577 50.0394 476.698 46.1657C472.819 42.2919 472.819 41.6803 474.656 40.6609C463.222 39.0298 452.605 38.0105 445.867 37.195C436.884 35.9717 435.863 42.2919 435.25 47.1851C434.638 52.0782 429.329 63.0877 423.612 69.2041C417.691 75.3205 417.487 88.9805 416.466 93.4659C415.445 97.9512 411.974 107.33 404.216 107.941C396.457 108.553 388.086 114.058 385.432 113.038C382.777 112.019 376.04 112.019 376.04 112.019C376.04 112.019 374.202 110.592 373.181 107.941C372.16 105.291 364.81 103.048 363.381 108.349C362.156 113.446 361.339 112.834 356.643 118.135C351.743 123.232 343.372 122.009 337.451 121.601C331.529 121.194 332.346 121.194 327.65 124.863C323.158 128.329 318.258 119.97 313.766 116.504C309.274 113.038 310.295 108.145 307.233 105.495C304.374 102.844 306.416 101.417 305.599 92.6503C305.599 92.0386 305.395 90.8154 305.191 90.2038C302.537 91.427 296.82 97.3396 296.411 99.5822C296.003 101.825 296.003 103.048 293.145 103.864C290.286 104.475 289.674 108.145 289.878 112.019C290.286 115.893 289.265 123.64 288.244 125.883C287.223 128.125 287.019 130.776 287.836 133.019C288.857 135.261 287.836 139.747 291.715 141.174C295.595 142.397 297.228 146.678 293.961 149.941C290.694 153.203 292.328 153.203 292.94 155.038C293.553 156.872 291.715 159.319 295.186 160.542C298.657 161.766 304.987 165.639 306.824 169.309C308.866 172.775 314.175 178.688 313.97 181.338C313.562 183.989 314.379 186.231 311.929 187.454C309.683 188.678 310.295 191.736 312.337 191.94C314.379 192.348 314.583 194.794 313.562 196.425C312.541 198.056 313.562 199.076 315.195 199.28C316.829 199.687 316.829 201.93 315.604 204.377C314.379 207.027 314.991 219.668 319.891 219.668C324.792 219.668 326.017 218.648 327.038 221.91C328.058 225.172 330.304 224.153 334.796 222.93C339.288 221.706 345.209 221.706 347.047 221.91C349.088 222.318 349.293 219.26 349.088 217.425C348.68 215.59 350.109 211.308 351.334 211.716C352.559 212.124 352.968 220.483 352.355 226.192C351.743 232.104 349.088 241.075 352.968 238.832C356.847 236.59 360.726 232.104 365.831 232.716C370.935 233.328 372.773 230.881 375.631 229.862L375.835 228.23C375.835 228.23 378.081 227.007 378.286 224.765C378.694 222.522 380.531 222.114 381.552 224.153C382.573 225.988 385.023 225.988 387.678 223.745C390.332 221.502 392.578 223.337 391.149 225.988C389.924 228.638 392.374 231.085 399.52 228.842C406.666 226.599 409.32 227.619 410.749 228.23C412.383 228.842 415.854 224.968 414.22 229.862C412.791 233.939 414.22 239.852 412.587 241.89C410.954 243.725 411.362 249.638 417.079 245.356C423 241.075 430.759 238.221 434.842 236.59C439.13 234.959 440.763 231.493 441.376 229.454C441.988 227.415 445.867 223.949 444.847 220.075C443.826 216.202 445.459 215.182 446.888 217.425C448.113 219.668 451.176 213.143 448.93 210.697C446.684 208.046 448.93 206.415 450.972 207.435C453.014 208.454 455.26 201.522 455.26 199.687C455.26 197.648 453.014 197.037 450.359 198.464C447.705 199.687 445.255 196.833 448.726 195.814C452.197 194.794 450.768 189.289 449.134 189.697C447.501 190.105 447.501 186.843 449.134 185.212C450.768 183.581 448.726 179.299 453.014 176.445C457.301 173.591 466.898 165.843 466.693 162.173C466.285 158.707 465.06 155.445 468.735 155.445C472.206 155.445 470.777 150.96 469.96 147.29C469.348 143.824 469.552 129.756 472.614 127.31C475.473 124.659 477.719 121.193 480.373 121.193C483.027 121.193 482.619 118.951 480.986 116.912C479.352 115.077 480.577 112.631 484.252 116.504C487.723 120.378 487.723 121.397 490.173 122.009C492.419 122.621 494.461 123.844 496.911 123.028C499.566 122.009 500.178 122.417 501.811 123.028C503.445 123.64 504.057 120.786 505.078 119.766C506.303 118.951 507.937 116.504 505.691 116.3Z" fill="#CEEEBA"/>
<path d="M54.375 16.75C49.6185 16.75 45.75 20.6125 45.75 25.36C45.75 27.1225 46.281 28.819 47.274 30.2463C47.3235 30.3318 47.3737 30.4143 47.433 30.4945L53.7285 38.779C53.8995 38.9688 54.129 39.0737 54.375 39.0737C54.618 39.0737 54.849 38.968 55.0492 38.7438L61.3155 30.4938C61.377 30.4113 61.4303 30.3212 61.4587 30.2687C62.4642 28.8295 63.0023 27.1157 63 25.36C63 20.6125 59.1307 16.75 54.375 16.75ZM54.375 28.4387C53.5589 28.4384 52.7763 28.1143 52.1987 27.5378C51.6211 26.9612 51.2958 26.1791 51.294 25.363C51.3157 24.5604 51.6498 23.7979 52.2251 23.2379C52.8005 22.6779 53.5717 22.3645 54.3746 22.3645C55.1775 22.3645 55.9487 22.6779 56.5241 23.2379C57.0995 23.7979 57.4336 24.5604 57.4552 25.363C57.4533 26.1788 57.1279 26.9606 56.5506 27.537C55.9732 28.1134 55.1908 28.4374 54.375 28.438V28.4387Z" fill="#0B9A2E"/>
<path d="M148.375 121.75C143.618 121.75 139.75 125.612 139.75 130.36C139.75 132.122 140.281 133.819 141.274 135.246C141.324 135.332 141.374 135.414 141.433 135.495L147.728 143.779C147.899 143.969 148.129 144.074 148.375 144.074C148.618 144.074 148.849 143.968 149.049 143.744L155.316 135.494C155.377 135.411 155.43 135.321 155.459 135.269C156.464 133.83 157.002 132.116 157 130.36C157 125.612 153.131 121.75 148.375 121.75ZM148.375 133.439C147.559 133.438 146.776 133.114 146.199 132.538C145.621 131.961 145.296 131.179 145.294 130.363C145.316 129.56 145.65 128.798 146.225 128.238C146.801 127.678 147.572 127.365 148.375 127.365C149.178 127.365 149.949 127.678 150.524 128.238C151.099 128.798 151.434 129.56 151.455 130.363C151.453 131.179 151.128 131.961 150.551 132.537C149.973 133.113 149.191 133.437 148.375 133.438V133.439Z" fill="#0B9A2E"/>
<path d="M217.375 245.75C212.618 245.75 208.75 249.612 208.75 254.36C208.75 256.122 209.281 257.819 210.274 259.246C210.324 259.332 210.374 259.414 210.433 259.495L216.728 267.779C216.899 267.969 217.129 268.074 217.375 268.074C217.618 268.074 217.849 267.968 218.049 267.744L224.316 259.494C224.377 259.411 224.43 259.321 224.459 259.269C225.464 257.83 226.002 256.116 226 254.36C226 249.612 222.131 245.75 217.375 245.75ZM217.375 257.439C216.559 257.438 215.776 257.114 215.199 256.538C214.621 255.961 214.296 255.179 214.294 254.363C214.316 253.56 214.65 252.798 215.225 252.238C215.801 251.678 216.572 251.365 217.375 251.365C218.178 251.365 218.949 251.678 219.524 252.238C220.099 252.798 220.434 253.56 220.455 254.363C220.453 255.179 220.128 255.961 219.551 256.537C218.973 257.113 218.191 257.437 217.375 257.438V257.439Z" fill="#0B9A2E"/>
<path d="M251.375 278.75C246.618 278.75 242.75 282.612 242.75 287.36C242.75 289.122 243.281 290.819 244.274 292.246C244.324 292.332 244.374 292.414 244.433 292.495L250.728 300.779C250.899 300.969 251.129 301.074 251.375 301.074C251.618 301.074 251.849 300.968 252.049 300.744L258.316 292.494C258.377 292.411 258.43 292.321 258.459 292.269C259.464 290.83 260.002 289.116 260 287.36C260 282.612 256.131 278.75 251.375 278.75ZM251.375 290.439C250.559 290.438 249.776 290.114 249.199 289.538C248.621 288.961 248.296 288.179 248.294 287.363C248.316 286.56 248.65 285.798 249.225 285.238C249.801 284.678 250.572 284.365 251.375 284.365C252.178 284.365 252.949 284.678 253.524 285.238C254.099 285.798 254.434 286.56 254.455 287.363C254.453 288.179 254.128 288.961 253.551 289.537C252.973 290.113 252.191 290.437 251.375 290.438V290.439Z" fill="#0B9A2E"/>
<path d="M285.375 296.75C280.618 296.75 276.75 300.612 276.75 305.36C276.75 307.122 277.281 308.819 278.274 310.246C278.324 310.332 278.374 310.414 278.433 310.495L284.728 318.779C284.899 318.969 285.129 319.074 285.375 319.074C285.618 319.074 285.849 318.968 286.049 318.744L292.316 310.494C292.377 310.411 292.43 310.321 292.459 310.269C293.464 308.83 294.002 307.116 294 305.36C294 300.612 290.131 296.75 285.375 296.75ZM285.375 308.439C284.559 308.438 283.776 308.114 283.199 307.538C282.621 306.961 282.296 306.179 282.294 305.363C282.316 304.56 282.65 303.798 283.225 303.238C283.801 302.678 284.572 302.365 285.375 302.365C286.178 302.365 286.949 302.678 287.524 303.238C288.099 303.798 288.434 304.56 288.455 305.363C288.453 306.179 288.128 306.961 287.551 307.537C286.973 308.113 286.191 308.437 285.375 308.438V308.439Z" fill="#0B9A2E"/>
<path d="M306.375 316.75C301.618 316.75 297.75 320.612 297.75 325.36C297.75 327.122 298.281 328.819 299.274 330.246C299.324 330.332 299.374 330.414 299.433 330.495L305.728 338.779C305.899 338.969 306.129 339.074 306.375 339.074C306.618 339.074 306.849 338.968 307.049 338.744L313.316 330.494C313.377 330.411 313.43 330.321 313.459 330.269C314.464 328.83 315.002 327.116 315 325.36C315 320.612 311.131 316.75 306.375 316.75ZM306.375 328.439C305.559 328.438 304.776 328.114 304.199 327.538C303.621 326.961 303.296 326.179 303.294 325.363C303.316 324.56 303.65 323.798 304.225 323.238C304.801 322.678 305.572 322.365 306.375 322.365C307.178 322.365 307.949 322.678 308.524 323.238C309.099 323.798 309.434 324.56 309.455 325.363C309.453 326.179 309.128 326.961 308.551 327.537C307.973 328.113 307.191 328.437 306.375 328.438V328.439Z" fill="#0B9A2E"/>
<path d="M332.375 295.75C327.618 295.75 323.75 299.612 323.75 304.36C323.75 306.122 324.281 307.819 325.274 309.246C325.324 309.332 325.374 309.414 325.433 309.495L331.728 317.779C331.899 317.969 332.129 318.074 332.375 318.074C332.618 318.074 332.849 317.968 333.049 317.744L339.316 309.494C339.377 309.411 339.43 309.321 339.459 309.269C340.464 307.83 341.002 306.116 341 304.36C341 299.612 337.131 295.75 332.375 295.75ZM332.375 307.439C331.559 307.438 330.776 307.114 330.199 306.538C329.621 305.961 329.296 305.179 329.294 304.363C329.316 303.56 329.65 302.798 330.225 302.238C330.801 301.678 331.572 301.365 332.375 301.365C333.178 301.365 333.949 301.678 334.524 302.238C335.099 302.798 335.434 303.56 335.455 304.363C335.453 305.179 335.128 305.961 334.551 306.537C333.973 307.113 333.191 307.437 332.375 307.438V307.439Z" fill="#0B9A2E"/>
<path d="M357.375 311.75C352.618 311.75 348.75 315.612 348.75 320.36C348.75 322.122 349.281 323.819 350.274 325.246C350.324 325.332 350.374 325.414 350.433 325.495L356.728 333.779C356.899 333.969 357.129 334.074 357.375 334.074C357.618 334.074 357.849 333.968 358.049 333.744L364.316 325.494C364.377 325.411 364.43 325.321 364.459 325.269C365.464 323.83 366.002 322.116 366 320.36C366 315.612 362.131 311.75 357.375 311.75ZM357.375 323.439C356.559 323.438 355.776 323.114 355.199 322.538C354.621 321.961 354.296 321.179 354.294 320.363C354.316 319.56 354.65 318.798 355.225 318.238C355.801 317.678 356.572 317.365 357.375 317.365C358.178 317.365 358.949 317.678 359.524 318.238C360.099 318.798 360.434 319.56 360.455 320.363C360.453 321.179 360.128 321.961 359.551 322.537C358.973 323.113 358.191 323.437 357.375 323.438V323.439Z" fill="#0B9A2E"/>
<path d="M397.375 327.75C392.618 327.75 388.75 331.612 388.75 336.36C388.75 338.122 389.281 339.819 390.274 341.246C390.324 341.332 390.374 341.414 390.433 341.495L396.728 349.779C396.899 349.969 397.129 350.074 397.375 350.074C397.618 350.074 397.849 349.968 398.049 349.744L404.316 341.494C404.377 341.411 404.43 341.321 404.459 341.269C405.464 339.83 406.002 338.116 406 336.36C406 331.612 402.131 327.75 397.375 327.75ZM397.375 339.439C396.559 339.438 395.776 339.114 395.199 338.538C394.621 337.961 394.296 337.179 394.294 336.363C394.316 335.56 394.65 334.798 395.225 334.238C395.801 333.678 396.572 333.365 397.375 333.365C398.178 333.365 398.949 333.678 399.524 334.238C400.099 334.798 400.434 335.56 400.455 336.363C400.453 337.179 400.128 337.961 399.551 338.537C398.973 339.113 398.191 339.437 397.375 339.438V339.439Z" fill="#0B9A2E"/>
<path d="M431.375 331.75C426.618 331.75 422.75 335.612 422.75 340.36C422.75 342.122 423.281 343.819 424.274 345.246C424.324 345.332 424.374 345.414 424.433 345.495L430.728 353.779C430.899 353.969 431.129 354.074 431.375 354.074C431.618 354.074 431.849 353.968 432.049 353.744L438.316 345.494C438.377 345.411 438.43 345.321 438.459 345.269C439.464 343.83 440.002 342.116 440 340.36C440 335.612 436.131 331.75 431.375 331.75ZM431.375 343.439C430.559 343.438 429.776 343.114 429.199 342.538C428.621 341.961 428.296 341.179 428.294 340.363C428.316 339.56 428.65 338.798 429.225 338.238C429.801 337.678 430.572 337.365 431.375 337.365C432.178 337.365 432.949 337.678 433.524 338.238C434.099 338.798 434.434 339.56 434.455 340.363C434.453 341.179 434.128 341.961 433.551 342.537C432.973 343.113 432.191 343.437 431.375 343.438V343.439Z" fill="#0B9A2E"/>
<path d="M480.375 339.75C475.618 339.75 471.75 343.612 471.75 348.36C471.75 350.122 472.281 351.819 473.274 353.246C473.324 353.332 473.374 353.414 473.433 353.495L479.728 361.779C479.899 361.969 480.129 362.074 480.375 362.074C480.618 362.074 480.849 361.968 481.049 361.744L487.316 353.494C487.377 353.411 487.43 353.321 487.459 353.269C488.464 351.83 489.002 350.116 489 348.36C489 343.612 485.131 339.75 480.375 339.75ZM480.375 351.439C479.559 351.438 478.776 351.114 478.199 350.538C477.621 349.961 477.296 349.179 477.294 348.363C477.316 347.56 477.65 346.798 478.225 346.238C478.801 345.678 479.572 345.365 480.375 345.365C481.178 345.365 481.949 345.678 482.524 346.238C483.099 346.798 483.434 347.56 483.455 348.363C483.453 349.179 483.128 349.961 482.551 350.537C481.973 351.113 481.191 351.437 480.375 351.438V351.439Z" fill="#0B9A2E"/>
<path d="M533.375 224.75C528.618 224.75 524.75 228.612 524.75 233.36C524.75 235.122 525.281 236.819 526.274 238.246C526.324 238.332 526.374 238.414 526.433 238.495L532.728 246.779C532.899 246.969 533.129 247.074 533.375 247.074C533.618 247.074 533.849 246.968 534.049 246.744L540.316 238.494C540.377 238.411 540.43 238.321 540.459 238.269C541.464 236.83 542.002 235.116 542 233.36C542 228.612 538.131 224.75 533.375 224.75ZM533.375 236.439C532.559 236.438 531.776 236.114 531.199 235.538C530.621 234.961 530.296 234.179 530.294 233.363C530.316 232.56 530.65 231.798 531.225 231.238C531.801 230.678 532.572 230.365 533.375 230.365C534.178 230.365 534.949 230.678 535.524 231.238C536.099 231.798 536.434 232.56 536.455 233.363C536.453 234.179 536.128 234.961 535.551 235.537C534.973 236.113 534.191 236.437 533.375 236.438V236.439Z" fill="#0B9A2E"/>
<path d="M423.375 196.75C418.618 196.75 414.75 200.612 414.75 205.36C414.75 207.122 415.281 208.819 416.274 210.246C416.324 210.332 416.374 210.414 416.433 210.495L422.728 218.779C422.899 218.969 423.129 219.074 423.375 219.074C423.618 219.074 423.849 218.968 424.049 218.744L430.316 210.494C430.377 210.411 430.43 210.321 430.459 210.269C431.464 208.83 432.002 207.116 432 205.36C432 200.612 428.131 196.75 423.375 196.75ZM423.375 208.439C422.559 208.438 421.776 208.114 421.199 207.538C420.621 206.961 420.296 206.179 420.294 205.363C420.316 204.56 420.65 203.798 421.225 203.238C421.801 202.678 422.572 202.365 423.375 202.365C424.178 202.365 424.949 202.678 425.524 203.238C426.099 203.798 426.434 204.56 426.455 205.363C426.453 206.179 426.128 206.961 425.551 207.537C424.973 208.113 424.191 208.437 423.375 208.438V208.439Z" fill="#0B9A2E"/>
<path d="M451.375 149.75C446.618 149.75 442.75 153.612 442.75 158.36C442.75 160.122 443.281 161.819 444.274 163.246C444.324 163.332 444.374 163.414 444.433 163.495L450.728 171.779C450.899 171.969 451.129 172.074 451.375 172.074C451.618 172.074 451.849 171.968 452.049 171.744L458.316 163.494C458.377 163.411 458.43 163.321 458.459 163.269C459.464 161.83 460.002 160.116 460 158.36C460 153.612 456.131 149.75 451.375 149.75ZM451.375 161.439C450.559 161.438 449.776 161.114 449.199 160.538C448.621 159.961 448.296 159.179 448.294 158.363C448.316 157.56 448.65 156.798 449.225 156.238C449.801 155.678 450.572 155.365 451.375 155.365C452.178 155.365 452.949 155.678 453.524 156.238C454.099 156.798 454.434 157.56 454.455 158.363C454.453 159.179 454.128 159.961 453.551 160.537C452.973 161.113 452.191 161.437 451.375 161.438V161.439Z" fill="#0B9A2E"/>
<path d="M572.375 197.75C567.618 197.75 563.75 201.612 563.75 206.36C563.75 208.122 564.281 209.819 565.274 211.246C565.324 211.332 565.374 211.414 565.433 211.495L571.728 219.779C571.899 219.969 572.129 220.074 572.375 220.074C572.618 220.074 572.849 219.968 573.049 219.744L579.316 211.494C579.377 211.411 579.43 211.321 579.459 211.269C580.464 209.83 581.002 208.116 581 206.36C581 201.612 577.131 197.75 572.375 197.75ZM572.375 209.439C571.559 209.438 570.776 209.114 570.199 208.538C569.621 207.961 569.296 207.179 569.294 206.363C569.316 205.56 569.65 204.798 570.225 204.238C570.801 203.678 571.572 203.365 572.375 203.365C573.178 203.365 573.949 203.678 574.524 204.238C575.099 204.798 575.434 205.56 575.455 206.363C575.453 207.179 575.128 207.961 574.551 208.537C573.973 209.113 573.191 209.437 572.375 209.438V209.439Z" fill="#0B9A2E"/>
</svg>
