<svg width="348" height="80" viewBox="0 0 348 80" fill="none" xmlns="http://www.w3.org/2000/svg">
<path d="M18.6289 34V5.81641H30.7578C37.0664 5.81641 41.1289 9.76172 41.1289 15.7969V15.8359C41.1289 21.8711 37.0664 25.7383 30.7578 25.7383H25.7969V34H18.6289ZM29.0391 11.3047H25.7969V20.3477H29.0391C32.0859 20.3477 33.8828 18.7656 33.8828 15.8359V15.7969C33.8828 12.8672 32.0859 11.3047 29.0391 11.3047ZM52.9844 34V11.5781H44.8594V5.81641H68.2773V11.5781H60.1328V34H52.9844ZM74.2344 34.6445C71.9102 34.6445 70.3281 33.0234 70.3281 30.7969C70.3281 28.5898 71.9102 26.9688 74.2344 26.9688C76.5781 26.9688 78.1602 28.5898 78.1602 30.7969C78.1602 33.0234 76.5781 34.6445 74.2344 34.6445ZM87.4961 34V24.3125L77.7891 5.81641H85.4258L90.9141 17.3203H91.2852L96.7344 5.81641H104.371L94.6641 24.3125V34H87.4961ZM119.879 34.7617C111.363 34.7617 105.973 29.0781 105.973 19.918V19.8789C105.973 10.7383 111.402 5.05469 119.879 5.05469C128.336 5.05469 133.766 10.7383 133.766 19.8789V19.918C133.766 29.0781 128.355 34.7617 119.879 34.7617ZM119.879 28.8242C123.824 28.8242 126.461 25.3477 126.461 19.918V19.8789C126.461 14.4688 123.824 10.9922 119.879 10.9922C115.914 10.9922 113.258 14.4688 113.258 19.8789V19.918C113.258 25.3477 115.875 28.8242 119.879 28.8242ZM139.098 34V5.81641H144.82L156.578 21.6758H156.93V5.81641H163.727V34H158.043L146.246 17.9844H145.895V34H139.098ZM168.492 34L177.965 5.81641H186.734L196.207 34H188.688L186.949 27.8086H177.75L176.012 34H168.492ZM182.164 12.0273L179.195 22.6523H185.504L182.535 12.0273H182.164ZM211.461 34.7617C204.43 34.7617 200.016 31.5586 199.723 26.3242L199.703 25.9727H206.539L206.559 26.1484C206.754 27.8867 208.688 29.1367 211.578 29.1367C214.371 29.1367 216.207 27.8672 216.207 26.0703V26.0508C216.207 24.4688 214.957 23.7266 211.656 23.082L208.746 22.5156C202.789 21.3633 200.211 18.5508 200.211 14.1562V14.1367C200.23 8.60938 204.918 5.05469 211.402 5.05469C218.473 5.05469 222.32 8.62891 222.75 13.6094L222.77 13.8438H216.129L216.09 13.6094C215.797 11.8516 214.039 10.6797 211.441 10.6797C208.863 10.6797 207.34 11.832 207.34 13.5117V13.5312C207.34 15.1328 208.629 16.0117 211.676 16.6172L214.586 17.1836C220.582 18.3555 223.316 20.7578 223.316 25.3086V25.3281C223.316 31.0898 218.883 34.7617 211.461 34.7617ZM228.746 34V5.81641H235.914V34H228.746ZM242.574 34V5.81641H248.297L260.055 21.6758H260.406V5.81641H267.203V34H261.52L249.723 17.9844H249.371V34H242.574ZM273.863 34V5.81641H285.699C294.098 5.81641 298.883 10.8164 298.883 19.6055V19.6445C298.883 28.8828 294.176 34 285.699 34H273.863ZM281.031 28.2383H284.41C289.059 28.2383 291.578 25.3477 291.578 19.7812V19.7422C291.578 14.5078 288.922 11.5781 284.41 11.5781H281.031V28.2383ZM316.793 34.7617C308.277 34.7617 302.887 29.0781 302.887 19.918V19.8789C302.887 10.7383 308.316 5.05469 316.793 5.05469C325.25 5.05469 330.68 10.7383 330.68 19.8789V19.918C330.68 29.0781 325.27 34.7617 316.793 34.7617ZM316.793 28.8242C320.738 28.8242 323.375 25.3477 323.375 19.918V19.8789C323.375 14.4688 320.738 10.9922 316.793 10.9922C312.828 10.9922 310.172 14.4688 310.172 19.8789V19.918C310.172 25.3477 312.789 28.8242 316.793 28.8242ZM3.64844 74V45.8164H10.8164V74H3.64844ZM17.4766 74V45.8164H23.1992L34.957 61.6758H35.3086V45.8164H42.1055V74H36.4219L24.625 57.9844H24.2734V74H17.4766ZM55.3477 74V51.5781H47.2227V45.8164H70.6406V51.5781H62.4961V74H55.3477ZM75.7578 74V45.8164H88.0039C94.9375 45.8164 98.668 49.293 98.668 55.1133V55.1523C98.668 58.5898 96.9297 61.7344 93.8828 63.082L99.5078 74H91.4609L86.6367 64.1367H82.9258V74H75.7578ZM82.9258 59.2344H87.2031C89.7812 59.2344 91.3633 57.6914 91.3633 55.25V55.2109C91.3633 52.8281 89.7422 51.2266 87.1641 51.2266H82.9258V59.2344ZM102.496 74L111.969 45.8164H120.738L130.211 74H122.691L120.953 67.8086H111.754L110.016 74H102.496ZM116.168 52.0273L113.199 62.6523H119.508L116.539 52.0273H116.168ZM144.781 74V45.8164H156.91C163.219 45.8164 167.281 49.7617 167.281 55.7969V55.8359C167.281 61.8711 163.219 65.7383 156.91 65.7383H151.949V74H144.781ZM155.191 51.3047H151.949V60.3477H155.191C158.238 60.3477 160.035 58.7656 160.035 55.8359V55.7969C160.035 52.8672 158.238 51.3047 155.191 51.3047ZM172.555 74V45.8164H184.801C191.734 45.8164 195.465 49.293 195.465 55.1133V55.1523C195.465 58.5898 193.727 61.7344 190.68 63.082L196.305 74H188.258L183.434 64.1367H179.723V74H172.555ZM179.723 59.2344H184C186.578 59.2344 188.16 57.6914 188.16 55.25V55.2109C188.16 52.8281 186.539 51.2266 183.961 51.2266H179.723V59.2344ZM199.293 74L208.766 45.8164H217.535L227.008 74H219.488L217.75 67.8086H208.551L206.812 74H199.293ZM212.965 52.0273L209.996 62.6523H216.305L213.336 52.0273H212.965ZM235.426 74V51.5781H227.301V45.8164H250.719V51.5781H242.574V74H235.426ZM251.051 74L260.523 45.8164H269.293L278.766 74H271.246L269.508 67.8086H260.309L258.57 74H251.051ZM264.723 52.0273L261.754 62.6523H268.062L265.094 52.0273H264.723ZM283.492 74V45.8164H291.656L298.473 64.9375H298.844L305.641 45.8164H313.785V74H307.496V56.0508H307.086L300.68 74H296.598L290.191 56.0508H289.801V74H283.492ZM318.551 74L328.023 45.8164H336.793L346.266 74H338.746L337.008 67.8086H327.809L326.07 74H318.551ZM332.223 52.0273L329.254 62.6523H335.562L332.594 52.0273H332.223Z" fill="#0B9A2E"/>
</svg>
