<svg width="93" height="160" viewBox="0 0 93 160" fill="none" xmlns="http://www.w3.org/2000/svg">
<path d="M19.7855 18.6749C23.9142 5.46374 36.9591 -0.48112 44.8854 0.840417C52.1512 2.05183 55.4538 1.501 60.738 4.80391C66.0222 8.10683 73.2878 15.3723 73.2878 25.9407C73.2878 31.8858 72.6273 42.0569 75.2695 48.3985C78.8471 56.9853 76.5904 66.2326 73.2878 69.5353C70.4255 67.5537 63.2478 63.0621 57.4352 60.9484C51.6226 58.8348 33.4362 64.0309 25.0695 66.8932L8.55646 91.9931C-3.9935 80.7642 0.630333 66.2322 7.23554 55.0033C13.3601 44.5915 16.4829 29.2433 19.7855 18.6749Z" fill="#031F28"/>
<path d="M85.8376 111.148H57.4351C41.1422 111.368 8.55634 111.544 8.55634 110.487C8.55634 109.43 8.9967 95.5154 9.21687 88.69C9.43704 85.6075 10.8021 78.2537 14.5011 73.4979C18.2 68.7422 27.051 65.7918 31.0142 64.9111L69.3245 67.5532C71.5263 68.8743 76.4582 71.9127 78.5719 73.4979C80.6856 75.0832 82.535 81.2041 83.1956 84.0663C85.3092 91.4642 85.8376 105.203 85.8376 111.148Z" fill="#9ED47C"/>
<path d="M8.55645 91.9931C-3.9935 80.7642 0.630333 66.2322 7.23554 55.0033C13.3601 44.5915 16.4829 29.2433 19.7855 18.6749C23.9142 5.46374 36.9591 -0.48112 44.8854 0.840417C52.1512 2.05183 55.4538 1.501 60.738 4.80391C66.0222 8.10683 73.2878 15.3723 73.2878 25.9407C73.2878 31.8858 72.6273 42.0569 75.2695 48.3985C78.8471 56.9853 76.5904 66.2326 73.2878 69.5353" stroke="#031F28" stroke-width="1.32105" stroke-linecap="round"/>
<path d="M40.9222 55.6638C44.0927 56.1922 44.445 57.6454 44.2248 58.3059C44.2248 59.6271 44.0926 62.4015 43.5642 62.9299C42.9037 63.5904 40.9221 62.2694 39.6011 64.2509C38.5442 65.8362 39.1607 71.0764 39.6011 73.4983C41.8028 74.1588 46.8668 75.6119 49.5089 76.1404C52.8116 76.8009 60.0773 76.1404 60.7378 75.4798C61.3984 74.8193 62.0589 72.8377 61.3984 69.5351C60.7378 66.2325 59.4169 64.2509 57.4353 63.5904C57.2152 63.5904 56.7748 63.3262 56.7748 62.2694V58.3062C56.7748 57.4255 57.1711 55.532 58.7564 55.0036C60.7379 54.3431 66.0221 52.3615 67.3432 47.0773C68.6642 41.7931 67.3432 34.5274 66.0221 33.2063C64.9653 32.1495 59.8572 28.8028 57.4352 27.2616C55.6738 25.9405 51.4905 22.5058 48.8484 19.3353C48.408 18.2344 47.131 16.1648 45.5458 16.6932C43.5642 17.3537 40.9221 18.6751 39.6011 19.9962C36.959 22.4181 31.4106 28.8472 30.3537 35.1882L30.3537 35.8484C21.7669 33.2063 21.7669 40.4719 23.7485 42.454C25.2889 43.9948 28.152 44.2148 29.6932 43.7744C31.6748 51.7007 36.959 55.0033 40.9222 55.6638Z" fill="#F7D9C4"/>
<ellipse cx="1.98157" cy="2.6421" rx="1.98157" ry="2.6421" transform="matrix(-1 0 0 1 44.8853 32.5459)" fill="#031F28"/>
<path d="M44.8853 29.0784C42.9037 28.4179 41.5826 28.4176 38.9405 29.0783" stroke="#031F28" stroke-width="1.32105" stroke-linecap="round"/>
<path d="M62.0588 29.0784C60.0773 28.4179 58.7562 28.4176 56.1141 29.0783" stroke="#031F28" stroke-width="1.32105" stroke-linecap="round"/>
<ellipse cx="1.98157" cy="2.6421" rx="1.98157" ry="2.6421" transform="matrix(-1 0 0 1 60.7378 32.5459)" fill="#031F28"/>
<path d="M53.4719 47.738C51.4904 48.3986 48.8483 49.0591 44.8851 46.417" stroke="#031F28" stroke-width="1.32105" stroke-linecap="round"/>
<path d="M52.8114 39.8115C54.1325 40.472 54.1324 41.7931 53.4719 42.4536C53.2517 42.6738 52.8114 43.1141 51.4903 43.1141" stroke="#031F28" stroke-width="1.32105" stroke-linecap="round"/>
<path d="M69.985 70.8561C67.3429 63.9867 60.5175 61.3886 57.4351 60.9482H56.7746V62.9298L57.4351 63.5903C60.0771 64.6472 61.3982 68.8745 61.3982 70.8561L59.4167 88.0297L54.1325 111.148H56.7746L57.4351 110.488C61.3982 106.524 69.9851 85.3876 70.6456 83.4061C71.3061 81.4245 70.6456 80.9291 69.985 80.764C69.1043 80.5438 67.0788 79.9713 66.0219 79.4429C64.9651 78.9145 64.8297 78.2991 65.3614 78.1219C66.0219 77.9017 67.8714 77.3292 69.985 76.8008C72.0987 76.2724 70.8657 72.6175 69.985 70.8561Z" fill="#CEEEBA"/>
<path d="M57.4351 60.9482C60.5175 61.3886 67.3429 63.9867 69.985 70.8561C70.8657 72.6175 72.0987 76.2724 69.985 76.8008C67.8714 77.3292 66.0219 77.9017 65.3614 78.1219C64.8297 78.2991 64.9651 78.9145 66.0219 79.4429C67.0788 79.9713 69.1043 80.5438 69.985 80.764C70.6456 80.9291 71.3061 81.4245 70.6456 83.4061C69.9851 85.3876 61.3982 106.524 57.4351 110.488" stroke="#031F28" stroke-width="1.32105" stroke-linecap="round"/>
<path d="M29.0324 80.7637C30.0893 83.4058 43.1236 101.9 49.5087 110.487L50.1692 111.148H54.1323L51.4902 105.864L46.206 93.9742L40.9218 78.7821C40.2613 76.5804 38.9403 71.5164 38.9403 68.8743C38.9403 65.5717 38.9403 62.9296 42.9034 62.9296L44.2245 60.2875L43.5639 59.627C38.9403 59.627 36.9587 60.2875 34.3166 62.269C31.9534 64.0414 25.7298 70.1953 25.7298 71.5164C25.7298 72.5732 26.8252 73.2026 27.7114 73.498C29.0324 73.9383 33.6561 75.4795 34.3166 75.4795C34.9771 75.4795 34.757 76.1401 34.3166 76.1401L29.6929 77.4611C28.3719 78.1216 27.9756 78.1216 29.0324 80.7637Z" fill="#CEEEBA"/>
<path d="M31.6748 64.251C27.4915 65.3518 16.5183 69.6962 13.8407 74.1588C9.87752 80.7641 9.21699 89.3509 8.55647 100.58C8.3622 103.882 8.55647 109.827 8.55647 110.488" stroke="#031F28" stroke-width="1.32105" stroke-linecap="round"/>
<path d="M68.0035 66.8936C70.4254 67.7743 78.9682 72.9704 80.5535 76.1409C82.535 80.104 85.8376 95.9566 85.8376 111.149" stroke="#031F28" stroke-width="1.32105" stroke-linecap="round"/>
<path d="M74.6087 93.3145C75.4894 96.6171 76.9866 104.808 75.9297 111.149" stroke="#031F28" stroke-width="1.32105" stroke-linecap="round"/>
<path d="M23.7483 90.6719C23.0878 92.8736 23.0878 105.203 23.7483 111.148" stroke="#031F28" stroke-width="1.32105" stroke-linecap="round"/>
<path d="M30.3534 35.8489C32.335 23.299 45.2537 14.1114 47.5271 17.3576C52.1507 23.9598 58.756 28.5868 65.3612 32.55C66.2419 32.9903 66.6823 33.8674 67.3428 36.5131C68.0025 39.1554 69.9849 51.7052 58.756 55.0078C58.0954 55.228 56.7744 56.3288 56.7744 58.9709C56.7744 62.2736 56.1139 65.5762 58.756 67.5578" stroke="#031F28" stroke-width="1.32105" stroke-linecap="round"/>
<path d="M49.5088 110.487C43.1237 101.9 30.0894 83.4058 29.0325 80.7637C27.9757 78.1216 28.372 78.1216 29.6931 77.4611L34.3167 76.1401C34.7571 76.1401 34.9773 75.4795 34.3167 75.4795C33.6562 75.4795 29.0325 73.9383 27.7115 73.498C26.8254 73.2026 25.7299 72.5732 25.7299 71.5164C25.7299 70.1953 31.9536 64.0414 34.3167 62.269C36.9588 60.2875 38.9404 59.627 43.5641 59.627" stroke="#031F28" stroke-width="1.32105" stroke-linecap="round"/>
<path d="M40.9221 66.2327C41.8028 66.0125 43.6963 64.119 44.2247 58.3064C44.4449 57.6459 44.0926 56.1927 40.9221 55.6643C36.959 55.0038 31.6747 51.7012 29.6932 43.7749C28.1519 44.2152 25.2888 43.9953 23.7485 42.4545C21.7669 40.4723 21.7669 33.2068 30.3537 35.8489" stroke="#031F28" stroke-width="1.32105" stroke-linecap="round"/>
<circle cx="3.30262" cy="3.30262" r="2.6421" transform="matrix(-1 0 0 1 31.6748 41.793)" fill="#FFEB53" stroke="#031F28" stroke-width="1.32105"/>
<path d="M60.7378 66.8933C58.7562 71.517 54.7931 72.838 50.8299 72.838C43.5642 72.838 39.601 69.5354 38.9405 65.5723" stroke="#031F28" stroke-width="1.32105"/>
<path d="M57.4352 99.2585L54.1326 109.827C54.0697 110.028 53.666 109.911 53.472 109.827L48.8484 100.58L40.9221 78.7822L39.601 73.498C42.0229 74.1586 47.6594 75.6117 50.8299 76.1401C54.0004 76.6686 58.7562 75.92 60.7378 75.4796V80.7638L57.4352 99.2585Z" fill="#FFFCE4"/>
<path d="M56.7747 63.5908C58.5361 63.5908 61.9268 65.4403 61.3983 72.8382C60.7378 82.0855 58.0957 98.5986 54.1325 110.488" stroke="#031F28" stroke-width="1.32105" stroke-linecap="round"/>
<path d="M42.9034 62.9299C41.142 62.4895 37.8834 63.3262 38.9403 70.1956C40.2613 78.7824 48.8481 102.561 54.1323 110.487" stroke="#031F28" stroke-width="1.32105" stroke-linecap="round"/>
<path d="M60.7378 75.4802C57.6553 76.3609 49.2447 77.8581 40.2616 74.1592" stroke="#031F28" stroke-width="1.32105" stroke-linecap="round"/>
<circle cx="1.98157" cy="1.98157" r="1.32105" transform="matrix(-1 0 0 1 52.8115 70.8564)" fill="#FFEB53" stroke="#031F28" stroke-width="1.32105"/>
<path d="M40.2615 40.472L38.9404 39.8115" stroke="#F2808D" stroke-width="1.32105" stroke-linecap="round"/>
<path d="M64.6624 40.2306L63.4831 39.3415" stroke="#F2808D" stroke-width="1.32105" stroke-linecap="round"/>
<path d="M36.959 41.1332L35.6379 40.4727" stroke="#F2808D" stroke-width="1.32105" stroke-linecap="round"/>
<path d="M61.2948 40.2824L60.1154 39.3932" stroke="#F2808D" stroke-width="1.32105" stroke-linecap="round"/>
<path d="M6.68065 119.214L9.88065 119.954C9.44065 121.394 8.90065 122.774 8.26065 124.094C7.62064 125.414 6.90731 126.628 6.12064 127.734C5.33398 128.828 4.49398 129.768 3.60064 130.554C3.42731 130.354 3.18064 130.114 2.86064 129.834C2.54064 129.554 2.20731 129.281 1.86064 129.014C1.52731 128.734 1.23398 128.514 0.980645 128.354C1.87398 127.701 2.68064 126.901 3.40064 125.954C4.13398 125.008 4.77398 123.961 5.32064 122.814C5.88064 121.668 6.33398 120.468 6.68065 119.214ZM13.0206 127.574C13.434 128.708 13.9873 129.788 14.6806 130.814C15.374 131.841 16.194 132.761 17.1406 133.574C18.1006 134.374 19.1673 135.021 20.3406 135.514C20.114 135.714 19.8606 135.968 19.5806 136.274C19.314 136.581 19.0606 136.901 18.8206 137.234C18.5806 137.568 18.3806 137.874 18.2206 138.154C16.9273 137.501 15.7806 136.694 14.7806 135.734C13.7806 134.774 12.9006 133.674 12.1406 132.434C11.394 131.194 10.7473 129.848 10.2006 128.394L13.0206 127.574ZM6.96065 122.134H13.1806V125.074H5.50064L6.96065 122.134ZM12.0806 122.134H12.6606L13.2006 121.994L15.3406 122.954C14.7006 125.501 13.8006 127.774 12.6406 129.774C11.4806 131.774 10.1206 133.481 8.56064 134.894C7.00064 136.294 5.30064 137.401 3.46064 138.214C3.31398 137.961 3.10731 137.661 2.84064 137.314C2.57398 136.981 2.29398 136.654 2.00064 136.334C1.70731 136.014 1.43398 135.768 1.18064 135.594C2.98064 134.888 4.60731 133.941 6.06064 132.754C7.52731 131.568 8.77398 130.141 9.80064 128.474C10.8273 126.794 11.5873 124.894 12.0806 122.774V122.134ZM20.8806 123.934H39.7006V126.734H20.8806V123.934ZM25.2006 134.254H38.9806V137.054H25.2006V134.254ZM30.0406 129.314H35.1006V132.014H30.0406V129.314ZM23.6806 119.854H26.6806V138.214H23.6806V119.854ZM28.8406 119.434H31.7806V132.754H28.8406V119.434ZM33.8406 119.614H36.7806V132.754H33.8406V119.614ZM53.9644 126.334H60.6444V128.774H53.9644V126.334ZM61.0244 126.334H68.1444V128.754H61.0244V126.334ZM56.2244 124.234H58.8044V138.194H56.2244V124.234ZM62.9444 124.234H65.5444V138.194H62.9444V124.234ZM55.9844 127.894L57.7444 128.354C57.5444 129.301 57.2977 130.248 57.0044 131.194C56.7111 132.128 56.3711 132.994 55.9844 133.794C55.5977 134.594 55.1577 135.274 54.6644 135.834C54.4644 135.528 54.1844 135.181 53.8244 134.794C53.4777 134.394 53.1577 134.081 52.8644 133.854C53.3311 133.414 53.7644 132.874 54.1644 132.234C54.5644 131.594 54.9177 130.901 55.2244 130.154C55.5444 129.394 55.7977 128.641 55.9844 127.894ZM62.8444 127.894L64.4644 128.354C64.2644 129.274 64.0111 130.201 63.7044 131.134C63.3977 132.068 63.0511 132.941 62.6644 133.754C62.2911 134.568 61.8777 135.261 61.4244 135.834C61.2244 135.541 60.9444 135.208 60.5844 134.834C60.2377 134.448 59.9244 134.148 59.6444 133.934C60.0977 133.481 60.5244 132.928 60.9244 132.274C61.3377 131.608 61.7044 130.901 62.0244 130.154C62.3577 129.394 62.6311 128.641 62.8444 127.894ZM65.9044 127.734C66.1044 128.441 66.3511 129.161 66.6444 129.894C66.9511 130.628 67.2844 131.321 67.6444 131.974C68.0044 132.628 68.3711 133.194 68.7444 133.674C68.4511 133.888 68.1177 134.188 67.7444 134.574C67.3711 134.961 67.0711 135.321 66.8444 135.654C66.4977 135.068 66.1644 134.361 65.8444 133.534C65.5377 132.708 65.2577 131.834 65.0044 130.914C64.7511 129.994 64.5377 129.094 64.3644 128.214L65.9044 127.734ZM58.4444 128.654C58.5777 128.748 58.7644 128.908 59.0044 129.134C59.2577 129.361 59.5244 129.608 59.8044 129.874C60.0844 130.141 60.3377 130.388 60.5644 130.614C60.8044 130.828 60.9777 130.981 61.0844 131.074L59.6644 133.394C59.5044 133.154 59.3111 132.881 59.0844 132.574C58.8711 132.268 58.6377 131.961 58.3844 131.654C58.1444 131.334 57.9111 131.034 57.6844 130.754C57.4577 130.474 57.2644 130.234 57.1044 130.034L58.4444 128.654ZM58.0444 119.214H61.0844V122.994H58.0444V119.214ZM52.4244 121.114H68.1844V123.874H52.4244V121.114ZM50.6644 121.114H53.5844V126.714C53.5844 127.528 53.5577 128.441 53.5044 129.454C53.4511 130.454 53.3577 131.481 53.2244 132.534C53.0911 133.588 52.8977 134.608 52.6444 135.594C52.3911 136.568 52.0577 137.441 51.6444 138.214C51.4711 138.041 51.2311 137.834 50.9244 137.594C50.6177 137.368 50.3044 137.148 49.9844 136.934C49.6644 136.721 49.3911 136.568 49.1644 136.474C49.5111 135.781 49.7844 135.021 49.9844 134.194C50.1977 133.368 50.3511 132.521 50.4444 131.654C50.5377 130.774 50.5977 129.914 50.6244 129.074C50.6511 128.221 50.6644 127.434 50.6644 126.714V121.114ZM74.2844 125.894V127.034H83.0044V125.894H74.2844ZM74.2844 122.434V123.534H83.0044V122.434H74.2844ZM71.3844 119.874H86.0444V129.594H71.3844V119.874ZM69.4444 134.934H87.6444V137.634H69.4444V134.934ZM70.8044 130.954H86.6644V133.634H70.8044V130.954ZM77.3244 121.474H80.0644V128.914H80.2844V136.674H77.0844V128.914H77.3244V121.474Z" fill="#225E12"/>
<path d="M11.8126 155.186C11.8126 154.962 11.8126 154.642 11.8126 154.226C11.8126 153.8 11.8126 153.32 11.8126 152.786C11.8126 152.242 11.8126 151.677 11.8126 151.09C11.8126 150.493 11.8126 149.912 11.8126 149.346C11.8126 148.77 11.8126 148.237 11.8126 147.746C11.8126 147.256 11.8126 146.845 11.8126 146.514C11.8126 146.344 11.8073 146.146 11.7966 145.922C11.7966 145.698 11.786 145.474 11.7646 145.25C11.7433 145.026 11.7166 144.834 11.6846 144.674H14.0686C14.0366 144.92 14.0046 145.224 13.9726 145.586C13.9406 145.938 13.9246 146.248 13.9246 146.514C13.9246 146.834 13.9246 147.218 13.9246 147.666C13.9246 148.104 13.9246 148.578 13.9246 149.09C13.9246 149.592 13.9246 150.104 13.9246 150.626C13.9246 151.149 13.9246 151.661 13.9246 152.162C13.9246 152.664 13.9246 153.122 13.9246 153.538C13.9246 153.954 13.9246 154.317 13.9246 154.626C13.9246 154.946 13.9726 155.208 14.0686 155.41C14.1646 155.613 14.3566 155.757 14.6446 155.842C14.9433 155.928 15.386 155.97 15.9726 155.97C16.538 155.97 17.1033 155.949 17.6686 155.906C18.2446 155.853 18.8153 155.789 19.3806 155.714C19.946 155.629 20.49 155.533 21.0126 155.426L20.9486 157.602C20.5113 157.666 20.0153 157.725 19.4606 157.778C18.906 157.832 18.33 157.874 17.7326 157.906C17.146 157.938 16.5646 157.954 15.9886 157.954C15.082 157.954 14.3513 157.896 13.7966 157.778C13.242 157.672 12.8206 157.506 12.5326 157.282C12.2553 157.058 12.0633 156.77 11.9566 156.418C11.8606 156.066 11.8126 155.656 11.8126 155.186ZM21.8926 148.146C21.818 148.264 21.7273 148.408 21.6206 148.578C21.5246 148.738 21.4393 148.888 21.3646 149.026C21.194 149.357 20.9753 149.73 20.7086 150.146C20.4526 150.562 20.1753 150.989 19.8766 151.426C19.578 151.864 19.2686 152.28 18.9486 152.674C18.6393 153.069 18.3406 153.405 18.0526 153.682L16.2926 152.642C16.6446 152.333 16.986 151.981 17.3166 151.586C17.658 151.181 17.962 150.786 18.2286 150.402C18.4953 150.008 18.7033 149.677 18.8526 149.41C18.7033 149.432 18.442 149.485 18.0686 149.57C17.706 149.645 17.258 149.736 16.7246 149.842C16.1913 149.949 15.61 150.066 14.9806 150.194C14.3513 150.312 13.7166 150.434 13.0766 150.562C12.4366 150.69 11.818 150.818 11.2206 150.946C10.6233 151.064 10.0846 151.176 9.60464 151.282C9.12464 151.378 8.74064 151.458 8.45264 151.522L8.06864 149.426C8.37798 149.384 8.78331 149.325 9.28464 149.25C9.78598 149.165 10.346 149.069 10.9646 148.962C11.5833 148.845 12.2286 148.722 12.9006 148.594C13.5726 148.466 14.2393 148.338 14.9006 148.21C15.562 148.082 16.1806 147.965 16.7566 147.858C17.3326 147.741 17.834 147.64 18.2606 147.554C18.6873 147.458 19.0073 147.384 19.2206 147.33C19.4446 147.277 19.6526 147.224 19.8446 147.17C20.0366 147.106 20.2073 147.037 20.3566 146.962L21.8926 148.146ZM26.8366 145.154C27.114 145.346 27.4393 145.581 27.8126 145.858C28.186 146.136 28.57 146.44 28.9646 146.77C29.37 147.09 29.7486 147.405 30.1006 147.714C30.4526 148.024 30.7406 148.301 30.9646 148.546L29.3326 150.21C29.13 149.986 28.8633 149.72 28.5326 149.41C28.202 149.101 27.8446 148.781 27.4606 148.45C27.0766 148.12 26.698 147.805 26.3246 147.506C25.9513 147.208 25.6206 146.957 25.3326 146.754L26.8366 145.154ZM24.8366 155.81C25.6686 155.693 26.4526 155.528 27.1886 155.314C27.9246 155.101 28.6073 154.856 29.2366 154.578C29.866 154.301 30.442 154.013 30.9646 153.714C31.8713 153.17 32.7033 152.552 33.4606 151.858C34.218 151.165 34.8793 150.445 35.4446 149.698C36.01 148.941 36.458 148.205 36.7886 147.49L38.0366 149.746C37.6313 150.461 37.13 151.176 36.5326 151.89C35.946 152.605 35.2793 153.288 34.5326 153.938C33.786 154.578 32.9806 155.154 32.1166 155.666C31.5726 155.997 30.986 156.312 30.3566 156.61C29.7273 156.898 29.0606 157.154 28.3566 157.378C27.6633 157.613 26.938 157.794 26.1806 157.922L24.8366 155.81ZM45.5246 149.826C46.0153 150.104 46.5486 150.434 47.1246 150.818C47.7113 151.192 48.3033 151.581 48.9006 151.986C49.498 152.392 50.058 152.786 50.5806 153.17C51.114 153.554 51.562 153.896 51.9246 154.194L50.4046 156.002C50.0526 155.682 49.6153 155.314 49.0926 154.898C48.5806 154.472 48.026 154.04 47.4286 153.602C46.8313 153.154 46.2393 152.728 45.6526 152.322C45.0766 151.917 44.5593 151.57 44.1006 151.282L45.5246 149.826ZM53.0446 147.106C52.9486 147.256 52.8526 147.432 52.7566 147.634C52.6606 147.837 52.5806 148.04 52.5166 148.242C52.3566 148.733 52.138 149.282 51.8606 149.89C51.594 150.488 51.274 151.101 50.9006 151.73C50.5273 152.349 50.1006 152.957 49.6206 153.554C48.8633 154.493 47.9513 155.384 46.8846 156.226C45.8286 157.069 44.5326 157.784 42.9966 158.37L41.1406 156.754C42.2606 156.413 43.2313 156.008 44.0526 155.538C44.874 155.069 45.5833 154.568 46.1806 154.034C46.7886 153.501 47.3166 152.968 47.7646 152.434C48.1273 152.018 48.4686 151.554 48.7886 151.042C49.1193 150.52 49.402 150.002 49.6366 149.49C49.882 148.968 50.0526 148.504 50.1486 148.098H44.7406L45.4766 146.274H50.0206C50.2766 146.274 50.5273 146.258 50.7726 146.226C51.0286 146.194 51.242 146.152 51.4126 146.098L53.0446 147.106ZM47.7646 144.642C47.5726 144.92 47.3806 145.218 47.1886 145.538C47.0073 145.858 46.8686 146.104 46.7726 146.274C46.41 146.914 45.9513 147.597 45.3966 148.322C44.842 149.037 44.218 149.736 43.5246 150.418C42.842 151.101 42.1166 151.709 41.3486 152.242L39.6206 150.914C40.5593 150.328 41.354 149.714 42.0046 149.074C42.666 148.424 43.2153 147.8 43.6526 147.202C44.09 146.594 44.442 146.056 44.7086 145.586C44.8366 145.394 44.97 145.138 45.1086 144.818C45.258 144.488 45.37 144.189 45.4446 143.922L47.7646 144.642ZM55.8126 149.906C56.0046 149.917 56.25 149.933 56.5486 149.954C56.8473 149.965 57.1566 149.976 57.4766 149.986C57.8073 149.997 58.1113 150.002 58.3886 150.002C58.6553 150.002 58.986 150.002 59.3806 150.002C59.7753 150.002 60.202 150.002 60.6606 150.002C61.13 150.002 61.61 150.002 62.1006 150.002C62.602 150.002 63.098 150.002 63.5886 150.002C64.0793 150.002 64.5433 150.002 64.9806 150.002C65.418 150.002 65.8073 150.002 66.1486 150.002C66.5006 150.002 66.778 150.002 66.9806 150.002C67.354 150.002 67.706 149.992 68.0366 149.97C68.3673 149.938 68.6393 149.917 68.8526 149.906V152.418C68.6713 152.408 68.3993 152.392 68.0366 152.37C67.674 152.349 67.322 152.338 66.9806 152.338C66.778 152.338 66.5006 152.338 66.1486 152.338C65.7966 152.338 65.402 152.338 64.9646 152.338C64.5273 152.338 64.0633 152.338 63.5726 152.338C63.0926 152.338 62.602 152.338 62.1006 152.338C61.5993 152.338 61.114 152.338 60.6446 152.338C60.186 152.338 59.7593 152.338 59.3646 152.338C58.9806 152.338 58.6553 152.338 58.3886 152.338C57.93 152.338 57.4606 152.349 56.9806 152.37C56.5006 152.381 56.1113 152.397 55.8126 152.418V149.906ZM70.7726 151.282H85.2846V152.978H70.7726V151.282ZM74.5006 146.674H83.1566V148.162H74.5006V146.674ZM74.5006 148.978H83.1566V150.466H74.5006V148.978ZM71.4766 156.898C72.106 156.824 72.826 156.733 73.6366 156.626C74.458 156.509 75.3166 156.386 76.2126 156.258C77.1193 156.13 78.01 156.002 78.8846 155.874L78.9806 157.554C78.1593 157.682 77.3273 157.816 76.4846 157.954C75.642 158.093 74.8313 158.216 74.0526 158.322C73.274 158.44 72.5593 158.552 71.9086 158.658L71.4766 156.898ZM78.6926 151.762C79.2153 153.16 80.042 154.306 81.1726 155.202C82.3033 156.098 83.7753 156.712 85.5886 157.042C85.45 157.181 85.3006 157.352 85.1406 157.554C84.9913 157.757 84.8473 157.965 84.7086 158.178C84.57 158.392 84.458 158.589 84.3726 158.77C83.0606 158.461 81.93 158.013 80.9806 157.426C80.0313 156.85 79.226 156.125 78.5646 155.25C77.914 154.376 77.37 153.352 76.9326 152.178L78.6926 151.762ZM83.2366 152.77L84.7886 153.842C84.394 154.13 83.978 154.413 83.5406 154.69C83.114 154.957 82.682 155.208 82.2446 155.442C81.8073 155.677 81.402 155.885 81.0286 156.066L79.7486 155.074C80.122 154.882 80.522 154.658 80.9486 154.402C81.3753 154.136 81.786 153.858 82.1806 153.57C82.586 153.282 82.938 153.016 83.2366 152.77ZM73.4446 144.274H83.5886V145.842H75.4126V151.986H73.4446V144.274ZM73.4446 151.794H75.4126V157.106L73.4446 157.314V151.794Z" fill="#72BA5F"/>
</svg>
