<svg width="216" height="216" viewBox="0 0 216 216" fill="none" xmlns="http://www.w3.org/2000/svg">
<mask id="mask0_364_14969" style="mask-type:alpha" maskUnits="userSpaceOnUse" x="0" y="0" width="216" height="216">
<path d="M7 0.5H209C212.59 0.5 215.5 3.41015 215.5 7V209C215.5 212.59 212.59 215.5 209 215.5H7C3.41015 215.5 0.5 212.59 0.5 209V7L0.508789 6.66504C0.683123 3.23086 3.5225 0.5 7 0.5Z" fill="white" stroke="#C1C1C1"/>
</mask>
<g mask="url(#mask0_364_14969)">
<path d="M10.5 199L93 152" stroke="#031F28"/>
<path d="M14 154L77 130" stroke="#031F28"/>
<path d="M91 206.5L116.5 171" stroke="#031F28"/>
<path d="M199.5 81.5L210.5 77" stroke="#031F28"/>
<path d="M59 94.5L128.5 75L133 74L148 72.5H168L173 73.5L188 80L205 90V92.5L201.5 99.5L200 101L190 97.5L170.5 92L164.5 92.5L145.5 95.5L150 108L156.5 118.5L170.5 132L171 133.5L170.5 134.5L173 137L178 143.5L180 149L181 155L188 157.5L199.5 160L203.5 159.5L208 157L214.5 150L219.5 141.5L220 137.5L221 135.5L224 135L227.5 136.5L230.5 138.5L231.5 153L228.5 153.5L226.5 155.5L225 159L223 164L214 175.5L208 180.5L201 181L189 180L173.5 176.5L162 192L155.5 201.5L155 203.5L160.5 216.5H124.5L121 207L122 194.5L125.5 176L129.5 162H127L122 161.5L113 158L104.5 153L96 145L90 137L80.5 118H67.5L44.5 117L32.5 115.5L29 114L26 109.5L23 101L21.5 87.5L21 72.5L23 72L32.5 71.5L35.5 72.5L42 95.5L43.5 97L52.5 96.5L59 94.5Z" fill="#72BA5F"/>
<path d="M59 94.5L128.5 75L133 74L148 72.5H168L173 73.5L188 80L205 90V92.5L201.5 99.5L200 101L190 97.5L170.5 92L164.5 92.5L145.5 95.5L150 108L156.5 118.5L170.5 132L171 133.5L170.5 134.5L152 148.5L137 157.5L129.5 162H127L122 161.5L113 158L104.5 153L96 145L90 137L80.5 118H67.5L44.5 117L32.5 115.5L29 114L26 109.5L23 101L21.5 87.5L21 72.5L23 72L32.5 71.5L35.5 72.5L42 95.5L43.5 97L52.5 96.5L59 94.5Z" fill="#CEEEBA"/>
<path d="M109 101.5V97L88 103.5L89 105L92 108L95.5 109H101.5L106.5 106L109 101.5Z" fill="#E8C4AC"/>
<path d="M25 67L24 71.5L34.5 72L35 65L41 60L41.5 58.5L42 56.5L40.5 52.5L38.5 51L38 50.5L37 46.5L35 44H32.5L30 46H28L26 47.5L23 47L21.5 48L21 50L19 51.5L19.5 56L21 59L21.5 62L23.5 65L25 67Z" fill="#E8C4AC"/>
<path d="M205 92L201.5 100L206 102L205.5 105V108L210 112L212 114H213L216.5 115L218 114H219.5L221 112.5L222.5 111.5L224 108.5L225 106L224.5 102.5L220.5 98L213 94.5L205 92Z" fill="#E8C4AC"/>
<path d="M84 117.597C73.973 118.533 35.5298 117.934 30.0811 114.789C22.7027 110.531 21 88.9558 21 72.6694C21.5676 71.5462 36 70.7536 36 73" stroke="#031F28" stroke-linecap="round"/>
<path d="M24.5 71.5C24.707 69.875 25.2225 67.0167 24.7257 66.5833C24.1048 66.0417 22.2419 64.4167 21.621 62.25C21.1242 60.5167 21 59.3611 21 59" stroke="#031F28" stroke-linecap="round"/>
<path d="M34.5 72C34.3118 70.3333 33.8727 65.7778 35.2272 64.8889C36.9205 63.7778 42 59.8889 42 57.1111C42 54.3333 39.7424 51 38.6136 51C37.4848 51 32.8701 53.7778 30.1476 53.7778C28.4544 53.7778 27.7963 56.0388 28.4544 57.1111C28.9999 58 32.9696 58.7778 36.9204 57.1111" stroke="#031F28" stroke-linecap="round"/>
<path d="M27.7523 63C27.0031 61.7037 25.8042 58.8889 29.9999 58" stroke="#031F28" stroke-linecap="round"/>
<path d="M24 58.2881C23.1667 59.0248 22.3485 59.1532 21.5 58.8406C19.9999 58.2881 19 54.6812 19 52.2102C19 50.5525 20.6667 50 21 50" stroke="#031F28" stroke-linecap="round"/>
<path d="M59 94.7778C53.825 96.453 43.82 97.7932 42.9 96.453C41.98 95.1128 36 78.9563 36 73" stroke="#031F28"/>
<path d="M129.5 161.5C125.816 174.278 118.953 202.556 121.605 209.222C124.258 215.889 128.974 227.185 131 232" stroke="#031F28"/>
<path d="M170.553 135C174.393 137.794 181.843 146.512 180.922 159.029C179.77 174.676 155 197.588 155 202.618C155 206.641 163.449 222.549 167.673 230" stroke="#031F28"/>
<path d="M109 96.5C109.379 99.3266 109.5 107.5 100 109C94.2609 109.906 89.5 108 88 102.634" stroke="#031F28"/>
<path d="M80.5 117.5C81.0589 118.608 87.2486 135.246 95.5313 144.204C107.827 157.501 123.476 164.15 129.624 161.38C137.828 157.683 170.423 136.447 170.982 133.676C171.541 130.906 158.687 122.595 153.657 114.284C148.626 105.973 145.832 97.1081 145.832 96" stroke="#031F28"/>
<path d="M138.612 97.1223C144.411 95.8319 158.815 92.1463 170.038 92.1463C178.456 93.068 194.731 98.7867 199.782 100.999C201.128 100.999 205.955 92.1463 204.832 90.4883C203.71 88.8304 183.507 76.6662 173.967 73.8961C164.988 70.5829 132.616 73.3945 128 75" stroke="#031F28"/>
<path d="M181 155C186.25 157.066 197.412 160.69 202.812 159.788C209.562 158.662 219.688 142.887 219.688 140.634C219.688 138.38 219.688 135 223.625 135C226.775 135 239.188 145.141 245 150.211C241.25 148.333 233.75 145.141 233.75 147.394C233.75 150.211 236 153.591 233.75 153.591C231.5 153.591 227.562 151.338 225.312 158.098C223.062 164.859 214.062 176.69 208.438 180.07C203.938 182.774 182.938 178.943 173 176.69" stroke="#031F28"/>
<path d="M27.5 56.5001C24.4619 59.4584 21.9365 56.2956 21.4303 53.3387C21.1324 51.5982 20.4177 48.604 21.9368 47.4207C23.152 46.474 25.9936 47.5 26.5 47.5" stroke="#031F28" stroke-linecap="round"/>
<path d="M27.9999 56.5C27.0474 54.8064 25.4278 51.2418 26.1898 48.5321C26.9518 45.8223 29.0474 45.7088 30 46.2733" stroke="#031F28" stroke-linecap="round"/>
<path d="M31.8708 53C30.7564 51.1377 28.9734 46.5193 30.7564 45.1785C32.9853 43.5024 36.8856 42.3851 38 50.7653" stroke="#031F28" stroke-linecap="round"/>
<path d="M35 48C35.4903 48.9524 36.471 50.2857 35.7355 52" stroke="#031F28" stroke-linecap="round"/>
<path d="M201.5 100C202.833 100.549 206 101.755 206 102.194C206 102.743 204.286 106.582 206.571 108.777C208.857 110.971 211.714 113.165 211.714 113.713C211.714 114.262 214 114.743 214 112" stroke="#031F28" stroke-linecap="round"/>
<path d="M209 108C210.4 109.556 214.04 112 215 112" stroke="#031F28" stroke-linecap="round"/>
<path d="M215.66 108C216.724 109.279 218.639 112.277 217.788 114.031C216.937 115.786 214.241 114.762 213 114.031" stroke="#031F28" stroke-linecap="round"/>
<path d="M205 92C208.561 92.9195 217.47 95.4207 220.619 98.069C224.555 101.379 226.242 106.345 223.993 108" stroke="#031F28" stroke-linecap="round"/>
<path d="M66.5 57L58 60L58.5 72H54L50.5 74.5L49 79.5L50.5 85.5L53 87L55.5 88L58.5 94L63 98L69 100.5L76 103H78.5L81.5 103.5H85H87H88.5H92.5L95.5 103L104.5 100.5L110.5 94.5L117.5 96L121.5 95.5L126.5 91.5L128.5 85.5L128 80.5L125 77.5L120.5 76L116.5 77.5L117.5 75L114 73.5L117.5 70L114 64.5L111 58.5L99 55L85.5 54.5L79 55L66.5 57Z" fill="#E8C4AC"/>
<path d="M57 46.5H60L57 59.5L86.5 49.5L110.5 57L113 62L114 65L113 72V77.5L114 80L116.256 77.5L122 76.5L125 77.5L127.5 80L128 75.5L132 60L135 55.5V53L130.5 48.5L128 43.5L126.5 35.5L124.5 32.5L121.5 30L117 31L111.5 29L106.5 25L103.299 23L97.5 21L86.5 22L72.5 23L67 23.5L64 27L64.5 30L64 32L58.5 35.5L56 38.5L55.5 44L57 46.5Z" fill="#031F28"/>
<path d="M59.5 47L63 45L72 42L82 40L93.5 39H97.5L109.5 41L120 45.5L128.5 52.5L133 60L133.5 65.5L130.5 72L128 75L124 68.5L119 63L111.5 58.5L99 55L86 54.5L71 56L58.5 59.5L58 62L57 60.5L56 56L57 51.5L59.5 47Z" fill="#FFEB53"/>
<path d="M111 58.5C112.167 59.8333 114.4 63.1 114 65.5C113.5 68.5 112 80.5 114 80C116 79.5 116.5 77.5 119.5 73.5" stroke="#031F28" stroke-linecap="round"/>
<path d="M128 75C128.167 75.8333 128.3 77.6 127.5 80" stroke="#031F28" stroke-linecap="round"/>
<path d="M60.9999 46.0003C57.3333 47.5003 54.3 45.7 55.5 40.5C57 34 64.4999 33.5003 64.4999 31.0003C64.4999 28.5003 62.4999 23.0003 72.4999 23.0003C82.4999 23.0003 98.9999 18.5003 105 24.0003C111 29.5003 116 31.0003 117 31.0003C118 31.0003 126 27 127.5 40.5C129 54 140 50 132.5 59.5" stroke="#031F28" stroke-linecap="round"/>
<path d="M57.9999 60.4999C57.5999 62.0999 58.1665 62.4999 58.4999 62.4999C55.4998 62.4999 54.5 50.5 60.9999 45.9999C63.9068 43.9873 87 35 108.5 41C130 47 134 60.9999 133.5 65C133.1 68.2001 129.833 73.5 128 75C127 75 124 61.2999 106 56.4999C83.5 50.4999 58.4999 58.4999 57.9999 60.4999Z" stroke="#031F28" stroke-linecap="round"/>
<path d="M91.7209 35.624C89.7209 32.824 83.2209 40.124 80.2209 44.124C80.0542 46.4573 79.8209 51.624 80.2209 53.624C80.7209 56.124 89.7209 53.624 93.2209 52.124C96.7209 50.624 94.2209 39.124 91.7209 35.624Z" fill="#FFEB53" stroke="#031F28" stroke-linecap="round"/>
<path d="M66.9077 49.5449C66.9077 55.2527 75.6627 55.3825 80.0403 54.7338C87.2632 45.0049 80.0403 31.3837 71.5041 30.0864C62.968 28.7892 66.9077 42.4101 66.9077 49.5449Z" fill="#FFEB53" stroke="#031F28" stroke-linecap="round"/>
<path d="M58.5 72.0001C55.8334 71.6667 50.3 72.3001 49.5 77.5001C48.5 84.0001 51 88 56 88" stroke="#031F28" stroke-linecap="round"/>
<path d="M116.5 90.5C117 87.6667 118.8 82 122 82C125.2 82 125.333 85.3333 125 87" stroke="#031F28" stroke-linecap="round"/>
<path d="M58.4999 60C58.4999 61.8333 58.4999 66.2 58.4999 69C58.4999 72.5 58.4999 74.5 57.4999 77C56.4999 79.5 53.6527 84.3059 57.4999 92C59.2499 95.5 63.9999 99 70.4999 101.5C73.8973 102.807 102.5 108 110.5 94.5" stroke="#031F28" stroke-linecap="round"/>
<path d="M110.5 94.5002C111.5 94.0002 115.646 95.9999 119 95.9999C122.5 95.9999 129 91.9999 128.5 83.9999C128 75.9999 120.5 74.0007 115 79.0004" stroke="#031F28" stroke-linecap="round"/>
<path d="M82.5002 76.5C79 76.5 77.9001 80.5 81.5001 80.5" stroke="#031F28" stroke-linecap="round"/>
<ellipse cx="104.429" cy="84.0833" rx="7.19568" ry="4.71968" transform="rotate(-4.91188 104.429 84.0833)" fill="#F2808D"/>
<ellipse cx="63.5734" cy="84.3186" rx="7.19568" ry="4.71968" transform="rotate(-4.91188 63.5734 84.3186)" fill="#F2808D"/>
<path d="M71.2293 73.1818C70.6269 70.4546 68.2173 70.9091 68.2173 71.3637C67.6149 71.6958 68.2173 80 70.6269 80C73.0364 80 71.8316 75.9091 71.2293 73.1818Z" fill="#031F28"/>
<path d="M93.9036 75C93.9036 72.2727 92.6988 70 91.494 70C89.6868 70 90.8916 79.0909 92.6988 79.0909C94.506 79.0909 93.9036 77.7273 93.9036 75Z" fill="#031F28"/>
<path d="M71.2293 73.1818C70.6269 70.4546 68.2173 70.9091 68.2173 71.3637C67.6149 71.6958 68.2173 80 70.6269 80C73.0364 80 71.8316 75.9091 71.2293 73.1818Z" stroke="#031F28" stroke-linecap="round"/>
<path d="M93.9036 75C93.9036 72.2727 92.6988 70 91.494 70C89.6868 70 90.8916 79.0909 92.6988 79.0909C94.506 79.0909 93.9036 77.7273 93.9036 75Z" stroke="#031F28" stroke-linecap="round"/>
<path d="M84.5 85.9998C79.5 86.4998 75.5 88.9998 75.5 89.4998C76 89.9997 77 89.4998 78.5 89.4998C80 89.4998 89.5 89.4998 90 88.4998C90.5 87.4998 89.5 85.4998 84.5 85.9998Z" fill="white" stroke="#031F28" stroke-linecap="round"/>
<path d="M83.5 61.5C83.5 62 83.9 62.9 85.5 62.5C87.1 62.1 89.5 61 90.5 60.5" stroke="#031F28" stroke-linecap="round"/>
<path d="M67.5 84C67.5 85.1667 68.1 87.5 70.5 87.5" stroke="#031F28" stroke-linecap="round"/>
<path d="M64 86C64.6667 85.8333 65.7 86.1 64.5 88.5" stroke="#031F28" stroke-linecap="round"/>
<path d="M66.9999 91.9998C66.8333 91.1665 67.2999 89.6998 70.4999 90.4998" stroke="#031F28" stroke-linecap="round"/>
<path d="M98 60.5088H98C99.5 62.5088 102 62.5088 102 61.5088C102 60.5088 99.5 60.5088 98 60.5088Z" stroke="#031F28" stroke-linecap="round"/>
<path d="M104.5 63C105 62 109 61.5 109 63C109 64.5 105 64 104.5 63Z" stroke="#031F28" stroke-linecap="round"/>
<path d="M109.5 76.0088C111 77.5088 111.5 80.0088 110.5 80.0088C109.5 80.0088 108.5 77.0088 109.5 76.0088Z" stroke="#031F28" stroke-linecap="round"/>
</g>
</svg>
