<svg width="216" height="216" viewBox="0 0 216 216" fill="none" xmlns="http://www.w3.org/2000/svg">
<mask id="mask0_364_15033" style="mask-type:alpha" maskUnits="userSpaceOnUse" x="0" y="0" width="216" height="216">
<rect x="0.5" y="0.5" width="215" height="215" rx="6.5" fill="white" stroke="#C1C1C1"/>
</mask>
<g mask="url(#mask0_364_15033)">
<path d="M90 121.5L99.5 118.5L94 123.5V126L98 129.5L106.5 132.5L117.5 133.5L123.5 132L124.5 130V128L122.5 126L121.5 123V120L134 124L141 129L146.5 136.5L152.5 152L157 166L159 177.5V184L158 189L147.5 199L149 219.5H75L76.5 202.5L75.5 201.5L66 193.5L59.5 185.5L60 180L63 162L67.5 146.5L73 135L78 128.5L90 121.5Z" fill="#CEEEBA"/>
<path d="M79.5805 80.0519L80.4694 83.3417L81.8682 81.7718L110.149 52.5321L120.868 51.5775L140.473 64.5887L141.609 72.604L146.268 71.662L148.93 74.0338L149.359 78.5545L148.623 83.3107L145.6 86.347L143.27 86.818L142.908 92.226L140.827 99.9218L137.109 105.523L131.104 109.405L124.863 112.121L122.769 113.757L121.201 121.592L122.5 126.5L124.863 127.5L124.527 129.649L122.017 132.824L116.47 132.976L104.5 132L96.4481 128L94.4995 127L93.9995 124.5L95.4995 121.5L98.4995 121.5L101 119L100.721 113.85L99.2236 111.243L92.3185 108.274L85.0391 104.653L81.0187 99.1609L77.2466 100.893L73.0034 100.296L69.3153 97.647L66.8342 92.5712L67.057 87.6762L70.1647 80.258L79.5805 80.0519Z" fill="#E8C4AC"/>
<path d="M100 196L97 194L90 204L94 207L102.5 214L108.5 217.5L111 217.5L112.5 217L115 217L115.5 218L117.5 218L119.5 217L121 217.5L124 217L128.5 213L133 206.5L137 203L135.5 200L130 193L125.5 195.5L120 195.5L115.5 197.5L113.5 196.5L109.5 196L103.5 196.5L100 196Z" fill="#E8C4AC"/>
<path d="M136.675 202.62C136.885 202.441 137.2 202.465 137.38 202.675C137.559 202.884 137.535 203.2 137.325 203.38C136.146 204.39 133.736 206.471 133.354 206.853C133.355 206.852 133.349 206.859 133.334 206.877C133.32 206.894 133.302 206.917 133.28 206.946C133.236 207.006 133.182 207.085 133.116 207.184C132.984 207.381 132.817 207.643 132.617 207.956C132.22 208.58 131.7 209.398 131.102 210.28C129.912 212.033 128.379 214.085 126.82 215.384C125.285 216.663 123.845 217.459 122.564 217.796C121.28 218.134 120.123 218.016 119.223 217.416C118.993 217.263 118.931 216.952 119.084 216.723C119.237 216.493 119.548 216.431 119.777 216.584C120.377 216.984 121.22 217.116 122.311 216.829C123.405 216.541 124.715 215.837 126.18 214.616C127.621 213.415 129.088 211.467 130.273 209.72C130.862 208.852 131.374 208.045 131.773 207.419C131.972 207.108 132.145 206.837 132.284 206.629C132.412 206.437 132.542 206.251 132.647 206.146C133.064 205.729 135.52 203.61 136.675 202.62Z" fill="#031F28"/>
<path d="M124.603 210.695C124.772 210.476 125.086 210.435 125.305 210.603C125.523 210.772 125.565 211.086 125.396 211.305C124.557 212.396 123.42 213.786 122.237 215.031C121.068 216.263 119.808 217.405 118.724 217.947C118.206 218.206 117.518 218.487 116.868 218.56C116.217 218.632 115.441 218.5 115.053 217.724C114.929 217.477 115.029 217.176 115.276 217.053C115.523 216.929 115.824 217.029 115.947 217.276C116.059 217.5 116.283 217.618 116.757 217.565C117.231 217.513 117.794 217.294 118.276 217.053C119.192 216.595 120.349 215.57 121.513 214.344C122.663 213.131 123.777 211.77 124.603 210.695Z" fill="#031F28"/>
<path d="M129.709 193.093C129.934 192.933 130.247 192.985 130.407 193.209C130.568 193.434 130.516 193.747 130.291 193.908C129.666 194.354 128.679 194.871 127.704 195.275C126.748 195.671 125.709 196 125 196C123.371 196 119.627 195.03 115.8 197.901C115.579 198.066 115.265 198.021 115.1 197.8C114.934 197.579 114.979 197.266 115.2 197.1C119.373 193.971 123.629 195 125 195C125.492 195 126.369 194.746 127.321 194.351C128.255 193.964 129.167 193.48 129.709 193.093Z" fill="#031F28"/>
<path d="M76.544 202.002C76.819 202.026 77.0223 202.269 76.9981 202.544L75.4981 219.544C75.4738 219.819 75.2311 220.022 74.9561 219.998C74.681 219.974 74.4777 219.731 74.502 219.456L76.002 202.456C76.0262 202.181 76.2689 201.978 76.544 202.002Z" fill="#031F28"/>
<path d="M147.464 198.501C147.739 198.481 147.979 198.689 147.999 198.964L149.499 219.464C149.519 219.739 149.312 219.979 149.036 219.999C148.761 220.019 148.521 219.812 148.501 219.536L147.001 199.036C146.981 198.761 147.189 198.521 147.464 198.501Z" fill="#031F28"/>
<path d="M96.6464 193.646C96.8417 193.451 97.1582 193.451 97.3535 193.646C98.1157 194.409 100.462 196 103.5 196C105.463 196 106.573 195.714 107.915 195.559C109.26 195.403 110.696 195.408 113.121 196.015C114.248 196.296 115.269 197.084 116.353 197.992C117.461 198.921 118.682 200.02 120.277 201.084C120.712 201.374 121.035 201.744 121.147 202.169C121.268 202.626 121.122 203.071 120.763 203.38C120.427 203.668 119.94 203.81 119.383 203.828C118.817 203.846 118.132 203.738 117.342 203.475C117.08 203.387 116.938 203.104 117.025 202.842C117.113 202.58 117.396 202.438 117.658 202.525C118.368 202.762 118.933 202.841 119.352 202.828C119.778 202.814 120.011 202.707 120.112 202.62C120.19 202.554 120.2 202.499 120.181 202.425C120.152 202.318 120.038 202.126 119.723 201.916C118.069 200.813 116.789 199.663 115.71 198.759C114.606 197.834 113.751 197.204 112.879 196.985C110.565 196.407 109.25 196.412 108.03 196.553C106.807 196.694 105.537 197 103.5 197C100.138 197 97.5509 195.258 96.6464 194.353C96.4512 194.158 96.4512 193.842 96.6464 193.646Z" fill="#031F28"/>
<path d="M89.6061 81.6629L80.8002 83.6857L75.2954 81.6461L70.4972 83.1012L66.5442 87.5378L60.8754 73.8916L69.5466 52.0112L72.8478 47.9489L67.301 48.1003L60.6313 46.2963L54.2813 41.2751L50.9548 33.2177L54.2434 23.0955L60.8457 14.9708L69.3194 10.1052L77.5702 10.1346L85.3627 13.8942L89.2443 19.8993L89.5891 28.802L90.4344 31.7836L100.266 30.0383L116.352 31.6363L127.458 37.3933L137.69 48.4197L142.707 62.4402L142.913 71.8559L141.054 74.6566L139.641 67.6674L131.335 63.7691L120.646 56.4729L114.905 53.2685L109.8 64.0005L101.991 74.5517L89.6061 81.6629Z" fill="#031F28"/>
<path d="M139.228 67.5861C139.537 67.4939 139.862 67.6691 139.955 67.9779C142.255 75.6834 144.865 84.6385 143.548 92.574C141.9 102.5 136.449 107.293 132.718 109.435C130.869 110.496 128.843 111.249 127.155 111.922C126.301 112.262 125.538 112.58 124.902 112.91C124.26 113.242 123.792 113.565 123.497 113.895C123.387 114.019 123.223 114.304 123.038 114.776C122.86 115.232 122.68 115.81 122.518 116.473C122.193 117.797 121.947 119.421 121.903 120.998C121.858 122.587 122.022 124.072 122.474 125.155C122.916 126.213 123.593 126.817 124.604 126.876C124.926 126.895 125.171 127.171 125.153 127.493C125.134 127.815 124.858 128.061 124.536 128.042C122.947 127.949 121.953 126.936 121.397 125.605C120.852 124.299 120.689 122.622 120.735 120.966C120.782 119.298 121.042 117.592 121.384 116.195C121.555 115.496 121.749 114.865 121.951 114.35C122.147 113.851 122.372 113.403 122.626 113.118C123.061 112.629 123.678 112.228 124.365 111.872C125.058 111.514 125.869 111.178 126.723 110.838C128.45 110.149 130.378 109.431 132.136 108.421C135.622 106.42 140.816 101.902 142.396 92.3828C143.661 84.7625 141.154 76.079 138.835 68.3125C138.743 68.0035 138.919 67.6784 139.228 67.5861Z" fill="#031F28"/>
<path d="M73.8398 80.9707C75.6165 80.7015 77.4328 81.0111 78.9312 81.9928C80.4371 82.9794 81.5749 84.6138 82.037 86.8997C82.1008 87.2158 81.8959 87.5235 81.5798 87.5874C81.2638 87.6513 80.9558 87.4472 80.8919 87.1312C80.485 85.1183 79.5092 83.7678 78.2915 82.97C77.0662 82.1672 75.5478 81.8923 74.0142 82.1246C70.9449 82.5898 67.8897 85.0757 67.2516 89.2C66.746 92.4683 68.4016 96.0522 71.1084 98.2121C73.7859 100.348 77.4149 101.036 80.9023 98.6608L81.4244 98.3053L81.7377 98.8524C84.4164 103.517 88.4086 106.085 91.9705 107.672C93.7533 108.466 95.4192 109.011 96.7623 109.454C97.4283 109.673 98.028 109.872 98.5127 110.063C98.98 110.247 99.4176 110.453 99.7072 110.711C99.9403 110.918 100.171 111.241 100.38 111.604C100.596 111.978 100.812 112.434 101.005 112.942C101.392 113.955 101.703 115.21 101.728 116.467C101.753 117.723 101.493 119.034 100.677 120.092C99.8511 121.164 98.5198 121.895 96.5743 122.102C96.254 122.136 95.967 121.904 95.9326 121.584C95.8984 121.263 96.13 120.975 96.4505 120.941C98.1545 120.759 99.1627 120.144 99.7519 119.379C100.351 118.602 100.582 117.586 100.56 116.491C100.539 115.399 100.265 114.278 99.9137 113.358C99.739 112.9 99.5492 112.5 99.3686 112.187C99.1817 111.863 99.0257 111.666 98.9312 111.582C98.8116 111.476 98.5492 111.333 98.0841 111.15C97.6365 110.973 97.0712 110.785 96.3966 110.563C95.0581 110.121 93.3395 109.561 91.4957 108.739C87.9366 107.154 83.8745 104.582 81.0371 99.9578C77.2116 102.263 73.2534 101.417 70.38 99.1248C67.4052 96.7512 65.5176 92.7736 66.098 89.0215C66.8177 84.3702 70.2886 81.5087 73.8398 80.9707Z" fill="#031F28"/>
<path d="M66.0394 11.2471C75.3529 7.53308 85.1927 10.1144 89.2471 18.6292C89.8065 19.8042 90.1035 21.2571 90.2612 22.7417C90.4195 24.2331 90.4412 25.7982 90.4279 27.2158C90.4143 28.6546 90.3664 29.9003 90.3803 30.8399C90.3871 31.2949 90.409 31.6365 90.4481 31.8648C90.4599 31.862 90.4733 31.8613 90.4864 31.858C90.685 31.8077 90.9443 31.7219 91.3105 31.6014C92.0304 31.3642 93.0625 31.0266 94.5099 30.7055C97.4049 30.0631 101.93 29.4925 108.986 29.8672C123.276 30.6263 134.904 41.0191 139.984 52.6883C144.006 61.9269 144.433 69.3602 142.189 75.0636C142.071 75.3637 141.732 75.5111 141.432 75.3931C141.132 75.275 140.985 74.9363 141.103 74.6363C143.194 69.3217 142.863 62.2264 138.914 53.1546C133.969 41.7943 122.676 31.7638 108.924 31.0332C101.96 30.6633 97.5418 31.2296 94.7628 31.8462C93.3732 32.1546 92.385 32.4773 91.676 32.7109C91.3281 32.8255 91.0204 32.9275 90.7719 32.9904C90.5459 33.0475 90.249 33.1069 89.9706 33.0316C89.6795 32.9528 89.5262 32.7294 89.4526 32.5829C89.3756 32.4296 89.3312 32.255 89.3019 32.093C89.2423 31.7642 89.2192 31.3349 89.2121 30.8577C89.198 29.9058 89.2465 28.5862 89.2595 27.2043C89.2726 25.8014 89.2508 24.2896 89.0997 22.8656C88.9477 21.4346 88.6695 20.1323 88.1927 19.1311C84.4731 11.3194 75.3792 8.77964 66.4725 12.3314C61.1407 14.4576 56.8594 19.241 54.4223 24.4097C51.9716 29.6071 51.4698 34.9988 53.4003 38.3611C56.7448 44.1856 61.5851 46.2296 65.5835 46.9415C67.5892 47.2985 69.382 47.32 70.6752 47.308C71.306 47.3022 71.8586 47.2877 72.2297 47.3057C72.4055 47.3142 72.6116 47.3317 72.7815 47.3902C72.8641 47.4186 73.0147 47.481 73.1328 47.6248C73.2807 47.8049 73.3127 48.0293 73.2599 48.2247C73.2227 48.3621 73.138 48.4854 73.1005 48.5407C73.0462 48.6208 72.9763 48.7144 72.8977 48.8157C72.7402 49.0187 72.5203 49.2894 72.2596 49.6112C71.7339 50.2603 71.0172 51.1513 70.2088 52.2523C68.5911 54.4559 66.6114 57.4928 65.0784 61.0803C62.0166 68.2454 60.7474 77.5589 67.6565 86.8708C67.8486 87.1298 67.7946 87.4957 67.5356 87.6879C67.2766 87.8798 66.9106 87.8259 66.7185 87.567C59.4823 77.8144 60.8401 68.0274 64.0046 60.6219C65.5847 56.9243 67.6185 53.808 69.2677 51.5617C70.0928 50.4378 70.8229 49.529 71.3517 48.876C71.4748 48.7241 71.5835 48.5861 71.6816 48.4645C71.4102 48.4658 71.08 48.4718 70.6862 48.4754C69.3697 48.4876 67.4914 48.4681 65.3786 48.0919C61.1385 47.337 55.9488 45.1442 52.388 38.9432C50.1751 35.0894 50.8519 29.2441 53.3663 23.9116C55.8943 18.5503 60.3651 13.5101 66.0394 11.2471Z" fill="#031F28"/>
<path d="M116.834 46.2023C117.151 46.2597 117.362 46.5637 117.305 46.881C116.27 52.6097 113.192 61.3247 107.311 68.9199C101.421 76.5261 92.6988 83.032 80.3961 84.2462C80.0753 84.2778 79.7895 84.0432 79.7577 83.7225C79.726 83.4016 79.9605 83.1159 80.2814 83.0842C92.1935 81.9085 100.646 75.6197 106.388 68.2048C112.138 60.7787 115.149 52.2447 116.155 46.6732C116.212 46.3559 116.516 46.145 116.834 46.2023Z" fill="#031F28"/>
<path d="M114.737 52.0919C114.939 51.8401 115.305 51.7989 115.557 52.0001C118.748 54.5504 123.844 58.3582 128.753 61.4896C131.208 63.0558 133.605 64.4449 135.686 65.4227C137.799 66.415 139.486 66.9333 140.563 66.8713C140.885 66.8528 141.162 67.0989 141.181 67.4207C141.199 67.7425 140.953 68.0192 140.631 68.0379C139.231 68.1186 137.304 67.4735 135.19 66.4802C133.045 65.4723 130.6 64.0532 128.125 62.474C123.172 59.3144 118.042 55.4801 114.829 52.9119C114.577 52.7106 114.536 52.3438 114.737 52.0919Z" fill="#031F28"/>
<path d="M144.529 71.101C145.824 70.9759 147.247 71.5143 148.553 73.1862C149.408 74.2802 149.817 75.7876 149.907 77.3531C149.998 78.9276 149.771 80.6221 149.292 82.1479C148.815 83.6671 148.073 85.0673 147.098 86.0138C146.108 86.9744 144.841 87.4933 143.409 87.1062C143.098 87.022 142.914 86.7012 142.998 86.39C143.082 86.0787 143.403 85.8945 143.714 85.9787C144.65 86.2317 145.509 85.9282 146.285 85.1757C147.074 84.4091 147.736 83.2047 148.178 81.7979C148.617 80.3978 148.824 78.8446 148.742 77.4203C148.659 75.9866 148.287 74.7433 147.633 73.9053C146.524 72.4863 145.467 72.1838 144.641 72.2635C143.767 72.348 143.012 72.8742 142.593 73.3445C142.379 73.5852 142.01 73.6061 141.769 73.3917C141.529 73.1771 141.507 72.8081 141.721 72.5673C142.275 71.9461 143.282 71.2216 144.529 71.101Z" fill="#031F28"/>
<path d="M76.0123 93.6685C76.2408 92.8237 75.8503 91.9459 75.0819 91.1092C74.3252 90.2855 73.3084 89.6252 72.6074 89.2765C72.3187 89.1329 72.201 88.7829 72.3445 88.4942C72.4881 88.2055 72.8381 88.0879 73.1268 88.2313C73.9182 88.625 75.0637 89.363 75.942 90.3191C76.8082 91.2621 77.5257 92.5467 77.1398 93.9735C77.0555 94.2846 76.7348 94.4688 76.4236 94.3847C76.1123 94.3005 75.9283 93.9797 76.0123 93.6685Z" fill="#031F28"/>
<path d="M144.868 75.721C144.952 75.4096 145.273 75.2255 145.584 75.3097C145.895 75.3939 146.079 75.7146 145.995 76.0259C145.883 76.4395 145.782 77.1496 145.859 77.8789C145.937 78.6108 146.184 79.2859 146.689 79.7362C146.93 79.9508 146.951 80.3196 146.736 80.5603C146.522 80.8011 146.153 80.8228 145.912 80.6085C145.108 79.8919 144.792 78.8907 144.698 78.0018C144.604 77.1102 144.724 76.254 144.868 75.721Z" fill="#031F28"/>
<path d="M121.717 122.458C122.29 122.687 122.934 123.218 123.505 123.874C124.088 124.543 124.642 125.398 125.01 126.338C125.377 127.277 125.568 128.33 125.381 129.377C125.191 130.438 124.62 131.447 123.546 132.286C122.441 133.149 120.571 133.635 118.401 133.848C116.2 134.065 113.581 134.01 110.881 133.708C105.506 133.106 99.682 131.505 96.1595 128.974C94.7467 127.96 93.8658 126.912 93.5017 125.834C93.1286 124.728 93.3254 123.672 93.8969 122.731C94.4571 121.808 95.3761 120.992 96.4738 120.287C97.5774 119.579 98.8969 118.962 100.301 118.451C100.604 118.341 100.939 118.498 101.049 118.801C101.159 119.104 101.003 119.439 100.7 119.549C99.3539 120.038 98.1169 120.621 97.1043 121.27C96.0862 121.923 95.3281 122.624 94.8954 123.336C94.474 124.031 94.3618 124.73 94.6083 125.46C94.8638 126.217 95.5319 127.085 96.841 128.026C100.124 130.384 105.711 131.954 111.011 132.548C113.65 132.843 116.185 132.892 118.286 132.685C120.418 132.476 122 132.011 122.828 131.365C123.685 130.695 124.095 129.936 124.231 129.171C124.371 128.393 124.236 127.563 123.923 126.763C123.61 125.964 123.13 125.223 122.624 124.641C122.107 124.047 121.609 123.672 121.283 123.542C120.984 123.422 120.839 123.082 120.959 122.783C121.079 122.484 121.418 122.338 121.717 122.458Z" fill="#031F28"/>
<path d="M100.892 117.512C101.161 117.452 101.428 117.622 101.488 117.892C101.548 118.161 101.378 118.429 101.108 118.489C98.145 119.147 90.4967 121.464 83.753 125.431C79.5563 127.9 76.7386 130.478 74.4727 133.724C72.1981 136.982 70.4653 140.932 68.4669 146.178C66.4804 151.393 64.112 160.239 62.4268 168.29C61.5848 172.314 60.9157 176.126 60.5509 179.177C60.3684 180.703 60.2634 182.03 60.2491 183.092C60.2345 184.174 60.3161 184.919 60.4679 185.324C61.1781 187.219 63.2366 189.905 66.045 192.776C68.8363 195.629 72.3135 198.61 75.7901 201.093C82.1978 205.67 86.4413 206.404 87.3448 206.49C87.4314 206.401 87.5546 206.264 87.711 206.076C88.0248 205.701 88.451 205.157 88.9532 204.495C89.9566 203.173 91.2503 201.396 92.5294 199.586C93.8085 197.777 95.0704 195.939 96.0108 194.493C96.4816 193.77 96.8683 193.149 97.1358 192.683C97.27 192.449 97.37 192.261 97.4347 192.122C97.4503 192.089 97.4606 192.059 97.4708 192.034C97.4635 192.024 97.4567 192.01 97.4474 191.997C97.369 191.889 97.2442 191.74 97.0704 191.551C96.7241 191.174 96.2204 190.678 95.6007 190.089C94.3609 188.912 92.6983 187.404 90.9727 185.804C89.2531 184.209 87.4778 182.529 86.0372 181.026C85.3171 180.274 84.675 179.561 84.1632 178.921C83.6571 178.288 83.255 177.699 83.0401 177.198C82.6981 176.399 82.5599 175.138 82.5323 173.696C82.5043 172.231 82.5907 170.502 82.7393 168.721C83.0367 165.157 83.5885 161.342 84.0069 158.915C84.0538 158.643 84.3129 158.46 84.5851 158.507C84.8571 158.554 85.0392 158.813 84.9923 159.085C84.5774 161.492 84.0298 165.276 83.7354 168.804C83.5882 170.568 83.5052 172.26 83.5323 173.677C83.5599 175.116 83.7012 176.201 83.9591 176.803C84.1192 177.177 84.4525 177.681 84.9444 178.296C85.4305 178.904 86.0495 179.594 86.7589 180.334C88.1777 181.815 89.9346 183.479 91.6524 185.072C93.3642 186.659 95.0447 188.183 96.2892 189.365C96.9117 189.956 97.4363 190.471 97.8067 190.873C97.9909 191.074 98.1461 191.257 98.2589 191.413C98.3149 191.491 98.3681 191.573 98.4093 191.656C98.4446 191.726 98.5001 191.851 98.5001 192C98.5001 192.116 98.4676 192.224 98.4444 192.292C98.4176 192.371 98.3816 192.457 98.3409 192.544C98.2589 192.72 98.1432 192.937 98.003 193.181C97.7218 193.671 97.3231 194.309 96.8487 195.038C95.8986 196.499 94.629 198.349 93.3458 200.164C92.0626 201.98 90.7622 203.765 89.7501 205.099C89.2447 205.765 88.8073 206.323 88.4786 206.717C88.3154 206.913 88.1723 207.076 88.0577 207.193C88.0015 207.25 87.9419 207.307 87.8839 207.353C87.8554 207.375 87.8154 207.404 87.7686 207.429C87.7344 207.448 87.6347 207.5 87.5001 207.5C86.8705 207.5 82.2705 206.951 75.2091 201.907C71.6859 199.391 68.1638 196.371 65.3302 193.475C62.5136 190.596 60.3211 187.782 59.5313 185.676C59.3082 185.081 59.2344 184.17 59.2491 183.078C59.2641 181.967 59.373 180.602 59.5577 179.058C59.9273 175.968 60.6029 172.124 61.4483 168.085C63.1381 160.012 65.5189 151.108 67.5323 145.823C69.5339 140.568 71.3021 136.518 73.6524 133.152C76.0115 129.772 78.9433 127.101 83.2462 124.57C90.1024 120.536 97.8549 118.187 100.892 117.512Z" fill="#031F28"/>
<path d="M121.604 119.51C123.965 120.016 127.796 121.1 131.643 122.713C135.48 124.321 139.393 126.48 141.867 129.161C144.937 132.486 148.216 139.067 151.091 146.379C153.974 153.714 156.481 161.863 157.987 168.388C159.496 174.925 159.752 179.474 159.561 182.656C159.37 185.839 158.728 187.649 158.485 188.621C158.43 188.842 158.287 189.082 158.132 189.306C157.966 189.545 157.745 189.824 157.481 190.131C156.954 190.748 156.233 191.51 155.386 192.361C153.689 194.065 151.463 196.15 149.21 198.184C146.956 200.219 144.67 202.208 142.851 203.721C141.943 204.477 141.147 205.117 140.529 205.585C140.221 205.819 139.951 206.014 139.732 206.16C139.53 206.294 139.324 206.42 139.158 206.475C138.306 206.759 137.333 206.755 136.504 206.548C135.698 206.347 134.899 205.917 134.553 205.224C134.429 204.977 134.529 204.677 134.776 204.553C135.023 204.43 135.324 204.53 135.447 204.777C135.601 205.084 136.052 205.404 136.746 205.578C137.417 205.745 138.194 205.742 138.842 205.526C138.843 205.525 138.851 205.522 138.866 205.515C138.884 205.506 138.909 205.494 138.939 205.477C139.001 205.442 139.081 205.392 139.179 205.328C139.374 205.198 139.624 205.016 139.925 204.788C140.525 204.333 141.308 203.703 142.212 202.952C144.018 201.449 146.294 199.469 148.54 197.442C150.786 195.414 152.998 193.342 154.677 191.656C155.517 190.812 156.218 190.07 156.722 189.481C156.974 189.186 157.171 188.937 157.309 188.737C157.379 188.637 157.43 188.553 157.466 188.488C157.483 188.455 157.496 188.429 157.504 188.41C157.508 188.4 157.511 188.392 157.513 188.387C157.513 188.385 157.514 188.383 157.515 188.381C157.515 188.38 157.515 188.379 157.515 188.379C157.772 187.352 158.379 185.661 158.563 182.595C158.747 179.527 158.504 175.075 157.013 168.613C155.518 162.138 153.026 154.036 150.16 146.745C147.285 139.432 144.063 133.012 141.133 129.838C138.807 127.318 135.054 125.227 131.257 123.635C127.471 122.048 123.701 120.983 121.395 120.489C121.125 120.431 120.953 120.165 121.011 119.895C121.068 119.625 121.334 119.452 121.604 119.51Z" fill="#031F28"/>
<path d="M140.5 157.001C140.5 156.725 140.724 156.501 141 156.501C141.276 156.501 141.5 156.725 141.5 157.001C141.5 159.836 141.476 164.19 141.4 168.036C141.363 169.959 141.312 171.758 141.246 173.178C141.213 173.887 141.177 174.506 141.135 175C141.094 175.482 141.046 175.878 140.985 176.122C140.937 176.315 140.835 176.525 140.716 176.731C140.593 176.945 140.433 177.187 140.246 177.448C139.872 177.971 139.371 178.6 138.789 179.291C137.625 180.675 136.118 182.339 134.617 183.965C133.125 185.581 131.605 187.197 130.461 188.434C129.883 189.058 129.395 189.593 129.036 190.002C128.857 190.207 128.713 190.376 128.608 190.507C128.555 190.572 128.515 190.625 128.485 190.666C128.46 190.702 128.449 190.72 128.447 190.724C128.398 190.822 128.361 190.997 128.362 191.264C128.364 191.522 128.402 191.823 128.465 192.14C128.591 192.774 128.806 193.42 128.964 193.814C129.066 194.071 128.942 194.361 128.686 194.464C128.429 194.566 128.138 194.442 128.035 194.186C127.86 193.747 127.625 193.042 127.484 192.335C127.414 191.981 127.365 191.613 127.362 191.271C127.36 190.936 127.402 190.578 127.553 190.276C127.611 190.16 127.719 190.017 127.827 189.882C127.946 189.734 128.101 189.551 128.284 189.342C128.652 188.923 129.148 188.38 129.727 187.755C130.895 186.492 132.375 184.919 133.883 183.286C135.382 181.662 136.875 180.013 138.024 178.647C138.598 177.964 139.081 177.359 139.434 176.866C139.61 176.62 139.749 176.408 139.85 176.233C139.954 176.051 140 175.937 140.015 175.88C140.054 175.724 140.097 175.403 140.138 174.915C140.178 174.439 140.214 173.834 140.247 173.131C140.312 171.724 140.363 169.936 140.4 168.017C140.475 164.179 140.5 159.832 140.5 157.001Z" fill="#031F28"/>
<path d="M127.625 191.169C127.808 190.962 128.124 190.942 128.331 191.125C129.768 192.393 132.014 194.64 134.104 197.277C136.188 199.907 138.153 202.968 138.98 205.862C139.056 206.128 138.903 206.405 138.638 206.481C138.372 206.556 138.095 206.403 138.019 206.138C137.246 203.433 135.378 200.494 133.32 197.899C131.269 195.311 129.065 193.107 127.669 191.875C127.462 191.692 127.442 191.376 127.625 191.169Z" fill="#031F28"/>
<path d="M89.5762 203.735C89.7225 203.501 90.0305 203.43 90.2647 203.576C90.938 203.997 92.021 204.702 93.0879 205.454C94.1462 206.2 95.22 207.013 95.8535 207.646C96.5837 208.376 98.5667 210.113 100.75 211.859C102.942 213.612 105.278 215.33 106.724 216.053C108.168 216.775 109.602 217.13 110.714 217.188C111.272 217.218 111.727 217.171 112.055 217.075C112.395 216.975 112.518 216.846 112.553 216.776C112.676 216.529 112.977 216.429 113.224 216.553C113.471 216.676 113.571 216.976 113.447 217.223C113.232 217.654 112.792 217.9 112.336 218.034C111.867 218.172 111.291 218.219 110.661 218.186C109.398 218.12 107.832 217.725 106.276 216.947C104.722 216.17 102.308 214.387 100.125 212.64C97.9334 210.887 95.9164 209.123 95.1465 208.353C94.58 207.787 93.5701 207.017 92.5117 206.271C91.4621 205.532 90.3954 204.836 89.7354 204.424C89.5012 204.277 89.43 203.969 89.5762 203.735Z" fill="#031F28"/>
<path d="M105.679 210.615C105.892 210.438 106.207 210.467 106.384 210.679C107.19 211.646 108.566 212.966 109.98 214.125C110.686 214.702 111.393 215.234 112.037 215.658C112.688 216.087 113.246 216.387 113.658 216.524C114.577 216.831 115.426 216.806 116.016 216.495C116.572 216.202 117 215.601 117 214.5C117 214.224 117.224 214 117.5 214C117.776 214 118 214.224 118 214.5C118 215.898 117.428 216.881 116.483 217.38C115.574 217.859 114.423 217.834 113.342 217.473C112.805 217.294 112.16 216.936 111.487 216.493C110.807 216.045 110.071 215.491 109.346 214.898C107.902 213.715 106.476 212.351 105.616 211.319C105.439 211.107 105.468 210.792 105.679 210.615Z" fill="#031F28"/>
<path d="M111.646 203.646C111.841 203.451 112.158 203.451 112.353 203.646C113.209 204.503 114.279 205.401 115.383 206.317C116.479 207.227 117.61 208.155 118.556 209.05C119.493 209.936 120.3 210.838 120.707 211.705C120.913 212.145 121.032 212.608 120.986 213.073C120.939 213.549 120.726 213.981 120.353 214.353C119.69 215.017 118.709 214.963 117.794 214.673C116.849 214.374 115.779 213.768 114.719 213.028C112.596 211.545 110.388 209.433 109.107 207.809C108.936 207.593 108.973 207.278 109.19 207.107C109.407 206.936 109.721 206.974 109.892 207.19C111.111 208.734 113.245 210.78 115.292 212.209C116.317 212.925 117.291 213.465 118.095 213.72C118.928 213.983 119.401 213.891 119.646 213.646C119.873 213.419 119.969 213.197 119.991 212.975C120.013 212.744 119.959 212.465 119.801 212.13C119.48 211.444 118.794 210.652 117.869 209.776C116.952 208.909 115.852 208.005 114.745 207.087C113.646 206.175 112.54 205.248 111.646 204.353C111.451 204.158 111.451 203.842 111.646 203.646Z" fill="#031F28"/>
<path d="M112.577 199.232C112.724 198.999 113.033 198.929 113.266 199.076C114.893 200.103 116.859 201.783 118.508 203.436C119.334 204.265 120.089 205.094 120.687 205.841C121.278 206.577 121.746 207.268 121.965 207.814C122.507 209.171 122.401 210.209 122 210.931C121.804 211.283 121.546 211.543 121.289 211.718C121.046 211.883 120.761 212 120.501 212C120.225 212 120 211.776 120 211.5C120 211.224 120.224 211 120.5 211C120.489 211 120.579 210.992 120.726 210.891C120.86 210.801 121.009 210.655 121.126 210.445C121.35 210.043 121.493 209.329 121.036 208.185C120.876 207.785 120.488 207.189 119.908 206.467C119.337 205.755 118.608 204.952 117.8 204.142C116.18 202.519 114.274 200.895 112.733 199.922C112.5 199.774 112.43 199.466 112.577 199.232Z" fill="#031F28"/>
<path d="M121.284 85.9303C121.802 86.0551 122.359 86.351 122.562 86.9882C122.751 87.5819 122.561 88.2751 122.144 89.0229C121.987 89.3042 121.631 89.405 121.349 89.2481C121.068 89.091 120.967 88.7353 121.124 88.4537C121.495 87.7902 121.488 87.465 121.449 87.3428C121.424 87.2645 121.343 87.1463 121.011 87.0664C120.681 86.9871 120.227 86.9817 119.715 87.0387C119.213 87.0948 118.696 87.206 118.263 87.3288C117.953 87.4167 117.629 87.2364 117.541 86.9262C117.454 86.6161 117.634 86.2936 117.944 86.2055C118.427 86.0684 119.008 85.942 119.585 85.8776C120.154 85.8142 120.763 85.8052 121.284 85.9303Z" fill="#031F28"/>
<path d="M127.389 64.5312C128.688 63.8462 130.376 63.652 132.337 64.6273C132.626 64.7709 132.744 65.1209 132.6 65.4096C132.457 65.6983 132.107 65.816 131.818 65.6725C130.198 64.8665 128.905 65.0513 127.933 65.5636C126.929 66.093 126.226 66.9976 125.896 67.6601C125.753 67.9487 125.403 68.0664 125.114 67.923C124.825 67.7793 124.708 67.4285 124.851 67.1397C125.264 66.3099 126.122 65.1991 127.389 64.5312Z" fill="#031F28"/>
<path d="M65.7066 65.8215C65.7066 65.8215 74.755 79.2398 80.977 71.5516C86.3914 64.8627 79.6026 59.9942 77.4786 58.799C77.4786 58.799 68.1433 60.9176 65.6955 65.8185L65.7066 65.8215Z" fill="#FFFCE4"/>
<path d="M78.0519 57.7808C79.1857 58.419 81.6239 60.0604 83.0631 62.5253C83.796 63.7807 84.2889 65.2834 84.1789 66.98C84.0756 68.5741 83.4464 70.2401 82.1522 71.9443L81.8849 72.2858C80.1022 74.4885 77.995 75.2808 75.8474 75.0605C73.8012 74.8506 71.8754 73.7381 70.2864 72.487C68.6779 71.2205 67.2934 69.7155 66.32 68.5441C65.8307 67.9553 65.4387 67.443 65.1682 67.0762C65.1038 66.989 65.0472 66.9086 64.9967 66.8386L64.0135 66.5727L64.6511 65.2964C65.3766 63.8439 66.5774 62.6593 67.8824 61.7091C69.194 60.7543 70.6732 59.9903 72.0412 59.3984C73.4133 58.8046 74.7015 58.3721 75.6451 58.0879C76.1179 57.9454 76.5067 57.8393 76.7796 57.7685C76.916 57.7331 77.0238 57.707 77.0985 57.6889C77.1357 57.6799 77.1647 57.6726 77.1852 57.6678C77.1954 57.6654 77.2041 57.6637 77.2099 57.6623C77.2127 57.6617 77.2148 57.6605 77.2166 57.6601L77.2187 57.6597L77.2197 57.6599L77.2209 57.6592L77.6594 57.5603L78.0519 57.7808ZM77.4792 58.7984C77.4792 58.7984 68.1436 60.9169 65.6957 65.8177L65.707 65.8208C65.724 65.846 74.7609 79.2315 80.977 71.5506C86.3909 64.8621 79.6036 59.994 77.4792 58.7984Z" fill="#031F28"/>
<path d="M69.375 69.2955C71.3318 70.3143 73.4835 71.2305 75.7655 71.1793C78.0112 71.1301 80.7294 69.9076 82.0443 67.9593C82.5853 67.1506 82.8684 66.2363 82.9453 65.2902C83.3078 67.0834 82.9069 69.1834 80.9774 71.5505C76.7514 76.7583 70.8336 71.8031 67.7955 68.4266C68.3288 68.7499 68.8742 69.0288 69.3639 69.2925L69.375 69.2955Z" fill="#FFEB53"/>
<path d="M65.7072 65.8221C65.7072 65.8221 73.8622 73.9371 75.737 67.1383C76.714 63.5706 68.1006 63.9029 65.7072 65.8221Z" fill="#FFEB53"/>
<path d="M65.8342 65.7489C65.8342 65.7489 80.4507 63.7456 76.6074 56.1522C73.171 49.3493 66.3623 51.9246 64.338 52.9648C64.338 52.9648 62.1718 61.547 65.8342 65.7489Z" fill="#FFFCE4"/>
<path d="M64.338 52.9648C64.3288 53.0013 62.1795 61.5562 65.834 65.7491L65.9926 66.9058L65.3684 66.9919L64.9537 66.5166C62.8153 64.0632 62.4598 60.4729 62.5453 57.7446C62.5893 56.3434 62.753 55.0852 62.9049 54.1786C62.9811 53.7243 63.0551 53.3551 63.1104 53.0971C63.1381 52.9681 63.1613 52.8663 63.1778 52.7956C63.1861 52.7603 63.1924 52.7324 63.1972 52.7129C63.1995 52.7034 63.2019 52.6959 63.2033 52.6902C63.204 52.6874 63.2039 52.6843 63.2044 52.6824L63.2052 52.6796L64.338 52.9648ZM69.9802 50.4504C71.3324 50.4938 72.7738 50.8166 74.1303 51.6387C75.4914 52.4637 76.7033 53.7524 77.6492 55.6245C78.7854 57.8692 78.5976 59.868 77.5201 61.4986C76.5101 63.0269 74.8039 64.1031 73.147 64.8601C71.4629 65.6295 69.6739 66.1383 68.3243 66.454C67.6455 66.6128 67.0684 66.7251 66.6592 66.7978C66.4544 66.8341 66.2906 66.8611 66.1769 66.8788C66.1204 66.8876 66.0761 66.8942 66.0451 66.8988C66.0296 66.901 66.017 66.9028 66.0083 66.904C66.004 66.9046 66.0004 66.9048 65.9978 66.9052C65.9966 66.9054 65.9956 66.9053 65.9947 66.9054L65.9935 66.9061L65.834 65.7491C65.834 65.7491 80.4505 63.7453 76.6072 56.1519C73.1708 49.3493 66.3622 51.9246 64.338 52.9648L63.2054 52.6787L63.3346 52.1673L63.8045 51.9262C64.8987 51.364 67.3132 50.3649 69.9802 50.4504Z" fill="#031F28"/>
<path d="M73.6093 61.6322C74.6534 60.685 75.6814 58.8262 75.5074 57.263C75.3423 55.6665 74.8645 54.3435 74.1492 53.0159C75.0472 53.7124 75.8831 54.7264 76.6077 56.152C79.3763 61.6282 72.5201 64.2026 68.4501 65.2147C70.5805 64.1794 72.5198 62.6148 73.6093 61.6322Z" fill="#FFEB53"/>
<path d="M65.8341 65.7495C65.8341 65.7495 76.0765 62.3959 71.1123 58.1523C68.3785 55.8132 65.0419 62.897 65.8341 65.7495Z" fill="#FFEB53"/>
<path d="M65.7837 65.7606C65.7837 65.7606 68.7494 52.3688 59.6643 52.3706C50.1517 52.3641 50.0112 60.1215 50.3297 62.6071C50.3297 62.6071 59.7877 67.935 65.7837 65.7606Z" fill="#FFFCE4"/>
<path d="M66.7851 66.6397L66.1818 66.8579C62.7787 68.092 58.5749 67.1751 55.4313 66.1048C53.8212 65.5567 52.4094 64.9392 51.4006 64.4602C50.8953 64.2203 50.4888 64.0137 50.2067 63.8661C50.0657 63.7924 49.9556 63.733 49.8796 63.6917C49.8417 63.671 49.812 63.6549 49.7914 63.6435L49.7598 63.6259L49.757 63.6251L50.3299 62.6066C50.3435 62.6142 59.792 67.9334 65.7836 65.7608L66.9244 66.0127L66.7851 66.6397ZM59.6654 51.2032C62.2664 51.203 64.13 52.1822 65.3662 53.7346C66.5583 55.2316 67.0817 57.1517 67.2908 58.928C67.5019 60.7206 67.408 62.4896 67.2666 63.7936C67.1955 64.4497 67.1106 64.998 67.0438 65.3844C67.0104 65.5773 66.9819 65.7306 66.9607 65.8374C66.95 65.8909 66.941 65.9335 66.9348 65.9629C66.9317 65.9775 66.9293 65.989 66.9275 65.9974L66.9239 66.0106L66.9246 66.0118C66.9245 66.0122 66.9238 66.0133 65.7836 65.7608C65.7836 65.7608 68.7494 52.3686 59.6643 52.3704C50.152 52.3639 50.0114 60.1206 50.3299 62.6066L49.7563 63.6239L49.246 63.3372L49.1717 62.7556C48.9981 61.4012 48.9333 58.5623 50.2769 56.0104C50.9608 54.7116 52.0095 53.4906 53.5709 52.6029C55.1271 51.7181 57.1281 51.2006 59.6656 51.2023L59.6654 51.2032Z" fill="#031F28"/>
<path d="M65.8057 65.6338C65.2697 61.0838 64.9596 55.8308 60.5289 53.4983C59.5687 52.9879 58.4815 52.6819 57.3382 52.5398C58.0363 52.4302 58.8033 52.375 59.6533 52.3661C68.2603 52.3664 66.0989 64.197 65.8057 65.6338Z" fill="#FFEB53"/>
<path d="M65.7835 65.7599C65.7835 65.7599 65.9792 55.4151 59.6467 58.0834C55.7943 59.7035 62.4639 65.5425 65.7835 65.7599Z" fill="#FFEB53"/>
<path d="M65.7457 65.7253C65.7457 65.7253 51.998 59.3088 48.3846 68.4307C44.1077 79.2116 54.5133 80.4624 57.6534 80.4164C57.6534 80.4164 66.3221 71.671 65.7487 65.7142L65.7457 65.7253Z" fill="#FFFCE4"/>
<path d="M58.558 62.4976C60.611 62.7425 62.5271 63.2846 63.9184 63.7594C64.6171 63.9978 65.1911 64.222 65.5928 64.3873C65.7936 64.47 65.9521 64.5387 66.0618 64.587C66.1164 64.6111 66.1593 64.6301 66.1891 64.6437C66.204 64.6504 66.2159 64.6554 66.2243 64.6593C66.2284 64.6612 66.2317 64.6628 66.2342 64.664C66.2355 64.6646 66.2368 64.6655 66.2377 64.6659L66.2387 64.6662C66.2391 64.6664 66.2385 64.6662 65.8441 65.5114L66.9113 65.6018C67.0821 67.3773 66.5624 69.2565 65.7941 70.9963C65.0183 72.7528 63.9402 74.476 62.8664 75.9779C61.7894 77.4843 60.6966 78.7953 59.8752 79.7283C59.4639 80.1954 59.119 80.5698 58.8754 80.8287C58.7537 80.9581 58.657 81.0587 58.5902 81.1279C58.5567 81.1624 58.5309 81.1897 58.5128 81.2081C58.5038 81.2173 58.4968 81.2247 58.4918 81.2297C58.4893 81.2322 58.4867 81.2336 58.4853 81.2351L58.4838 81.2367L58.4836 81.2376L57.6536 80.4163C57.6536 80.4163 66.3217 71.6711 65.7488 65.7143L65.746 65.7247C65.746 65.7247 51.9978 59.3089 48.3844 68.4308C44.1079 79.2113 54.5135 80.4622 57.6536 80.4163L58.4824 81.2383L58.1471 81.5766L57.6705 81.5843C56.0195 81.6084 52.3415 81.3061 49.5855 79.452C48.1694 78.4992 46.965 77.1129 46.4564 75.1508C45.9526 73.2067 46.1702 70.8454 47.2991 67.9997C48.3294 65.3993 50.1192 63.8589 52.2075 63.0672C54.249 62.2933 56.517 62.2542 58.558 62.4976Z" fill="#031F28"/>
<path d="M60.9486 65.012C57.883 64.9587 54.6139 65.1728 51.7867 66.9746C49.0726 68.7116 48.4599 69.6084 47.507 71.6307C47.6404 70.6521 47.9151 69.5923 48.3766 68.4159C51.3787 60.8477 61.0462 63.8566 64.5035 65.1976C63.2357 64.986 61.8178 65.0203 60.9374 65.009L60.9486 65.012Z" fill="#FFEB53"/>
<path d="M65.7458 65.7243C65.7458 65.7243 54.6526 62.867 55.5595 69.7974C56.1254 74.1048 64.6403 68.7082 65.7458 65.7243Z" fill="#FFEB53"/>
<path d="M65.7464 65.8092C65.7464 65.8092 53.6495 77.9607 62.9472 83.4839C72.6457 89.2468 76.3552 79.1959 77.0335 76.3352C77.0335 76.3352 71.5237 66.8705 65.7494 65.798L65.7464 65.8092Z" fill="#FFFCE4"/>
<path d="M65.9625 64.6495C67.6628 64.9653 69.2628 65.8786 70.6676 66.9763C72.082 68.0815 73.3701 69.4308 74.4508 70.7179C75.5343 72.0084 76.429 73.2603 77.0519 74.1884C77.3637 74.653 77.609 75.0391 77.7773 75.3102C77.8615 75.4459 77.927 75.5536 77.9716 75.6279C77.9938 75.6649 78.0114 75.6935 78.0233 75.7137L78.0425 75.7472L78.2774 76.1506L78.1696 76.6051C77.8105 78.1195 76.6458 81.6051 74.1849 83.9837C72.9288 85.1976 71.3012 86.1532 69.2632 86.3622C67.3574 86.5575 65.2172 86.0867 62.8314 84.7641L62.3506 84.4883C59.7245 82.9283 58.5081 80.8091 58.2988 78.497C58.0973 76.2695 58.8419 74.0019 59.8152 72.0532C60.7976 70.0862 62.0751 68.3222 63.0927 67.061C63.6041 66.4271 64.0555 65.9125 64.3812 65.5551C64.5056 65.4186 64.613 65.3059 64.6973 65.2167L64.9038 64.4532L65.9625 64.6495ZM77.0337 76.3352C77.0337 76.3352 71.5234 66.8701 65.7491 65.7976L65.746 65.809C65.731 65.824 53.6551 77.9644 62.9469 83.4842C72.3421 89.0669 76.1171 79.8091 76.9606 76.624L77.0337 76.3352Z" fill="#031F28"/>
<path d="M61.8103 76.0372C62.0655 79.1982 63.591 83.7532 66.7621 85.0049C65.5923 84.784 64.3269 84.2984 62.9588 83.4867C56.5107 79.6534 60.6099 72.3103 63.4814 68.491C63.417 68.6407 63.3637 68.7934 63.3075 68.9573C62.2 71.0214 61.5925 73.3998 61.8133 76.0261L61.8103 76.0372Z" fill="#FFEB53"/>
<path d="M65.7465 65.8095C65.7465 65.8095 58.9624 75.8406 66.7215 76.3278C71.0772 76.5986 68.3204 67.5921 65.7465 65.8095Z" fill="#FFEB53"/>
<path d="M84.4295 102.837C83.7398 105.387 81.1133 106.895 78.5631 106.206C76.013 105.516 74.5049 102.889 75.1946 100.339C75.8844 97.789 78.5109 96.2809 81.0611 96.9706C83.6112 97.6604 85.1193 100.287 84.4295 102.837Z" fill="#FFEB53"/>
<path d="M83.3018 102.532C83.823 100.604 82.6834 98.6194 80.7559 98.098C78.8285 97.5768 76.8436 98.7165 76.3221 100.644C75.8008 102.571 76.9406 104.556 78.868 105.078L78.563 106.205C76.013 105.515 74.5049 102.889 75.1947 100.339C75.8845 97.789 78.5108 96.2809 81.0609 96.9706C83.611 97.6604 85.1189 100.287 84.4292 102.837C83.7395 105.387 81.1132 106.895 78.563 106.205L78.868 105.078C80.7955 105.599 82.7804 104.459 83.3018 102.532Z" fill="#031F28"/>
<path d="M152.27 88.1525C151.58 90.7026 148.953 92.2108 146.403 91.521C143.853 90.8312 142.345 88.2047 143.035 85.6546C143.725 83.1044 146.351 81.5963 148.901 82.2861C151.451 82.9759 152.959 85.6023 152.27 88.1525Z" fill="#FFEB53"/>
<path d="M151.142 87.8473C151.663 85.9198 150.523 83.9348 148.596 83.4135C146.669 82.8922 144.684 84.032 144.162 85.9593C143.641 87.8868 144.781 89.8717 146.708 90.3931L146.403 91.5206C143.853 90.8307 142.345 88.2045 143.035 85.6544C143.725 83.1044 146.351 81.5964 148.901 82.286C151.451 82.9758 152.959 85.6021 152.269 88.1522C151.58 90.7024 148.953 92.2104 146.403 91.5206L146.708 90.3931C148.636 90.9145 150.62 89.7748 151.142 87.8473Z" fill="#031F28"/>
<path d="M98.4441 93.2629C98.6877 96.023 95.4739 98.5615 91.266 98.9329C87.058 99.3042 83.4493 97.3678 83.2057 94.6078C82.9621 91.8478 86.1759 89.3093 90.3839 88.9379C94.5918 88.5665 98.2005 90.5029 98.4441 93.2629Z" fill="#F2808D"/>
<path d="M146.827 90.3394C147.037 92.7219 144.382 94.9026 140.896 95.2102C137.411 95.5179 134.414 93.8359 134.204 91.4535C133.994 89.071 136.649 86.8903 140.135 86.5826C143.62 86.275 146.617 87.957 146.827 90.3394Z" fill="#F2808D"/>
<path d="M104.451 85.685C104.209 88.4392 102.795 90.5651 101.293 90.4333C99.7905 90.3015 98.7686 87.9619 99.0102 85.2077C99.2519 82.4534 100.666 80.3276 102.168 80.4594C103.67 80.5912 104.692 82.9308 104.451 85.685Z" fill="#031F28"/>
<path d="M133.186 84.0287C132.944 86.783 131.53 88.9089 130.028 88.777C128.526 88.6452 127.504 86.3056 127.746 83.5514C127.987 80.7972 129.401 78.6713 130.903 78.8031C132.406 78.9349 133.428 81.2745 133.186 84.0287Z" fill="#031F28"/>
<path d="M122.37 97.2539C122.631 97.1662 122.915 97.3071 123.003 97.5688C123.09 97.8305 122.949 98.114 122.688 98.2019C116.288 100.35 111.507 98.1183 109.859 96.65C109.653 96.4663 109.635 96.1501 109.818 95.9439C110.002 95.7378 110.318 95.7196 110.524 95.9032C111.916 97.1428 116.324 99.2831 122.37 97.2539Z" fill="#031F28"/>
</g>
</svg>
