<svg width="216" height="216" viewBox="0 0 216 216" fill="none" xmlns="http://www.w3.org/2000/svg">
<mask id="mask0_364_15098" style="mask-type:alpha" maskUnits="userSpaceOnUse" x="0" y="0" width="216" height="216">
<rect x="0.5" y="0.5" width="215" height="215" rx="6.5" fill="white" stroke="#C1C1C1" stroke-linecap="round"/>
</mask>
<g mask="url(#mask0_364_15098)">
<path d="M34 44.5L39 47L36 81L39.5 90L43.5 96L49 99.5L52.5 100L50 98L48 94.5L47 90.5L48.5 86.5L52.5 83L57 82.5L60 84L61.5 86.5L71.5 83.5L82.5 78.5L88.5 73L94 66L98 56L106 61.5L112 68L114 72.5L115 66.5L114.5 60.5L112 53L106.5 45L98 38.5L87 33.5L76.5 32.5L65 34L65.5 31.5V26L64.5 21L60.5 16L53.5 13L50 12.5L42.5 13L35 16.5L29 22L27 28.5V35.5L29.5 41L34 44.5Z" fill="#031F28"/>
<path d="M166 163.5L164 162L165 152L167 148.5L171 147.5L175 149L176 152L175.5 156.5L173 162L169 164L166 163.5Z" fill="#F2808D"/>
<path d="M167.5 162L165.5 161L164 162L167.5 163.5H170.5L174 161L176 155.5V150.5L173 148L170 147.5L167 148.5L166 150.5L170 149L172.5 149.5L174.5 152L174 156L172.5 159.5L169.5 162H167.5Z" fill="#F2808D"/>
<path d="M84 131.5L90 127.5L87 120.5L86 119L85.5 117.5L88 113.5L90 113L97.5 111L104 108L109.5 102.5L113 96.5L115 86L114.5 74L112.5 69L106.5 62L101 58L98 56L94 66L89 72.5L82.5 78L70 84.5L61.5 86.5L59.5 83.5L56.5 82.5L53 83L49.5 85.5L47.5 89.5V94L49.5 97L53 100.5L58.5 108.5L59.5 113L63 119L68 124.5L72.5 131L77.5 132.5L84 131.5Z" fill="#E8C4AC"/>
<path d="M137.5 177L131.5 182.5L131 177.5L128 166.5L136.5 159L142 151.5L145 149L143.5 147.5L143 140.5L149 135.5L159.5 129L165.5 124.5L171.5 129V131.5L170.5 133L168 136L164 138.5L160.5 140L162.5 141.5L167 143L169 146L168.5 148H167L158.5 146.5H155.5L163 149.5L167 152L166.5 154.5L168.5 156.5L168 157.5L167 158.5L165.5 159L164.5 162H162.5V164L159.5 165.5L155 166.5L152 168.5L147.5 173.5L141.5 176.5L137.5 177Z" fill="#E8C4AC"/>
<path d="M56 91.5L55.5 93.5L55 93L54.5 94V96L57 101L65.5 113L74 122.5L78 127L76 129L69 121L62 113L55.5 104.5L52.5 99L51.5 93.5L53 89.5L54.5 90L56 91.5Z" fill="#FFFCE4"/>
<path d="M100.5 122.5H97.5L97 111.5L100.5 110V122.5Z" fill="#FFFCE4"/>
<path d="M87.6795 96.9973C87.9231 99.7573 84.7093 102.296 80.5013 102.667C76.2933 103.039 72.6846 101.102 72.4411 98.3422C72.1975 95.5822 75.4112 93.0437 79.6192 92.6723C83.8272 92.3009 87.4359 94.2373 87.6795 96.9973Z" fill="#F2808D"/>
<path d="M79 126.5C78.6 126.1 76.5 128.667 75.5 130C77.3333 132 81.9115 135.842 85 137C89 138.5 92 137.5 92 138C92 138.5 98.5 168 104.5 172.5L109 171.5C102.6 165.5 97.6667 145.667 96 136.5C96.6667 136.167 98.3 134.8 99.5 132C101 128.5 101 123.5 100.5 123C100 122.5 97.5 122.5 97 123C96.5 123.5 97 133.5 91 134C85 134.5 79.5 127 79 126.5Z" fill="#AFAFAF" stroke="#031F28" stroke-linecap="round"/>
<path d="M126 194L121.5 196.5L126.5 199H131.5L138 197L146 190.5L155 179.5L165 163L164.5 162H163.5L161 165L159 165.5L150 180L142 189.5L137 193L130.5 194.5L126 194Z" fill="#AFAFAF"/>
<path d="M97.5 122.5L97 111.5" stroke="#031F28" stroke-linecap="round"/>
<path d="M100.5 123V110" stroke="#031F28" stroke-linecap="round"/>
<path d="M58.5001 108.5C57.5001 108.667 55.0001 109.8 53.0001 113C50.5001 117 52.0001 121 56.0001 130C60.0001 139 60 141 61 141C62 141 71.5 142 71.5 142.5C71.5 143 68.5 149.5 68.5 151.5C68.5 153.5 88.5 167.5 91 171" stroke="#031F28" stroke-linecap="round"/>
<path d="M59 111.5C60 113.667 62.7 118.7 65.5 121.5C69 125 85 149 90.5 162C94.9 172.4 94 174 94.5 175.5" stroke="#031F28" stroke-linecap="round"/>
<path d="M62 150.5C69.1667 159.5 83.7 177.9 84.5 179.5" stroke="#031F28" stroke-linecap="round"/>
<path d="M79 184C80.3333 182 87.3 177 104.5 173C126 168 124.5 164.5 127 165.5C129.5 166.5 133 187.5 132.5 189.5C132 191.5 95.5 211 80.5 210.5C68.5 210.1 49.5 190 41.5 180" stroke="#031F28" stroke-linecap="round"/>
<path d="M51.5 117.5C46.8333 120.833 36.5 130.5 32.5 142.5C28.5 154.5 22.8333 196.833 20.5 216.5" stroke="#031F28" stroke-linecap="round"/>
<path d="M95 208V216.5" stroke="#031F28" stroke-linecap="round"/>
<path d="M62 88.5C61.8333 86.5 60.3 82.5 55.5 82.5C49.5 82.5 42 92.5 52.5 100" stroke="#031F28" stroke-linecap="round"/>
<path d="M52.5 89.5005C54 89.3338 56.7 90.0005 55.5 94.0005" stroke="#031F28" stroke-linecap="round"/>
<path d="M114 72.9997C115.167 69.6664 116.3 60.7997 111.5 51.9997C105.5 40.9997 93.0001 34.4997 83.0001 32.9997C75.0001 31.7997 67.6668 33.1664 65.0001 33.9997C65.6668 31.3332 66.4001 24.9 64.0001 20.5C61.0001 15 50.0001 8 36.5001 15.5C23.0001 23 26.5001 38 30.5001 42C33.7001 45.2 39.5 47 42 47.5L39 51.5L36 78.5C36.6667 85.1667 41.8 98.9 53 100.5" stroke="#031F28" stroke-linecap="round"/>
<path d="M53.0003 89.5C51.3336 91.1667 49.823 95.5443 54.0002 102C59.5001 110.5 68.6666 121 76 128.5" stroke="#031F28" stroke-linecap="round"/>
<path d="M55.5001 93.0003C54.8334 92.8336 53.8001 93.4003 55.0001 97.0003C56.5001 101.5 66.5 115.5 78 127" stroke="#031F28" stroke-linecap="round"/>
<path d="M61.5 86.5C65.6667 85.6667 76 82.6 84 77C92 71.4 96.6667 60.6667 98 56C102.167 58.3333 111.1 64.7 113.5 71.5C116.5 80 115 93 111.5 99.5C108 106 101.5 110.5 94.5 112C87.5 113.5 88 113 87 114.5C86 116 84.5 121 86 122" stroke="#031F28" stroke-linecap="round"/>
<path d="M119.573 89.214C119.779 91.5412 117.885 93.6095 115.345 93.8337C112.804 94.058 110.577 92.3533 110.372 90.0261C110.166 87.699 112.06 85.6307 114.601 85.4065C117.142 85.1822 119.368 86.8869 119.573 89.214Z" fill="#F2808D"/>
<path d="M102.5 88.5C103.667 88.3333 105.7 88.6 104.5 91" stroke="#031F28" stroke-linecap="round"/>
<path d="M93.5 85.5C91.5 85.5 86.4 85.9 82 87.5" stroke="#031F28" stroke-linecap="round"/>
<path d="M107.5 83C108.833 82.3333 111.8 81 113 81" stroke="#031F28" stroke-linecap="round"/>
<path d="M88 73.5005C88.8333 73.3338 90.8 73.2005 92 74.0005" stroke="#031F28" stroke-linecap="round"/>
<path d="M107 71.9998C107.333 71.1665 108.8 69.6998 112 70.4998" stroke="#031F28" stroke-linecap="round"/>
<path d="M89.5 89.5C87.5 89.9 86.6667 87.6667 86.5 86.5L89 86H91.5C91.6667 87 91.5 89.1 89.5 89.5Z" fill="#031F28"/>
<path d="M86.5 86.5C86.6667 87.6667 87.5 89.9 89.5 89.5C91.5 89.1 91.6667 87 91.5 86" stroke="#031F28" stroke-linecap="round"/>
<path d="M110 85C108.8 85 108.5 83.1667 108.5 82.5L111.5 81.5C111.5 82.6667 111.5 85 110 85Z" fill="#031F28"/>
<path d="M108.5 82.5C108.5 83.1667 108.8 85 110 85C111.5 85 111.5 82.6667 111.5 81.5" stroke="#031F28" stroke-linecap="round"/>
<path d="M103.5 98.4997C102.5 97.9997 97 99.4997 97 100.5C97 100.999 97.5 102.5 100 102C102.5 101.5 104.5 98.9997 103.5 98.4997Z" fill="white" stroke="#031F28" stroke-linecap="round"/>
<path d="M91 211.5C91.7301 211.5 92.5 212.286 92.5 213.5C92.5 214.714 91.7301 215.5 91 215.5C90.2699 215.5 89.5 214.714 89.5 213.5C89.5 212.286 90.2699 211.5 91 211.5Z" fill="#AFAFAF" stroke="#031F28" stroke-linecap="round"/>
<path d="M108 203V216.5" stroke="#031F28" stroke-linecap="round"/>
<path d="M91.5 138C92.1667 147 93.4 165.7 93 168.5" stroke="#031F28" stroke-linecap="round"/>
<path d="M94.5 172L98.5 161.5" stroke="#031F28" stroke-linecap="round"/>
<path d="M85.5 119C87.3333 120.833 91 126 91 134" stroke="#031F28" stroke-linecap="round"/>
<path d="M72.5 131L78 132.5" stroke="#031F28" stroke-linecap="round"/>
<path d="M84 131.5C85.6667 130.833 89.2 129 90 127" stroke="#031F28" stroke-linecap="round"/>
<path d="M106.5 141.5C107.5 149.5 109.3 166.5 108.5 170.5" stroke="#031F28" stroke-linecap="round"/>
<path d="M100.5 129.5C101.5 130.667 103.5 133.2 103.5 134C103.5 134.8 100.833 137.333 99.5 138.5C101 139.833 104 142.7 104 143.5C104 144.3 102 152.167 101 156" stroke="#031F28" stroke-linecap="round"/>
<path d="M87.5 114C90.3333 115.833 96.2 119.8 97 123" stroke="#031F28" stroke-linecap="round"/>
<path d="M101 125C108.167 132.833 122.7 149.1 123.5 151.5" stroke="#031F28" stroke-linecap="round"/>
<path d="M120 158.499C120.167 156.832 121.2 153.099 124 151.499C127.5 149.499 143 137 144.5 139" stroke="#031F28" stroke-linecap="round"/>
<path d="M143 140.5C145 138.834 149.6 135.1 152 133.5C155 131.5 158.5 130 162.5 127C166.5 124 168 122 169.5 123C171 124 169 127.5 168 129C167 130.5 160.5 135 160 137.5C159.5 140 161 141.5 164 142C167 142.5 170 145.5 168.5 147.5C167 149.5 160 146 157 146.5C154.6 146.9 151.5 147.667 151 148" stroke="#031F28" stroke-linecap="round"/>
<path d="M143 139C143 142 143.4 148.2 145 149" stroke="#031F28" stroke-linecap="round"/>
<path d="M128 166.5C130 165 134.7 161.2 137.5 158C141 154 142.5 149.5 145.5 149C148.5 148.5 154 147 157.5 147.5C161 148 167 151 167 152.5C167 153.7 166.833 154.333 166.5 154.5" stroke="#031F28" stroke-linecap="round"/>
<path d="M132 182C133.833 180.5 137.2 177 138 177C139 177 142.5 177 147 173.5C151.5 170 150 169.5 153.5 167.5C157 165.5 157.5 166.5 160.5 165C162.9 163.8 163.167 162.5 163 162" stroke="#031F28" stroke-linecap="round"/>
<path d="M150.5 162.5C152.167 162 156.1 161 158.5 161C161.5 161 162.5 162.5 164 162C165.2 161.6 165.5 159.5 165.5 158.5" stroke="#031F28" stroke-linecap="round"/>
<path d="M149 157.5C151 157.167 155.6 156.5 158 156.5C161 156.5 164 158.5 166 158.5C168 158.5 168.5 157.5 168.5 156.5C168.5 155.5 161.5 151.5 159 151.5C157 151.5 150.833 152.167 148 152.5" stroke="#031F28" stroke-linecap="round"/>
<path d="M126 194C127.833 194.667 132.9 195.2 138.5 192C144.1 188.8 154.5 173.333 159 166" stroke="#031F28" stroke-linecap="round"/>
<path d="M121.5 196.5C122.833 198 127.5 200.4 135.5 198C145.5 195 159.5 173.5 165 163" stroke="#031F28" stroke-linecap="round"/>
<path d="M166.5 151.5C167.833 151.166 169.918 151.171 170.5 153.5C171 155.5 170.5 157.5 168.5 157.5" stroke="#031F28" stroke-linecap="round"/>
<path d="M165.5 150.5C166.333 149.167 168.3 146.7 171.5 147.5C175.5 148.5 176.5 151 176 155.5C175.5 160 170.5 167 164 162" stroke="#031F28" stroke-linecap="round"/>
<path d="M165 161.001C165.833 161.501 167.8 162.401 169 162.001C170.5 161.501 172.5 160.001 173.5 157.501C174.5 155.001 174.5 152.001 173.5 150.501C172.5 149.001 169 147.5 166 151.001" stroke="#031F28" stroke-linecap="round"/>
<path d="M52.7633 51.1299C54.1009 51.4692 57.0177 52.471 59.1217 54.5449C60.183 55.5911 61.0506 56.9242 61.3873 58.5898C61.7244 60.2574 61.5182 62.2036 60.5231 64.4541C59.3517 67.1038 57.5308 68.3805 55.442 68.7217C53.4035 69.0546 51.1886 68.4842 49.193 67.6338C47.1858 66.7784 45.3301 65.6092 43.983 64.6611C43.3081 64.1861 42.7571 63.7634 42.3737 63.459C42.1861 63.3101 42.0376 63.1896 41.9352 63.1045H41.4235L41.5651 62.4053C41.8877 60.8059 42.7503 59.3072 43.8219 57.9746C44.8962 56.6388 46.205 55.4402 47.4615 54.4395C48.7197 53.4374 49.9383 52.6247 50.8414 52.0625C51.2934 51.7812 51.6672 51.5615 51.9293 51.4121C52.0604 51.3374 52.164 51.2802 52.235 51.2412C52.2703 51.2219 52.2972 51.2064 52.316 51.1963C52.3255 51.1912 52.3334 51.1873 52.3385 51.1846L52.3463 51.1807L52.5455 51.0752L52.7633 51.1299Z" fill="#FFFCE4" stroke="#031F28" stroke-width="1.16784" stroke-linecap="round"/>
<path d="M47.0372 65.1534C49.4047 65.6725 51.9495 66.027 54.3549 65.318C56.7225 64.6216 59.2546 62.5453 60.0901 60.1019C60.432 59.089 60.47 58.0382 60.28 57.0127C61.1789 58.8105 61.3562 61.1527 59.9889 64.2165C57.001 70.9519 49.3034 67.3943 45.1128 64.6849C45.7711 64.8749 46.4295 65.0141 47.0245 65.1534H47.0372Z" fill="#FFEB53"/>
<path d="M42.1505 62.5207C42.1505 62.5207 53.1272 68.7876 53.1651 61.0394C53.1778 56.9754 44.1382 59.7987 42.1505 62.5207Z" fill="#FFEB53"/>
<path d="M42.4336 45.6709C43.7869 45.3511 45.2836 45.29 46.8213 45.7334C48.3617 46.1776 49.9078 47.1182 51.3711 48.7471C53.064 50.6288 53.3648 52.5433 52.7744 54.3262C52.2032 56.051 50.823 57.5784 49.3184 58.8271C47.8022 60.0855 46.0949 61.1137 44.7754 61.8242C44.1139 62.1804 43.5454 62.4584 43.1416 62.6484C42.9396 62.7435 42.7783 62.8167 42.667 62.8662C42.6116 62.8909 42.5687 62.91 42.5391 62.9229C42.5244 62.9292 42.5128 62.9341 42.5049 62.9375C42.5009 62.9392 42.4973 62.9405 42.4951 62.9414L42.4932 62.9424L42.4922 62.9434H42.4912L42.2012 63.0664L41.9395 62.8906C39.2004 61.0578 37.8441 57.5828 37.1602 54.6982C36.8139 53.238 36.6309 51.8893 36.5342 50.9062C36.4857 50.4141 36.4582 50.0117 36.4434 49.7314C36.4359 49.5915 36.4323 49.4817 36.4297 49.4062C36.4284 49.3686 36.4273 49.3395 36.4268 49.3193C36.4265 49.3093 36.4259 49.3014 36.4258 49.2959V49.2871V49.2861L36.4219 49.0225L36.6162 48.8447C37.5745 47.9718 39.745 46.3064 42.4336 45.6709Z" fill="#FFFCE4" stroke="#031F28" stroke-width="1.16784" stroke-linecap="round"/>
<path d="M49.3286 55.8094C50.1642 54.5054 50.7212 52.2391 50.0882 50.6313C49.4552 48.9854 48.569 47.7193 47.4295 46.5166C48.5816 46.9977 49.759 47.8333 50.9365 49.1373C55.4436 54.1509 48.9108 58.8479 44.8848 61.0888C46.8471 59.3797 48.455 57.1641 49.3286 55.8094Z" fill="#FFEB53"/>
<path d="M42.2638 62.4062C42.2638 62.4062 52.1643 55.9114 45.6821 52.8349C42.1119 51.1384 40.6053 59.6082 42.2638 62.4062Z" fill="#FFEB53"/>
<path d="M32.2051 49.3066C34.5507 48.7902 36.4322 49.2765 37.9072 50.3613C39.4518 51.4974 40.4947 53.2481 41.2031 55.0146C41.9145 56.7887 42.3116 58.6357 42.5312 60.0303C42.6414 60.7295 42.7073 61.3196 42.7461 61.7363C42.7655 61.9448 42.7784 62.1105 42.7861 62.2246C42.79 62.2816 42.7922 62.326 42.7939 62.3564C42.7948 62.3716 42.7955 62.3834 42.7959 62.3916C42.7961 62.3957 42.7968 62.3991 42.7969 62.4014V62.4053L42.8115 62.7256L42.5488 62.9102C39.505 65.0469 35.0011 65.3013 31.3789 65.0693C29.5474 64.952 27.8998 64.7075 26.7109 64.4922C26.1161 64.3845 25.6345 64.2838 25.3008 64.21C25.134 64.173 25.004 64.1423 24.915 64.1211C24.8706 64.1105 24.8359 64.1025 24.8125 64.0967C24.8011 64.0939 24.7923 64.0914 24.7861 64.0898C24.783 64.0891 24.7801 64.0883 24.7783 64.0879H24.7764V64.0869L24.9189 63.5215L24.7754 64.0869L24.4912 64.0146L24.3799 63.7441C23.833 62.4198 23.0052 59.5854 23.6533 56.6934C23.9803 55.2348 24.6826 53.7624 25.9785 52.4775C27.2723 51.1948 29.131 50.1251 31.7305 49.4238L32.2051 49.3066Z" fill="#FFFCE4" stroke="#031F28" stroke-width="1.16784" stroke-linecap="round"/>
<path d="M42.2007 62.292C40.3269 57.6203 38.4912 52.1383 33.1231 50.9356C31.9583 50.6697 30.7176 50.6571 29.4642 50.8343C30.1732 50.5178 30.9708 50.2393 31.8697 49.9861C40.9979 47.5173 42.0994 60.6842 42.2007 62.292Z" fill="#FFEB53"/>
<path d="M42.2135 62.4325C42.2135 62.4325 39.4535 51.4053 33.5031 56.0517C29.8822 58.8749 38.6306 63.1542 42.2135 62.4325Z" fill="#FFEB53"/>
<path d="M33.7158 61.7373C35.8985 61.4176 38.0335 61.4415 39.6162 61.5439C40.4089 61.5953 41.067 61.667 41.5283 61.7256C41.7591 61.7549 41.9414 61.7808 42.0664 61.7998C42.1286 61.8093 42.1768 61.8168 42.21 61.8223C42.2263 61.8249 42.2392 61.8276 42.248 61.8291C42.2524 61.8298 42.2563 61.8297 42.2588 61.8301C42.26 61.8303 42.261 61.8309 42.2617 61.8311H42.2627C42.263 61.8311 42.2623 61.8311 42.1836 62.2832L42.71 62.1885C43.3397 63.8612 43.3428 65.8648 43.0352 67.877C42.7261 69.8984 42.0941 71.9865 41.3955 73.8623C40.6959 75.7406 39.9236 77.422 39.3271 78.6328C39.0288 79.2385 38.7737 79.7279 38.5928 80.0664C38.5024 80.2356 38.4305 80.3672 38.3809 80.457C38.3562 80.5016 38.3374 80.5361 38.3242 80.5596L38.3047 80.5938L38.3037 80.5957L38.3027 80.5967L38.1855 80.8047L37.9561 80.8701C36.2586 81.356 32.4396 82.0453 29.1875 80.9385C27.5399 80.3776 26.0189 79.3485 25.0176 77.5908C24.0209 75.841 23.5773 73.435 23.9473 70.1895C24.2707 67.341 25.6167 65.3673 27.4531 64.0381C29.2693 62.7235 31.5392 62.0562 33.7158 61.7373Z" fill="#FFFCE4" stroke="#031F28" stroke-width="1.16784" stroke-linecap="round"/>
<path d="M36.8709 63.026C33.6045 63.8489 30.1988 65.0137 27.7174 67.7357C25.3372 70.3564 24.9447 71.4832 24.5143 73.9014C24.375 72.8252 24.3624 71.6225 24.5143 70.2425C25.5271 61.3548 36.643 61.7726 40.6944 62.2031C39.2891 62.3423 37.7951 62.7855 36.8582 63.026H36.8709Z" fill="#FFEB53"/>
<path d="M42.1629 62.4062C42.1629 62.4062 29.5784 62.5582 32.5283 69.648C34.3641 74.0539 41.8464 65.8879 42.1629 62.4062Z" fill="#FFEB53"/>
<path d="M42.1416 61.9014C43.8795 61.7612 45.7194 62.2272 47.4707 62.9658C49.2277 63.7069 50.9371 64.7398 52.4287 65.7783C53.9222 66.8181 55.2103 67.8728 56.124 68.667C56.5811 69.0643 56.9453 69.3975 57.1963 69.6318C57.3218 69.749 57.4191 69.8416 57.4854 69.9053C57.5185 69.9371 57.5442 69.9616 57.5615 69.9785L57.5889 70.0059L57.7549 70.1699L57.7617 70.4023C57.8137 72.0596 57.5778 75.9316 55.751 78.9912C54.8285 80.5362 53.4875 81.8927 51.5635 82.6309C49.6418 83.368 47.2045 83.4622 44.1328 82.6055C41.1029 81.7607 39.3885 80.0143 38.5859 77.8457C37.7981 75.7169 37.9131 73.2484 38.375 70.958C38.839 68.6576 39.6667 66.4706 40.373 64.8662C40.7271 64.0621 41.0525 63.3996 41.29 62.9375C41.4087 62.7067 41.5056 62.5256 41.5732 62.4014C41.5843 62.381 41.595 62.362 41.6045 62.3447V61.9443L42.1416 61.9014Z" fill="#FFFCE4" stroke="#031F28" stroke-width="1.16784" stroke-linecap="round"/>
<path d="M40.9479 74.4718C42.1253 77.7508 45.0499 82.144 48.7721 82.5618C47.468 82.6631 45.9868 82.5112 44.3029 82.0427C36.3648 79.8272 38.6057 70.8635 40.5554 65.9893C40.5301 66.1665 40.5174 66.3438 40.5048 66.5337C39.9224 69.0404 39.9604 71.7371 40.9479 74.4591V74.4718Z" fill="#FFEB53"/>
<path d="M42.1882 62.4951C42.1882 62.4951 37.8709 75.0796 46.2395 73.3705C50.9365 72.4083 45.4292 63.6472 42.1882 62.4951Z" fill="#FFEB53"/>
<path d="M170 124.5C170.833 125 172.3 126.4 171.5 128C170.5 130 163 136 160.5 137" stroke="#031F28" stroke-linecap="round"/>
<path d="M171 128.5C171.5 129.333 172.2 131.3 171 132.5C169.8 133.7 163.167 137 160 138.5" stroke="#031F28" stroke-linecap="round"/>
<path d="M170.5 133C170.333 134.333 168.1 137.5 160.5 139.5" stroke="#031F28" stroke-linecap="round"/>
<path d="M186.012 43.3218C197.212 38.9218 212.012 39.8218 218.012 40.8218L223.012 51.8223L225.012 220.322C210.012 220.489 180.012 219.922 180.012 216.322C180.012 211.822 181.512 192.322 182.012 181.822C182.512 171.322 185.012 151.322 187.512 146.322C190.012 141.322 198.012 140.322 198.012 139.322C198.012 138.322 194.012 137.822 187.512 136.322C181.012 134.822 172.012 130.822 166.012 124.822C160.012 118.822 162.012 108.822 162.012 103.822C162.012 98.8223 157.512 90.3223 159.512 76.3223C161.512 62.3223 172.012 48.8218 186.012 43.3218Z" fill="#E0E0E0" stroke="#031F28" stroke-linecap="round"/>
</g>
</svg>
