<svg width="216" height="216" viewBox="0 0 216 216" fill="none" xmlns="http://www.w3.org/2000/svg">
<mask id="mask0_364_14902" style="mask-type:alpha" maskUnits="userSpaceOnUse" x="0" y="0" width="216" height="216">
<rect x="0.5" y="0.5" width="215" height="215" rx="6.5" fill="white" stroke="#C1C1C1"/>
</mask>
<g mask="url(#mask0_364_14902)">
<path d="M79 180C80 180 81.5 177.9 81.5 175.5" stroke="#031F28"/>
<path d="M48 188L66.5 184L67 184.5L66.5 187.5L63.5 212L63 216.5H140.5L140 207L137.5 183.5L136.5 171L149 175H163L181 166L199 153.5L205 148.5L203 144.5L197.5 136.5L194.5 135L181 141L159 148L147.5 142L128 131.5L116 127L104.5 125L103 125.5L106.5 129L109 132.5L108.5 135.5L105.5 138L96 140L86 139.5L79.5 138L76.5 135.5L77 132L80.5 126.5L73 130L60 136.5L49 144.5L37 156L31.5 164.5L27.5 174.5L27 181L30 186.5L34 188L40 188.5L48 188Z" fill="#CEEEBA"/>
<path d="M46.8815 93.5745L48.768 96.8085L49.8011 94.7423L71.4061 55.6197L82.5006 51.5322L107.025 59.7071L110.529 67.882L115.2 65.5463L118.704 67.2981L120.455 71.9694L121.039 77.2247L118.704 81.3122L116.368 82.48L117.536 88.3192V97.078L115.2 104.085L109.945 109.924L104.106 114.596L102.354 116.931L102.938 125.69L108.193 129.778L108.777 133.281L107.025 137.369L101.186 139.12L88.9237 140.288L80.7489 138.536L76.6614 136.201V132.697L80.1649 126.274L78.9971 123.354L76.6614 121.019L68.4865 119.851L59.7277 118.099L53.8885 113.428L50.385 116.347L45.7136 116.931L41.0423 115.18L36.9548 110.508L35.787 105.253L36.9548 96.4941L46.8815 93.5745Z" fill="#E8C4AC"/>
<path d="M90 163L79 162L78.5 167L79 176.5L91 173L100.5 176.5H105L111.5 172.5L113.5 170L120.5 168L126 169L127.5 168L127 166.5L125.5 166L124 163.5L120 161L114 159H105.5H100.5L98 154.5L95 150.5H93.5L92.5 152L93.5 155.5V157.5L90 163Z" fill="#E8C4AC"/>
<path d="M203.5 132L197 136.5L199.5 139L203.5 145.5L208.5 142.5H213.5L216.5 141.5V124L213.5 124.5L212 123.5L212.5 120L211.5 116.5L210 114H207.5L206.5 116L207 118.5V121.5L203.5 127V132Z" fill="#E8C4AC"/>
<path d="M57.9759 92.4071L49.2171 97.0785L42.794 96.4945L38.1226 99.4141L35.203 105.253L25.2764 92.4071L28.196 66.7146L30.5317 61.4593L24.6925 63.2111H17.1015L8.92661 59.7076L3.0874 52.1166L3.67132 40.4382L8.34269 29.9276L15.9336 22.3367L24.6925 20.001L34.0352 21.7527L39.8744 27.008L42.794 36.3507L44.5457 39.2703L54.4724 34.599L71.99 31.6794L85.4202 34.599L99.4342 43.3578L108.777 56.788L111.697 66.7146L110.529 70.2181L107.025 63.2111L97.0986 61.4593L83.6684 56.788L76.6614 55.0362L74.3257 67.8824L69.0704 81.3126L57.9759 92.4071Z" fill="#031F28"/>
<path d="M106.901 63.7881C111.57 71.3299 116.813 79.949 117.675 88.5682C118.752 99.3422 114.443 105.807 111.21 109.039C107.978 112.271 103.669 114.426 102.591 116.581C101.514 118.735 102.591 132.114 108.193 130.946" stroke="#031F28" stroke-width="1.16784" stroke-linecap="round"/>
<path d="M76.7346 132.697C84.2524 129.777 78.4585 121.75 76.7346 120.888C74.5798 119.811 62.7278 121.967 54.1087 113.347C47.6443 120.888 36.6548 114.64 35.7929 106.883C34.7155 97.1864 46.5668 91.7986 50.8764 100.419" stroke="#031F28" stroke-width="1.16784" stroke-linecap="round"/>
<path d="M35.7941 104.73C15.3233 88.5692 30.4058 62.7106 30.4058 61.6332C30.4058 60.5558 17.4761 68.0963 6.70309 57.3235C0.23854 50.8591 2.75421 32.8133 13.1679 25.0011C21.7874 18.5349 32.5613 18.5351 39.0254 26.0775C42.472 30.0991 43.3346 40.0852 44.412 40.0852C45.4894 40.0852 48.7218 35.7754 63.8053 32.5432C78.8889 29.3109 93.9725 36.8528 102.592 47.6267C109.445 56.1932 111.93 63.789 111.212 70.2534" stroke="#031F28" stroke-width="1.16784" stroke-linecap="round"/>
<path d="M76.7339 47.6279C77.8113 60.1976 73.7172 87.7071 48.7216 97.1882" stroke="#031F28" stroke-width="1.16784" stroke-linecap="round"/>
<path d="M76.7338 54.0918C84.9938 57.6831 102.807 64.4348 107.978 62.711" stroke="#031F28" stroke-width="1.16784" stroke-linecap="round"/>
<path d="M111.211 68.0976C111.929 66.661 114.228 64.4344 117.675 67.0202C121.985 70.2524 121.985 82.1035 116.598 82.1035" stroke="#031F28" stroke-width="1.16784" stroke-linecap="round"/>
<path d="M42.2574 104.729C44.0531 105.088 47.6444 106.452 47.6444 109.038" stroke="#031F28" stroke-width="1.16784" stroke-linecap="round"/>
<path d="M115.52 70.252C115.52 71.3294 115.951 73.6996 117.675 74.5615" stroke="#031F28" stroke-width="1.16784" stroke-linecap="round"/>
<path d="M79.9658 127.354C77.811 130.586 73.0708 135.542 79.9661 138.128C88.5853 141.36 104.746 140.283 107.979 135.973C111.211 131.663 106.901 129.509 103.669 126.276" stroke="#031F28" stroke-width="1.16784" stroke-linecap="round"/>
<path d="M80.1636 126.858C67.3174 132.698 62 134.5 52 142C41.9999 149.5 35.0183 157.591 31 165.5C27.8333 171.167 23.6 183.5 32 187.5C42.5 192.5 82.5 180 79.5 179.5C78.5136 179.336 77.3272 160 80.1636 160C81 160 64 159 50 164M66.8834 184.031C67.3834 186.174 64.696 201.454 63 216" stroke="#031F28" stroke-width="1.16784" stroke-linecap="round"/>
<path d="M102.938 125.106C110.48 125.106 120.971 128.15 128.046 131.53C139.5 137 156.268 148 159.5 148C162.086 148 187 138.47 194.5 135C198.81 135.718 203.638 145.414 204.5 148C205.577 151.232 173.697 171.268 164 174.5C156.243 177.086 141.169 173.155 136.5 171" stroke="#031F28" stroke-width="1.16784" stroke-linecap="round"/>
<path d="M134.913 161.831C136.709 174.042 140.5 206.519 140.5 216" stroke="#031F28" stroke-width="1.16784" stroke-linecap="round"/>
<path d="M89.6626 89.6455C91.4583 88.5681 94.8341 87.2752 93.9722 90.7229" stroke="#031F28" stroke-width="1.16784" stroke-linecap="round"/>
<path d="M91.8174 67.0202C92.1765 65.2245 93.9722 61.8487 98.2818 62.7106" stroke="#031F28" stroke-width="1.16784" stroke-linecap="round"/>
<path d="M38.6985 71.0723C40.0362 71.4116 42.953 72.4134 45.0569 74.4873C46.1182 75.5334 46.9859 76.8666 47.3226 78.5322C47.6596 80.1998 47.4534 82.146 46.4583 84.3965C45.287 87.0462 43.466 88.3229 41.3773 88.6641C39.3388 88.997 37.1239 88.4266 35.1282 87.5762C33.121 86.7208 31.2653 85.5516 29.9183 84.6035C29.2434 84.1285 28.6923 83.7058 28.3089 83.4014C28.1214 83.2525 27.9729 83.132 27.8704 83.0469H27.3587L27.5003 82.3477C27.823 80.7483 28.6855 79.2495 29.7571 77.917C30.8315 76.5812 32.1402 75.3826 33.3968 74.3818C34.655 73.3798 35.8736 72.5671 36.7767 72.0049C37.2286 71.7236 37.6024 71.5039 37.8646 71.3545C37.9957 71.2797 38.0993 71.2225 38.1702 71.1836C38.2055 71.1642 38.2325 71.1488 38.2513 71.1387C38.2607 71.1336 38.2687 71.1297 38.2737 71.127L38.2816 71.123L38.4808 71.0176L38.6985 71.0723Z" fill="#FFFCE4" stroke="#031F28" stroke-width="1.16784"/>
<path d="M32.9725 85.0958C35.34 85.6148 37.8848 85.9693 40.2902 85.2604C42.6578 84.564 45.1899 82.4877 46.0254 80.0442C46.3673 79.0314 46.4053 77.9806 46.2154 76.9551C47.1142 78.7529 47.2915 81.0951 45.9242 84.1589C42.9363 90.8943 35.2387 87.3367 31.0481 84.6273C31.7064 84.8172 32.3648 84.9565 32.9598 85.0958H32.9725Z" fill="#FFEB53"/>
<path d="M28.0858 82.463C28.0858 82.463 39.0625 88.73 39.1004 80.9818C39.1131 76.9178 30.0735 79.741 28.0858 82.463Z" fill="#FFEB53"/>
<path d="M28.3688 65.6133C29.7221 65.2935 31.2188 65.2324 32.7565 65.6758C34.2969 66.12 35.843 67.0606 37.3063 68.6895C38.9993 70.5712 39.3001 72.4857 38.7097 74.2686C38.1384 75.9934 36.7582 77.5208 35.2536 78.7695C33.7374 80.0279 32.0302 81.0561 30.7106 81.7666C30.0491 82.1228 29.4806 82.4008 29.0768 82.5908C28.8749 82.6859 28.7135 82.7591 28.6022 82.8086C28.5468 82.8332 28.5039 82.8524 28.4743 82.8652C28.4596 82.8716 28.4481 82.8765 28.4401 82.8799C28.4362 82.8816 28.4326 82.8829 28.4304 82.8838L28.4284 82.8848L28.4274 82.8857H28.4265L28.1364 83.0088L27.8747 82.833C25.1356 81.0001 23.7794 77.5252 23.0954 74.6406C22.7492 73.1804 22.5662 71.8317 22.4694 70.8486C22.421 70.3565 22.3935 69.9541 22.3786 69.6738C22.3712 69.5339 22.3675 69.4241 22.3649 69.3486C22.3637 69.311 22.3625 69.2819 22.362 69.2617C22.3617 69.2517 22.3611 69.2438 22.361 69.2383V69.2295V69.2285L22.3571 68.9648L22.5515 68.7871C23.5097 67.9141 25.6802 66.2487 28.3688 65.6133Z" fill="#FFFCE4" stroke="#031F28" stroke-width="1.16784"/>
<path d="M35.2639 75.7518C36.0995 74.4477 36.6566 72.1815 36.0235 70.5736C35.3905 68.9278 34.5043 67.6617 33.3648 66.459C34.5169 66.9401 35.6944 67.7757 36.8718 69.0797C41.3789 74.0933 34.8461 78.7903 30.8201 81.0312C32.7824 79.322 34.3903 77.1064 35.2639 75.7518Z" fill="#FFEB53"/>
<path d="M28.1991 82.3486C28.1991 82.3486 38.0996 75.8537 31.6174 72.7772C28.0472 71.0807 26.5406 79.5506 28.1991 82.3486Z" fill="#FFEB53"/>
<path d="M18.1404 69.249C20.486 68.7326 22.3675 69.2188 23.8425 70.3037C25.3871 71.4397 26.43 73.1905 27.1384 74.957C27.8498 76.7311 28.2469 78.5781 28.4666 79.9727C28.5767 80.6718 28.6426 81.262 28.6814 81.6787C28.7008 81.8872 28.7137 82.0529 28.7214 82.167C28.7253 82.224 28.7275 82.2684 28.7292 82.2988C28.7301 82.314 28.7308 82.3258 28.7312 82.334C28.7314 82.3381 28.7321 82.3414 28.7322 82.3438V82.3477L28.7468 82.668L28.4841 82.8525C25.4403 84.9892 20.9364 85.2437 17.3142 85.0117C15.4827 84.8944 13.8351 84.6498 12.6462 84.4346C12.0514 84.3268 11.5698 84.2262 11.2361 84.1523C11.0693 84.1154 10.9393 84.0847 10.8503 84.0635C10.8059 84.0529 10.7712 84.0448 10.7478 84.0391C10.7364 84.0362 10.7276 84.0338 10.7214 84.0322C10.7183 84.0314 10.7154 84.0307 10.7136 84.0303H10.7117V84.0293L10.8542 83.4639L10.7107 84.0293L10.4265 83.957L10.3152 83.6865C9.76832 82.3622 8.94048 79.5277 9.58862 76.6357C9.91558 75.1772 10.6179 73.7048 11.9138 72.4199C13.2076 71.1372 15.0663 70.0675 17.6658 69.3662L18.1404 69.249Z" fill="#FFFCE4" stroke="#031F28" stroke-width="1.16784"/>
<path d="M28.136 82.2344C26.2622 77.5627 24.4265 72.0807 19.0584 70.878C17.8937 70.6121 16.6529 70.5994 15.3995 70.7767C16.1085 70.4602 16.9061 70.1816 17.805 69.9284C26.9332 67.4596 28.0347 80.6265 28.136 82.2344Z" fill="#FFEB53"/>
<path d="M28.1487 82.3749C28.1487 82.3749 25.3888 71.3476 19.4383 75.994C15.8174 78.8173 24.5658 83.0966 28.1487 82.3749Z" fill="#FFEB53"/>
<path d="M19.6512 81.6797C21.8339 81.36 23.9689 81.3839 25.5516 81.4863C26.3443 81.5376 27.0023 81.6094 27.4637 81.668C27.6945 81.6973 27.8768 81.7232 28.0018 81.7422C28.064 81.7517 28.1122 81.7592 28.1453 81.7646C28.1617 81.7673 28.1745 81.77 28.1834 81.7715C28.1878 81.7722 28.1917 81.772 28.1942 81.7725C28.1953 81.7727 28.1964 81.7733 28.1971 81.7734H28.1981C28.1983 81.7735 28.1977 81.7735 28.119 82.2256L28.6453 82.1309C29.275 83.8036 29.2782 85.8072 28.9705 87.8193C28.6615 89.8408 28.0295 91.9289 27.3309 93.8047C26.6313 95.683 25.8589 97.3644 25.2625 98.5752C24.9641 99.1809 24.709 99.6703 24.5281 100.009C24.4377 100.178 24.3658 100.31 24.3162 100.399C24.2916 100.444 24.2727 100.478 24.2596 100.502L24.2401 100.536L24.2391 100.538L24.2381 100.539L24.1209 100.747L23.8914 100.812C22.194 101.298 18.375 101.988 15.1229 100.881C13.4753 100.32 11.9542 99.2908 10.9529 97.5332C9.95622 95.7833 9.51264 93.3774 9.88263 90.1318C10.2061 87.2834 11.552 85.3097 13.3885 83.9805C15.2047 82.6659 17.4745 81.9985 19.6512 81.6797Z" fill="#FFFCE4" stroke="#031F28" stroke-width="1.16784"/>
<path d="M22.8063 82.9684C19.5399 83.7913 16.1343 84.9561 13.6528 87.6781C11.2726 90.2988 10.8802 91.4256 10.4497 93.8437C10.3104 92.7676 10.2978 91.5649 10.4497 90.1849C11.4625 81.2972 22.5784 81.715 26.6298 82.1455C25.2245 82.2847 23.7305 82.7278 22.7937 82.9684H22.8063Z" fill="#FFEB53"/>
<path d="M28.0983 82.3486C28.0983 82.3486 15.5138 82.5006 18.4637 89.5904C20.2995 93.9963 27.7818 85.8303 28.0983 82.3486Z" fill="#FFEB53"/>
<path d="M28.0768 81.8438C29.8148 81.7035 31.6547 82.1696 33.4059 82.9082C35.1629 83.6492 36.8723 84.6822 38.364 85.7207C39.8574 86.7605 41.1455 87.8151 42.0593 88.6094C42.5163 89.0067 42.8806 89.3399 43.1315 89.5742C43.257 89.6914 43.3544 89.7839 43.4206 89.8477C43.4537 89.8795 43.4794 89.904 43.4968 89.9209L43.5241 89.9482L43.6901 90.1123L43.697 90.3447C43.749 92.002 43.513 95.874 41.6862 98.9336C40.7637 100.479 39.4227 101.835 37.4987 102.573C35.5771 103.31 33.1397 103.405 30.0681 102.548C27.0381 101.703 25.3237 99.9567 24.5212 97.7881C23.7334 95.6593 23.8483 93.1908 24.3102 90.9004C24.7742 88.6 25.6019 86.413 26.3083 84.8086C26.6623 84.0045 26.9877 83.342 27.2253 82.8799C27.3439 82.6491 27.4408 82.468 27.5085 82.3438C27.5195 82.3234 27.5303 82.3044 27.5397 82.2871V81.8867L28.0768 81.8438Z" fill="#FFFCE4" stroke="#031F28" stroke-width="1.16784"/>
<path d="M26.8831 94.4142C28.0606 97.6932 30.9851 102.086 34.7073 102.504C33.4033 102.605 31.922 102.454 30.2382 101.985C22.3 99.7695 24.5409 90.8059 26.4907 85.9316C26.4653 86.1089 26.4527 86.2861 26.44 86.476C25.8576 88.9828 25.8956 91.6795 26.8831 94.4015V94.4142Z" fill="#FFEB53"/>
<path d="M28.1234 82.4375C28.1234 82.4375 23.8062 95.022 32.1747 93.3129C36.8718 92.3507 31.3645 83.5896 28.1234 82.4375Z" fill="#FFEB53"/>
<circle cx="53.3046" cy="116.348" r="4.67136" fill="#FFEB53" stroke="#031F28" stroke-width="1.16784"/>
<circle cx="121.039" cy="81.3129" r="4.67136" fill="#FFEB53" stroke="#031F28" stroke-width="1.16784"/>
<ellipse cx="62.7889" cy="105.073" rx="8.40341" ry="5.51183" transform="rotate(-20.1793 62.7889 105.073)" fill="#F2808D"/>
<ellipse cx="114.616" cy="87.5958" rx="6.96091" ry="4.7578" transform="rotate(-20.1793 114.616 87.5958)" fill="#F2808D"/>
<ellipse cx="71.9199" cy="92.9419" rx="3" ry="5.5" transform="rotate(-10.1214 71.9199 92.9419)" fill="#031F28"/>
<ellipse cx="101.92" cy="82.9419" rx="3" ry="5.5" transform="rotate(-10.1214 101.92 82.9419)" fill="#031F28"/>
<path d="M84 102C86 103 91.5 104 97.5 100" stroke="#031F28" stroke-linecap="round"/>
<path d="M197.5 136.5C199.333 135.333 202.7 132.8 203.5 132" stroke="#031F28" stroke-linecap="round"/>
<path d="M206.5 135C205.5 134.666 203.5 133.2 203.5 130C203.5 126 206 124 207 122C208 120 206 117 206.5 115.5C207 114 210 112.5 211.5 116C212.7 118.8 212.333 122.167 212 123.5C213 124.167 214.7 126.5 213.5 130.5" stroke="#031F28" stroke-linecap="round"/>
<path d="M213.5 124.5L216.5 124" stroke="#031F28" stroke-linecap="round"/>
<path d="M203.5 145.5C204.833 144.5 207.7 142.5 208.5 142.5C209.5 142.5 214 142.5 216.5 141.5" stroke="#031F28" stroke-linecap="round"/>
<path d="M79 162.5L90 163" stroke="#031F28" stroke-linecap="round"/>
<path d="M89 165C89.5 163.833 91.0587 161.412 92 160C93 158.5 94 157 93.5 155.5C92.8675 153.603 92 151 93.5 150.5C95 150 98 153 99 156.5C100 160 102 159 105 159C108 159 111.311 158.662 115.5 159.5C120.5 160.5 125.5 164 125.5 166C125.5 167.6 123.833 167.333 123 167C119.833 166 112.7 164.2 109.5 165" stroke="#031F28" stroke-linecap="round"/>
<path d="M79 176.5C82.1667 175.333 89 173 91 173C93.5 173 98 176.5 103 176.5C107 176.5 111.667 172.167 113.5 170" stroke="#031F28" stroke-linecap="round"/>
<path d="M109 169.5C111.833 168.833 118.1 168 120.5 168C123.5 168 125 169.5 127 168.5C128.6 167.7 126.667 166.167 125.5 165.5" stroke="#031F28" stroke-linecap="round"/>
<path d="M109.5 171.5C112 170.333 118.5 168 120.5 168" stroke="#031F28" stroke-linecap="round"/>
<path d="M80 160C80.5 160 81.5 161.3 81.5 162.5" stroke="#031F28"/>
<path d="M79.5 179.5C80.3333 179.167 82 178.3 82 175.5" stroke="#031F28"/>
</g>
</svg>
