<svg width="217" height="217" viewBox="0 0 217 217" fill="none" xmlns="http://www.w3.org/2000/svg">
<mask id="mask0_364_14604" style="mask-type:alpha" maskUnits="userSpaceOnUse" x="0" y="0" width="217" height="217">
<path d="M7 0.5H210C213.59 0.5 216.5 3.41015 216.5 7V210C216.5 213.59 213.59 216.5 210 216.5H7C3.41015 216.5 0.5 213.59 0.5 210V7C0.500003 3.41015 3.41015 0.5 7 0.5Z" fill="white" stroke="#C1C1C1"/>
</mask>
<g mask="url(#mask0_364_14604)">
<path d="M100.799 154L94.2993 185C92.2993 192 94.2993 192.448 107 193C118.5 193.5 118 193.5 141 193C166.5 192.446 162.5 189 163 185.5L157.299 147.5L179.799 178H181.299L189.799 171.5V169.5L184.299 157L173.299 139L159.799 122.5L146.799 112.5L136.299 109.5H117.299L104.799 117.5L92.2993 127L83.7993 136.5L72.2993 138L70.2993 142V151L72.7993 160L76.2993 164H80.7993L89.7993 161L100.799 154Z" fill="#CEEEBA"/>
<path d="M159 217.5H97.5L97 210.5L97.5 192L102.5 192.5L123.5 193.5L146 192.5L160.5 191L160 209.5L159 217.5Z" fill="#72BA5F"/>
<path d="M97.4999 192C97.1666 199.167 96.6999 214.3 97.4999 217.5" stroke="#031F28" stroke-linecap="round"/>
<path d="M121 204C121.167 208 121.6 216.3 122 217.5" stroke="#031F28" stroke-linecap="round"/>
<path d="M160.5 191C160.5 198.5 160.2 214.3 159 217.5" stroke="#031F28" stroke-linecap="round"/>
<path d="M107.799 58L99.2993 61L99.7993 73H95.2993L91.7993 75.5L90.2993 80.5L91.7993 86.5L94.2993 88L96.7993 89L99.7993 95L104.299 99L110.299 101.5L118.799 104.5L119.799 105.5L119.299 110.5L117.299 112L118.299 115.5L121.299 117.5L127.799 118L134.799 116L137.299 113L137.799 111L135.799 110L135.299 108.5L135.799 105.5L136.299 102.5L146.799 99.5L151.799 95.5L158.799 97L162.799 96.5L167.799 92.5L169.799 86.5L169.299 81.5L166.299 78.5L161.799 77L157.799 78.5L158.799 76L155.299 74.5L158.799 71L155.299 65.5L152.299 59.5L140.299 56L126.799 55.5L120.299 56L107.799 58Z" fill="#E8C4AC"/>
<path d="M79.7993 124L83.2993 137.5L79.7993 140.5L76.2993 141.5L72.7993 141L70.2993 132L68.2993 129L53.7993 122L50.7993 120L52.2993 118.5L50.2993 117.5V115.5L49.2993 115V114L50.2993 113H52.7993V111L55.2993 110.5L64.7993 112L69.2993 113.5L67.2993 108.5L67.7993 106.5H70.2993L75.2993 112L78.7993 118.5L79.7993 124Z" fill="#E8C4AC"/>
<path d="M189.299 171.5L181.799 177.5L187.799 183.5L188.299 191L195.299 197.5L196.799 199H198.299L197.799 196.5L195.799 192.5L210.299 196.5H212.799V195H214.799L215.299 193.5L213.799 192V191V189.5L212.299 188L212.799 186.5L211.299 184.5L206.299 181L194.299 177L189.299 171.5Z" fill="#E8C4AC"/>
<path d="M98.2993 47.5H101.299L98.2993 60.5L127.799 50.5L151.799 58L154.299 63L155.299 66L154.299 73V78.5L155.299 81L157.555 78.5L163.299 77.5L166.299 78.5L168.799 81L169.299 76.5L173.299 61L176.299 56.5V54L171.799 49.5L169.299 44.5L167.799 36.5L165.799 33.5L162.799 31L158.299 32L152.799 30L147.799 26L144.599 24L138.799 22L127.799 23L113.799 24L108.299 24.5L105.299 28L105.799 31L105.299 33L99.7993 36.5L97.2993 39.5L96.7993 45L98.2993 47.5Z" fill="#031F28"/>
<path d="M100.799 48L104.299 46L113.299 43L123.299 41L134.799 40H138.799L150.799 42L161.299 46.5L169.799 53.5L174.299 61L174.799 66.5L171.799 73L169.299 76L165.299 69.5L160.299 64L152.799 59.5L140.299 56L127.299 55.5L112.299 57L99.7993 60.5L99.2993 63L98.2993 61.5L97.2993 57L98.2993 52.5L100.799 48Z" fill="#FFEB53"/>
<path d="M83.2993 136.5C84.7993 135.5 88.5993 144.6 87.7993 149" stroke="#031F28" stroke-linecap="round"/>
<path d="M117.299 61.8918C115.799 60.7251 113.499 58.2921 110.299 61.8921" stroke="#031F28" stroke-linecap="round"/>
<path d="M116.299 76.9996C114.585 75.7664 111.956 73.1948 108.299 77" stroke="#031F28" stroke-linecap="round"/>
<path d="M138.299 59.8918C136.799 58.7251 134.499 56.2921 131.299 59.8921" stroke="#031F28" stroke-linecap="round"/>
<path d="M143.299 75.9996C141.156 74.7664 137.871 72.1948 133.299 76" stroke="#031F28" stroke-linecap="round"/>
<path d="M152.299 59.5C153.466 60.8333 155.699 64.1 155.299 66.5C154.799 69.5 153.299 81.5 155.299 81C157.299 80.5 157.799 78.5 160.799 74.5" stroke="#031F28" stroke-linecap="round"/>
<path d="M169.299 76C169.466 76.8333 169.599 78.6 168.799 81" stroke="#031F28" stroke-linecap="round"/>
<path d="M102.299 47.0003C98.6326 48.5003 95.5993 46.7 96.7993 41.5C98.2993 35 105.799 34.5003 105.799 32.0003C105.799 29.5003 103.799 24.0003 113.799 24.0003C123.799 24.0003 140.299 19.5003 146.299 25.0003C152.299 30.5003 157.299 32.0003 158.299 32.0003C159.299 32.0003 167.299 28 168.799 41.5C170.299 55 181.299 51 173.799 60.5" stroke="#031F28" stroke-linecap="round"/>
<path d="M99.2992 61.4999C98.8992 63.0999 99.4659 63.4999 99.7992 63.4999C96.7991 63.4999 95.7993 51.5 102.299 46.9999C105.206 44.9873 128.299 36 149.799 42C171.299 48 175.299 61.9999 174.799 66C174.399 69.2001 171.133 74.5 169.299 76C168.299 76 165.299 62.2999 147.299 57.4999C124.799 51.4999 99.7992 59.4999 99.2992 61.4999Z" stroke="#031F28" stroke-linecap="round"/>
<path d="M133.02 36.624C131.02 33.824 124.52 41.124 121.52 45.124C121.354 47.4573 121.12 52.624 121.52 54.624C122.02 57.124 131.02 54.624 134.52 53.124C138.02 51.624 135.52 40.124 133.02 36.624Z" fill="#FFEB53" stroke="#031F28" stroke-linecap="round"/>
<path d="M108.207 50.5449C108.207 56.2527 116.962 56.3825 121.34 55.7338C128.563 46.0049 121.34 32.3837 112.803 31.0864C104.267 29.7892 108.207 43.4101 108.207 50.5449Z" fill="#FFEB53" stroke="#031F28" stroke-linecap="round"/>
<path d="M99.7993 73.0001C97.1327 72.6667 91.5993 73.3001 90.7993 78.5001C89.7993 85.0001 92.2993 89 97.2993 89" stroke="#031F28" stroke-linecap="round"/>
<path d="M157.799 91.5C158.299 88.6667 160.099 83 163.299 83C166.499 83 166.633 86.3333 166.299 88" stroke="#031F28" stroke-linecap="round"/>
<path d="M99.7992 61C99.7992 62.8333 99.7992 67.2 99.7992 70C99.7992 73.5 99.7992 75.5 98.7992 78C97.7992 80.5 94.9521 85.3059 98.7992 93C100.549 96.5 105.299 100 111.799 102.5C115.197 103.807 119.799 104 119.799 105.5C119.799 107 120.299 112 118.299 112.5" stroke="#031F28" stroke-linecap="round"/>
<path d="M119.299 111C118.133 110.833 117.399 111.8 117.799 113C118.299 114.5 118.299 118.5 126.299 118C134.299 117.5 137.799 114 137.799 112C137.799 110.4 136.133 110 135.299 110" stroke="#031F28" stroke-linecap="round"/>
<path d="M119.299 110C117.799 109.334 115.076 110.851 109.299 114.5C99.7993 120.5 89.2993 128 84.2993 136.5" stroke="#031F28" stroke-linecap="round"/>
<path d="M84.2992 136.5C82.7992 138.167 78.9992 141.5 75.7992 141.5C72.5992 141.5 72.1326 139.833 72.2992 139" stroke="#031F28" stroke-linecap="round"/>
<path d="M72.2993 138.5C71.6326 139 70.2993 140.6 70.2993 143C70.2993 146 69.2993 165 79.7993 164C88.1993 163.2 99.966 154.667 100.799 153.5" stroke="#031F28" stroke-linecap="round"/>
<path d="M106.799 130C102.799 145 93.9 182 93.5 190C94.5 195 159.5 194 162 190C164 186.8 160 162.333 157.5 148" stroke="#031F28" stroke-linecap="round"/>
<path d="M135.799 109.5C139.133 109.833 146.42 111.872 150.799 115C162.299 123.214 171.299 137.5 175.799 143C180.299 148.5 190.299 168 189.799 170.5C189.299 173 181.299 178 180.299 178C179.299 178 162.299 153.5 153.799 143" stroke="#031F28" stroke-linecap="round"/>
<path d="M137.299 112.499C136.633 111.999 135.299 110.799 135.299 109.999C135.299 108.999 135.299 103.999 136.299 102.999C137.299 101.999 142.299 101.499 145.799 99.9991C149.299 98.4991 150.799 95.9993 151.799 95.4993C152.799 94.9993 156.945 96.9991 160.299 96.9991C163.799 96.9991 170.299 92.999 169.799 84.999C169.299 76.999 161.799 74.9998 156.299 79.9995" stroke="#031F28" stroke-linecap="round"/>
<path d="M123.8 77.5C120.299 77.5 119.199 81.5 122.799 81.5" stroke="#031F28" stroke-linecap="round"/>
<path d="M134.299 86.0002C133.599 85.5002 124.5 87.5001 120.299 87.5002C118.599 88.0002 122.5 96.0001 129 95.0001C134.2 94.2001 135 86.5002 134.299 86.0002Z" fill="#FFFCE4" stroke="#031F28" stroke-linecap="round"/>
<path d="M72.7993 140.5C72.466 138.5 71.3993 133.3 69.7993 130.5C67.7993 127 50.7993 121.5 50.7993 120C50.7993 118.5 53.2993 118.5 54.7993 118.5C55.9993 118.5 59.966 119.833 61.7993 120.5" stroke="#031F28" stroke-linecap="round"/>
<path d="M52.2993 118.5C51.466 118 49.4994 116.8 50.2994 116C51.2994 115 60.2994 116.5 61.7994 117.5" stroke="#031F28" stroke-linecap="round"/>
<path d="M50.2993 116C49.466 115.833 48.4991 114.8 49.2991 114C50.2991 113 51.7991 113 54.2991 113C56.7991 113 62.2991 114.5 63.7991 115" stroke="#031F28" stroke-linecap="round"/>
<path d="M53.2992 113C52.7992 112.5 52.1992 111.4 53.7992 111C55.7992 110.5 66.2993 111.5 69.2993 114" stroke="#031F28" stroke-linecap="round"/>
<path d="M69.2992 118C69.1326 116 69.6992 113.8 69.2992 113C68.7992 112 66.2992 107.5 68.2992 106.5C70.2992 105.5 75.2993 112.5 76.2993 114C77.2993 115.5 79.2993 118 79.2993 121C79.2993 123.4 81.966 133 83.2993 137.5" stroke="#031F28" stroke-linecap="round"/>
<path d="M205.299 184C208.133 185.333 213.134 188.502 213.799 189.5C214.799 191 213.466 191.333 213.299 191.5" stroke="#031F28" stroke-linecap="round"/>
<path d="M189.299 171.5C190.633 173.333 193.499 176.6 194.299 177C195.299 177.5 204.299 180 206.299 181C208.299 182 214.299 186 212.299 188" stroke="#031F28" stroke-linecap="round"/>
<path d="M181.799 177.5C183.633 179.167 187.399 182.7 187.799 183.5C188.299 184.5 186.799 189.5 189.299 192C191.799 194.5 194.799 197 195.299 197.5C195.799 198 196.299 199.5 197.799 199C199.299 198.5 195.799 193 195.299 192" stroke="#031F28" stroke-linecap="round"/>
<path d="M195.799 192.5C200.299 194 209.572 196.193 210.799 196.5C212.799 197 213.799 195.5 210.799 194C208.775 192.988 205.133 190.5 203.299 190" stroke="#031F28" stroke-linecap="round"/>
<path d="M204.799 187C208.133 188.667 214.049 191.5 214.799 193C215.299 194 215.299 195.5 212.299 195" stroke="#031F28" stroke-linecap="round"/>
<ellipse cx="145.728" cy="85.0833" rx="7.19568" ry="4.71968" transform="rotate(-4.91188 145.728 85.0833)" fill="#F2808D"/>
<ellipse cx="104.873" cy="85.3186" rx="7.19568" ry="4.71968" transform="rotate(-4.91188 104.873 85.3186)" fill="#F2808D"/>
<path d="M31.5 44.9996C20.3 40.5996 5.5 41.4996 -0.5 42.4996L-5.5 53.5L-7.5 222C7.5 222.167 37.5 221.6 37.5 218C37.5 213.5 36 194 35.5 183.5C35 173 32.5 153 30 148C27.5 143 19.5 142 19.5 141C19.5 140 23.5 139.5 30 138C36.5 136.5 45.5 132.5 51.5 126.5C57.5 120.5 55.5 110.5 55.5 105.5C55.5 100.5 60 92 58 78C56 64 45.5 50.4996 31.5 44.9996Z" fill="#E0E0E0" stroke="#031F28"/>
<path d="M30 172.5C28.1667 185.167 22.9 212.2 16.5 219" stroke="#031F28" stroke-linecap="round"/>
<path d="M17 164.5C14.8333 180.833 9.3 214.5 4.5 218.5" stroke="#031F28" stroke-linecap="round"/>
</g>
</svg>
