<svg width="216" height="216" viewBox="0 0 216 216" fill="none" xmlns="http://www.w3.org/2000/svg">
<mask id="mask0_364_14828" style="mask-type:alpha" maskUnits="userSpaceOnUse" x="0" y="0" width="216" height="216">
<rect x="0.5" y="0.5" width="215" height="215" rx="6.5" fill="white" stroke="#C1C1C1"/>
</mask>
<g mask="url(#mask0_364_14828)">
<path d="M117.969 109.862L120.089 119.401L121.169 132.827H74.5112L73.4513 114.455L71.6847 94.6695L64.6184 79.1237L67.0916 78.4171L72.7446 75.5906L76.9844 71.3508L78.751 68.8776L79.1043 67.8177L75.2178 62.518L71.3314 59.6915L70.2714 53.3318L68.1515 47.6788L63.5585 40.9659H82.9907L94.2968 36.7261L104.896 32.4863L109.489 36.7261L113.376 41.3192L115.496 46.2656L116.202 50.5053L115.849 55.805L117.615 61.1047L117.969 63.9312L117.615 70.2909L114.789 75.5906L110.549 93.2563L114.436 100.676L117.969 109.862Z" fill="#E0E0E0"/>
<path d="M119.736 60.3978L117.969 61.1045L115.849 55.8048L116.202 52.9783V48.7385L114.789 44.1454L112.669 40.259L109.489 36.3725L104.896 32.4861L114.789 28.5996L117.262 32.1327L119.382 36.7258L119.736 42.0255L119.382 48.0319L118.322 52.6249L119.736 55.0981L120.442 57.9246L119.736 60.3978Z" fill="#FFEB53"/>
<path d="M36 40.2588C36 40.8241 40.5931 40.6121 45.5395 40.6121L63.5585 40.9654C66.7383 41.3187 80.7295 41.248 82.9907 40.9654C85.8172 40.6121 121.149 25.7729 121.855 25.4196C122.562 25.0663 121.855 20.8265 121.855 19.7666C121.855 18.7066 83.6973 18 79.1043 18C74.5112 18 36 35.6657 36 36.019V40.2588Z" fill="#E8C4AC" stroke="#031F28" stroke-linecap="round"/>
<path d="M64.6185 79.1238L60.3787 79.8304L58.2588 78.4172L57.5522 76.2973L57.1989 71.3509L54.7257 67.8178L50.4859 63.578L45.8928 56.5117L43.7729 49.0921V45.9123L44.4796 42.7325L45.5395 40.2593L49.426 37.0795L52.2525 36.0195H57.1989L60.0254 37.7861L63.5585 40.9659L67.445 46.6189L70.2715 52.6253L71.3314 59.6915L73.8046 61.1048L77.6911 65.6979L79.1043 68.1711L77.3377 71.3509L71.3314 76.2973L64.6185 79.1238Z" fill="#FFEB53"/>
<path d="M121.855 19.7666C110.196 25.1841 86.1705 36.019 83.344 36.019C81.5591 36.019 68.9721 36.019 56.2601 36.019M36 36.019C40.3925 36.019 46.1702 36.019 52.1793 36.019" stroke="#031F28" stroke-linecap="round"/>
<path d="M114.789 75.5898C113.729 80.5362 111.397 90.9943 110.549 93.2555" stroke="#031F28" stroke-linecap="round"/>
<path d="M105.603 85.4834C108.312 89.2521 113.698 98.3596 115.849 103.856C120.274 115.164 121.167 132.047 121.521 132.4" stroke="#031F28" stroke-linecap="round"/>
<path d="M114.789 28.5996C116.673 30.3662 119.453 34.5353 119.735 41.3189C120.018 48.1025 118.44 53.5671 117.616 55.4514" stroke="#031F28" stroke-linecap="round"/>
<path d="M118.675 52.9775C119.382 53.9197 120.725 56.5813 120.442 58.2772C120.159 59.9731 118.793 60.8682 117.969 61.1038" stroke="#031F28" stroke-linecap="round"/>
<path d="M74.5112 132.827C73.9223 120.932 72.5326 96.6474 71.6847 94.6688C70.8367 92.6903 66.6205 83.4806 64.6184 79.123" stroke="#031F28" stroke-linecap="round"/>
<path d="M76.9845 71.3506C81.6953 76.6503 91.4704 87.815 92.8836 90.0762" stroke="#031F28" stroke-linecap="round"/>
<path d="M71.3315 63.2249C71.3625 62.3254 71.3429 61.1007 71.2352 59.6916M71.2352 59.6916C70.9339 55.7506 69.9435 50.3669 67.445 46.6192C63.2053 40.2595 58.2589 33.1933 50.1327 36.7264C42.0065 40.2595 43.0664 48.7389 45.5396 55.4519C48.0128 62.1648 56.8457 69.9377 57.199 71.351C57.5523 72.7642 57.199 80.1838 60.7321 79.8305C64.2652 79.4772 68.8583 77.7106 71.3315 76.2974C73.8047 74.8841 79.1044 69.5844 79.1044 68.1712C79.1044 66.7579 73.2587 60.3983 71.2352 59.6916Z" stroke="#031F28" stroke-linecap="round"/>
<path d="M104.896 32.4863C106.309 33.8996 111.256 37.0794 114.082 42.7324C117.615 49.7987 115.849 55.0984 115.849 55.805C115.849 56.5117 119.382 61.1047 117.615 69.2309C115.849 77.3572 107.369 86.19 89.7035 85.8367" stroke="#031F28" stroke-linecap="round"/>
<path d="M194.732 109.862L196.852 119.401L197.932 132.827H151.275L150.215 114.455L148.448 94.6695L141.382 79.1237L143.855 78.4171L149.508 75.5906L153.748 71.3508L155.514 68.8776L155.868 67.8177L151.981 62.518L148.095 59.6915L147.035 53.3318L144.915 47.6788L140.322 40.9659H159.754L171.06 36.7261L181.659 32.4863L186.253 36.7261L190.139 41.3192L192.259 46.2656L192.966 50.5053L192.612 55.805L194.379 61.1047L194.732 63.9312L194.379 70.2909L191.552 75.5906L187.312 93.2563L191.199 100.676L194.732 109.862Z" fill="#E0E0E0"/>
<path d="M196.499 60.3978L194.732 61.1045L192.612 55.8048L192.966 52.9783V48.7385L191.552 44.1454L189.432 40.259L186.253 36.3725L181.66 32.4861L191.552 28.5996L194.026 32.1327L196.145 36.7258L196.499 42.0255L196.145 48.0319L195.085 52.6249L196.499 55.0981L197.205 57.9246L196.499 60.3978Z" fill="#FFEB53"/>
<path d="M112.763 40.2588C112.763 40.8241 117.356 40.6121 122.303 40.6121L140.322 40.9654C143.502 41.3187 157.493 41.248 159.754 40.9654C162.581 40.6121 197.912 25.7729 198.619 25.4196C199.325 25.0663 198.619 20.8265 198.619 19.7666C198.619 18.7066 160.461 18 155.868 18C151.274 18 112.763 35.6657 112.763 36.019V40.2588Z" fill="#E8C4AC" stroke="#031F28" stroke-linecap="round"/>
<path d="M141.382 79.1238L137.142 79.8304L135.022 78.4172L134.315 76.2973L133.962 71.3509L131.489 67.8178L127.249 63.578L122.656 56.5117L120.536 49.0921V45.9123L121.243 42.7325L122.303 40.2593L126.189 37.0795L129.016 36.0195H133.962L136.789 37.7861L140.322 40.9659L144.208 46.6189L147.035 52.6253L148.095 59.6915L150.568 61.1048L154.454 65.6979L155.868 68.1711L154.101 71.3509L148.095 76.2973L141.382 79.1238Z" fill="#FFEB53"/>
<path d="M198.619 19.7666C186.959 25.1841 162.934 36.019 160.107 36.019C158.322 36.019 145.735 36.019 133.023 36.019M112.763 36.019C117.156 36.019 122.934 36.019 128.943 36.019" stroke="#031F28" stroke-linecap="round"/>
<path d="M191.552 75.5898C190.492 80.5362 188.16 90.9943 187.312 93.2555" stroke="#031F28" stroke-linecap="round"/>
<path d="M182.366 85.4834C185.075 89.2521 190.462 98.3596 192.612 103.856C197.037 115.164 197.931 132.047 198.284 132.4" stroke="#031F28" stroke-linecap="round"/>
<path d="M191.552 28.5996C193.437 30.3662 196.216 34.5353 196.499 41.3189C196.781 48.1025 195.203 53.5671 194.379 55.4514" stroke="#031F28" stroke-linecap="round"/>
<path d="M195.439 52.9775C196.145 53.9197 197.488 56.5813 197.205 58.2772C196.923 59.9731 195.557 60.8682 194.732 61.1038" stroke="#031F28" stroke-linecap="round"/>
<path d="M151.274 132.827C150.686 120.932 149.296 96.6474 148.448 94.6688C147.6 92.6903 143.384 83.4806 141.382 79.123" stroke="#031F28" stroke-linecap="round"/>
<path d="M153.748 71.3506C158.459 76.6503 168.234 87.815 169.647 90.0762" stroke="#031F28" stroke-linecap="round"/>
<path d="M148.095 63.2249C148.126 62.3254 148.106 61.1007 147.998 59.6916M147.998 59.6916C147.697 55.7506 146.707 50.3669 144.208 46.6192C139.968 40.2595 135.022 33.1933 126.896 36.7264C118.77 40.2595 119.83 48.7389 122.303 55.4519C124.776 62.1648 133.609 69.9377 133.962 71.351C134.315 72.7642 133.962 80.1838 137.495 79.8305C141.028 79.4772 145.621 77.7106 148.095 76.2974C150.568 74.8841 155.868 69.5844 155.868 68.1712C155.868 66.7579 150.022 60.3983 147.998 59.6916Z" stroke="#031F28" stroke-linecap="round"/>
<path d="M181.659 32.4863C183.073 33.8996 188.019 37.0794 190.845 42.7324C194.379 49.7987 192.612 55.0984 192.612 55.805C192.612 56.5117 196.145 61.1047 194.379 69.2309C192.612 77.3572 184.132 86.19 166.467 85.8367" stroke="#031F28" stroke-linecap="round"/>
<path d="M53.2917 132.827H201" stroke="#031F28" stroke-linecap="round"/>
<path d="M95.4424 169.686L98.0659 181.492L99.4027 198.107H41.6604L40.3487 175.37L38.1624 150.884L29.4173 131.645L32.4781 130.771L39.4741 127.273L44.7212 122.025L46.9074 118.965L47.3447 117.653L42.5349 111.094L37.7251 107.596L36.4134 99.7256L33.7899 92.7296L28.1056 84.4218H52.1545L66.1465 79.1748L79.2641 73.9277L84.9484 79.1748L89.7582 84.859L92.3817 90.9806L93.2562 96.2276L92.8189 102.786L95.0052 109.345L95.4424 112.843L95.0052 120.714L91.5072 127.273L86.2601 149.135L91.0699 158.317L95.4424 169.686Z" fill="#E0E0E0"/>
<path d="M97.6289 108.471L95.4426 109.345L92.8191 102.787L93.2564 99.2886V94.0415L91.5073 88.3573L88.8838 83.5475L84.9486 78.7377L79.2643 73.9279L91.5073 69.1182L94.5681 73.4907L97.1916 79.175L97.6289 85.7337L97.1916 93.167L95.8799 98.8513L97.6289 101.912L98.5034 105.41L97.6289 108.471Z" fill="#FFEB53"/>
<path d="M-6 83.5469C-6 84.2465 -0.315722 83.9841 5.80581 83.9841L28.1057 84.4214C32.0409 84.8586 49.3561 84.7712 52.1545 84.4214C55.6526 83.9841 99.3778 65.6195 100.252 65.1823C101.127 64.745 100.252 59.498 100.252 58.1863C100.252 56.8745 53.029 56 47.3448 56C41.6605 56 -6 77.8626 -6 78.2999V83.5469Z" fill="#E8C4AC" stroke="#031F28" stroke-linecap="round"/>
<path d="M29.4174 131.646L24.1704 132.52L21.5468 130.771L20.6723 128.148L20.2351 122.026L17.1743 117.653L11.9273 112.406L6.24302 103.661L3.61951 94.4791V90.5438L4.49401 86.6086L5.80577 83.5478L10.6155 79.6125L14.1136 78.3008H20.2351L23.7331 80.487L28.1056 84.4223L32.9154 91.4183L36.4134 98.8516L37.7252 107.597L40.7859 109.346L45.5957 115.03L47.3447 118.091L45.1585 122.026L37.7252 128.148L29.4174 131.646Z" fill="#FFEB53"/>
<path d="M100.252 58.1865C85.823 64.8911 56.0898 78.3001 52.5918 78.3001C50.3828 78.3001 34.8055 78.3001 19.0734 78.3001M-6 78.3001C-0.5639 78.3001 6.58641 78.3001 14.0231 78.3001" stroke="#031F28" stroke-linecap="round"/>
<path d="M91.5074 127.272C90.1956 133.394 87.3098 146.337 86.2604 149.135" stroke="#031F28" stroke-linecap="round"/>
<path d="M80.1388 139.516C83.4911 144.18 90.1575 155.451 92.8191 162.253C98.2952 176.247 99.4008 197.142 99.8381 197.579" stroke="#031F28" stroke-linecap="round"/>
<path d="M91.5073 69.1182C93.8393 71.3044 97.2791 76.464 97.6289 84.8592C97.9787 93.2545 96.0256 100.017 95.0053 102.349" stroke="#031F28" stroke-linecap="round"/>
<path d="M96.3171 99.2881C97.1916 100.454 98.8532 103.748 98.5034 105.847C98.1536 107.946 96.4629 109.053 95.4426 109.345" stroke="#031F28" stroke-linecap="round"/>
<path d="M41.6604 198.107C40.9317 183.386 39.2118 153.332 38.1624 150.884C37.113 148.435 31.8951 137.037 29.4174 131.645" stroke="#031F28" stroke-linecap="round"/>
<path d="M44.7214 122.025C50.5515 128.584 62.6488 142.401 64.3978 145.2" stroke="#031F28" stroke-linecap="round"/>
<path d="M37.7253 111.969C37.7637 110.856 37.7394 109.34 37.6061 107.597M37.6061 107.597C37.2332 102.719 36.0076 96.0565 32.9156 91.4184C27.6685 83.5479 21.547 74.8028 11.4902 79.1753C1.4334 83.5479 2.74516 94.0417 5.80592 102.349C8.86669 110.657 19.798 120.277 20.2353 122.026C20.6725 123.775 20.2353 132.957 24.6078 132.52C28.9803 132.083 34.6645 129.896 37.7253 128.147C40.7861 126.398 47.3449 119.84 47.3449 118.091C47.3449 116.342 40.1104 108.471 37.6061 107.597Z" stroke="#031F28" stroke-linecap="round"/>
<path d="M79.2641 73.9277C81.0131 75.6767 87.1347 79.612 90.6327 86.608C95.0052 95.3531 92.8189 101.912 92.8189 102.786C92.8189 103.661 97.1915 109.345 95.0052 119.402C92.8189 129.459 82.3249 140.39 60.4623 139.953" stroke="#031F28" stroke-linecap="round"/>
<path d="M190.442 169.686L193.066 181.492L194.403 198.107H136.66L135.349 175.37L133.162 150.884L124.417 131.645L127.478 130.771L134.474 127.273L139.721 122.025L141.907 118.965L142.345 117.653L137.535 111.094L132.725 107.596L131.413 99.7256L128.79 92.7296L123.106 84.4218H147.154L161.147 79.1748L174.264 73.9277L179.948 79.1748L184.758 84.859L187.382 90.9806L188.256 96.2276L187.819 102.786L190.005 109.345L190.442 112.843L190.005 120.714L186.507 127.273L181.26 149.135L186.07 158.317L190.442 169.686Z" fill="#E0E0E0"/>
<path d="M192.629 108.471L190.443 109.345L187.819 102.787L188.256 99.2886V94.0415L186.507 88.3573L183.884 83.5475L179.949 78.7377L174.264 73.9279L186.507 69.1182L189.568 73.4907L192.192 79.175L192.629 85.7337L192.192 93.167L190.88 98.8513L192.629 101.912L193.503 105.41L192.629 108.471Z" fill="#FFEB53"/>
<path d="M89 83.5469C89 84.2465 94.6843 83.9841 100.806 83.9841L123.106 84.4214C127.041 84.8586 144.356 84.7712 147.155 84.4214C150.653 83.9841 194.378 65.6195 195.252 65.1823C196.127 64.745 195.252 59.498 195.252 58.1863C195.252 56.8745 148.029 56 142.345 56C136.66 56 89 77.8626 89 78.2999V83.5469Z" fill="#E8C4AC" stroke="#031F28" stroke-linecap="round"/>
<path d="M124.417 131.646L119.17 132.52L116.547 130.771L115.672 128.148L115.235 122.026L112.174 117.653L106.927 112.406L101.243 103.661L98.6195 94.4791V90.5438L99.494 86.6086L100.806 83.5478L105.616 79.6125L109.114 78.3008H115.235L118.733 80.487L123.106 84.4223L127.915 91.4183L131.413 98.8516L132.725 107.597L135.786 109.346L140.596 115.03L142.345 118.091L140.158 122.026L132.725 128.148L124.417 131.646Z" fill="#FFEB53"/>
<path d="M195.252 58.1865C180.823 64.8911 151.09 78.3001 147.592 78.3001C145.383 78.3001 129.805 78.3001 114.073 78.3001M89 78.3001C94.4361 78.3001 101.586 78.3001 109.023 78.3001" stroke="#031F28" stroke-linecap="round"/>
<path d="M186.507 127.272C185.196 133.394 182.31 146.337 181.26 149.135" stroke="#031F28" stroke-linecap="round"/>
<path d="M175.139 139.516C178.491 144.18 185.158 155.451 187.819 162.253C193.295 176.247 194.401 197.142 194.838 197.579" stroke="#031F28" stroke-linecap="round"/>
<path d="M186.507 69.1182C188.839 71.3044 192.279 76.464 192.629 84.8592C192.979 93.2545 191.026 100.017 190.005 102.349" stroke="#031F28" stroke-linecap="round"/>
<path d="M191.317 99.2881C192.192 100.454 193.853 103.748 193.503 105.847C193.154 107.946 191.463 109.053 190.443 109.345" stroke="#031F28" stroke-linecap="round"/>
<path d="M136.66 198.107C135.932 183.386 134.212 153.332 133.162 150.884C132.113 148.435 126.895 137.037 124.417 131.645" stroke="#031F28" stroke-linecap="round"/>
<path d="M139.721 122.025C145.551 128.584 157.649 142.401 159.398 145.2" stroke="#031F28" stroke-linecap="round"/>
<path d="M132.725 111.969C132.764 110.856 132.739 109.34 132.606 107.597M132.606 107.597C132.233 102.719 131.008 96.0565 127.916 91.4184C122.669 83.5479 116.547 74.8028 106.49 79.1753C96.4334 83.5479 97.7452 94.0417 100.806 102.349C103.867 110.657 114.798 120.277 115.235 122.026C115.673 123.775 115.235 132.957 119.608 132.52C123.98 132.083 129.665 129.896 132.725 128.147C135.786 126.398 142.345 119.84 142.345 118.091C142.345 116.342 135.11 108.471 132.606 107.597Z" stroke="#031F28" stroke-linecap="round"/>
<path d="M174.264 73.9277C176.013 75.6767 182.135 79.612 185.633 86.608C190.005 95.3531 187.819 101.912 187.819 102.786C187.819 103.661 192.191 109.345 190.005 119.402C187.819 129.459 177.325 140.39 155.462 139.953" stroke="#031F28" stroke-linecap="round"/>
<path d="M15.3999 198.107H198.2" stroke="#031F28" stroke-linecap="round"/>
</g>
</svg>
