<svg width="201" height="206" viewBox="0 0 201 206" fill="none" xmlns="http://www.w3.org/2000/svg">
<path d="M87 110.277L112.5 111.277L120 108.777L124.5 109.777L140 116.277L145 121.777L155 135.777L165 154.277L171 166.777V172.277L168.5 177.277L165 179.777L158.5 182.277L146.5 184.777L140.5 185.777L135 182.777L107.5 176.277H90L62 185.277L57 188.277L50 187.277L34 181.277L28 177.277L25.5 172.777L26 166.277L28 158.777L41 138.277L55.5 118.777L60 115.777L64 113.277L73 110.277L81.5 108.277L87 110.277ZM57 165.277L65 168.777V153.777L57 165.277ZM133.5 167.777L141 164.777L134 153.277L133.5 167.777Z" fill="#CEEEBA"/>
<path d="M70 155.777L78 168.777L85.5 173.777L73 153.277L70.5 152.277L69 153.277L70 155.777Z" fill="#AFAFAF"/>
<path d="M91 187.777L87.5 184.277V181.777H89.5L90 180.277L93 185.777V186.777L91 187.777Z" fill="#AFAFAF"/>
<path d="M73.5 154.277L70.5 156.277L69 154.277V152.777L70.5 151.777L72.5 152.777L73.5 154.277Z" fill="#9ED47C"/>
<path d="M60 90.2773L62.5 93.7773L68.5 94.2773L73 102.777L78 106.277L85.5 109.777L87 110.777L84 115.777L84.5 119.277L88 123.777L94 126.777L101.5 127.277L109 125.777L113.5 121.777L115 115.777L113 111.277L119.5 108.777L124.5 104.777L128 99.2773L129.5 94.7773L135 95.2773L138.5 90.7773L142 84.7773L142.5 80.2773L140 76.7773L136.5 76.2773L106.5 56.7773L61 73.7773L58 75.7773L56 78.7773L55.5 82.2773L57 88.2773L60 90.2773Z" fill="#E8C4AC"/>
<path d="M60 176.777L57.5 183.777L61.5 185.277L64.5 186.277L70 188.777L77 189.777L81.5 188.777L83 187.777L85.5 185.277L87.5 183.777V181.777L89.5 181.277L91 179.277L91.5 176.277L90 170.777L85.5 168.777L83 169.277L86 174.777L82.5 171.277L77.5 168.777L74 167.777L67.5 172.277L64 171.777L60 176.777Z" fill="#E8C4AC"/>
<path d="M135 172.277L132 170.777L122.5 169.777L116.5 169.277L109.5 172.777L106 180.277L106.5 181.777L108 182.277V183.277L108.5 184.277L111 184.777L113 183.277L114 185.277L116.5 185.777L118.5 184.277L121 186.277H122.5L128 182.777L132 183.777L141 181.277L139 176.777L135 172.277Z" fill="#E8C4AC"/>
<path d="M70.5 40.2773L65.5 75.7773H66L67 76.7773L68 79.7773L75.5 80.2773L84 79.2773L93.5 75.2773L101 68.2773L106.5 61.2773L113 68.2773L119 73.2773L128 78.2773L132 79.2773V80.2773L136 76.2773L137.5 66.2773L136.5 57.7773L133 46.7773L127.5 38.7773L120.5 33.2773L113 29.7773L107 28.7773L108.5 25.2773L110.5 18.2773L110 11.2773L106.5 6.27734L103 2.77734L96 0.777344H89.5L82.5 2.27734L76 6.27734L72.5 10.7773L70 16.2773L69 23.2773L69.5 26.7773L72.5 30.7773L77.5 34.2773L74.5 36.2773L70.5 40.2773Z" fill="#031F28"/>
<path d="M168 177.277H200" stroke="#031F28" stroke-linecap="round"/>
<path d="M28 177.277H0.5" stroke="#031F28" stroke-linecap="round"/>
<path d="M140.5 181.277C138.833 181.777 135.1 182.877 133.5 183.277C131.5 183.777 128.5 182.777 128 182.777C127.5 182.777 123.5 186.277 121.5 186.277C119.9 186.277 119.167 184.611 119 183.777" stroke="#031F28" stroke-linecap="round"/>
<path d="M124 178.277C122.167 180.444 118.2 184.877 117 185.277C115.5 185.777 113 185.277 113 183.277" stroke="#031F28" stroke-linecap="round"/>
<path d="M120 175.277C117.5 177.944 112.3 183.477 111.5 184.277C110.5 185.277 108 184.777 108 183.277C108 181.777 112.5 174.277 114.5 173.277" stroke="#031F28" stroke-linecap="round"/>
<path d="M108.5 181.777C107.833 182.111 106.4 182.477 106 181.277C105.5 179.777 109 173.277 110.5 172.277C112 171.277 115 169.277 119 169.277C123 169.277 128.5 171.277 132.5 170.777" stroke="#031F28" stroke-linecap="round"/>
<path d="M133.5 167.777L134 143.777" stroke="#031F28" stroke-linecap="round"/>
<path d="M131.5 170.277C133 170.777 136.5 172.577 138.5 175.777C141 179.777 141.5 184.777 141 185.277" stroke="#031F28" stroke-linecap="round"/>
<path d="M135.5 182.777C136.833 183.777 139.9 185.777 141.5 185.777C143.5 185.777 160 182.777 165 179.777C170 176.777 172 171.777 171 167.777C170 163.777 159 142.277 156 137.777C153 133.277 146 120.277 140 116.777C134 113.277 123.5 108.777 119.5 108.777" stroke="#031F28" stroke-linecap="round"/>
<path d="M134 152.777L141 164.777" stroke="#031F28" stroke-linecap="round"/>
<path d="M130.5 170.777C130.333 170.277 130.1 169.677 130.5 169.277C130.9 168.877 144 163.777 150.5 161.277" stroke="#031F28" stroke-linecap="round"/>
<path d="M65 186.777C62.8333 192.611 58.5 204.377 58.5 204.777C58.5 205.277 100 203.777 110.5 203.777C121 203.777 140.5 204.777 141 204.277C141.4 203.877 140.5 202.444 140 201.777" stroke="#031F28" stroke-linecap="round"/>
<path d="M91.5 176.277C96.5 176.277 106.7 176.277 107.5 176.277" stroke="#031F28" stroke-linecap="round"/>
<path d="M131.5 183.777C135 189.611 141.4 200.877 141 201.277C140.5 201.777 120.5 200.777 116.5 200.777C113.3 200.777 77.1667 201.777 59.5 202.277" stroke="#031F28" stroke-linecap="round"/>
<path d="M74 197.777C80.6667 197.611 94.6 197.277 97 197.277" stroke="#031F28" stroke-linecap="round"/>
<path d="M74.5 193.777C89.1667 192.944 120 191.477 126 192.277" stroke="#031F28" stroke-linecap="round"/>
<path d="M108 196.777H128.5" stroke="#031F28" stroke-linecap="round"/>
<path d="M96.5 189.777C104.5 189.444 121.2 188.877 124 189.277" stroke="#031F28" stroke-linecap="round"/>
<path d="M87.5001 110.777C86.1668 111.611 83.6001 114.077 84.0001 117.277C84.5001 121.277 88.5 126.777 99 127.277C109.5 127.777 119 121.277 113 111.277" stroke="#031F28" stroke-linecap="round"/>
<path d="M81.5 108.277C75.8333 109.111 63.5001 112.077 57.5001 117.277C50.0001 123.777 27.5001 155.777 26.0001 165.277C24.5001 174.777 27.0001 179.277 38.5001 183.277C50.0001 187.277 55.5 188.777 57 188.277C58.5 187.777 61 186.277 62 185.277" stroke="#031F28" stroke-linecap="round"/>
<path d="M57 188.277C57 184.277 58.9 174.977 66.5 169.777" stroke="#031F28" stroke-linecap="round"/>
<path d="M68 171.777C67.8333 171.111 67 169.577 65 168.777C63 167.977 51.5 163.111 46 160.777" stroke="#031F28" stroke-linecap="round"/>
<path d="M57 165.277L65 153.277" stroke="#031F28" stroke-linecap="round"/>
<path d="M65 148.777V168.777" stroke="#031F28" stroke-linecap="round"/>
<path d="M58 183.777C59.5 184.111 62.5 185.077 64.5 186.277C67 187.777 70.5 189.777 76 189.777C80.4 189.777 81.8333 188.444 82 187.777" stroke="#031F28" stroke-linecap="round"/>
<path d="M74 185.277C75.6667 186.277 79.6 188.177 82 187.777C84.4 187.377 85.3333 185.611 85.5 184.777" stroke="#031F28" stroke-linecap="round"/>
<path d="M74.5 180.277C77.1667 181.944 83.1 185.177 85.5 184.777C87.9 184.377 87.8333 182.611 87.5 181.777" stroke="#031F28" stroke-linecap="round"/>
<path d="M77 174.777C80.1667 177.111 86.9 181.777 88.5 181.777C90.5 181.777 90.5 178.277 86 174.277C81.5 170.277 76.5 167.777 74.5 167.777C72.5 167.777 68.5 172.277 67 172.277C65.8 172.277 65 171.944 64.5 171.777" stroke="#031F28" stroke-linecap="round"/>
<path d="M83 168.777C84.5 168.777 89.6 169.577 90 170.777C90.5 172.277 92.5 179.277 90 180.277" stroke="#031F28" stroke-linecap="round"/>
<path d="M87.5 183.777C88.5 185.111 90.7 187.777 91.5 187.777C92.3 187.777 93 187.277 93 186.277C93 185.277 90 180.277 90 180.277" stroke="#031F28" stroke-linecap="round"/>
<path d="M91.5 187.777L94 190.277L93 187.277" stroke="#031F28" stroke-linecap="round"/>
<path d="M86.4999 174.777C82.4999 168.11 74.1999 154.477 72.9999 153.277C71.4999 151.777 70.4999 151.777 68.9999 152.777C67.7999 153.577 74.4999 163.777 77.9999 168.777" stroke="#031F28" stroke-linecap="round"/>
<path d="M70.5 156.277L73.5 154.277" stroke="#031F28" stroke-linecap="round"/>
<path d="M97.5 104.777C99 105.111 102.5 105.577 104.5 104.777" stroke="#031F28" stroke-linecap="round"/>
<path d="M132 81.7773C132.5 79.944 134.3 76.2773 137.5 76.2773C141.5 76.2773 143.5 80.7773 142 84.7773C140.8 87.9773 139.167 89.7773 138.5 90.2773" stroke="#031F28" stroke-linecap="round"/>
<path d="M67.9999 82.7776C68.1666 81.1109 67.8999 77.2776 65.4999 75.2776C62.4999 72.7776 58.4999 74.2776 56.4999 77.7776C54.4999 81.2776 55.4999 88.2773 60.4999 90.7773C64.4999 92.7773 67.5 93.6107 68.5 93.7773C69 95.7773 71 101.077 75 104.277C80 108.277 86.3675 109.961 87 110.277C88 110.777 89.5 114.277 85.5 116.277" stroke="#031F28" stroke-linecap="round"/>
<path d="M61 80.2773C62.1667 80.444 64.2 81.8773 63 86.2773" stroke="#031F28" stroke-linecap="round"/>
<circle cx="64" cy="93.7773" r="4.5" fill="#FFEB53" stroke="#031F28"/>
<circle cx="135" cy="93.7773" r="4.5" fill="#FFEB53" stroke="#031F28"/>
<path d="M68 79.2773C68.8333 79.944 72.5 80.9773 80.5 79.7773C90.5 78.2773 96.2404 73.0369 99.5 69.7773C103.5 65.7773 106.5 61.2773 106.5 61.2773C106.5 61.2773 113.4 68.9773 117 71.7773C121.5 75.2773 128 78.7773 132 79.2773" stroke="#031F28" stroke-linecap="round"/>
<path d="M69 41.7775C69.6667 40.9441 71.6 38.7775 74 36.7775C76.4 34.7775 77.6667 34.2775 78 34.2775C75 33.1108 69 29.4775 69 24.2775C69 17.7775 71 8.27746 80.5 3.27746C90 -1.72254 102.5 0.277461 107.5 7.27746C112.5 14.2775 110 20.7773 109 23.7773C108.2 26.1773 107 28.1107 106.5 28.7773C109.667 28.7773 117.9 30.4773 125.5 37.2773C135 45.7773 140 62.7773 136 76.2773" stroke="#031F28" stroke-linecap="round"/>
<path d="M137.5 80.7773C136.5 81.944 134.9 84.6773 136.5 86.2773" stroke="#031F28" stroke-linecap="round"/>
<path d="M112.5 78.2773C113.167 77.444 115.172 76.2773 118 76.2773C120.5 76.2773 122.5 77.4442 123 77.7776" stroke="#031F28" stroke-linecap="round"/>
<path d="M112.5 90.2773C114.5 90.444 119.4 90.5773 123 89.7773" stroke="#031F28" stroke-linecap="round"/>
<path d="M132 78.7773C131.667 85.1107 130.857 95.2773 127 101.277C123.559 106.631 120 108.777 116 110.277C112 111.777 111 111.277 110.5 112.277C110 113.277 109.5 118.277 112.5 117.777" stroke="#031F28" stroke-linecap="round"/>
<path d="M119 91.7772C119 92.8818 117.881 94.2772 116.5 94.2772C115.119 94.2772 114 92.8818 114 91.7772C114 90.2772 115.119 90.2773 116.5 90.2773C117.881 90.2773 119 90.0429 119 91.7772Z" fill="#031F28"/>
<path d="M83 90.7879C83 91.8925 84.1193 93.2879 85.5 93.2879C86.8807 93.2879 88 91.8925 88 90.7879C88 89.2879 86.8807 89.2881 85.5 89.2881C84.1193 89.2881 83 89.0536 83 90.7879Z" fill="#031F28"/>
<path d="M91.5 78.2773C91.3333 77.944 90.7 77.2773 89.5 77.2773" stroke="#031F28" stroke-linecap="round"/>
<path d="M100.5 94.7773C101.667 94.7773 103.7 95.3773 102.5 97.7773" stroke="#031F28" stroke-linecap="round"/>
<path d="M90.5 89.7773C87.8333 89.7773 81.8 89.4773 79 88.2773" stroke="#031F28" stroke-linecap="round"/>
<path d="M78.2034 49.5882C79.175 50.5105 81.1696 52.7446 81.9672 55.5015C82.3695 56.8924 82.4727 58.4355 81.9662 60.0083C81.4591 61.583 80.3577 63.1338 78.4461 64.5675C76.1942 66.2567 74.0425 66.4751 72.1076 65.7709C70.2204 65.084 68.6144 63.5473 67.3285 61.8802C66.0352 60.2032 65.0196 58.333 64.3294 56.8915C63.9834 56.1688 63.7173 55.5492 63.5372 55.1095C63.451 54.8991 63.3845 54.7297 63.3383 54.6095L62.8902 54.3583L63.3557 53.8176C64.3898 52.6146 65.8334 51.7538 67.3736 51.1341C68.9177 50.5129 70.5944 50.1189 72.1329 49.8681C73.6735 49.617 75.0909 49.5076 76.1222 49.4603C76.638 49.4366 77.0587 49.4284 77.3515 49.4263C77.498 49.4252 77.613 49.4259 77.6916 49.4266C77.7307 49.427 77.7609 49.4275 77.7816 49.4278C77.792 49.428 77.8005 49.428 77.8061 49.4281C77.8088 49.4282 77.8111 49.4284 77.8126 49.4284L77.814 49.4281L77.8148 49.4285L78.0402 49.434L78.2034 49.5882Z" fill="#FFFCE4" stroke="#031F28" stroke-width="1.16784"/>
<path d="M66.6948 58.7491C68.4515 60.3111 70.4363 61.8181 72.8076 62.3592C75.1408 62.893 78.2678 62.3374 80.1337 60.6666C80.9033 59.9718 81.4339 59.1009 81.7596 58.1432C81.6674 60.0905 80.7064 62.1561 78.0964 64.0996C72.374 68.3806 67.5492 61.7198 65.289 57.44C65.7558 57.9129 66.2468 58.343 66.6841 58.7431L66.6948 58.7491Z" fill="#FFEB53"/>
<path d="M63.8097 54.2044C63.8097 54.2044 70.1235 64.7126 73.8307 58.1756C75.769 54.7434 66.7824 52.8443 63.8097 54.2044Z" fill="#FFEB53"/>
<path d="M72.0448 40.0673C73.3437 40.4392 74.642 41.0987 75.7351 42.2057C76.8302 43.3146 77.6935 44.8466 78.1596 46.9214L78.247 47.3645C78.616 49.5416 77.9614 51.1685 76.6956 52.3243C75.3906 53.5158 73.4947 54.1539 71.6285 54.4969C69.7473 54.8426 67.8138 54.903 66.3598 54.8782C65.6311 54.8658 65.0181 54.8315 64.5862 54.8008C64.3701 54.7854 64.1982 54.7711 64.0805 54.7602C64.0218 54.7548 63.9759 54.75 63.9447 54.7468C63.9293 54.7452 63.9168 54.7442 63.9086 54.7433C63.9047 54.7429 63.9017 54.7418 63.8995 54.7416C63.8984 54.7415 63.8975 54.7424 63.8968 54.7423L63.896 54.7418C63.8957 54.7418 63.8953 54.7411 63.9598 54.1607L63.8951 54.7414L63.582 54.7069L63.4396 54.4255C61.9885 51.5695 62.4911 47.981 63.2808 45.2154C63.6808 43.8148 64.1655 42.5854 64.5501 41.7073C64.7426 41.2679 64.9112 40.915 65.0316 40.6708C65.0917 40.5488 65.1394 40.4536 65.1731 40.3885C65.1899 40.3558 65.2038 40.3307 65.2129 40.3134C65.2174 40.3049 65.2206 40.298 65.2231 40.2933L65.2274 40.2857L65.2278 40.2848L65.3534 40.0529L65.6098 39.9929C66.8359 39.7086 69.4649 39.3287 72.0448 40.0673Z" fill="#FFFCE4" stroke="#031F28" stroke-width="1.16784"/>
<path d="M73.0652 51.9314C74.3907 51.2246 75.9368 49.5715 76.1639 47.911C76.409 46.2183 76.2598 44.7269 75.8663 43.1689C76.6128 44.1224 77.2125 45.3878 77.5901 47.0494C79.0252 53.4287 71.2706 54.3039 66.8016 54.2901C69.2725 53.7749 71.6836 52.6632 73.0652 51.9314Z" fill="#FFEB53"/>
<path d="M63.9591 54.1616C63.9591 54.1616 75.4156 53.3628 71.3909 47.6855C69.1751 44.5569 63.8831 51.0078 63.9591 54.1616Z" fill="#FFEB53"/>
<path d="M61.669 38.2907C63.9023 38.9678 65.2678 40.2743 66.0033 41.8963C66.7732 43.5943 66.8241 45.5742 66.5853 47.4062C66.3455 49.2462 65.805 50.9982 65.329 52.2829C65.0904 52.9272 64.8663 53.4586 64.7014 53.8298C64.6189 54.0155 64.5514 54.1617 64.5038 54.2621C64.4801 54.3122 64.4611 54.3508 64.4481 54.3775C64.4416 54.3907 64.4366 54.4011 64.4331 54.4082L64.4269 54.4193L64.4272 54.4206L64.2834 54.7072L63.964 54.7397C60.3688 55.1044 56.4326 53.1802 53.4778 51.2656C51.9833 50.2972 50.7052 49.3079 49.8012 48.5616C49.3489 48.1883 48.9889 47.875 48.7415 47.6541C48.618 47.5438 48.5225 47.4564 48.4573 47.3962C48.4246 47.3661 48.3994 47.3422 48.3823 47.3262C48.3738 47.3182 48.3672 47.3116 48.3627 47.3073C48.3605 47.3053 48.3589 47.3034 48.3577 47.3023L48.3551 47.3008L48.1426 47.0988L48.1774 46.8071C48.3432 45.4255 48.9883 42.6313 50.9116 40.4885C51.882 39.4074 53.178 38.4932 54.8874 38.0198C56.5938 37.5474 58.6767 37.5234 61.2107 38.1637L61.669 38.2907Z" fill="#FFFCE4" stroke="#031F28" stroke-width="1.16784"/>
<path d="M63.9604 54.0343C64.591 49.1932 65.6381 43.6847 61.6671 40.121C60.8078 39.3437 59.7642 38.7445 58.6197 38.2999C59.3697 38.3684 60.1766 38.5111 61.0571 38.7232C69.9506 40.9642 64.6373 52.6259 63.9604 54.0343Z" fill="#FFEB53"/>
<path d="M63.9045 54.1585C63.9045 54.1585 66.7998 43.5202 59.5619 44.6288C55.1595 45.2999 60.531 53.0696 63.9045 54.1585Z" fill="#FFEB53"/>
<path d="M57.0525 49.5227C59.0521 50.2881 60.8475 51.3214 62.1384 52.1591C62.7853 52.5789 63.309 52.9517 63.6718 53.2203C63.8531 53.3546 63.9945 53.463 64.0913 53.5384C64.1397 53.576 64.1766 53.6059 64.2021 53.6263C64.2148 53.6363 64.2248 53.644 64.2316 53.6495C64.2351 53.6523 64.2381 53.6549 64.2401 53.6565L64.2435 53.6584C64.2436 53.6587 64.2373 53.6654 63.9533 54.0141L64.458 54.1884C64.1968 55.9067 63.2474 57.6073 62.0318 59.1649C60.8106 60.7295 59.2842 62.1964 57.8032 63.4523C56.3199 64.71 54.8682 65.7668 53.789 66.5085C53.2493 66.8794 52.8017 67.1727 52.488 67.3733C52.331 67.4737 52.2071 67.5514 52.1225 67.6039C52.0802 67.6301 52.0475 67.65 52.0252 67.6636C52.0141 67.6704 52.0054 67.6759 51.9995 67.6794C51.9966 67.6812 51.9943 67.6825 51.9928 67.6835L51.991 67.6847L51.9901 67.6842L51.9896 67.6851L51.7862 67.8084L51.554 67.7532C49.8863 67.3589 46.3244 66.1301 44.0945 63.6472C42.9642 62.3887 42.1628 60.7925 42.1494 58.8252C42.1362 56.8673 42.9039 54.6185 44.7576 52.0463L45.0678 51.6369C46.6456 49.6593 48.6016 48.7351 50.6538 48.4969C52.8179 48.2457 55.0583 48.7594 57.0525 49.5227Z" fill="#FFFCE4" stroke="#031F28" stroke-width="1.16784"/>
<path d="M59.1034 52.1265C55.9497 51.2734 52.516 50.6435 49.1256 51.7693C45.8689 52.8575 45.0024 53.6246 43.4913 55.4662C43.8839 54.4898 44.4437 53.4662 45.2267 52.3708C50.2991 45.3322 59.5051 50.958 62.7284 53.2438C61.4734 52.695 59.9994 52.3613 59.0927 52.1205L59.1034 52.1265Z" fill="#FFEB53"/>
<path d="M63.8748 54.1114C63.8748 54.1114 53.1561 48.2709 52.289 55.6682C51.7523 60.2663 61.9557 56.9067 63.8748 54.1114Z" fill="#FFEB53"/>
<path d="M64.1029 53.6592C65.6432 54.3665 66.9805 55.6363 68.1126 57.0929C69.2486 58.5545 70.2059 60.2405 70.9756 61.8272C71.7462 63.4159 72.3356 64.9194 72.732 66.0251C72.9304 66.5785 73.0808 67.0336 73.1821 67.3511C73.2327 67.5099 73.2708 67.6345 73.2966 67.7199C73.3096 67.7625 73.3199 67.7958 73.3265 67.8183C73.3297 67.8292 73.3319 67.8377 73.3336 67.8436C73.3345 67.8466 73.3359 67.8491 73.3364 67.8507L73.3363 67.8529L73.3371 67.8534L73.4017 68.0777L73.2935 68.2846C72.5508 69.7125 70.5128 72.8787 67.5119 74.6032C65.9961 75.4742 64.2146 75.9881 62.2321 75.6993C60.2521 75.4109 58.142 74.3326 55.9478 72.1491C53.7811 69.9935 53.1566 67.6965 53.5072 65.4752C53.8512 63.2958 55.122 61.2588 56.6001 59.5391C58.0849 57.8117 59.8231 56.3528 61.1822 55.3301C61.8634 54.8176 62.4537 54.412 62.8741 54.1336C63.084 53.9946 63.2518 53.8869 63.368 53.8138C63.3855 53.8028 63.4024 53.7927 63.4176 53.7833L63.6134 53.4341L64.1029 53.6592Z" fill="#FFFCE4" stroke="#031F28" stroke-width="1.16784"/>
<path d="M57.1234 63.7439C56.5642 67.0765 56.9547 72.1803 59.9055 74.2992C58.7543 73.7664 57.5732 72.9353 56.3708 71.7403C50.706 66.1008 56.8533 59.5804 60.8147 56.3815C60.7092 56.5194 60.6145 56.6633 60.5137 56.818C58.832 58.6625 57.585 60.9619 57.1294 63.7332L57.1234 63.7439Z" fill="#FFEB53"/>
<path d="M63.8533 54.2009C63.8533 54.2009 54.2319 62.7998 62.1224 65.3231C66.5526 66.737 66.0488 56.7129 63.8533 54.2009Z" fill="#FFEB53"/>
</svg>
